<svg xmlns="http://www.w3.org/2000/svg" viewBox="0 0 800 800" xml:space="preserve"><path fill="#58DD00" d="M125.646 655.63c14.574 1.63 29.148 3.259 44.447 5.045 1.267.15 1.81.142 2.354.134 14.793 1.972 29.586 3.943 45.07 5.98a38.06 38.06 0 0 0 2.182.085 4531.703 4531.703 0 0 0 27.01 4.023c10.636 1.686 20.438 3.35 30.257 4.91 11.124 1.766 22.263 3.438 33.717 5.345 4.045.928 7.761 1.703 11.494 2.386 11.873 2.175 23.752 4.315 35.934 6.711 2.082.534 3.86.826 5.972 1.308 5.203 1.026 10.071 1.86 15.242 2.913 1.611.434 2.944.555 4.225.88 33.438 8.467 67.032 16.374 100.268 25.574C538.1 735.95 590.764 755.393 640.41 782.31c10.49 5.688 20.408 12.432 30.589 18.69H1c0-51.354 0-102.708.426-154.609 2.433-.557 4.442-.569 6.914-.524 18.194 1.108 35.924 2.158 53.912 3.532 4.768.678 9.277 1.034 14.191 1.462 2.03.086 3.656.1 5.668.257 2.595.333 4.803.524 7.395.776 2.42.284 4.456.505 6.923.834 2.798.168 5.165.227 7.845.51 2.39.362 4.467.501 6.97.728 5.084.613 9.743 1.139 14.402 1.665z"/><path fill="#3C9203" d="M671.469 801c-10.65-6.258-20.568-13.002-31.058-18.69-49.647-26.917-102.31-46.36-156.593-61.386-33.236-9.2-66.83-17.107-100.268-25.574-1.281-.325-2.614-.446-3.84-.987 19.066-4.414 38.048-8.501 57.424-12.665 3.214-.69 6.035-1.303 9.248-1.91 1.353-.223 2.307-.483 3.275-.675 13.536-2.685 27.075-5.361 40.999-7.996 2.673-.348 4.96-.74 7.66-1.143 3.922-.729 7.433-1.446 10.944-2.163 4.969-.825 9.938-1.65 15.683-2.632 9.886-1.498 19.003-2.791 28.103-4.19 10.725-1.65 21.436-3.39 32.153-5.09 3.74-.326 7.481-.652 12.002-1.055 5.081-.705 9.382-1.333 13.683-1.96 2.21-.3 4.421-.6 7.443-.893 6.922-.752 13.033-1.51 19.145-2.268 3.015-.297 6.03-.593 9.852-.922 9.077-.96 17.349-1.889 26.05-2.805 2.883-.262 5.335-.537 8.233-.8 5.028-.395 9.608-.803 14.58-1.184 1.425-.007 2.458-.04 3.49-.073 16.582-.937 33.16-1.918 49.745-2.783 5.145-.269 10.305-.22 16.313-.307 1.392-.034 1.929-.079 2.902-.112 11.079.428 21.72.846 32.363 1.263v159H671.469z"/><path fill="#F8B03A" d="M76.038 650.789c-4.51-.356-9.018-.712-13.42-1.455 3.137-1.378 6.623-2.541 5.915-6.361-.294-1.592-3.363-3.773-5.202-3.805-16.907-.294-33.82-.232-50.731-.139-4.618.026-5.832 1.988-4.724 6.782-2.008.011-4.017.023-6.45.112C1 599.979 1 553.958 1 507.469c16.05-.462 32.102-.443 48.153-.469 1.465-.002 2.93-.289 5.187-.713 7.325-.248 13.858-.226 20.708-.051.908 1.605 1.5 3.058 2.042 4.94-.074 1.863-.1 3.299-.187 5.205.007 5.155.074 9.839.118 14.977.009 2.577.041 4.7-.019 7.268-.003 5.318.088 10.193.118 15.517-.092 2.556-.125 4.662-.224 7.238-.003 5.171.06 9.872.105 15 0 1.85.017 3.273-.06 5.149-.058 5.16-.022 9.867.016 14.997.046 1.832.09 3.241.037 5.094.004 5.312.105 10.18.143 15.5-.1 2.568-.136 4.683-.236 7.269-.003 5.168.057 9.867.098 14.979-.028 1.792-.037 3.171-.337 4.817-.401 2.38-.513 4.491-.624 6.603M38.5 598.707c7.817 0 15.634-.023 23.451.008 3.445.014 6.795-.647 6.784-4.766-.011-4.14-3.422-4.734-6.83-4.732-15.967.01-31.935.014-47.902-.001-3.423-.003-6.826.58-6.78 4.748.046 4.069 3.357 4.776 6.825 4.755 7.817-.046 15.635-.013 24.452-.012m-26.466 22.258c-3.101.26-5.665 1.916-4.584 4.963.643 1.813 3.78 3.84 5.834 3.88 16.15.317 32.31.164 48.466.189 3.369.005 6.873-.285 6.972-4.522.102-4.404-3.49-4.535-6.82-4.532-16.323.015-32.646.008-49.868.022m52.661-96.73c-17.154-.025-34.308-.033-51.461-.09-3.221-.011-5.913 1.008-5.994 4.51-.084 3.605 2.63 4.523 5.855 4.515 16.655-.042 33.312.08 49.963-.162 1.886-.028 3.743-1.986 5.613-3.05-1.052-1.846-2.104-3.693-3.976-5.722M33.5 573.749c-6.655.001-13.311.036-19.966-.011-3.302-.024-6.418.625-6.295 4.588.119 3.846 3.218 4.477 6.522 4.468 16.14-.044 32.279-.042 48.418-.002 3.294.008 6.437-.643 6.54-4.457.118-4.364-3.405-4.603-6.765-4.593-9.151.027-18.303.008-28.454.007m28.562-8.944c3.304.196 6.52-.608 6.492-4.333-.011-1.561-2.883-4.42-4.495-4.45-17.471-.318-34.952-.287-52.425-.014-1.515.023-4.342 2.639-4.188 3.708.262 1.812 2.211 3.615 3.86 4.894.845.656 2.576.192 3.906.193 15.314.006 30.628.003 46.85.002m-51.774 49.082c17.64.072 35.28.138 52.92.222 3.017.015 5.55-.96 5.528-4.31-.023-3.524-2.63-4.661-5.843-4.66-16.646.005-33.294-.085-49.938.125-1.805.023-4.456 1.368-5.122 2.827-.59 1.294 1.035 3.6 2.455 5.796m11.243-64.879c12.8 0 25.6.033 38.398-.02 3.702-.015 8.737.95 8.695-4.635-.04-5.193-4.867-4.373-8.445-4.404-6.15-.053-12.3-.015-18.45-.015-9.31 0-18.618.033-27.926-.014-3.28-.016-6.44.602-6.537 4.44-.096 3.851 2.972 4.711 6.3 4.653 2.326-.04 4.654-.006 7.965-.005z"/><path fill="#249C9D" d="M765.832 564.892c-1.202.426-2.503.68-3.59 1.305-8.942 5.14-19.147 4.034-26.131-2.909-6.858-6.817-8.176-17.143-3.455-25.686 3.976-7.197 14.868-13.095 23.929-9.908 1.088.383 3.562-.637 4.121-1.686 4.246-7.961 10.428-11 17.207-8.461 7.054 2.642 11.483 11.198 7.801 18.351-.212.412-.14.97-.256 1.92 6.733 1.15 11.986 4.534 15.216 11.072.326 3.803.326 7.496 0 11.76-5.751 10.079-12.13 12.678-22.615 9.763-1.214-.337-2.56-.2-3.984-.627-1.54-2.596-2.941-4.846-4.342-7.097-.613.394-1.227.788-2.141 1.212-.787.35-1.274.67-1.76.991z"/><path fill="#FEFFFF" d="M774.215 570.131c1.284.083 2.63-.055 3.844.282 10.484 2.915 16.864.316 22.616-9.302.325 26.577.325 53.264.325 80.42-10.642.052-21.284-.366-32.362-1.238a1857.819 1857.819 0 0 1-.004-67.21c2.11-.986 3.845-1.969 5.58-2.952z"/><path fill="#55C8B7" d="M436.74 681.774a49578.748 49578.748 0 0 0-57.332 12.37c-5.254-.727-10.122-1.561-15.28-3.09-.277-69.759-.26-138.822-.263-207.885 0-1.322-.21-2.643-.211-4.418.091-3.169.07-5.885.193-8.994.769-2.254 1.395-4.113 2.22-6.152 3.948-4.598 8.702-6.884 14.867-6.883 1.95.053 3.544.052 5.138.051 5.214.211 10.428.422 16.4.357 6.912-.252 13.071-.359 19.221-.168 7.234.225 12.996 5.136 14.386 12.244.506 2.586.601 5.284.603 7.931.042 68.213.047 136.425.058 204.637m-52.667-22.805c2.009-.281 4.018-.563 6.083-1.77.002-2.485-.05-4.972.017-7.455.162-5.941-.135-6.195-7.156-4.947.253 4.433.513 8.977 1.056 14.172m5.703 20.239c.33-3.697.664-7.394.987-11.091.23-2.616-.728-3.954-3.603-3.993-2.965-.04-4.27 1.038-4.043 4.057.148 1.967.234 3.98-.015 5.926-.608 4.748 1.415 6.397 6.674 5.1m.99-136.386c.208-2.809-.28-4.76-3.887-4.744-3.729.015-3.832 2.205-3.75 4.884.067 2.14.104 4.29-.006 6.427-.139 2.683.421 4.366 3.692 4.43 3.552.07 4.146-1.776 3.97-4.66-.11-1.806-.02-3.624-.02-6.337m21.45.002c.001 2.306.12 4.62-.025 6.916-.19 3.003 1.09 4.106 4.059 4.062 2.888-.043 3.713-1.416 3.596-4.017-.11-2.466-.072-4.941-.007-7.41.062-2.384-.256-4.222-3.341-4.262-2.755-.035-4.563.618-4.282 4.711m-21.45 65.71c-.453-3.137 1.87-7.928-4.623-7.393-4.044.333-3.338 3.455-2.858 5.502.79 3.367-3.145 8.637 2.802 9.925 6.302 1.365 4.307-3.918 4.68-8.035m21.45 59.395c0 2.663.087 5.33-.024 7.988-.115 2.774 1.068 3.86 3.845 3.856 2.79-.004 3.935-1.121 3.812-3.886-.118-2.657.227-5.359-.133-7.972-.18-1.304-1.286-3.26-2.31-3.504-2.067-.49-4.925-1.055-5.19 3.518m-26.475-177.21c3.929.62 5.44-1.072 5.067-4.976-.235-2.45.196-4.978-.165-7.399-.169-1.132-1.359-2.756-2.344-2.97-1.41-.306-3.411.026-4.519.899-1.678 1.323-.56 12.128 1.961 14.446m-2.186 5.642c-.136 3.607-.213 7.217-.428 10.82-.174 2.901 1.312 3.649 3.92 3.67 2.794.022 3.886-1.166 3.739-3.875-.108-1.972-.014-3.955-.021-5.933-.022-6.034-.382-6.32-7.21-4.682m28.66-11.08c.068 2.588-.683 5.454 3.644 5.54 4.606.092 3.96-2.915 3.965-5.72.003-1.83-.069-3.664.017-5.49.124-2.658-.343-4.504-3.698-4.51-3.141-.004-4.143 1.393-3.947 4.272.112 1.657.02 3.328.02 5.908m5.986 90.62 2.309-14.524h-7.954v14.596c1.838 0 3.304 0 5.645-.073m-5.773 49.15c-.083 2.648-.227 5.295-.237 7.943-.026 6.601.475 6.948 7.164 5.225.126-.298.355-.593.363-.894.07-2.485.129-4.971.132-7.457.007-6.469-.025-6.485-7.422-4.816m6.634-29.37 1.051-14.231h-7.588V596c2.125 0 3.913 0 6.537-.322m-35.92-7.168v7.097c7.613.88 7.613.88 7.622-5.694.002-1 .004-1.999 0-2.998-.027-6.226-.507-6.579-7.621-5.094v6.689m0-16.299c-.456 3.283 1.438 4.425 4.104 3.606 1.4-.43 3.172-2.2 3.352-3.554.47-3.545.158-7.195.158-10.862h-7.615v10.81m29.073 78.43v7.971h7.24v-14.065c-6.892-.944-7.076-.803-7.24 6.094m-21.45-18.236c-.001-9.088-.074-9.17-7.243-7.856v13.925c6.835.945 7.062.772 7.242-6.07m28.033-102.222c.325-3.539.978-7.095.798-10.609-.065-1.256-1.954-3.05-3.35-3.468-2.46-.738-4.101.55-3.988 3.44.077 1.983.166 3.987-.024 5.955-.439 4.522 1.458 6.163 6.564 4.682m-17.303-55.026c-1.156.966-3.14 1.809-3.308 2.924a32.008 32.008 0 0 0-.006 9.35c.183 1.23 2.243 3.243 3.079 3.074 1.387-.281 3.3-1.897 3.523-3.201.519-3.044.37-6.258.045-9.355-.106-1.003-1.606-1.86-3.333-2.792m12.365 141.602c1.743-.527 4.895-.867 4.994-1.612.532-4 .445-8.108.193-12.155-.04-.647-2.006-1.642-3.066-1.622-1.025.02-2.876 1.105-2.905 1.784-.186 4.366.03 8.75.784 13.605m-8.961-8.283v-6.885h-6.806c0 4.313-.213 8.285.136 12.206.099 1.11 2.03 3.041 2.789 2.893 1.414-.275 3.02-1.564 3.729-2.873.627-1.16.144-2.92.152-5.34m0-65.768c.594-5.55-2.742-4.818-6.808-3.93 0 3.969-.207 7.925.127 11.835.1 1.17 2.162 3.282 2.559 3.118 1.536-.638 3.5-1.79 3.933-3.179.66-2.121.183-4.596.19-7.844m.048 21.103c-.604-4.976-3.944-2.241-6.494-2.623v14.345h6.502c0-3.878 0-7.336-.008-11.722m-6.928 26.585.248 5.291h6.37V581.54h-6.618v8.856m6.93 56.447c-.732-4.914-4.026-2.071-6.207-2.475-.315.655-.57.942-.577 1.235-.072 2.813-.147 5.628-.137 8.442.02 5.516.786 5.98 6.927 3.967 0-3.325 0-6.787-.006-11.169m-1.718-116.037 2.356-14.884-7.512.364c0 3.875.21 7.199-.057 10.484-.28 3.447 1.19 4.537 5.213 4.036m-18.34-14.686-2.313 14.242c7.747.835 7.738.835 7.587-5.426-.04-1.655-.155-3.328.025-4.964.384-3.487-1.367-4.41-5.3-3.852M404.9 634.292v-9.922h-6.455v14.284c3.077-.012 6.697 1.944 6.455-4.362m-.077 31.871c-1.677-.585-3.376-1.613-5.021-1.534-.637.03-1.538 2.539-1.646 3.969-.247 3.258-.078 6.548-.078 10.08h6.809c0-4.071 0-7.854-.064-12.515m10.695-170.11c-2.44-.265-3.743.577-3.504 3.283.16 1.8.026 3.625.029 5.44.01 6.931.056 6.96 6.934 4.207 0-3.207.215-6.518-.117-9.774-.115-1.121-1.592-2.104-3.342-3.157m-13.23.028c-1.394.698-3.896 1.272-3.99 2.116-.433 3.858-.19 7.791-.19 11.766h7.526c-.874-4.916-1.667-9.377-3.346-13.882z"/><path fill="#E8CB62" d="M509.256 667.354a42.793 42.793 0 0 1-10.957 2.156c-.431-3.932-.493-7.413-.42-10.892.06-2.955-1.724-4.08-4.1-3.394-1.411.408-3.303 2.144-3.435 3.439-.416 4.097-.104 8.268-.074 12.41-13.538 2.679-27.077 5.355-40.613 8.04-.968.192-1.922.452-3.269.223-.434-19.468-.482-38.477-.482-57.94-.009-5.671-.066-10.888-.052-16.558.057-2.283.043-4.113.067-6.402-.026-5.678-.091-10.898-.08-16.596-.008-2.082-.094-3.686-.052-5.704.09-5.905.053-11.397.082-17.355.03-2.973-.003-5.48.04-8.432-.034-5.925-.145-11.404-.153-17.345.1-2.034.096-3.607.163-5.629-.042-5.935-.154-11.42-.165-17.365.107-2.02.112-3.58.182-5.596.043-5.77.023-11.088.031-16.87-.07-2.957-.169-5.45-.156-8.365.068-5.92.026-11.418.046-17.384.033-2.98.003-5.493.057-8.45.056-5.728.028-11.013.036-16.741-.016-2.225-.067-4.006-.04-6.233.411-5.751.744-11.056 1.351-16.557 1.102-2.07 1.929-3.944 2.748-5.814-.008.003-.016.018.338.007 3.11-1.608 5.867-3.205 9.057-4.821 2.687-.209 4.939-.4 7.672-.483 5.71.111 10.937.117 16.164.123 2.408.362 4.812 1.008 7.225 1.04 12.06.162 18.762 6.786 18.764 18.881.018 81.384.016 162.767.025 244.607M497.87 540.181c0-2.318-.102-4.642.024-6.953.162-2.953-1.032-4.185-4.054-4.16-2.881.023-3.788 1.353-3.687 3.986.095 2.48.06 4.967.01 7.45-.049 2.356.183 4.3 3.31 4.337 2.699.032 4.649-.492 4.397-4.66m-29.494 10.243c-5.62-2.477-7.186-1.57-7.226 4.2-.015 2.145.085 4.296-.023 6.437-.138 2.74 1.015 3.844 3.786 3.841 2.719-.002 3.975-1.005 3.876-3.78-.117-3.298-.09-6.6-.413-10.698m29.495 9.768c0-2.32-.112-4.645.024-6.956.178-3.024-1.15-4.114-4.113-4.086-2.916.026-3.732 1.438-3.629 4.038.099 2.481.063 4.97.007 7.453-.053 2.386.251 4.257 3.368 4.28 2.752.02 4.6-.609 4.343-4.73m-7.29 46.424c5.593 2.481 7.238 1.53 7.287-4.235.018-2.154-.074-4.31.018-6.46.117-2.762-1.128-3.834-3.862-3.85-2.737-.015-3.974 1.027-3.87 3.808.124 3.309.092 6.623.427 10.737m-.3 19.23c1.978.598 3.945 1.5 5.943 1.576.497.018 1.416-2.604 1.574-4.073.264-2.452-.016-4.958.094-7.434.126-2.863-1.308-3.712-3.945-3.73-2.757-.017-3.915 1.094-3.8 3.853.123 2.972.038 5.953.133 9.809m4.136-202.627c-2.835-.266-4.428.728-4.27 3.872.131 2.643.103 5.3.007 7.946-.098 2.693.96 3.933 3.773 3.91 2.656-.021 4.051-.925 3.959-3.754-.092-2.812.244-5.666-.14-8.427-.175-1.263-1.626-2.348-3.33-3.547M467.079 592.33c-4.548-1.003-6.55.663-5.974 5.43.257 2.119-.319 4.384.176 6.413.33 1.352 1.987 3.448 2.868 3.362 1.578-.155 4.232-1.628 4.3-2.686.254-4.013-.348-8.08-1.37-12.519m-.012-90.66c.408-4.533.995-9.066 1.006-13.6.001-.595-2.961-1.637-4.537-1.611-.808.013-2.103 1.851-2.27 2.998-.354 2.43.08 4.965-.162 7.423-.39 3.98 1.25 5.546 5.963 4.79m-4.998 42.544c5.322.92 6.412.192 6.675-4.703.123-2.303.457-4.74-.137-6.885-.38-1.375-2.11-2.935-3.538-3.338-2.463-.696-4.082.56-3.932 3.464.187 3.61.255 7.227.932 11.462M490.18 645.14c1.191 5.194 4.573 2.28 7.318 2.34v-14.097h-7.325c0 3.916 0 7.377.007 11.757m3.39-186.16c4.205-.434 5.932-4.97 4.195-12.554-1.067-4.657-4.528-1.912-7.567-2.091 0 4.361-.142 8.318.113 12.25.054.841 1.545 1.59 3.258 2.396m3.513 5.482c-6.598-.949-6.888-.713-6.91 5.63-.005 1.648.122 3.309-.028 4.944-.267 2.922.756 4.123 3.872 4.109 3.099-.014 4.09-1.2 3.888-4.128-.226-3.281-.197-6.58-.822-10.555m.736 46.533c-1.786-.628-3.543-1.553-5.371-1.727-.658-.063-2.075 1.645-2.137 2.609-.249 3.885-.103 7.796-.103 11.568 7.57 1.297 7.656 1.227 7.663-5.616.002-1.98-.005-3.958-.052-6.834m.045 63.888c-.01-3.881-3.003-3.03-4.976-2.66-1.065.199-2.471 2.04-2.581 3.245-.337 3.7-.123 7.451-.123 11.057 7.667 1.132 7.682 1.12 7.688-5.783.001-1.65 0-3.3-.008-5.86M461.19 445.96c-.015 2.973.026 5.947-.06 8.917-.07 2.36.056 4.163 3.286 4.157 3.185-.006 4.61-1.115 4.38-4.345-.13-1.807-.003-3.632-.026-5.448-.073-5.589-1.808-6.556-7.58-3.28m-.043 177.22c-.219 2.828.3 4.77 3.906 4.737 3.754-.034 3.804-2.297 3.728-4.948-.043-1.486-.003-2.974-.008-4.46-.02-6.178-.413-6.457-7.626-4.89v9.562m7.21-197.913-7.207-1.786c0 4.663.082 8.117-.026 11.565-.085 2.742 1.03 3.883 3.815 3.875 2.76-.009 3.958-1.116 3.849-3.866-.118-2.982-.098-5.97-.43-9.788m-6.259 39.34-1.253 14.128c4.239.184 7.827 1.767 7.991-3.95.305-10.594.35-10.801-6.738-10.178m3.188 183.346c1.152-1.272 2.954-2.388 3.307-3.853.564-2.337.09-4.91.19-7.377.128-3.147-1.582-3.787-4.344-3.85-3.203-.073-3.386 1.737-3.31 4.113.083 2.634-.312 5.336.172 7.88.225 1.186 2.034 2.07 3.985 3.087m3.464 10.087c-.284-3.586-3.084-3.342-5.144-2.686-1.129.36-2.202 2.543-2.349 4-.342 3.397-.11 6.853-.11 10.16 7.258 1.127 7.601.843 7.624-5.611.006-1.662-.001-3.323-.021-5.863m7.52-94.138 6.695 1.073c0-4.818.26-8.64-.15-12.388-.132-1.21-2.217-3.26-3.065-3.101-1.405.264-3.423 1.88-3.605 3.153-.487 3.405-.137 6.93.126 11.263m-.307 33.723c0 2.161-.434 4.45.148 6.441.42 1.439 2.191 2.483 3.36 3.702 1.166-1.214 3.013-2.268 3.348-3.68.56-2.361.08-4.954.175-7.444.1-2.645-.335-4.475-3.668-4.561-3.704-.097-3.418 2.232-3.363 5.542m.064-55.639c1.218.971 2.412 2.65 3.663 2.693 1.038.036 2.965-1.777 3.07-2.904.377-4.041.148-8.139.148-11.974-5.294-1.54-7.428-.073-6.94 4.823.212 2.137.037 4.312.059 7.362m-14.647-19.055c5.37 2.293 6.646 1.618 6.738-3.565.024-1.32-.046-2.648.074-3.959.595-6.515-.177-7.193-6.998-5.507 0 3.968 0 8.061.186 13.03m2.252 49.157c-.827 1.19-2.165 2.297-2.37 3.586-.385 2.415-.035 4.937-.138 7.409-.103 2.46.28 4.085 3.401 4.062 2.892-.022 3.772-1.209 3.623-3.88-.128-2.302-.362-4.698.111-6.911.747-3.495-.575-4.597-4.627-4.266m27.467-84.17c-.113 3.284.018 6.6-.415 9.843-.356 2.67-.027 4.05 3.06 4.088 2.976.037 4.267-1.078 4.055-4.071-.128-1.803-.167-3.637.005-5.432.46-4.775-1.572-6.402-6.705-4.429m-15.04-30.866c1.809.564 3.6 1.352 5.443 1.507.373.032 1.248-2.3 1.365-3.591.222-2.452-.034-4.944.09-7.41.124-2.445-.662-3.58-3.328-3.625-2.858-.047-3.809 1.09-3.66 3.808.152 2.794.037 5.602.09 9.31m6.914 126.211c0-2.491-.124-4.99.034-7.471.177-2.773-.853-3.845-3.704-3.807-2.697.036-3.472 1.197-3.365 3.649.117 2.652-.227 5.349.141 7.954.175 1.24 1.35 3.034 2.397 3.301 1.94.495 4.583.788 4.497-3.626m.001 59.116v-8.68c-6.733-1.366-6.98-1.183-7.01 4.602a473.001 473.001 0 0 0-.001 3.987c.02 6.04.02 6.04 6.651 5.21.114-1.323.237-2.754.36-5.119m-.043-172.75c-.349-2.29 1.325-5.512-3.29-5.61-4.882-.103-3.455 3.263-3.613 5.776-.124 1.97.085 3.96-.05 5.929-.186 2.717 1.203 3.302 3.6 3.328 2.605.029 3.575-1.019 3.376-3.542-.13-1.638-.024-3.294-.023-5.881m.043 44.993-.28-5.146c-6.713-.738-6.715-.738-6.73 5.306-.006 1.99.102 3.987-.018 5.97-.164 2.706 1.208 3.34 3.634 3.365 2.633.028 3.587-1.06 3.412-3.577-.115-1.65-.019-3.316-.018-5.918m-1.693 155.393c.564-3.516 1.207-7.022 1.666-10.551.352-2.702-.519-4.362-3.721-4.412-3.236-.05-3.345 1.834-3.276 4.171.064 2.141.184 4.303-.027 6.426-.34 3.446.962 4.982 5.358 4.366m1.642-244.132c-1.777-.617-3.53-1.478-5.352-1.666-.413-.042-1.407 2.223-1.536 3.486-.248 2.444-.012 4.933-.088 7.4-.069 2.231.249 3.857 3.114 3.813 2.623-.04 4.037-.887 3.931-3.724-.104-2.794-.024-5.596-.069-9.309m.052 191.74-.312-4.196c-6.542-1.087-6.676-.984-6.7 4.845-.007 1.98.073 3.964-.02 5.94-.109 2.35.49 3.734 3.264 3.684 2.754-.049 3.924-1.166 3.783-3.887-.094-1.81-.016-3.63-.015-6.386m-6.972-123.134c0 .991.075 1.989-.012 2.972-.24 2.696.757 3.892 3.644 3.836 2.69-.052 3.401-1.252 3.321-3.669-.113-3.404-.028-6.814-.028-10.24h-6.925v7.101z"/><path fill="#857667" d="M585.214 655.436c-10.732 2.163-21.443 3.904-32.168 5.553-9.1 1.399-18.217 2.692-27.768 3.993-.465-51.824-.498-103.609-.503-155.394 0-6.612 2.23-12.236 7.018-17.035 1.65-1.652 2.514-4.44 2.956-6.851.502-2.74.014-5.646.16-8.47.419-8.094 4.355-13.21 12.224-14.817 3.396-.693 3.869-2.29 3.773-5.095-.115-3.325-.492-6.77.216-9.947.453-2.029 2.666-3.665 4.09-5.478 1.73 1.679 4.58 3.134 4.967 5.08.925 4.65.69 9.532.92 14.273 13.57 3.952 16.149 7.287 15.952 21.625-.07 5.14.963 9.304 4.124 13.746 2.656 3.734 3.862 9.251 3.889 13.989.269 48.12.164 96.243.15 144.828m-51.882-94.073c-1.716 4.018-2.7 8.008 1.012 12.23 1.275-.142 2.55-.285 4.552-.711 1.36-4.062 2.459-8.1-1.75-11.816-1.023.013-2.047.025-3.814.297m3.813-32.293c-1.021.02-2.043.04-3.865.13-1.734 4.082-2.58 8.125 1.133 12.409 2.19.3 4.712 1.182 5.109-3.17.016-3.2 2.057-6.75-2.377-9.369m-2.201-6.174c3.23.523 4.418-.925 4.087-4.065-.168-1.596-.053-3.222.425-5.22-.405-.945-.81-1.889-1.773-3.246-1.323.128-2.647.256-4.67.724-1.173 4.06-2.508 8.136 1.93 11.807m15.33 6.19c-2.03.25-5.02-1.34-5.192 2.54-.116 2.631-.324 5.329.149 7.877.182.98 2.14 2.259 3.284 2.255 1.141-.003 3.218-1.406 3.25-2.258.129-3.362-.385-6.748-1.492-10.414m1.689 39.334c0-.988-.028-1.976.004-2.963.08-2.422.187-4.538-3.4-4.548-3.459-.01-3.676 1.87-3.537 4.42.072 1.313-.007 2.633.017 3.95.041 2.24-.57 4.637 3.174 4.755 3.784.119 3.932-1.99 3.742-5.614m-.115-47.371c.018-1.987.061-3.975.051-5.962-.03-5.565-.789-6.032-6.498-4.035v12.142c2.371-.492 4.305-.894 6.447-2.145m-5.11 59.022-2.243 12.054c5.797 1.736 7.976.279 7.484-4.6-.115-1.149-.135-2.334.005-3.477.417-3.422-1.257-4.483-5.246-3.977m23.434 60.965 4.753 2.856c.69-1.266 1.744-2.468 1.98-3.814.34-1.931.418-4.049-.038-5.93-.288-1.189-2.084-3.106-2.626-2.929-1.519.497-3.38 1.66-3.913 3.026-.674 1.731-.173 3.92-.156 6.79m-.023-51.874c-.207 3.232 1.788 4.338 4.37 3.571 1.103-.327 2.072-2.39 2.374-3.819.402-1.905.44-4.048-.037-5.919-.295-1.16-1.958-2.9-2.786-2.786-1.386.191-3.199 1.405-3.724 2.654-.654 1.556-.185 3.584-.197 6.3m-32.836 22.953c-1.459.819-3.896 1.39-4.178 2.507-.633 2.498-.451 5.307-.052 7.905.143.932 1.858 2.239 2.866 2.249 1.01.01 2.887-1.37 2.902-2.17.066-3.397-.419-6.803-1.538-10.491m24.141 18.912c-.943.205-2.686.346-2.709.624-.298 3.74-.415 7.502-.247 11.243.006.14 3.354.131 5.145.192-.437-3.996-.874-7.993-2.189-12.059m.888-120.915c-1.452.825-3.879 1.405-4.159 2.523-.628 2.504-.445 5.315-.044 7.917.142.922 1.873 2.215 2.88 2.215 1.013 0 2.877-1.381 2.891-2.183.06-3.396-.431-6.802-1.568-10.472m1.753 59.233c-.004-1.826.366-3.765-.143-5.438-.35-1.152-1.918-2.674-2.94-2.673-1.013.002-2.637 1.563-2.9 2.694a14.758 14.758 0 0 0-.022 6.415c.3 1.33 1.587 3.092 2.781 3.432 2.65.753 3.418-1.145 3.224-4.43m-1.77 55.536c.587-3.361 1.41-6.71 1.593-10.092.046-.857-1.974-2.562-3.004-2.53-1.008.03-2.582 1.656-2.81 2.8-.448 2.238-.517 4.724.023 6.919.294 1.191 2.164 1.994 4.199 2.903m-4.296-84.822c1.495.571 2.988 1.502 4.488 1.515.515.004 1.34-2.248 1.508-3.536.257-1.96.404-4.062-.06-5.941-.292-1.177-1.791-2.055-2.749-3.067-1.082 1.052-2.82 1.953-3.104 3.188-.508 2.209-.14 4.619-.083 7.841m5.737 51.893c.105-2.98.478-5.986.176-8.923-.112-1.09-1.807-2.017-2.78-3.018-1.064 1.077-2.593 1.982-3.067 3.274-.537 1.467.014 3.295-.16 4.94-.435 4.138 1.27 5.543 5.831 3.727m-30.787-.881c1.503.566 3.002 1.484 4.51 1.5.502.006 1.314-2.263 1.48-3.557.25-1.96.4-4.06-.068-5.938-.292-1.177-1.793-2.054-2.751-3.065-1.077 1.062-2.802 1.975-3.088 3.22-.507 2.207-.141 4.616-.083 7.84m43.979-77.222c.18-2.778-1.21-4.402-3.828-3.561-1.068.343-1.749 2.55-2.173 4.032-.353 1.232.035 2.656-.091 3.977-.45 4.722 1.821 5.367 6.094 3.94 0-2.549 0-5.015-.002-8.388m-28.111-40.815c-1.271-.598-2.541-1.612-3.814-1.615-.624-.002-1.606 1.811-1.799 2.913-.307 1.754.025 3.609-.12 5.405-.362 4.528 1.9 4.836 5.765 3.593 0-3.229 0-6.322-.032-10.296m28.11 65.065c-.004-2.148.282-4.354-.134-6.419-.204-1.008-1.814-2.534-2.611-2.434-1.186.15-2.896 1.363-3.165 2.43-.51 2.02-.437 4.31-.056 6.388.244 1.331 1.472 2.482 2.259 3.714 1.229-.935 2.458-1.87 3.706-3.68m-25.721 84.479c-.017-2.75.285-5.563-.235-8.214-.167-.853-2.5-1.28-3.842-1.902-.686 2.038-1.945 4.091-1.895 6.112.05 2.034 1.3 4.092 2.334 5.97.11.198 2.302-.751 3.638-1.966m21.367-49.455c1.353-.34 3.824-.554 3.88-1.04.366-3.248.36-6.566.08-9.827-.041-.483-2.196-1.147-3.318-1.056-.814.067-2.193 1.247-2.19 1.924.017 3.229.42 6.455 1.548 9.999M545.1 638.233c.012.658-.245 1.547.085 1.93 1.14 1.321 2.484 2.465 3.75 3.677.757-1.349 1.898-2.623 2.176-4.064.367-1.898.269-3.965-.067-5.882-.14-.798-1.365-1.895-2.176-1.967-1.13-.1-2.943.306-3.364 1.088-.634 1.177-.317 2.867-.404 5.218m-9.014 5.26c3.974-3.394 1.252-7.454 1.925-11.639l-5.966.452c0 3.032-.347 5.732.147 8.27.244 1.252 2.038 2.202 3.894 2.916m34.8-26.851c.009 1.65-.321 3.406.144 4.916.326 1.06 1.85 2.583 2.636 2.471 1.181-.167 2.764-1.396 3.13-2.515.536-1.643.473-3.668.048-5.376-.31-1.247-1.617-2.247-2.479-3.356-1.157.978-2.314 1.956-3.48 3.86m-11.952-135.492c-.004-2.487.194-5-.115-7.448-.118-.933-1.4-1.719-2.152-2.572-.92.864-2.479 1.626-2.636 2.611-.388 2.426-.276 4.967-.059 7.434.082.935 1.142 2.607 1.516 2.542 1.196-.206 2.28-1.066 3.446-2.567m10.08-2.723c-.001-1.327.324-2.77-.094-3.948-.443-1.25-1.593-2.25-2.434-3.36-.847 1.108-2.093 2.106-2.438 3.353-.427 1.54-.408 3.363-.022 4.925.396 1.603 1.27 4.168 2.28 4.345 3.554.621 2.463-2.463 2.708-5.315z"/><path fill="#867767" d="M357.806 690.007c-11.877-2.154-23.756-4.294-35.63-6.469-3.732-.683-7.448-1.458-11.61-2.729-2.835-3.557-5.23-6.577-7.55-10.078.036-34.947-.003-69.414.142-104.156 2.457-2.75 4.73-5.223 7.428-7.639 6.057.097 6.673-1.33 4.775-10.813-1.311 0-2.733 0-4.265-.397-.444-1.993-.78-3.589-.687-5.077 4.697 1.114 6.211-.75 5.675-4.857-.127-.974.32-2.166-.098-2.929-.722-1.32-1.914-2.384-2.91-3.556-.977 1.255-2.512 2.393-2.808 3.793-.503 2.38-.226 4.925-.572 7.205-2.226-2.27-4.156-4.344-6.087-6.417-.222-7.86.53-15.3 7.401-20.728 1.02-.806 1.163-2.983 1.317-4.564.274-2.806.24-5.641.344-8.464.251-6.75 4.138-10.838 10.234-12.501 3.021-.824 3.652-2.18 3.524-4.824-.112-2.322-.583-4.882.19-6.927.956-2.53 3.033-4.636 5.337-6.925 1.584 1.282 2.958 2.468 3.226 3.866.557 2.906.737 5.928.682 8.895-.058 3.08.46 5.037 4.175 5.308 1.807.131 3.686 1.42 5.23 2.585 3.719 2.808 4.938 6.662 5.02 11.35.077 4.482-.06 9.766 2.18 13.22 3.135 4.837 5.36 9.589 5.367 15.156.06 52.89-.003 105.781-.03 158.672m-8.943-158.322c-3.838-1.558-5.256-.047-4.943 3.823.12 1.489-.288 3.09.127 4.464.339 1.12 1.78 2.906 2.321 2.769 1.291-.327 3.173-1.497 3.32-2.539.365-2.567-.112-5.254-.825-8.517m1.039 52.5c-.007-1.665.376-3.466-.143-4.951-.43-1.232-1.924-2.091-2.947-3.116-.955 1.003-2.372 1.859-2.75 3.045-.48 1.512-.394 3.353-.038 4.938.299 1.333 1.332 2.502 2.04 3.743 1.272-.93 2.544-1.861 3.838-3.66m-33.833.953c0-1.99.333-4.06-.124-5.938-.284-1.17-1.763-2.05-2.706-3.059-1.03 1.008-2.588 1.854-2.962 3.065-.515 1.665-.361 3.646-.054 5.416.193 1.106 1.176 2.908 1.84 2.923 1.31.03 2.645-.961 4.006-2.407m30.353 47.777c1.154-1.068 3.205-2.077 3.281-3.217.179-2.665-.506-5.415-1.168-8.049-.044-.176-2.827.336-4.337.528.457 3.556.914 7.11 2.224 10.738m-36.185-2 4.536 1.799c.438-1.143 1.12-2.257 1.257-3.435.211-1.805.367-3.737-.074-5.455-.27-1.05-1.721-2.526-2.607-2.503-1.076.03-2.789 1.275-3.028 2.28-.489 2.05-.175 4.291-.084 7.314m37.88-82.689c-2.9-.615-4.478.245-4.19 3.524.158 1.81-.284 3.73.163 5.439.27 1.033 1.765 2.48 2.64 2.432 1.066-.057 2.9-1.458 2.93-2.328.097-2.883-.466-5.788-1.542-9.067m-.747 101.539c2.367-1.746 3.753-9.094 1.71-10.704-.998-.786-3.299-.996-4.375-.373-2.074 1.202-.522 9.472 2.665 11.077M322.98 531.576c-.463 3.36-1.018 6.717-1.192 10.092-.012.235 2.805.615 4.307.927.333-2.702 1.03-5.43.828-8.092-.085-1.132-2.052-2.121-3.943-2.927m-7.018 116.237c.035-2.158.375-4.372-.01-6.452-.224-1.216-1.606-2.217-2.467-3.315-1.114 1.102-2.633 2.026-3.224 3.36-.554 1.251-.185 2.94-.118 4.432.188 4.175 2.225 4.746 5.819 1.975m-5.86-48.322c.001 2.312-.432 4.819 3.285 4.62 3.514-.186 2.547-2.737 2.682-4.699.09-1.312.305-2.743-.105-3.923-.338-.973-1.46-2.236-2.33-2.316-1.026-.094-2.598.686-3.125 1.569-.6 1.006-.31 2.544-.408 4.75m33.855-2.77c.002 1.479-.374 3.102.118 4.395.445 1.17 1.842 2.746 2.81 2.74 1-.007 2.472-1.541 2.864-2.702.497-1.475.483-3.366-.001-4.853-.407-1.251-1.803-2.18-2.76-3.252-1.008.927-2.016 1.854-3.031 3.672m-10.116-8.867c4.719-.15 5.186-1.495 3.537-10.416h-5.789c.542 3.675 1.009 6.842 2.252 10.416m-7.262-38.52-4.835-.342c-.18 2.918-.711 5.888-.305 8.723.11.767 3.055 1.128 5.435 1.92 0-3.945 0-6.723-.295-10.302m10.414 44.341c-5.29-.803-6.077.96-4.323 9.938h5.448c-.196-3.416-.364-6.364-1.125-9.938m-4.915-36.505 5.864 2.504c0-3.99.287-6.511-.136-8.908-.178-1.015-1.857-2.455-2.838-2.444-.98.012-2.477 1.448-2.783 2.532-.478 1.69-.142 3.611-.107 6.316m5.112 65.132h-5.156c0 2.722-.256 5.064.106 7.305.184 1.138 1.482 2.094 2.276 3.133 1.188-1.1 3.051-2.02 3.404-3.342.532-1.995.01-4.272-.63-7.096m-10.132-20.18c.01-2.148.441-4.419-.134-6.397-.322-1.107-2.312-1.729-3.55-2.569-.554 2.841-1.743 5.738-1.5 8.51.302 3.424 2.738 3.008 5.184.457m12.562-104.976-1.419 10.56c1.28.15 2.955.885 3.767.34 2.242-1.51 1.007-9.417-2.348-10.9m-10.657 8.063 2.212 3.595c.912-1.11 2.32-2.1 2.62-3.356.445-1.872.355-3.977-.003-5.89-.174-.931-1.453-2.274-2.263-2.296-.824-.023-2.176 1.218-2.423 2.14-.413 1.54-.132 3.268-.143 5.807m3.95 33.233c.126 2.029-.567 4.975 2.863 4.224 1.05-.23 1.802-2.764 2.277-4.365.36-1.213.38-2.73-.032-3.908-.409-1.168-1.549-2.079-2.368-3.103-.907.93-2.111 1.722-2.63 2.833-.445.95-.103 2.268-.11 4.32m-8.384-30.838c.137-2.121.682-4.325.274-6.336-.305-1.504-1.839-2.759-2.826-4.125-.664 1.427-1.574 2.797-1.923 4.297-.326 1.405-.153 2.955-.032 4.428.212 2.561 1.46 3.58 4.507 1.736m2.552 72.137c.072-2.926-2.942-3.887-3.68-2.562-1.429 2.564-1.29 6.001-1.8 9.076 1.53.188 3.065.502 4.59.459.31-.01.752-1.343.835-2.099.144-1.307.054-2.64.055-4.874m6.127 59.28c-.09 2.483-.269 4.966-.249 7.447.026 3.14 3.361 3.38 3.939 2.169 1.178-2.47 1.14-5.665.969-8.523-.04-.659-2.64-1.164-4.659-1.092m-6.103 4.49c-.003-.831.308-1.87-.076-2.45-.749-1.13-1.886-2.004-2.863-2.984-.766 1.028-1.796 1.96-2.22 3.113-.376 1.026-.382 2.407-.013 3.438.56 1.568 1.406 4.07 2.447 4.24 3.523.578 2.495-2.483 2.725-5.357m-4.152-11.564c1.346-.509 3.803-.937 3.847-1.54.196-2.698-.296-5.446-.54-8.176-1.467.492-4.083.804-4.194 1.51-.392 2.489.075 5.113.887 8.206z"/><path fill="#E58043" d="M74.731 506.084c-6.533-.023-13.066-.045-20.05-.066-.512-11.317-.799-22.64-.559-33.953.174-8.182 6.833-14.516 15.43-14.684 13.316-.26 26.644-.258 39.96-.008 10.15.19 16.077 6.548 16.124 17.056.106 23.477.027 46.955.033 70.433.011 36.632.031 73.265.012 110.333-4.694-.09-9.353-.616-14.41-1.674-.4-3.395-.4-6.258-.4-8.847-5.464-1.623-7.683-.16-6.939 4.913.165 1.12.027 2.284.03 3.427-2.368-.06-4.735-.118-7.487-.706-.385-2.928-.385-5.328-.385-7.797H89.12v7.321c-2.207-.19-4.415-.38-6.973-1.144-.352-2.437-.352-4.3-.352-6.303l-4.843-.466c.009-1.379.018-2.758.47-4.55 1.754-1.185 4.105-1.85 4.198-2.746.412-4.004.179-8.075.179-12.441l-4.836-.262c.037-2.116.073-4.231.558-6.78 3.1-.138 4.448-1.17 4.322-3.992-.108-2.44-.19-4.905.022-7.333.32-3.653-1.123-5.21-4.774-4.638-.044-1.409-.089-2.818.3-4.66 2.437-.386 4.504-.138 4.44-3.207-.08-3.888-.019-7.779-.019-12l-4.778-.233c-.017-1.423-.035-2.847.39-4.695 1.754-1.196 4.104-1.86 4.196-2.757.412-4.01.18-8.084.18-12.449l-4.839-.265c.033-2.106.066-4.212.546-6.75 3.08-.16 4.464-1.154 4.335-3.992-.11-2.442-.186-4.907.022-7.336.312-3.638-1.102-5.23-4.77-4.651-.033-2.124-.065-4.247.347-6.82 1.752-1.215 4.096-1.875 4.187-2.766.41-3.998.179-8.062.179-12.426l-4.845-.26c.026-1.435.053-2.87.522-4.723 3.111-.116 4.474-1.128 4.348-3.993-.122-2.792.346-5.668-.184-8.36-.267-1.359-1.98-3-3.377-3.442-2.4-.76-3.535.749-3.434 3.293.097 2.46-.06 4.932-.107 7.399m29.296-9.052c-.023 3.46.067 6.925-.106 10.377-.132 2.625 1.08 4 3.433 3.252 1.397-.443 3.018-2.052 3.384-3.441.569-2.158.176-4.575.15-6.881-.06-5.365-1.1-6.009-6.86-3.307m-14.95 8.278c.078 2.566-.75 5.49 3.603 5.549 4.59.062 3.325-3.11 3.436-5.525.107-2.325.42-4.764-.147-6.948-.325-1.251-2.217-2.883-3.417-2.894-1.145-.01-2.912 1.668-3.318 2.948-.575 1.816-.153 3.948-.157 6.87m21.794-17.365c.006-2.987-.067-5.976.041-8.96.099-2.732-1.005-3.86-3.806-3.876-2.876-.017-3.243 1.541-3.17 3.81.08 2.486-.185 5.001.098 7.457.166 1.435 1.035 3.894 1.722 3.942 1.635.113 3.35-.934 5.115-2.373m-29.063-4.497c0-1.491-.072-2.986.013-4.473.157-2.729-.992-3.861-3.791-3.863-2.848-.002-3.248 1.53-3.182 3.809.085 2.98-.31 6.027.212 8.916.207 1.141 2.261 2.538 3.598 2.684.935.102 2.376-1.556 3.036-2.737.495-.886.108-2.266.114-4.336m14.333 127.823c0-2.14-.074-4.285.019-6.422.1-2.305-.394-3.774-3.192-3.742-2.632.03-4.05.832-3.91 3.695.119 2.465.027 4.94.018 7.41-.01 2.185-.235 4.359 3.018 4.527 3.434.177 4.351-1.562 4.047-5.468m10.496 5.415c3.327.453 4.535-1.105 4.283-4.305-.156-1.984-.012-3.99-.032-5.986-.054-5.56-.872-6.1-6.933-4.25 0 2.694-.232 5.528.076 8.302.232 2.08 1.16 4.082 2.606 6.24M89.08 549.184c-.141 2.505.032 4.61 3.47 4.587 3.3-.023 3.716-1.915 3.612-4.53a97.66 97.66 0 0 1 0-7.41c.084-2.316-.45-3.75-3.229-3.722-2.673.027-4.011.938-3.872 3.748.106 2.135.02 4.28.02 7.327m20.813 4.055c.333-3.224.884-6.444.952-9.674.119-5.72-.591-6.145-6.888-4.505 0 3.163.202 6.472-.052 9.746-.313 4.048 1.297 5.572 5.988 4.433m.198 28.169h-6.135v14.34h6.699c0-4.77 0-9.211-.564-14.34m-15.76-.278h-5.228c0 4.547-.209 8.49.15 12.382.087.943 2.018 2.344 3.15 2.391 1.199.05 3.503-1.245 3.513-1.979.06-4.183-.423-8.375-1.586-12.794m-5.252-59.519v8.677c6.92 1.129 7.043 1.035 7.063-4.801.004-1.332.005-2.664 0-3.995-.022-5.965-.086-6.016-6.74-5.038-.102 1.34-.212 2.78-.323 5.157m3.46 117.344c2.386.205 3.762-.58 3.626-3.287a77.44 77.44 0 0 1 .007-7.9c.136-2.626-.647-3.898-3.572-3.909-2.95-.01-3.686 1.296-3.55 3.908.137 2.627-.227 5.305.152 7.884.176 1.192 1.597 2.202 3.337 3.304m17.574-77.628h-6.156V575.644h6.701c0-4.74 0-9.17-.545-14.316m-14.035 1.51c-2.057-.78-4.115-1.558-6.999-2.65v15.073c6.812 1.266 7.033 1.108 7.061-4.577.012-2.305-.005-4.61-.062-7.846m.064-80.312c0-1.323-.089-2.652.016-3.967.287-3.6-2.187-3.933-4.471-3.176-1.164.385-2.533 2.543-2.46 3.822.21 3.652 1.106 7.266 1.78 10.886.016.08.622.04.95.074 5.943.613 3.742-3.865 4.185-7.639m7.871 45.592c1.353.905 2.639 2.318 4.085 2.507.76.1 2.336-1.825 2.596-3.039.44-2.047.147-4.256.126-6.397-.057-5.548-.885-6.094-6.81-4.181 0 3.318 0 6.757.003 11.11m4.24 95.892c-1.906.07-4.257-.624-4.235 2.615.027 3.93.007 7.862.007 12.777 2.65-.708 5.933-1.165 5.937-1.652a51.211 51.211 0 0 0-1.71-13.74z"/><path fill="#E68043" d="M483.417 402.398c-5.402.422-10.63.416-16.273-.118-.386-2.663-.471-4.806-.296-6.928.246-2.993-.532-4.474-4-4.466-3.43.007-4.256 1.406-4.017 4.441.206 2.614.106 5.251.14 7.878-2.755 1.597-5.512 3.194-8.625 4.333-.34-3.77-.31-7.08-.31-10.39.003-6.8-.576-7.21-7.632-5.32v16.168h7.615c-.827 1.874-1.654 3.748-3.187 5.811-3.55-.239-5.007.68-4.809 3.86.204 3.257.179 6.543.006 9.802-.155 2.925 1.111 3.853 3.806 3.348.05 1.78.1 3.562-.3 5.762-1.456 1.315-3.237 2.138-3.328 3.118-.345 3.723-.054 7.5-.175 11.251-.095 2.937 1.584 3.167 3.8 2.841.03 2.513.06 5.026-.37 7.978-1.424 1.04-3.188 1.595-3.224 2.246-.247 4.433-.314 8.901.032 13.321.065.84 2.234 1.516 3.432 2.267.098 2.493.197 4.986-.153 7.92-1.46 1.346-3.248 2.178-3.34 3.167-.346 3.747-.059 7.548-.172 11.323-.09 2.948 1.61 3.18 3.836 2.857-.005 1.561-.01 3.123-.477 5.094-1.413 1.288-3.113 2.11-3.182 3.054-.304 4.113-.357 8.282.036 12.379.088.916 2.343 1.625 3.6 2.43.004 1.572.007 3.145-.453 5.13-1.414 1.29-3.115 2.109-3.185 3.049-.304 4.105-.358 8.266.034 12.356.088.917 2.335 1.628 3.587 2.434.035 2.507.069 5.014-.36 7.952-1.426 1.033-3.186 1.588-3.224 2.241-.252 4.42-.323 8.875.016 13.282.065.843 2.21 1.525 3.396 2.28.086 1.605.172 3.21-.2 5.27-1.154.755-2.439 1.012-2.462 1.358-.327 4.697-.599 9.408-.514 14.11.01.556 2.212 1.073 3.397 1.608.015 1.83.03 3.66-.407 5.923-1.055.594-2.175.72-2.19.922-.348 4.98-.654 9.966-.682 14.953-.002.38 2.12.771 3.255 1.157.048 19.01.096 38.018.138 57.48-2.827 1.065-5.648 1.678-8.862 2.368-.405-68.136-.41-136.348-.452-204.56-.002-2.648-.097-5.346-.603-7.932-1.39-7.108-7.152-12.02-14.386-12.244-6.15-.19-12.31-.084-18.903-.141-.508-23.142-.793-46.255-.545-69.361.104-9.79 8.038-17.025 17.92-17.121 15.133-.148 30.268-.141 45.4 0 10.565.1 18.61 8.695 18.317 19.171-.116 4.153-.194 8.307-.465 12.888m-58.056 26.475 8.132 3.006V414.7c-7.54-1.679-8.236-1.17-8.245 5.787-.004 2.499.012 4.998.113 8.386m8.44-26.534v-10.693c-8.135-1.417-8.545-1.095-8.555 6.038v3.498c.008 7.277.16 7.401 8.237 6.323.101-1.346.21-2.789.318-5.166m-8.552 38.551c.005 3.317.002 6.633.016 9.95.014 3.224 2.395 3.476 4.5 2.936 1.495-.384 3.721-1.824 3.84-2.976.453-4.383.183-8.84.183-13.732-3.457.63-7.315-2.506-8.539 3.822z"/><path fill="#F7AF3C" d="M612.462 583.129c-8.063 1.55-8.41 1.285-8.41-6.375V464.499h76.966c0 39.674 0 79.391-.42 119.574-7.09.724-10.906 5.202-14.976 9.94-6.619-.047-12.764-.032-18.91-.017-2.13-2.767-4.26-5.535-6.078-8.664 8.96-.361 17.61-.41 26.258-.335 3.32.03 6.421-.636 6.54-4.442.123-3.916-3.022-4.593-6.312-4.588-16.3.024-32.6-.027-48.9.033-5.397.02-6.583 1.61-5.758 7.129m18.044-38.818c-4.323.003-8.724-.471-12.936.214-2.052.333-3.751 2.83-5.61 4.346 1.808 1.576 3.588 4.483 5.428 4.521 16.953.354 33.919.356 50.871.003 1.807-.038 3.553-2.993 5.327-4.595-1.723-1.485-3.326-3.159-5.225-4.367-.834-.53-2.272-.12-3.436-.12-11.14-.003-22.28-.002-34.419-.002m15.994-6.455h19.444c3.434 0 7.376-.057 7.54-4.49.175-4.71-3.841-4.541-7.258-4.539-14.79.01-29.581 0-44.372.01-1.992.002-4.174-.417-5.92.26-1.57.61-3.597 2.384-3.703 3.777-.11 1.434 1.591 3.385 3.003 4.432 1.022.757 2.864.525 4.341.531 8.642.04 17.283.02 26.925.02m-8-18.034c9.64-.001 19.28.015 28.921-.015 3.068-.01 5.999-.863 6.115-4.417.116-3.555-2.556-4.634-5.79-4.63-16.62.022-33.242.009-49.863.008-3.146 0-5.944.9-5.836 4.558.104 3.529 2.841 4.51 6.006 4.501 6.482-.017 12.965-.005 20.447-.005m4-24.8c-7.975 0-15.95.034-23.924-.018-3.23-.021-6.42.362-6.516 4.348-.095 3.958 2.998 4.647 6.272 4.645 16.282-.01 32.564-.028 48.845.015 3.357.01 6.398-.849 6.307-4.64-.092-3.82-3.282-4.4-6.559-4.372-7.808.068-15.616.022-24.425.022m-6-6.866c10.305 0 20.61-.024 30.913.013 3.1.01 5.985-.566 6.111-4.25.124-3.633-2.717-4.741-5.769-4.754-16.786-.07-33.573-.06-50.359-.006-2.988.01-5.363 1.387-5.357 4.65.006 3.402 2.541 4.334 5.511 4.34 5.984.01 11.967.006 18.95.007m36.832 77.979c.702-4.6-2.112-5.985-5.873-6.004-16.475-.084-32.95-.042-49.426-.035-3.146.002-5.894 1.012-5.98 4.561-.09 3.708 2.753 4.505 5.879 4.505 16.641-.002 33.284.066 49.924-.105 1.725-.018 3.435-1.452 5.476-2.922z"/><path fill="#F8B13F" d="M358.11 690.25c-.277-53.134-.215-106.025-.274-158.915-.006-5.567-2.232-10.319-5.368-15.156-2.238-3.454-2.102-8.738-2.18-13.22-.081-4.688-1.3-8.542-5.02-11.35-1.543-1.165-3.422-2.454-5.229-2.585-3.715-.27-4.233-2.227-4.175-5.308.055-2.967-.125-5.989-.682-8.895-.268-1.398-1.642-2.584-2.883-3.998-.368-15.717-.368-31.301-.368-47.253h54.497c0 10.854 0 21.601-.178 32.776-1.772.428-3.366.429-5.495.029-2.006-.922-3.47-1.877-4.947-1.894-10.959-.126-21.92-.02-32.88-.093-3.314-.022-5.666.996-5.653 4.649.013 3.64 2.38 4.684 5.679 4.665 7.637-.043 15.276.047 22.914.083-.626 1.86-1.252 3.718-2.462 5.948-7.386.37-14.189.292-20.988.405-2.703.046-5.368.415-5.264 4.273.1 3.723 2.14 4.804 5.487 4.773 6.966-.064 13.934.006 20.902.02.112 1.322.322 2.643.322 3.965.002 69.063-.014 138.126-.073 207.693-1.822.213-3.599-.079-5.681-.613m18.756-242.362c3.26-.168 4.975-1.987 4.662-5.14-.33-3.327-2.754-4.013-5.78-3.985-10.781.098-21.564.097-32.344-.002-3.401-.03-6.191.633-6.105 4.645.086 4.011 3.042 4.536 6.337 4.518 10.781-.058 21.563-.024 33.23-.036z"/><path fill="#249C9D" d="M310.16 558.878c-2.272 2.474-4.545 4.948-7.401 7.693-8.589 4.226-15.977.325-23.598-1.889-1.87-.579.418-7.061-4.161-3.025-1.655.595-3.414.993-4.945 1.816-8.831 4.75-18.439 3.132-25.85-4.468-6.632-6.8-7.761-16.731-2.873-25.261 4.71-8.22 14.85-12.41 23.908-10.185 1.237.304 3.599-.485 4.165-1.488 4.603-8.146 10.678-11.111 17.771-8.27 7.699 3.083 10.417 9.718 7.735 18.825-.083.283.067.636.18 1.519 2.457.606 5.126 1.265 8.157 1.833 2.292 1.983 4.222 4.057 6.447 6.335.294.205.285.228.285.228.336 1.596.672 3.192 1.057 5.614-.26 4.125-.568 7.424-.876 10.723zM170.469 576.13c-1.344.363-2.818.483-4.01 1.125-14.62 7.867-32.634-1.464-32.837-17.907-.187-15.184 12.851-24.329 25.952-21.696 3.115.626 4.53.67 5.87-2.78 2.225-5.72 9.739-9.13 15.215-7.755 6.777 1.702 11.204 7.805 10.617 14.839-.16 1.927-.728 3.82-.818 4.271 4.864 3.924 9.944 6.714 13.157 10.927 4.474 5.867 3.37 13-1.243 18.899-4.345 5.556-11.685 7.699-18.856 5.463-1.567-.488-3.093-1.106-5.263-1.884-2.267-2.017-3.907-3.814-5.878-5.554-.855.722-1.38 1.387-1.906 2.052z"/><path fill="#249C9C" d="M666.095 594.075c3.597-4.8 7.412-9.278 14.493-9.566 4.112 1.185 7.815 2.4 11.248 3.526 2.835-3.545 5.446-8.069 9.205-11.224 6.21-5.212 13.638-5.048 20.556-1.348 7.466 3.994 10.639 10.767 9.88 19.16-.689 7.606-4.884 12.649-11.74 16.027-7.014 3.457-13.171.668-20.054-1.863-1.506-1.19-1.915-4.492-4.295-.95-4.412 3.58-8.285 7.454-14.616 7.38-2.824-.583-5.241-1.073-7.875-1.798-2.067-2.072-3.917-3.91-5.76-6.091-.641-1.792-1.288-3.24-1.949-5.079.293-2.985.6-5.58.907-8.174z"/><path fill="#2A9C9D" d="M217.738 625.644c-1.365.095-2.837-.11-4.078.333-8.218 2.932-15.427-.083-18.761-7.99-2.721-6.45.447-14.576 6.894-17.683 7.051-3.399 15.099-.543 18.995 6.76.533 1 .962 2.057 1.584 3.4 1.33-.617 2.471-1.155 3.619-1.68 5.301-2.418 11.06-.838 14 3.84 3.192 5.076 2.258 10.45-2.458 14.147-4.556 3.571-9.987 3.218-14.391-.94-.834-.788-1.66-1.584-3.003-2.633-1.143.644-1.772 1.545-2.4 2.446z"/><path fill="#22B77D" d="M302.941 671.212c2.395 3.02 4.79 6.04 7.303 9.403-11.015-1.37-22.154-3.042-33.278-4.808-9.819-1.56-19.621-3.224-29.862-4.919 5.894-5.71 13.565-7.95 21.758-8.868 1.8-.202 3.605-.378 6.155-.747 1.279-.214 1.81-.247 2.677-.119 9.407 1.526 17.592 5.124 25.247 10.058z"/><path fill="#F4AE3B" d="M673.114 613.655c2.417.49 4.834.98 7.649 2.008.397 10.2.397 19.86.397 29.521-2.451.275-4.903.55-7.689.398.49-4.852-1.678-6.592-5.834-6.581-6.824.018-13.648.02-20.472.027-.063-2.038-.127-4.077.356-6.548 6.85-.42 13.155-.443 19.458-.382 3.248.031 6.47-.51 6.466-4.405-.004-3.736-2.995-4.672-6.368-4.628-6.634.085-13.27.048-19.906.062-.068-2-.135-4 .334-6.425 6.922-.414 13.318-.191 19.686-.51 2.012-.101 3.95-1.65 5.923-2.537z"/><path fill="#443D33" d="M612.814 583.241c-1.177-5.631.009-7.22 5.405-7.24 16.3-.061 32.6-.01 48.901-.034 3.29-.005 6.435.672 6.312 4.588-.119 3.806-3.22 4.471-6.54 4.442-8.648-.076-17.298-.026-26.406.044-7.615-.425-14.77-.928-21.928-1.413-1.795-.121-3.594-.184-5.744-.387z"/><path fill="#4A4141" d="M277.36 660.992c-.532.034-1.064.067-1.995.064-.466-32.86-.839-65.683-.392-98.953 4.606-4.482 2.317 2 4.007 2.939-.64 2.359-1.628 4.001-1.632 5.645-.067 30.102-.015 60.204.011 90.305z"/><path fill="#2C9D9E" d="M757.875 583.709c1.579 2.688 3.194 4.963 5.477 8.177l-6.548-4.278c-6.582 4.456-10.573 4.779-14.328 1.048-2.93-2.912-4.08-6.285-2.181-10.338 1.814-3.874 4.943-5.97 9.008-5.712 4.066.258 7.063 2.73 8.332 6.76.384 1.217.2 2.614.24 4.343z"/><path fill="#289E9F" d="M249.007 575.205c1.904-4.461 5.37-6.785 9.458-6.316 4.213.484 7.46 3.345 8.524 7.893 1.06 4.534-1.115 8.017-4.91 9.352-2.835.997-6.937.906-9.511-.485-3.459-1.867-5.698-5.554-3.561-10.444zM161.945 597.125c-3.02 1.482-5.921 3.807-9.086 4.25-4.778.669-9.34-4.294-9.29-8.958.048-4.559 4.742-9.202 9.394-9.292 4.661-.09 8.768 3.787 9.164 8.627.134 1.638.332 3.27.187 5.139-.313.235-.37.234-.37.234zM705.086 633.728c-.052-1.144.013-2.306-.175-3.427-.74-4.41.404-7.953 4.74-9.787 3.936-1.665 7.572-.947 10.157 2.57 2.545 3.46 2.451 7.28-.32 10.502-3.084 3.587-7.006 4.076-11.169 1.655-.424-.247-.826-.532-1.884-1.025-.88-.313-1.115-.4-1.35-.488z"/><path fill="#473F33" d="M647.078 623.56c6.728-.447 13.365-.41 20-.495 3.372-.044 6.363.892 6.367 4.628.004 3.895-3.218 4.436-6.466 4.405-6.303-.06-12.607-.039-19.368-.047-.512-2.683-.569-5.37-.533-8.49z"/><path fill="#453F34" d="M647.072 639.47c6.917-.45 13.741-.451 20.565-.469 4.156-.01 6.324 1.73 5.403 6.569-8.367 1.342-16.639 2.27-25.273 3.17-.505-2.963-.646-5.895-.695-9.27z"/><path fill="#3E3933" d="M672.897 613.42c-1.755 1.121-3.694 2.67-5.706 2.772-6.368.319-12.764.096-19.607.09-.516-2.523-.575-5.052-.09-8.039 6.909-.495 13.272-.533 19.636-.571 1.85 1.837 3.7 3.675 5.767 5.747z"/><path fill="#5C5555" d="M162.236 597.26c-.291-.135-.235-.134-.264-.124 1.92 1.119 3.868 2.227 6.74 3.86.477-1.367 1.467-2.955 1.515-4.571.195-6.45.098-12.907.175-19.828.592-1.132 1.118-1.797 1.999-2.09.334 2.628.314 4.883.293 7.139-.078 26.084-.155 52.168-.24 78.708-.55.463-1.094.47-1.89.377-.285-17.704-.363-35.307-.323-52.91.012-5.5-2.671-8.778-8.005-10.56z"/><path fill="#453F34" d="M665.622 594.014c.166 2.655-.14 5.25-.916 8.313-6.154.477-11.84.486-17.525.494-.166-2.644-.333-5.289-.484-8.38 6.161-.46 12.306-.475 18.925-.427z"/><path fill="#37322D" d="m768.26 573.086-.059 67.196c-.537.488-1.074.533-2.012.527-.403-12.863-.024-25.69-.514-38.484-.467-12.174.548-24.311.16-36.95.483-.803.97-1.123 1.87-1.017.461 3.194.508 5.96.554 8.728z"/><path fill="#2C9D9E" d="M213.973 645c-1.551.071-3.173.462-4.638.14-2.367-.52-5.609-.866-6.67-2.478-1.125-1.71-.983-5.369.184-7.132.994-1.502 4.727-2.632 6.344-1.908 1.922.86 3.14 3.76 4.156 6.006.61 1.35.252 3.137.468 5.067.138.34.156.305.156.305z"/><path fill="#515151" d="M612.109 625.48c-.114 1.182-.388 2.803-.733 2.818-5.676.25-11.424.82-17.01.132-2.238-.275-1.602-3.207.47-4.571 2.765-1.821 14.18-.902 17.273 1.622zM637.11 613.59c.127.93.292 1.732-.035 2.146-1.973 2.497-15.962 3.302-17.795.785-.596-.818.49-4.133.765-4.128 5.628.107 11.25.529 17.064 1.196zM611.592 613.039c1.804 3.334-.467 4.394-2.589 4.555-4.263.321-8.584.254-12.85-.067-1.103-.083-2.09-1.7-3.13-2.612.922-1.015 1.844-2.901 2.766-2.9 5.184.003 10.368.46 15.803 1.024z"/><path fill="#555" d="M635.715 635.699c3.884 4.014.729 5.231-2.184 5.595-3.747.468-7.628.395-11.386-.025-1.404-.156-2.625-1.943-3.93-2.986 1.27-1.044 2.49-2.902 3.818-2.983 4.421-.27 8.882.1 13.682.399zM607.436 635.063c1.944 1.16 3.458 2.316 4.973 3.473-1.74.96-3.398 2.494-5.236 2.752-3.245.454-6.654.48-9.885-.021-1.55-.24-2.852-2.095-4.265-3.218 1.353-.974 2.618-2.592 4.076-2.791 3.251-.443 6.599-.176 10.337-.195z"/><path fill="#515151" d="M629.798 623.003c1.119.006 1.926-.23 2.426.061 1.836 1.071 3.57 2.317 5.341 3.497-1.715.975-3.354 2.567-5.164 2.792-3.44.43-7.005.32-10.46-.075-1.308-.15-2.456-1.707-3.677-2.623 1.197-1.153 2.23-2.958 3.628-3.311 2.362-.598 4.956-.276 7.906-.341zM623.633 606.31c-2.079-1.203-3.734-2.403-5.39-3.603 1.723-.924 3.365-2.372 5.187-2.653a29.667 29.667 0 0 1 8.887-.002c1.82.278 3.462 1.715 5.184 2.632-1.837 1.21-3.535 2.995-5.547 3.485-2.496.608-5.253.144-8.32.14zM594.306 600.914c5.081-.474 9.841-.89 14.588-.767 1.193.031 2.342 1.788 3.511 2.752-1.073 1.118-2.072 3.101-3.231 3.2-4.271.364-8.633.433-12.885-.053-2.304-.263-4.533-1.837-1.983-5.132z"/><path fill="#3E3933" d="M695.72 607.744c2.048-3.449 2.457-.147 3.613 1.122.168 9.128.151 17.969.345 27.573.837 1.061 1.464 1.359 2.09 1.656-.75 1.68-1.499 3.358-2.17 5.44-.953.437-1.986.47-3.423.008-.42-12.263-.438-24.031-.455-35.8z"/><path fill="#515151" d="M610.99 652.578c-4.407.933-8.708 1.561-13.35 2.162-.403-.18-.435-.355-.531-.483-1.3-1.722-2.61-3.438-3.916-5.156 2.355-.74 4.666-1.816 7.077-2.133 2.759-.364 5.644-.334 8.406.037 3.15.422 5.162 1.887 2.315 5.573z"/><path fill="#37322D" d="M217.72 626.154c.647-1.411 1.276-2.312 2.044-3.042.074 14.398.01 28.623-.06 43.305-.502.45-.998.445-1.74.4-.25-13.409-.256-26.78-.243-40.663z"/><path fill="#DDA03B" d="M647.094 603.234c5.773-.421 11.458-.43 17.626-.516 1.13 1.37 1.776 2.818 2.416 4.61-6.37.382-12.733.42-19.554.456-.497-1.381-.536-2.76-.488-4.55z"/><path fill="#515151" d="M637.332 649.35c-5.972 1.131-12.083 1.889-18.581 2.62.07-1.492.098-3.413 1.071-4.324 2.09-1.956 14.764-.725 17.51 1.703z"/><path fill="#B5B5B5" d="M173.083 581.73c-.368-2.34-.348-4.595-.352-7.28 1.615 1.368 3.255 3.165 5.126 5.222-1.308.888-2.847 1.515-4.774 2.058z"/><path fill="#999A9A" d="M702.072 638.079c-.93-.281-1.557-.579-2.307-1.207 1.447-1.177 3.018-2.022 4.955-3.006.6-.05.834.037 1.406.292-1.025 1.413-2.388 2.659-4.054 3.92z"/><path fill="#2C9D9E" d="M213.936 645.044c-.018.01.38.098.38.098s-.152-.025-.247-.083c-.096-.059-.114-.025-.133-.015z"/><path fill="#453F34" d="M8.34 645.867c-1.572-4.85-.358-6.812 4.26-6.838 16.91-.093 33.824-.155 50.73.14 1.84.031 4.909 2.212 5.203 3.804.708 3.82-2.778 4.983-6.173 6.039-18.096-.987-35.826-2.037-54.02-3.145z"/><path fill="#60412F" d="M104.274 653.238c-.315-1.367-.177-2.531-.342-3.651-.744-5.074 1.475-6.536 6.939-4.913 0 2.59 0 5.452-.027 8.76-2.103.305-4.18.166-6.57-.196zM89.506 651.894c-.385-2.354-.385-4.647-.385-7.383h6.969c0 2.469 0 4.869-.046 7.689-2.082.199-4.118-.022-6.538-.306z"/><path fill="#64432F" d="M76.662 644.186c1.7-.131 3.109.004 5.134.2 0 2.002 0 3.865-.036 6.158-1.661.417-3.286.403-5.317.317-.294-2.184-.182-4.296.22-6.675z"/><path fill="#F0EEEB" d="M695.388 607.838c.349 11.674.366 23.442.396 35.679-4.569.876-9.15 1.284-14.177 1.679-.447-9.673-.447-19.334-.437-29.44 5.933-.465 9.806-4.339 14.218-7.918z"/><path fill="#8C7D4B" d="M490.656 671.117c-.416-4.186-.728-8.357-.312-12.454.132-1.295 2.024-3.03 3.436-3.439 2.375-.686 4.16.44 4.098 3.394-.072 3.479-.01 6.96.01 10.904-2.271.855-4.559 1.247-7.232 1.595z"/><path fill="#504434" d="M38 598.707c-8.317-.001-16.135-.034-23.952.012-3.468.02-6.78-.686-6.825-4.755-.046-4.167 3.357-4.751 6.78-4.748 15.967.015 31.935.01 47.902.001 3.408-.002 6.819.593 6.83 4.732.01 4.12-3.339 4.78-6.784 4.766-7.817-.03-15.634-.009-23.951-.008z"/><path fill="#463F33" d="M12.484 620.958c16.772-.007 33.095 0 49.418-.015 3.33-.003 6.922.128 6.82 4.532-.1 4.237-3.603 4.527-6.972 4.522-16.157-.025-32.316.128-48.466-.188-2.054-.04-5.191-2.068-5.834-3.88-1.081-3.048 1.483-4.705 5.034-4.971z"/><path fill="#443D33" d="M65.105 524.327c1.462 1.938 2.514 3.785 3.566 5.632-1.87 1.063-3.727 3.021-5.613 3.049-16.651.242-33.308.12-49.963.162-3.224.008-5.939-.91-5.855-4.515.081-3.502 2.773-4.521 5.994-4.51 17.153.057 34.307.065 51.871.182z"/><path fill="#463F33" d="M34 573.749c9.651 0 18.803.02 27.954-.007 3.36-.01 6.883.23 6.765 4.593-.103 3.814-3.246 4.465-6.54 4.457-16.14-.04-32.279-.042-48.418.002-3.304.01-6.403-.622-6.522-4.468-.123-3.963 2.993-4.612 6.295-4.588 6.655.047 13.31.012 20.466.01z"/><path fill="#443D33" d="M61.608 564.806c-15.768 0-31.082.003-46.396-.003-1.33 0-3.061.463-3.906-.193-1.649-1.279-3.598-3.082-3.86-4.894-.154-1.07 2.673-3.685 4.188-3.708 17.473-.273 34.954-.304 52.425.014 1.612.03 4.484 2.889 4.495 4.45.027 3.725-3.188 4.529-6.946 4.334z"/><path fill="#453F34" d="M9.902 613.719c-1.034-2.028-2.66-4.334-2.07-5.628.667-1.459 3.318-2.804 5.123-2.827 16.644-.21 33.292-.12 49.938-.125 3.212-.001 5.82 1.136 5.843 4.66.022 3.35-2.511 4.325-5.528 4.31-17.64-.084-35.28-.15-53.306-.39z"/><path fill="#463F33" d="M21.04 549.008c-2.82 0-5.148-.035-7.474.005-3.328.058-6.396-.802-6.3-4.652.096-3.84 3.258-4.457 6.537-4.44 9.308.046 18.617.014 27.925.013 6.15 0 12.301-.038 18.45.015 3.579.031 8.407-.79 8.446 4.404.042 5.585-4.993 4.62-8.695 4.635-12.799.053-25.598.02-38.89.02z"/><path fill="#60412F" d="M75.048 506.236c-.27-2.62-.113-5.09-.21-7.551-.1-2.544 1.033-4.052 3.434-3.293 1.398.441 3.11 2.083 3.377 3.441.53 2.693.062 5.569.184 8.36.126 2.866-1.237 3.878-4.3 3.566-.986-1.465-1.577-2.918-2.485-4.523z"/><path fill="#64432F" d="M77.002 538.626c3.76-1.023 5.175.569 4.863 4.207-.208 2.429-.132 4.894-.022 7.336.129 2.838-1.256 3.832-4.275 3.542-.478-4.892-.569-9.767-.566-15.085zM76.994 601.62c3.749-1.015 5.191.542 4.872 4.195-.213 2.428-.13 4.892-.022 7.333.126 2.822-1.221 3.854-4.259 3.54-.486-4.887-.587-9.755-.59-15.067zM76.896 561.381c1.5-.391 2.933-.313 4.904-.205 0 4.365.233 8.44-.179 12.449-.092.896-2.442 1.56-4.178 2.33-.487-4.702-.55-9.403-.547-14.574zM76.901 624.39c1.494-.392 2.925-.315 4.899-.208 0 4.366.233 8.437-.18 12.44-.092.898-2.443 1.562-4.178 2.334-.484-4.699-.544-9.398-.54-14.566zM76.903 516.38c1.487-.393 2.914-.317 4.905-.21 0 4.364.23 8.428-.179 12.426-.091.89-2.435 1.55-4.163 2.312-.489-4.688-.556-9.372-.563-14.527zM76.941 581.53c1.518-.383 2.943-.314 4.872-.22 0 4.221-.06 8.112.02 12 .063 3.07-2.004 2.821-4.443 2.784-.47-4.697-.507-9.404-.449-14.564z"/><path fill="#C6CBC5" d="M768.634 573.083c-.421-2.764-.468-5.531-.628-8.755.5-.851 1.114-1.245 1.727-1.639 1.401 2.25 2.802 4.501 4.342 7.097-1.596 1.328-3.33 2.311-5.44 3.297z"/><path fill="#453F34" d="M366.068 463.605c-7.838.144-15.477.054-23.114.097-3.3.019-5.666-1.026-5.68-4.665-.012-3.653 2.34-4.67 5.654-4.649 10.96.073 21.921-.033 32.88.093 1.476.017 2.941.972 4.59 1.84-5.63.4-10.383 2.686-14.33 7.284z"/><path fill="#473F33" d="M363.654 478.751c-7.079.439-14.047.369-21.013.433-3.347.031-5.387-1.05-5.487-4.773-.104-3.858 2.561-4.227 5.264-4.273 6.8-.113 13.602-.035 20.845-.01.462 2.738.482 5.454.39 8.623z"/><path fill="#385F5A" d="M389.404 679.386c-4.887 1.118-6.91-.531-6.302-5.279.249-1.946.163-3.96.015-5.926-.228-3.02 1.078-4.096 4.043-4.057 2.875.039 3.832 1.377 3.603 3.993-.323 3.697-.657 7.394-1.359 11.27zM390.765 543.27c0 2.264-.09 4.082.02 5.888.176 2.884-.418 4.73-3.97 4.66-3.271-.064-3.83-1.747-3.692-4.43.11-2.137.073-4.286.007-6.427-.083-2.679.02-4.869 3.749-4.884 3.607-.015 4.095 1.935 3.886 5.194zM412.217 542.375c-.283-3.645 1.525-4.298 4.28-4.263 3.085.04 3.403 1.878 3.34 4.262-.064 2.469-.103 4.944.008 7.41.117 2.601-.708 3.974-3.596 4.017-2.969.044-4.249-1.059-4.06-4.062.145-2.296.027-4.61.028-7.364zM390.765 608.993c-.372 3.656 1.623 8.94-4.679 7.574-5.947-1.288-2.011-6.558-2.802-9.925-.48-2.047-1.186-5.169 2.858-5.502 6.493-.535 4.17 4.256 4.623 7.853zM412.223 667.489c.258-4.135 3.116-3.57 5.182-3.08 1.025.243 2.132 2.2 2.311 3.504.36 2.613.015 5.315.133 7.972.123 2.765-1.021 3.882-3.812 3.886-2.777.005-3.96-1.082-3.845-3.856.11-2.659.024-5.325.03-8.426zM385.326 490.652c-2.106-2.253-3.224-13.058-1.546-14.381 1.108-.873 3.109-1.205 4.52-.899.984.214 2.174 1.838 2.343 2.97.36 2.42-.07 4.948.165 7.4.373 3.903-1.138 5.595-5.482 4.91zM383.849 496.053c6.534-1.333 6.894-1.046 6.916 4.988.007 1.978-.087 3.961.02 5.933.148 2.71-.944 3.897-3.738 3.875-2.608-.021-4.094-.769-3.92-3.67.215-3.603.292-7.213.722-11.126zM412.216 484.821c0-2.122.092-3.793-.02-5.45-.196-2.88.806-4.276 3.947-4.272 3.355.006 3.822 1.852 3.698 4.51-.086 1.826-.014 3.66-.017 5.49-.005 2.805.64 5.812-3.965 5.72-4.327-.086-3.576-2.952-3.643-5.998z"/><path fill="#3A6660" d="M417.765 575.935c-1.904.036-3.37.036-5.208.036v-14.596h7.954c-.794 4.992-1.551 9.758-2.746 14.56zM412.705 624.703c7.12-1.323 7.153-1.307 7.146 5.162a280.895 280.895 0 0 1-.132 7.457c-.008.3-.237.596-.368.892-6.684 1.725-7.185 1.378-7.16-5.223.011-2.648.155-5.295.514-8.288zM418.645 595.839c-2.206.16-3.994.16-6.119.16v-14.551h7.588c-.36 4.87-.705 9.55-1.469 14.39z"/><path fill="#385F5A" d="M383.144 588.04v-6.219c7.114-1.485 7.594-1.132 7.621 5.094.004 1 .002 1.999 0 2.998-.009 6.573-.009 6.573-7.622 5.694v-7.566zM383.144 571.75V561.4h7.614c0 3.668.312 7.318-.158 10.863-.18 1.354-1.952 3.123-3.352 3.554-2.666.82-4.56-.323-4.104-4.067zM412.216 650.179c.164-6.435.348-6.576 7.24-5.632v14.065h-7.24v-8.433zM390.765 632.86c-.18 6.386-.407 6.56-7.242 5.614V624.55c7.17-1.314 7.242-1.232 7.242 8.31z"/><path fill="#355652" d="M418.428 530.373c-4.736 1.29-6.633-.35-6.194-4.873.19-1.968.101-3.972.024-5.955-.113-2.89 1.529-4.178 3.989-3.44 1.395.418 3.284 2.212 3.349 3.468.18 3.514-.473 7.07-1.168 10.8z"/><path fill="#385F5A" d="M401.927 475.16c1.295.929 2.795 1.785 2.9 2.788.327 3.097.475 6.311-.044 9.355-.223 1.304-2.136 2.92-3.523 3.2-.836.17-2.896-1.844-3.079-3.074a32.008 32.008 0 0 1 .006-9.35c.168-1.114 2.152-1.957 3.74-2.918z"/><path fill="#355652" d="M413.524 616.519c-.419-4.617-.634-9-.448-13.366.029-.68 1.88-1.764 2.905-1.784 1.06-.02 3.026.975 3.066 1.622.252 4.047.339 8.156-.193 12.155-.1.745-3.251 1.085-5.33 1.373z"/><path fill="#34514D" d="M404.899 608.939c-.008 1.958.475 3.718-.152 4.877-.71 1.31-2.315 2.598-3.73 2.873-.759.148-2.69-1.783-2.788-2.893-.35-3.921-.136-7.893-.136-12.206h6.806v7.349zM404.9 543.17c-.007 2.786.47 5.26-.19 7.382-.432 1.388-2.397 2.541-3.933 3.179-.397.164-2.459-1.949-2.559-3.118-.334-3.91-.127-7.866-.127-11.835 4.066-.888 7.402-1.62 6.808 4.391z"/><path fill="#385F5A" d="M404.952 564.274c.004 3.923.004 7.38.004 11.259h-6.502v-14.345c2.55.382 5.89-2.353 6.498 3.086zM398.02 589.923v-8.383h6.618v14.147h-6.37c-.083-1.765-.165-3.528-.248-5.764zM404.953 647.303c.003 3.922.003 7.384.003 10.709-6.14 2.014-6.907 1.549-6.927-3.967-.01-2.814.065-5.629.137-8.442.008-.293.262-.58.577-1.235 2.18.404 5.475-2.439 6.21 2.935z"/><path fill="#34514D" d="M402.798 530.831c-3.588.476-5.06-.614-4.78-4.061.268-3.285.058-6.61.058-10.484l7.512-.364c-.85 5.37-1.603 10.127-2.79 14.91z"/><path fill="#355652" d="M385.331 516.056c3.493-.494 5.244.429 4.86 3.916-.18 1.636-.065 3.31-.025 4.964.15 6.26.16 6.26-7.587 5.426.771-4.75 1.542-9.496 2.752-14.306z"/><path fill="#34514D" d="M404.898 634.752c.243 5.846-3.377 3.89-6.454 3.902V624.37h6.455l-.001 10.382zM404.854 666.602c.032 4.222.032 8.005.032 12.077h-6.81c0-3.533-.168-6.823.079-10.081.108-1.43 1.01-3.938 1.646-3.969 1.645-.079 3.344.949 5.053 1.973z"/><path fill="#355652" d="M415.965 496.056c1.302 1.05 2.78 2.032 2.894 3.153.332 3.256.117 6.567.117 9.774-6.878 2.753-6.923 2.724-6.934-4.208-.003-1.814.13-3.64-.029-5.44-.24-2.705 1.064-3.547 3.952-3.28zM383.79 658.318l-.773-13.521c7.02-1.248 7.318-.994 7.156 4.947-.067 2.483-.015 4.97-.496 7.899-2.281.52-4.084.598-5.887.675z"/><path fill="#34514D" d="M402.73 496.102c1.236 4.483 2.029 8.944 2.903 13.86h-7.527c0-3.975-.242-7.908.19-11.766.095-.844 2.597-1.418 4.434-2.094z"/><path fill="#458F85" d="M383.931 658.644c1.662-.403 3.465-.48 5.718-.538-1.558.3-3.567.582-5.718.538z"/><path fill="#8C7D4B" d="M497.868 540.63c.254 3.72-1.696 4.243-4.395 4.211-3.127-.037-3.359-1.981-3.31-4.337.05-2.483.085-4.97-.01-7.45-.1-2.633.806-3.963 3.687-3.987 3.022-.024 4.216 1.208 4.054 4.16-.126 2.312-.024 4.636-.026 7.403z"/><path fill="#857849" d="M468.52 550.822c.179 3.7.152 7.002.27 10.3.098 2.775-1.158 3.778-3.877 3.78-2.77.003-3.924-1.101-3.786-3.841.108-2.14.008-4.292.023-6.438.04-5.77 1.606-6.676 7.37-3.8z"/><path fill="#8C7D4B" d="M497.87 560.643c.257 3.669-1.59 4.297-4.342 4.277-3.117-.022-3.42-1.893-3.368-4.279.056-2.483.092-4.972-.007-7.453-.103-2.6.713-4.012 3.629-4.038 2.963-.028 4.291 1.062 4.113 4.086-.136 2.311-.025 4.637-.025 7.407zM490.431 606.214c-.185-3.713-.153-7.027-.277-10.336-.104-2.78 1.133-3.823 3.87-3.807 2.734.015 3.979 1.087 3.862 3.848-.092 2.15 0 4.307-.018 6.46-.049 5.765-1.694 6.717-7.437 3.835zM490.236 625.406c-.05-3.416.034-6.397-.09-9.37-.114-2.758 1.044-3.869 3.801-3.851 2.637.017 4.071.866 3.945 3.73-.11 2.475.17 4.98-.094 7.433-.158 1.47-1.077 4.091-1.574 4.073-1.998-.076-3.965-.978-5.988-2.015zM494.831 423.236c1.288 1.182 2.74 2.267 2.915 3.53.383 2.761.047 5.615.139 8.427.092 2.829-1.303 3.733-3.96 3.754-2.812.023-3.87-1.217-3.772-3.91.096-2.646.124-5.303-.008-7.946-.157-3.144 1.436-4.138 4.686-3.855z"/><path fill="#857849" d="M467.449 592.526c.651 4.243 1.253 8.31.999 12.323-.068 1.058-2.722 2.531-4.3 2.686-.881.086-2.538-2.01-2.868-3.362-.495-2.03.08-4.294-.176-6.413-.576-4.767 1.426-6.433 6.345-5.234zM466.65 501.741c-4.297.685-5.938-.88-5.547-4.861.241-2.458-.192-4.994.162-7.423.167-1.147 1.462-2.985 2.27-2.998 1.576-.026 4.538 1.016 4.537 1.61-.01 4.535-.598 9.068-1.422 13.672zM461.79 543.903c-.399-3.924-.467-7.54-.654-11.151-.15-2.904 1.469-4.16 3.932-3.464 1.428.403 3.157 1.963 3.538 3.338.594 2.145.26 4.582.137 6.885-.263 4.895-1.353 5.624-6.953 4.392z"/><path fill="#8C7D4B" d="M490.176 644.68c-.003-3.92-.003-7.382-.003-11.298h7.325v14.096c-2.745-.059-6.127 2.855-7.322-2.799zM493.127 458.973c-1.271-.799-2.762-1.548-2.816-2.39-.255-3.93-.113-7.888-.113-12.25 3.04.18 6.5-2.565 7.567 2.092 1.737 7.584.01 12.12-4.638 12.548zM497.354 464.804c.353 3.633.324 6.932.55 10.213.202 2.927-.79 4.114-3.888 4.128-3.116.014-4.14-1.187-3.872-4.109.15-1.635.023-3.296.028-4.945.022-6.342.312-6.578 7.182-5.287zM497.84 511.443c.025 2.428.032 4.407.03 6.386-.007 6.843-.093 6.913-7.663 5.616 0-3.772-.146-7.683.103-11.568.062-.964 1.479-2.672 2.137-2.61 1.828.175 3.585 1.1 5.392 2.176zM497.866 575.338c.004 2.105.006 3.754.005 5.404-.006 6.903-.02 6.915-7.688 5.783 0-3.606-.214-7.356.123-11.057.11-1.205 1.516-3.046 2.581-3.246 1.973-.37 4.966-1.22 4.98 3.116z"/><path fill="#857849" d="M461.28 445.528c5.682-2.844 7.417-1.877 7.49 3.712.023 1.816-.104 3.64.025 5.448.23 3.23-1.194 4.34-4.379 4.345-3.23.006-3.356-1.797-3.287-4.157.087-2.97.046-5.944.151-9.348zM461.147 622.726v-9.106c7.213-1.568 7.605-1.29 7.626 4.889.005 1.486-.035 2.974.008 4.46.076 2.651.026 4.914-3.728 4.948-3.607.032-4.125-1.909-3.906-5.191zM468.504 425.685c.186 3.402.166 6.39.284 9.37.109 2.751-1.089 3.858-3.849 3.867-2.785.008-3.9-1.133-3.815-3.875.108-3.448.026-6.902.026-11.565 2.869.71 5.038 1.248 7.354 2.203zM462.48 464.412c6.707-.427 6.662-.22 6.357 10.373-.164 5.718-3.752 4.135-7.991 3.95.427-4.82.84-9.474 1.634-14.323zM464.857 647.956c-1.52-1.018-3.33-1.903-3.555-3.088-.484-2.545-.09-5.247-.173-7.88-.075-2.377.108-4.187 3.31-4.114 2.763.063 4.473.703 4.345 3.85-.1 2.467.374 5.04-.19 7.377-.353 1.465-2.155 2.58-3.737 3.855zM468.76 658.48c.01 2.1.018 3.762.012 5.424-.023 6.454-.366 6.738-7.623 5.611 0-3.307-.233-6.763.109-10.16.147-1.457 1.22-3.64 2.349-4 2.06-.656 4.86-.9 5.153 3.125zM476.149 563.475c-.14-3.905-.49-7.43-.003-10.835.182-1.273 2.2-2.889 3.605-3.153.848-.16 2.933 1.89 3.065 3.1.41 3.75.15 7.571.15 12.389-2.528-.405-4.61-.74-6.817-1.5zM475.965 597.163c-.055-2.847-.34-5.176 3.363-5.08 3.333.087 3.769 1.917 3.668 4.562-.095 2.49.385 5.083-.175 7.444-.335 1.412-2.182 2.466-3.349 3.68-1.168-1.22-2.939-2.263-3.359-3.702-.582-1.991-.147-4.28-.148-6.904z"/><path fill="#7A6E46" d="M476.019 541.541c-.012-2.604.163-4.78-.05-6.916-.487-4.896 1.647-6.362 6.94-4.823 0 3.835.23 7.933-.147 11.974-.105 1.127-2.032 2.94-3.07 2.904-1.25-.043-2.445-1.722-3.673-3.139z"/><path fill="#857849" d="M461.29 522.493c-.094-4.53-.094-8.624-.094-12.592 6.82-1.686 7.593-1.008 6.998 5.507-.12 1.311-.05 2.64-.074 3.96-.092 5.182-1.369 5.857-6.83 3.125zM464.047 572.07c3.64-.313 4.961.789 4.214 4.284-.473 2.213-.24 4.609-.11 6.91.148 2.672-.732 3.86-3.624 3.88-3.12.024-3.504-1.6-3.401-4.061.103-2.472-.247-4.994.138-7.409.205-1.289 1.543-2.396 2.783-3.604z"/><path fill="#7A6E46" d="M491.397 487.58c4.837-1.636 6.869-.01 6.41 4.766-.173 1.795-.134 3.629-.006 5.432.212 2.993-1.08 4.108-4.054 4.071-3.088-.038-3.417-1.419-3.061-4.088.433-3.242.302-6.56.71-10.18zM476.036 456.597c-.028-3.255.087-6.063-.065-8.857-.149-2.719.802-3.855 3.66-3.808 2.666.044 3.452 1.18 3.329 3.625-.125 2.466.13 4.958-.091 7.41-.117 1.29-.992 3.623-1.365 3.591-1.844-.155-3.634-.943-5.468-1.96z"/><path fill="#857849" d="M482.971 583.722c.09 3.953-2.554 3.66-4.493 3.165-1.047-.267-2.222-2.062-2.397-3.3-.368-2.606-.024-5.303-.14-7.955-.108-2.452.667-3.613 3.364-3.649 2.851-.038 3.881 1.034 3.704 3.807-.158 2.48-.034 4.98-.038 7.932zM482.976 642.844c-.123 1.898-.246 3.329-.36 4.652-6.63.83-6.632.83-6.651-5.21a473.001 473.001 0 0 1 0-3.987c.03-5.785.278-5.968 7.011-4.602v9.147z"/><path fill="#7A6E46" d="M482.933 470.096c0 2.118-.106 3.774.023 5.412.199 2.523-.771 3.57-3.377 3.542-2.396-.026-3.785-.611-3.599-3.328.135-1.969-.074-3.96.05-5.93.158-2.512-1.27-5.878 3.613-5.775 4.615.098 2.941 3.32 3.29 6.08z"/><path fill="#857849" d="M482.976 515.092c-.001 2.13-.097 3.795.018 5.446.175 2.517-.779 3.605-3.412 3.577-2.426-.026-3.798-.659-3.634-3.365.12-1.983.012-3.98.017-5.97.016-6.044.018-6.044 6.731-5.306.09 1.646.185 3.396.28 5.618zM480.835 670.053c-3.948.576-5.25-.96-4.91-4.406.21-2.123.091-4.285.027-6.426-.07-2.337.04-4.221 3.276-4.171 3.202.05 4.073 1.71 3.721 4.412-.46 3.53-1.102 7.035-2.114 10.59zM482.947 426.338c.023 3.256-.057 6.058.047 8.852.106 2.837-1.308 3.685-3.93 3.724-2.866.044-3.184-1.582-3.115-3.813.076-2.467-.16-4.956.088-7.4.129-1.263 1.123-3.528 1.536-3.486 1.822.188 3.575 1.049 5.374 2.123zM482.977 618.091c-.001 2.286-.079 4.105.015 5.916.141 2.721-1.029 3.838-3.783 3.887-2.773.05-3.373-1.335-3.263-3.684.092-1.976.012-3.96.02-5.94.023-5.83.157-5.932 6.699-4.845.099 1.332.205 2.764.312 4.666z"/><path fill="#7A6E46" d="M476.005 494.013v-6.627h6.925c0 3.426-.085 6.836.028 10.24.08 2.417-.63 3.617-3.32 3.669-2.888.056-3.885-1.14-3.645-3.836.087-.983.012-1.98.012-3.446z"/><path fill="#60412F" d="M459.406 403.186c-.47-2.608-.37-5.245-.575-7.859-.239-3.035.588-4.434 4.018-4.441 3.467-.008 4.245 1.473 3.999 4.466-.175 2.122-.09 4.265-.186 6.822-2.317.613-4.57.803-7.256 1.012z"/><path fill="#664731" d="M445.813 479.179c-1.31-.33-3.478-1.005-3.543-1.845-.346-4.42-.279-8.888-.032-13.321.036-.651 1.8-1.206 3.161-1.778.44 5.526.482 11.024.414 16.944zM445.789 576.136c-1.313-.342-3.459-1.024-3.524-1.867-.339-4.407-.268-8.862-.016-13.282.038-.653 1.798-1.208 3.159-1.774.434 5.526.471 11.018.38 16.923zM445.921 527.375c-1.328-.355-3.583-1.064-3.671-1.98-.393-4.097-.34-8.266-.036-12.38.07-.942 1.77-1.765 3.08-2.595.473 5.534.585 11.02.627 16.955zM445.91 550.349c-1.33-.36-3.576-1.072-3.664-1.99-.392-4.089-.338-8.25-.034-12.355.07-.94 1.771-1.76 3.082-2.586.472 5.527.583 11.006.617 16.93z"/><path fill="#64432F" d="M445.913 430.37c-2.773.952-4.039.024-3.884-2.9.173-3.26.198-6.546-.006-9.802-.198-3.18 1.258-4.1 4.534-3.664.1 5.311-.234 10.616-.644 16.367z"/><path fill="#664731" d="M445.916 453.345c-2.3.77-3.98.54-3.884-2.397.12-3.75-.17-7.528.175-11.25.091-.98 1.872-1.804 3.293-2.675.444 5.31.472 10.594.416 16.322zM445.938 504.414c-2.291.778-3.99.545-3.901-2.403.113-3.775-.174-7.576.172-11.323.092-.99 1.88-1.82 3.31-2.702.442 5.34.462 10.657.419 16.428z"/><path fill="#4E392C" d="M445.906 621.396c-1.183.068-3.305-.323-3.303-.703.028-4.987.334-9.974.683-14.953.014-.203 1.134-.328 2.118-.47.436 5.238.493 10.455.502 16.126zM445.921 598.436c-1.224-.076-3.426-.593-3.436-1.15-.085-4.7.187-9.412.514-14.11.023-.345 1.308-.602 2.386-.879.445 5.241.51 10.46.536 16.14z"/><path fill="#3E3933" d="M550.688 529.23c.69 3.522 1.205 6.908 1.076 10.27-.032.852-2.109 2.255-3.25 2.258-1.145.004-3.102-1.274-3.284-2.255-.473-2.548-.265-5.246-.149-7.876.172-3.882 3.162-2.292 5.607-2.396zM551.96 568.88c.191 3.163.043 5.273-3.74 5.154-3.745-.118-3.134-2.516-3.175-4.756-.024-1.316.055-2.636-.017-3.949-.139-2.55.078-4.43 3.537-4.42 3.587.01 3.48 2.126 3.4 4.548-.032.987-.005 1.975-.004 3.424z"/><path fill="#312D29" d="M551.742 521.474c-2.038.826-3.972 1.228-6.343 1.72v-12.146c5.709-1.993 6.469-1.526 6.498 4.04.01 1.986-.033 3.974-.155 6.386z"/><path fill="#3E3933" d="M547.177 580.032c3.548-.467 5.222.594 4.805 4.016-.14 1.143-.12 2.328-.005 3.477.492 4.879-1.687 6.336-7.484 4.6.728-3.914 1.486-7.984 2.684-12.093z"/><path fill="#39342F" d="M570.158 640.597c-.005-2.431-.506-4.62.168-6.352.533-1.366 2.394-2.53 3.913-3.026.542-.177 2.338 1.74 2.626 2.929.456 1.881.378 3.999.039 5.93-.237 1.346-1.292 2.548-1.981 3.814-1.584-.952-3.169-1.904-4.765-3.295zM570.146 588.716c.013-2.27-.456-4.298.198-5.854.525-1.25 2.338-2.463 3.724-2.654.828-.115 2.491 1.626 2.786 2.786.477 1.87.439 4.014.037 5.92-.302 1.428-1.27 3.49-2.375 3.818-2.58.767-4.576-.34-4.37-4.016zM537.73 612.257c.7 3.546 1.185 6.952 1.12 10.349-.016.8-1.893 2.18-2.903 2.17-1.008-.01-2.723-1.317-2.866-2.25-.4-2.597-.581-5.406.052-7.904.282-1.117 2.72-1.688 4.596-2.365zM561.891 631.062c.876 4.031 1.313 8.028 1.75 12.024-1.791-.06-5.139-.051-5.145-.192-.168-3.741-.051-7.503.247-11.243.023-.278 1.766-.419 3.148-.589zM562.764 510.246c.713 3.536 1.203 6.942 1.144 10.338-.014.802-1.878 2.183-2.891 2.183-1.007 0-2.738-1.293-2.88-2.215-.401-2.602-.584-5.413.044-7.917.28-1.118 2.707-1.698 4.583-2.39zM564.092 569.806c.195 2.824-.574 4.722-3.223 3.969-1.194-.34-2.48-2.102-2.781-3.432a14.758 14.758 0 0 1 .021-6.415c.264-1.131 1.888-2.692 2.9-2.694 1.023-.001 2.591 1.52 2.941 2.673.509 1.673.139 3.612.142 5.899zM561.886 624.916c-1.597-.944-3.467-1.747-3.76-2.938-.541-2.195-.472-4.68-.024-6.919.228-1.144 1.802-2.77 2.81-2.8 1.03-.032 3.05 1.673 3.004 2.53-.182 3.382-1.006 6.73-2.03 10.127zM558.001 539.611c-.03-2.774-.398-5.184.11-7.393.284-1.235 2.022-2.136 3.104-3.188.958 1.012 2.457 1.89 2.748 3.067.465 1.879.318 3.981.061 5.94-.168 1.29-.993 3.541-1.508 3.537-1.5-.013-2.993-.944-4.515-1.963zM563.456 592.264c-4.253 1.504-5.957.1-5.521-4.04.173-1.644-.378-3.472.16-4.939.473-1.292 2.002-2.197 3.065-3.274.974 1.001 2.67 1.928 2.781 3.018.302 2.937-.07 5.943-.485 9.235zM532.95 590.621c-.03-2.774-.396-5.183.111-7.39.286-1.245 2.011-2.158 3.088-3.22.958 1.011 2.459 1.888 2.751 3.065.467 1.877.318 3.978.067 5.938-.165 1.294-.977 3.563-1.478 3.557-1.51-.016-3.008-.934-4.54-1.95z"/><path fill="#312D29" d="m576.958 514.302.001 7.935c-4.273 1.427-6.544.782-6.094-3.94.126-1.321-.262-2.745.09-3.977.425-1.483 1.106-3.69 2.174-4.032 2.618-.841 4.007.783 3.829 4.014z"/><path fill="#39342F" d="M548.862 473.474c.016 3.534.016 6.627.016 9.856-3.865 1.243-6.127.935-5.764-3.593.144-1.796-.188-3.651.12-5.405.192-1.102 1.174-2.915 1.798-2.913 1.273.003 2.543 1.017 3.83 2.055z"/><path fill="#312D29" d="M576.946 538.536c-1.239 1.372-2.468 2.307-3.697 3.242-.787-1.232-2.015-2.383-2.26-3.714-.38-2.078-.453-4.368.057-6.388.269-1.067 1.98-2.28 3.165-2.43.797-.1 2.407 1.426 2.61 2.434.417 2.065.131 4.271.125 6.856zM551.18 622.976c-1.282.816-3.475 1.765-3.584 1.566-1.035-1.877-2.284-3.935-2.334-5.97-.05-2.02 1.21-4.073 1.895-6.111 1.342.622 3.675 1.05 3.842 1.902.52 2.651.218 5.464.18 8.613zM572.17 572.964c-.697-3.386-1.1-6.612-1.117-9.84-.003-.678 1.376-1.858 2.19-1.925 1.122-.091 3.277.573 3.319 1.056.28 3.261.285 6.579-.082 9.826-.055.487-2.526.7-4.31.883zM545.1 637.793c.087-1.911-.23-3.6.404-4.778.421-.782 2.234-1.188 3.364-1.088.81.072 2.036 1.17 2.176 1.967.336 1.917.434 3.984.067 5.882-.278 1.44-1.419 2.715-2.176 4.064-1.266-1.212-2.61-2.356-3.75-3.676-.33-.384-.073-1.273-.085-2.37z"/><path fill="#37322D" d="M535.704 643.678c-1.474-.9-3.268-1.85-3.512-3.102-.494-2.538-.147-5.238-.147-8.27l5.966-.452c-.673 4.185 2.05 8.245-2.307 11.824z"/><path fill="#312D29" d="M570.89 616.177c1.161-1.44 2.318-2.418 3.475-3.396.862 1.11 2.168 2.109 2.479 3.356.425 1.708.488 3.733-.049 5.376-.365 1.12-1.948 2.348-3.13 2.515-.786.112-2.31-1.412-2.635-2.47-.465-1.511-.135-3.267-.14-5.38z"/><path fill="#39342F" d="M558.914 481.595c-1.147 1.055-2.23 1.915-3.427 2.121-.374.065-1.434-1.607-1.516-2.542-.217-2.467-.329-5.008.059-7.434.157-.985 1.715-1.747 2.636-2.611.752.853 2.034 1.64 2.152 2.572.31 2.449.111 4.961.096 7.894zM569.013 478.886c-.245 2.392.846 5.476-2.708 4.855-1.01-.177-1.884-2.742-2.28-4.345-.386-1.562-.405-3.385.022-4.925.345-1.247 1.591-2.245 2.438-3.353.84 1.11 1.99 2.11 2.434 3.36.418 1.179.093 2.621.094 4.408z"/><path fill="#312D29" d="M538.965 513.996c.013 1.613-.102 3.239.066 4.835.331 3.14-.856 4.588-4.55 3.592-.563-4.207-.666-7.94-.768-11.675 1.323-.127 2.647-.255 4.183.18.498 1.397.784 2.232 1.07 3.068zM534.081 529.13c1.021-.02 2.043-.04 3.482.402.745 3.462 1.071 6.463 1.398 9.463.164 3.796-2.359 2.914-4.802 1.933-.195-4.386-.136-8.092-.078-11.799zM538.168 573.166c-1.275.142-2.55.284-4.043-.248-.162-4.388-.106-8.1-.049-11.814 1.023-.013 2.047-.025 3.484.439.479 4.192.543 7.908.608 11.623z"/><path fill="#524A42" d="M533.68 529.165c.343 3.67.284 7.377.167 11.56-3.147-3.4-2.3-7.443-.166-11.56zM533.363 510.919c.452 3.563.555 7.297.7 11.476-3.558-3.17-2.223-7.246-.7-11.476zM533.704 561.234c.315 3.583.259 7.296.146 11.487-3.218-3.35-2.234-7.34-.146-11.487zM538.532 573.024c-.429-3.573-.493-7.289-.589-11.454 3.412 3.211 2.314 7.25.589 11.454zM539.241 538.717c-.607-2.722-.933-5.723-1.296-9.156 3.634 2.129 1.593 5.679 1.296 9.156zM539.21 513.803c-.53-.643-.816-1.478-1.035-2.67.47.59.876 1.533 1.036 2.67z"/><path fill="#FCFCFC" d="M277.694 661.154c-.361-30.263-.413-60.365-.346-90.467.004-1.644.993-3.286 1.705-5.29 7.73 1.499 15.117 5.4 23.522 1.45.438 34.47.477 68.937.44 103.884-7.729-4.453-15.914-8.051-25.321-9.577z"/><path fill="#3E3933" d="M349.15 531.997c.426 2.95.903 5.638.539 8.205-.148 1.042-2.03 2.212-3.321 2.539-.54.137-1.982-1.648-2.321-2.77-.416-1.373-.007-2.974-.127-4.463-.313-3.87 1.105-5.381 5.23-3.51zM349.89 584.618c-1.282 1.365-2.554 2.296-3.826 3.226-.708-1.241-1.741-2.41-2.04-3.743-.356-1.585-.442-3.426.039-4.938.377-1.186 1.794-2.042 2.749-3.045 1.023 1.025 2.517 1.884 2.947 3.116.52 1.485.136 3.286.132 5.384z"/><path fill="#39342F" d="M316.05 585.575c-1.342 1.008-2.677 2-3.988 1.97-.663-.016-1.646-1.818-1.839-2.924-.307-1.77-.46-3.751.054-5.416.374-1.211 1.932-2.057 2.962-3.065.943 1.01 2.422 1.89 2.706 3.059.457 1.878.123 3.949.106 6.376z"/><path fill="#3E3933" d="M345.995 632.878c-.883-3.591-1.34-7.146-1.797-10.702 1.51-.192 4.293-.704 4.337-.528.662 2.634 1.347 5.384 1.168 8.049-.076 1.14-2.127 2.149-3.708 3.18zM310.183 630.484c-.037-2.593-.35-4.834.138-6.884.24-1.005 1.952-2.25 3.028-2.28.886-.023 2.337 1.452 2.607 2.503.441 1.718.285 3.65.074 5.455-.138 1.178-.82 2.292-1.257 3.435-1.512-.6-3.024-1.2-4.59-2.23z"/><path fill="#39342F" d="M348.5 548.417c.694 3.087 1.257 5.992 1.16 8.875-.03.87-1.864 2.27-2.93 2.328-.875.048-2.37-1.4-2.64-2.432-.447-1.709-.005-3.628-.164-5.44-.287-3.278 1.291-4.138 4.575-3.331zM346.962 649.762c-2.778-1.603-4.33-9.873-2.256-11.075 1.076-.623 3.377-.413 4.374.373 2.044 1.61.658 8.958-2.118 10.702z"/><path fill="#37322D" d="M310.41 542.649c-.43-.108-.421-.131-.42-.14.052-2.484-.225-5.03.278-7.41.296-1.399 1.83-2.537 2.809-3.792.995 1.172 2.187 2.235 2.909 3.556.418.763-.03 1.955.098 2.93.536 4.106-.978 5.97-5.675 4.856zM323.369 531.452c1.501.93 3.468 1.92 3.553 3.051.202 2.661-.495 5.39-.828 8.092-1.502-.312-4.319-.692-4.307-.927.174-3.375.729-6.731 1.582-10.216z"/><path fill="#39342F" d="M315.81 648.204c-3.443 2.38-5.48 1.81-5.668-2.366-.067-1.492-.436-3.18.118-4.432.591-1.334 2.11-2.258 3.224-3.36.861 1.098 2.243 2.1 2.468 3.315.384 2.08.044 4.294-.142 6.843z"/><path fill="#3E3933" d="M310.1 599.042c.098-1.756-.192-3.294.408-4.3.527-.883 2.099-1.663 3.125-1.569.87.08 1.992 1.343 2.33 2.316.41 1.18.195 2.611.105 3.923-.135 1.962.832 4.513-2.682 4.7-3.717.198-3.284-2.31-3.286-5.07z"/><path fill="#39342F" d="M343.958 596.276c1.012-1.372 2.02-2.3 3.028-3.226.957 1.072 2.353 2.001 2.76 3.252.484 1.487.498 3.378 0 4.853-.391 1.16-1.862 2.695-2.863 2.702-.968.006-2.365-1.57-2.81-2.74-.492-1.293-.116-2.916-.115-4.84z"/><path fill="#37322D" d="M333.45 587.651c-.854-3.37-1.321-6.537-1.863-10.212h5.79c1.648 8.92 1.181 10.266-3.926 10.212zM326.725 549.734c.147 3.18.147 5.957.147 9.903-2.38-.793-5.326-1.154-5.435-1.921-.406-2.835.125-5.805.305-8.723 1.611.114 3.223.227 4.983.741zM337.287 593.988c.465 3.261.633 6.209.83 9.625h-5.449c-1.754-8.978-.967-10.741 4.62-9.625zM332.054 556.73c-.013-2.265-.349-4.186.129-5.876.306-1.084 1.804-2.52 2.783-2.532.981-.011 2.66 1.43 2.838 2.444.423 2.397.136 4.919.136 8.908-2.43-1.037-4.146-1.77-5.886-2.945zM337.47 622.635c.358 2.491.88 4.768.348 6.763-.353 1.323-2.216 2.242-3.404 3.342-.794-1.039-2.092-1.995-2.276-3.133-.362-2.241-.106-4.583-.106-7.305 1.998 0 3.577 0 5.439.333zM326.96 602.552c-2.35 2.122-4.786 2.538-5.087-.887-.244-2.77.945-5.668 1.498-8.509 1.239.84 3.23 1.462 3.551 2.569.575 1.978.144 4.25.038 6.827z"/><path fill="#3E3933" d="M340.043 497.115c2.93 1.515 4.165 9.423 1.923 10.931-.812.546-2.486-.19-3.767-.34.473-3.52.946-7.04 1.844-10.59zM328.96 504.765c.012-2.094-.269-3.821.144-5.363.247-.921 1.599-2.162 2.423-2.14.81.023 2.09 1.366 2.263 2.297.358 1.913.448 4.018.002 5.89-.298 1.255-1.707 2.247-2.62 3.356-.737-1.198-1.474-2.396-2.211-4.04z"/><path fill="#37322D" d="M332.912 537.995c.006-1.603-.336-2.92.108-3.871.52-1.111 1.724-1.903 2.63-2.833.82 1.024 1.96 1.935 2.369 3.103.412 1.177.391 2.695.032 3.908-.475 1.601-1.227 4.136-2.277 4.365-3.43.751-2.737-2.195-2.862-4.672z"/><path fill="#39342F" d="M310.586 558.936c-.117-3.357.191-6.656.56-10.384 1.482-.429 2.904-.429 4.215-.429 1.898 9.484 1.282 10.91-4.775 10.813z"/><path fill="#3E3933" d="M324.262 507.922c-2.782 1.529-4.03.51-4.242-2.052-.121-1.473-.294-3.023.032-4.428.35-1.5 1.259-2.87 1.923-4.297.987 1.366 2.521 2.62 2.826 4.125.408 2.01-.137 4.215-.539 6.652z"/><path fill="#312D29" d="M327.083 580.199c-.005 1.778.085 3.111-.06 4.418-.082.756-.524 2.09-.834 2.099-1.525.043-3.06-.271-4.59-.459.51-3.075.371-6.512 1.8-9.076.738-1.325 3.752-.364 3.684 3.018z"/><path fill="#37322D" d="M333.505 638.7c1.72.252 4.32.757 4.36 1.416.172 2.858.21 6.053-.97 8.523-.577 1.211-3.912.972-3.938-2.169-.02-2.481.159-4.964.548-7.77zM327.103 643.973c-.23 2.415.798 5.476-2.725 4.899-1.041-.17-1.887-2.673-2.447-4.24-.37-1.032-.363-2.413.014-3.44.423-1.153 1.453-2.084 2.22-3.112.976.98 2.113 1.853 2.862 2.984.384.58.073 1.619.076 2.909zM322.615 631.69c-.476-2.833-.943-5.457-.55-7.947.11-.705 2.726-1.017 4.193-1.51.244 2.73.736 5.479.54 8.177-.044.603-2.501 1.031-4.183 1.28z"/><path fill="#60412F" d="M104.148 496.615c5.64-2.285 6.68-1.641 6.74 3.724.026 2.306.419 4.723-.15 6.88-.366 1.39-1.987 2.999-3.384 3.442-2.353.748-3.565-.627-3.433-3.252.173-3.452.083-6.917.227-10.794zM89.078 504.848c.004-2.46-.418-4.592.157-6.408.406-1.28 2.173-2.958 3.318-2.948 1.2.01 3.092 1.643 3.417 2.894.568 2.184.254 4.623.147 6.948-.11 2.416 1.154 5.587-3.436 5.525-4.354-.06-3.525-2.983-3.603-6.011zM110.83 488.376c-1.723 1.008-3.438 2.055-5.073 1.942-.687-.048-1.556-2.507-1.722-3.942-.283-2.456-.018-4.97-.098-7.457-.073-2.269.294-3.827 3.17-3.81 2.8.017 3.905 1.144 3.806 3.876-.108 2.984-.035 5.973-.082 9.39zM81.809 483.903c-.006 1.615.381 2.995-.114 3.881-.66 1.181-2.1 2.839-3.036 2.737-1.337-.146-3.391-1.543-3.598-2.684-.522-2.89-.127-5.936-.212-8.916-.066-2.28.334-3.811 3.182-3.809 2.8.002 3.948 1.134 3.791 3.863-.085 1.487-.014 2.982-.013 4.928zM96.142 611.732c.304 3.445-.613 5.184-4.047 5.007-3.253-.168-3.027-2.342-3.018-4.526.01-2.47.1-4.946-.019-7.41-.138-2.864 1.279-3.666 3.91-3.696 2.799-.032 3.293 1.437 3.193 3.742-.093 2.137-.02 4.281-.02 6.883zM106.223 616.626c-1.032-2.097-1.96-4.1-2.19-6.18-.31-2.773-.077-5.607-.077-8.301 6.06-1.85 6.879-1.31 6.933 4.25.02 1.996-.124 4.002.032 5.986.252 3.2-.956 4.758-4.698 4.245zM89.079 548.732c0-2.594.087-4.739-.019-6.874-.14-2.81 1.199-3.72 3.872-3.748 2.778-.029 3.313 1.406 3.23 3.723a97.66 97.66 0 0 0 0 7.408c.103 2.616-.314 4.508-3.613 4.53-3.438.024-3.611-2.08-3.47-5.039zM109.51 553.411c-4.308.968-5.918-.556-5.605-4.604.254-3.274.052-6.583.052-9.746 6.297-1.64 7.007-1.216 6.888 4.505-.068 3.23-.619 6.45-1.334 9.845zM110.373 581.752c.282 4.786.282 9.228.282 13.997h-6.699v-14.34c2.327 0 4.231 0 6.417.343zM94.763 581.246c.73 4.304 1.212 8.496 1.153 12.68-.01.733-2.314 2.029-3.514 1.978-1.13-.047-3.062-1.448-3.149-2.391-.359-3.891-.15-7.835-.15-12.382 2.057 0 3.642 0 5.66.115zM89.078 521.144c.11-1.908.221-3.349.324-4.689 6.653-.978 6.717-.927 6.739 5.038.005 1.331.004 2.663 0 3.995-.02 5.836-.142 5.93-7.063 4.801v-9.145zM92.096 638.951c-1.298-1.097-2.72-2.107-2.895-3.3-.38-2.578-.015-5.256-.152-7.883-.136-2.612.6-3.918 3.55-3.908 2.925.01 3.708 1.283 3.572 3.91a77.44 77.44 0 0 0-.007 7.9c.136 2.706-1.24 3.49-4.068 3.281zM110.385 561.686c.272 4.788.272 9.218.272 13.958h-6.7V561.328c2.367 0 4.261 0 6.428.358zM96.104 563.303c.03 2.77.047 5.076.035 7.381-.028 5.685-.249 5.843-7.06 4.577v-15.073c2.883 1.092 4.94 1.87 7.025 3.115zM96.142 483c-.444 3.3 1.757 7.778-4.186 7.165-.328-.034-.934.006-.95-.074-.674-3.62-1.57-7.234-1.78-10.886-.073-1.28 1.296-3.437 2.46-3.822 2.284-.757 4.758-.423 4.47 3.176-.104 1.315-.015 2.644-.014 4.442z"/><path fill="#4E392C" d="m104.01 527.66-.001-10.652c5.925-1.913 6.753-1.367 6.81 4.18.021 2.142.314 4.35-.126 6.398-.26 1.214-1.835 3.139-2.596 3.04-1.446-.19-2.732-1.603-4.086-2.965zM108.69 624.063c.795 4.598 1.314 9.145 1.271 13.687-.004.487-3.287.944-5.937 1.652 0-4.915.02-8.846-.007-12.777-.022-3.239 2.33-2.545 4.673-2.562z"/><path fill="#60412F" d="M425.314 428.429a393.14 393.14 0 0 1-.066-7.942c.01-6.957.705-7.466 8.245-5.787v17.18c-3.195-1.182-5.664-2.095-8.179-3.451zM433.8 402.806c-.108 1.91-.216 3.353-.317 4.699-8.077 1.078-8.229.954-8.237-6.323v-3.498c.01-7.133.42-7.455 8.555-6.038v11.16zM425.26 440.44c1.213-5.878 5.07-2.742 8.528-3.372 0 4.892.27 9.35-.183 13.732-.119 1.152-2.345 2.592-3.84 2.976-2.105.54-4.486.288-4.5-2.936-.014-3.317-.011-6.633-.005-10.4zM450.01 408c-2.425-.004-4.858-.004-7.606-.004v-16.168c7.056-1.89 7.635-1.48 7.633 5.32-.001 3.31-.032 6.62-.045 10.4.003.47.011.455.019.452z"/><path fill="#473F33" d="M631.005 544.31c11.64 0 22.78 0 33.92.002 1.164 0 2.602-.41 3.436.121 1.9 1.208 3.502 2.882 5.225 4.367-1.774 1.602-3.52 4.557-5.327 4.595-16.952.353-33.918.35-50.87-.003-1.84-.038-3.621-2.945-5.43-4.52 1.86-1.518 3.56-4.014 5.61-4.347 4.213-.685 8.614-.211 13.436-.214zM646 537.856c-9.142 0-17.783.02-26.425-.019-1.477-.006-3.32.226-4.34-.531-1.413-1.047-3.115-2.998-3.004-4.432.106-1.393 2.133-3.168 3.704-3.777 1.745-.677 3.927-.258 5.92-.26 14.79-.01 29.58 0 44.371-.01 3.417-.002 7.433-.17 7.258 4.54-.164 4.432-4.106 4.49-7.54 4.49H646zM638 519.823c-6.982 0-13.465-.012-19.947.005-3.165.008-5.902-.972-6.006-4.501-.108-3.659 2.69-4.558 5.836-4.558 16.621 0 33.242.014 49.864-.007 3.233-.005 5.905 1.074 5.79 4.629-.117 3.554-3.048 4.407-6.116 4.417-9.64.03-19.28.014-29.421.015z"/><path fill="#443D33" d="M643 495.023c8.309 0 16.117.046 23.925-.022 3.277-.028 6.467.552 6.559 4.372.09 3.791-2.95 4.65-6.307 4.64-16.281-.043-32.563-.024-48.845-.015-3.274.002-6.367-.687-6.272-4.645.097-3.986 3.285-4.369 6.516-4.348 7.974.052 15.95.018 24.424.018z"/><path fill="#473F33" d="M636 488.157c-6.483-.001-12.466.003-18.45-.008-2.97-.005-5.505-.937-5.511-4.339-.006-3.263 2.369-4.64 5.357-4.65 16.786-.054 33.573-.065 50.359.006 3.052.013 5.893 1.121 5.769 4.753-.126 3.685-3.011 4.262-6.11 4.25-10.305-.036-20.61-.012-31.414-.012z"/><path fill="#463F33" d="M673.17 566.482c-1.88 1.124-3.59 2.558-5.314 2.576-16.64.171-33.283.103-49.924.105-3.126 0-5.969-.797-5.879-4.505.086-3.549 2.834-4.56 5.98-4.56 16.475-.008 32.951-.05 49.426.034 3.76.019 6.575 1.405 5.71 6.35z"/><path fill="#473F33" d="M376.424 447.892c-11.224.007-22.006-.027-32.787.031-3.295.018-6.25-.507-6.337-4.518-.086-4.012 2.704-4.676 6.105-4.645 10.78.099 21.563.1 32.343.002 3.027-.028 5.45.658 5.781 3.985.313 3.153-1.402 4.972-5.105 5.145z"/></svg>