<svg xmlns="http://www.w3.org/2000/svg" viewBox="0 0 800 800" xml:space="preserve"><path fill="#FE9000" d="M13.003 483.9c-2.006-13.818-3.951-27.213-6.022-40.588-3.5-22.614-2.254-45.404-1.679-68.07.375-14.77 3.565-29.481 5.658-44.196 3.008-21.136 8.912-41.534 15.917-61.652 9.604-27.584 22.156-53.71 37.609-78.52 12.836-20.609 27.454-39.744 43.73-57.762 15.537-17.2 32.653-32.505 50.836-46.814 24.214-19.055 50.555-34.472 78.432-47.346 28.99-13.389 59.353-22.753 90.659-28.74 13.945-2.666 28.194-4.264 42.377-5.038 19.224-1.05 38.55-1.685 57.768-.9 14.62.599 29.148 3.624 43.701 5.682 21.305 3.013 41.875 8.962 62.125 16.039 27.25 9.524 53.126 21.934 77.649 37.209 20.878 13.005 40.296 27.812 58.514 44.377 16.902 15.368 31.985 32.228 46.14 50.106 18.52 23.39 33.611 48.825 46.233 75.715 11.53 24.564 20.715 50.076 26.23 76.694 3.334 16.091 5.517 32.424 8.112 48.664 3.612 22.599 2.275 45.4 1.705 68.066-.371 14.771-3.588 29.479-5.657 44.197-2.995 21.309-8.962 41.876-16.043 62.124-9.527 27.246-21.943 53.12-37.22 77.643-13.007 20.88-27.823 40.29-44.382 58.51-15.364 16.907-32.23 31.984-50.11 46.137-23.392 18.517-48.824 33.614-75.717 46.23-24.565 11.522-50.073 20.727-76.699 26.211-16.256 3.348-32.763 5.48-49.162 8.131-22.603 3.655-45.436 2.62-68.06 1.66-26.544-1.128-52.768-5.977-78.483-13.053-29.72-8.177-58.191-19.518-85.23-34.258-22.055-12.023-43.205-25.545-62.15-42.163-12.167-10.671-24.527-21.233-35.711-32.888-19.958-20.797-37.344-43.64-52.23-68.461-16.39-27.33-29.593-55.995-38.974-86.401-3.677-11.917-6.597-24.068-9.866-36.545m385.382 53.494c-1.29.858-2.58 1.715-4.375 2.872-.853 1.257-1.706 2.515-3.476 3.699-.186.999-.372 1.997-.575 3.012 0 0-.004.023-.817-.202-.388.908-.995 1.785-1.133 2.73-2.372 16.289-4.859 32.563-6.961 48.887-1.795 13.932 7.947 25.959 21.65 27.296 13.333 1.302 24.81-8.228 26.407-22.307-.084-1.443-.168-2.886-.178-5.149-.976-5.744-1.951-11.488-2.842-18.104-1.54-9.82-3-19.655-4.65-29.458-1.13-6.711-4.709-11.542-12.17-13.984-3.42.424-6.84.848-10.278 1.278 0 0-.018.008-.602-.57m69.472-157.296c.374-9.097 1.153-18.199 1.034-27.289-.224-16.94-1.014-33.874-1.484-50.812-.34-12.285-.214-24.594-.971-36.85-.315-5.104-.204-9.717 1.563-14.62 1.13-3.134 1.323-7.415.089-10.425-2.502-6.1-6.424-11.603-9.43-17.52-1.557-3.063-3.105-6.41-3.464-9.758-2.537-23.648-4.522-47.357-7.223-70.984-.916-8.01-3.005-15.955-5.274-23.72-1.735-5.94-1.235-7.484 4.953-8.198 16.475-1.899 25.355-13.925 24.37-32.357-.659-12.327-11.14-23.898-27.389-22.948-9.72.568-20.944 9.016-21.955 18.712-.746 7.148.117 14.551.997 21.752.564 4.624.196 5.99-4.55 5.562-15.59-1.406-25.892 6.182-32.288 19.482-12.702 26.413-24.947 53.045-37.491 79.534-2.426 5.123-4.219 10.071-1.885 15.77.57 1.394.206 3.318-.129 4.913-6.118 29.138-12.259 58.271-18.482 87.387-3.163 14.8-6.595 29.543-9.725 44.35-2.293 10.854-4.439 21.745-6.324 32.675-.514 2.975.153 6.154-.191 9.862-7.208 6.384-15.134 9.253-25.237 8.993-28.475-.731-56.981-.353-85.474-.23-32.794.143-65.587.478-98.38.751-1.11.01-2.22.26-3.303.396v6.788H289.54c-7.889 9.235-15.536 18.193-23.192 27.145-2.117 2.476-3.739 5.41-.625 7.797 3.178 2.436 5.187-.35 7.328-2.69 8.749-9.556 17.643-18.98 26.595-28.349 2.962-3.1 6.563-4.345 11.123-4.226 13.322.346 26.658.12 39.988.12h4.06c-.716 1.187-1.406 1.616-2.149 1.911-23.112 9.178-42.042 23.963-57.581 43.197-3.428 4.243-6.397 8.868-9.418 13.422-2.188 3.3-1.3 6.347 2.142 7.87 3.059 1.352 5.191.112 4.964-3.733-.032-.538.674-1.113 1.02-1.682 26-42.64 78.966-67.327 128.619-59.724 42.944 6.576 74.506 30.026 97.32 66.277 5.41-.915 7.425-4.045 4.82-7.964-14.604-21.969-33.05-39.788-56.67-51.927-4.536-2.332-9.146-4.52-13.722-6.775 15.375-.87 30.361-.937 45.345-.783 1.827.019 4.079.75 5.39 1.959 7.316 6.744 14.554 13.59 21.507 20.704 3.585 3.669 6.402 8.075 9.807 11.936 1.653 1.874 3.565 4.58 6.639 2.063 2.578-2.11 2.272-4.578.302-7.01-.209-.256-.329-.586-.542-.838-4.935-5.819-9.772-11.726-14.855-17.413-3.326-3.72-7.01-7.121-11.554-11.69h170.533v-6.63c-1.22-.064-2.185-.154-3.152-.161-32.962-.26-65.925-.584-98.888-.743-24.66-.118-49.322.032-73.983-.113-2.291-.014-4.778-.933-6.83-2.06-12.047-6.618-23.992-13.423-36.025-21.106m-182.55 258.707c10.19-5.87 16.134-15.204 20.56-25.638 7.348-17.319 14.43-34.75 21.736-52.087 7.885-18.712 1.846-38.548-14.846-48.327-16.698-9.782-37.99-5.418-49.795 11.063a1328.253 1328.253 0 0 0-36.511 53.666c-11.337 17.584-8.958 39.306 4.966 53.938 13.777 14.476 34.815 17.535 53.89 7.385m165.174-192.632c-26.86-12.919-54.53-14.249-82.412-4.383-23.588 8.346-42.109 23.688-56.09 44.46-1.823 2.708-3.016 5.672.242 7.862 3.26 2.19 5.13-.53 6.78-2.94 12.415-18.14 28.38-31.984 48.998-40.025 23.441-9.143 47.031-9.401 70.679-.663 22.122 8.175 39.31 22.498 52.44 41.928 1.54 2.278 3.536 4.603 6.536 2.62 2.993-1.979 2.347-4.896.562-7.44-2.478-3.534-4.99-7.066-7.76-10.371-10.908-13.022-23.66-23.728-39.975-31.048m-87.211 33.645c-10.768 6.482-19.161 15.354-26.113 25.727-1.628 2.429-1.432 4.252.874 5.976 2.38 1.78 4.299 1.232 5.955-1.033.886-1.21 1.776-2.418 2.691-3.606 17.671-22.932 40.46-33.842 69.657-29.489 20.583 3.07 36.237 14.038 48.477 30.469 1.93 2.591 3.554 7.261 7.896 4.58 4.642-2.867 1.17-6.326-.63-9.383a7.646 7.646 0 0 0-.56-.825c-11.426-14.633-25.299-25.763-43.44-31.105-22.671-6.675-44.031-3.983-64.807 8.689m28.402 16.422c-3.292 1.16-6.656 2.149-9.862 3.511-10.564 4.492-18.818 11.861-25.007 21.388-1.012 1.56.09 4.492.215 6.79 2.286-.685 4.598-1.298 6.837-2.11.5-.181.707-1.091 1.114-1.615 11.66-15.025 26.697-22.712 45.93-20.32 15.032 1.87 26.533 9.847 35.29 22.019 1.624 2.256 3.524 4.401 6.585 2.414 2.922-1.898 2.338-4.447.68-6.936-13.121-19.69-37.805-30.925-61.782-25.141m153.134 75.378c-7.457-12.984-14.714-26.09-22.5-38.874-2.141-3.516-5.462-6.692-8.944-8.933-6.85-4.409-15.971-3.002-22.724 2.656-5.956 4.99-7.888 13.033-4.957 20.79 2.353 6.225 4.687 12.457 7.13 18.646 6.155 15.585 11.877 31.366 18.713 46.648 5.23 11.69 20.723 16.295 31.585 10.796 14.726-7.455 16.606-23.74 11.44-34.058-2.9-5.791-6.25-11.357-9.743-17.67M155.484 667.1c.149.649.128 1.412.477 1.924.988 1.446 2.127 2.79 3.206 4.173.921-1.351 2.232-2.582 2.694-4.075 1.739-5.629 3.201-11.343 4.767-17.025 1.377 1.555 1.826 3.053 2.228 4.564 1.282 4.815 2.472 9.658 3.888 14.434.249.838 1.33 1.75 2.195 1.97.561.143 1.892-.77 2.085-1.44 2.363-8.201 4.58-16.445 6.836-24.678l-2.235-.838c-3.744 5.91-3.34 13.596-6.665 20.582-1.683-6.178-3.005-11.62-4.724-16.932-.43-1.333-2.134-2.254-3.252-3.365-.978 1.103-2.443 2.051-2.85 3.335-1.722 5.431-3.13 10.961-4.652 16.455-2.28-5.4-3.39-10.835-4.85-16.174-.394-1.442-1.845-2.595-2.811-3.88l-1.452 1.002c1.623 6.407 3.245 12.814 5.115 19.968m377.556-19.988c-.77.64-2.197 1.27-2.21 1.924-.152 8.242-.1 16.488-.1 24.987 6.068 0 11.54.065 17.008-.068.862-.02 1.702-.937 2.552-1.44-.822-.534-1.628-1.502-2.467-1.532-4.407-.155-8.823-.073-13.394-.073v-8.522c4.733-1.576 10.114.992 14.337-2.674-2.678-.984-5.25-.983-7.824-.984-7.521-.004-7.85-.442-5.895-8.088l14.885-.861-.086-2.682c-5.3 0-10.599 0-16.806.013m-89.628 9.593c.793 1.663 2.052 3.266 2.275 5.001.38 2.95-.058 5.996.19 8.973.094 1.13 1.136 2.18 1.746 3.266.488-1.06 1.318-2.093 1.4-3.183.264-3.478-.2-7.076.546-10.422.334-1.5 2.872-2.51 4.41-3.743 1.01 1.443 2.695 2.8 2.894 4.347.445 3.44 0 6.987.242 10.468.07.998 1.25 1.918 1.921 2.874.465-.23.929-.462 1.393-.693 0-3.808.334-7.655-.111-11.41-.327-2.756-.938-6.755-2.754-7.736-2.283-1.233-5.925.047-8.98.243l-.031-.16h-14.025c0 5.673-.052 11.599.074 17.52.013.653 1.04 1.284 1.598 1.924.56-.65 1.565-1.274 1.606-1.955.19-3.154.056-6.326.15-9.487.089-3.051.852-5.683 5.456-5.827m212.643-3.29c-1.59.827-3.401 1.412-4.685 2.576-.707.642-.53 2.259-.751 3.436 1.068-.307 2.168-.534 3.197-.94 1.464-.578 2.944-1.92 4.29-1.772 1.495.163 2.848 1.633 4.263 2.534-1.2.853-2.305 1.923-3.625 2.496-1.182.512-2.613.417-3.912.692-3.804.806-6.072 3.026-5.303 7.056.735 3.847 3.768 4.774 7.25 4.517 3.054-.226 6.098-.584 9.097-.879 0-3.268.006-7.048-.001-10.826-.015-7.59-1.382-8.955-9.82-8.89m-471.173 14.137c.33 4.916 3.593 5.89 7.674 5.607 2.93-.203 5.846-.58 8.707-.873 0-3.892-.078-8.334.022-12.772.096-4.216-1.708-6.563-6.021-6.925-5.729-.48-8.464 1.19-9.79 7.633 2.223-1.674 3.265-2.954 4.565-3.322 1.947-.55 4.098-.695 6.114-.501.649.062 1.143 1.738 1.708 2.676-1.542.69-3.024 1.639-4.64 2.019-3.543.833-7.48.894-8.339 6.458m41.746 2.093c-4.398 1.05-6.974-.475-7.614-5.65H232.5c.473-6.624-1.99-10.562-6.76-11.34-4.856-.791-8.861 1.945-10.002 6.832-1.456 6.241.928 11.891 5.643 13.376 5.008 1.576 8.968-.373 10.204-6.514-1.45.96-2.9 1.92-4.957 3.296m335.568-8.561c.1 2.14-.114 4.352.367 6.403.93 3.974 3.663 6.235 7.773 6.52 4.201.292 7.319-1.301 8.538-6.02-1.39-.085-2.522.44-3.699.83-1.9.63-4.076 2-5.678 1.523-1.676-.5-2.812-2.81-4.184-4.33l.847-1.274h13.146c.159-6.714-1.963-10.227-6.488-11.3-4.63-1.097-8.17 1.22-10.622 7.648m-186.5 9.51c5.83 5.47 11.845 4.608 15.812-3.601-2.237.901-3.616 1.12-4.543 1.887-4.441 3.676-8.147 2.294-9.373-4.043h13.29c.498-7.23-2.67-11.531-8.174-11.602-5.324-.069-8.966 4.099-8.797 10.453.055 2.097.854 4.173 1.784 6.906m-29.583-2.4c1.657 4.314 4.915 6.158 9.386 5.795 3.564-.29 6.125-2.01 7.488-6.921-2.028.76-3.342.921-4.202 1.632-4.565 3.77-8.014 2.651-9.631-3.907h13.598c.089-7.415-2.918-11.4-8.179-11.564-5.458-.17-9.162 4.18-9.094 10.761.012 1.152.278 2.302.634 4.203m77.703-14.694c-4.198-.85-7.8.274-9.763 4.126-2.24 4.399-2.226 9.114.767 13.228 3.486 4.792 11.42 4.105 14.42-1.026 3.303-5.646 1.215-12.83-5.424-16.328m-84.861 7.015v-10.161c2.725 0 4.718.155 6.664-.083.703-.086 1.291-1.115 1.932-1.714-.572-.49-1.136-1.395-1.717-1.406a488.735 488.735 0 0 0-17.46-.016c-.604.01-1.193.872-1.789 1.339.615.62 1.177 1.7 1.854 1.777 2.069.235 4.182.085 6.692.085 0 7.523-.076 14.32.094 21.111.022.87 1.327 1.706 2.038 2.558.557-.842 1.545-1.658 1.596-2.529.196-3.315.09-6.649.096-10.961m244.133-2.625c-.242 3.105-1.001 6.278-.603 9.299.565 4.284 3.581 6.71 7.96 6.822 4.317.111 7.164-1.963 8.632-7.976-2.177 1.142-3.58 1.442-4.251 2.31-2.111 2.727-4.463 3.47-7.248 1.307-2.678-2.08-2.963-9.06-.44-11.494 2.485-2.397 4.947-2.18 7.307.485.582.656 1.859.696 2.816 1.02-.065-1.15.282-2.573-.266-3.405-2.93-4.455-9.068-3.964-13.907 1.632m51.538 8.168c.158-2.119-.11-4.387.568-6.324 1.217-3.478 4.735-4.054 7.655-1.832 1.04.791 2.556.956 3.854 1.407-.57-1.415-.782-3.192-1.777-4.179-3.018-2.995-8.735-2.394-11.638.94-3.458 3.973-2.942 12.762.94 16.005 3.496 2.92 8.827 2.597 11.681-.72.323-.376.764-.781.83-1.22.154-1.022.112-2.074.15-3.113-1.03.394-2.369.502-3.037 1.228-3.664 3.978-6.074 3.667-9.226-2.192m-236.91-10.905c-3.976 3.937-4.081 8.933-2.17 13.41 1.013 2.374 4.398 4.771 6.993 5.129 2.34.323 5.159-1.965 7.541-3.461.522-.328.089-2.176.095-3.324-.934.362-2.301.453-2.729 1.134-2.038 3.247-4.545 3.812-7.481 1.512-2.659-2.082-2.86-9.175-.31-11.478 2.493-2.251 4.992-2.184 7.324.576.562.665 1.86.709 2.82 1.038-.077-1.159.292-2.678-.305-3.417-3.146-3.891-7.038-3.808-11.777-1.12m-187.985 4.643 2.668-4.55-4.104-8.636-3.811 7.225c.717 3.254 1.365 5.311 1.582 7.413.238 2.302-.027 4.652.112 6.97.287 4.78 1.804 5.677 5.653 4.52-.73-4.171-1.416-8.104-2.1-12.942m397.336-5.787-2.977-5.975c-.656.59-1.975 1.25-1.942 1.836.17 3.06-3.29 5.423-.569 9.346 1.713 2.47.154 7.08.442 10.7.326 4.093 2.88 5.033 6.605 2.773-1.14-1.558-3.329-3.191-3.225-4.663.29-4.098-2.724-9.256 2.963-12.095.071-.036-.371-1.1-1.297-1.922M240 659.234c1.206-1.1 2.364-2.258 3.634-3.278.822-.66 1.808-1.116 2.72-1.663-1.069-.57-2.16-1.651-3.202-1.606-2.163.093-4.3.783-7.029 1.348 0 5.38-.068 10.976.071 16.568.022.866.994 1.708 1.526 2.561.674-.873 1.857-1.705 1.93-2.626.277-3.467.191-6.962.35-11.304m127.038-4.591c.002 5.466-.08 10.934.084 16.395.03.991 1.061 1.952 1.63 2.927.566-.977 1.593-1.94 1.62-2.932.158-5.793.236-11.599.006-17.386-.086-2.167-1.076-4.297-1.653-6.443-.562 2.162-1.124 4.325-1.687 7.439m190.932 4.87c0-2.976.164-5.966-.082-8.922-.097-1.161-1.111-2.246-1.708-3.366-.524 1.029-1.482 2.05-1.502 3.088-.132 6.942-.132 13.89.017 20.831.02.95 1.11 1.878 1.705 2.817.522-1.014 1.436-2.006 1.493-3.046.191-3.462.075-6.94.077-11.402m54.038-2.498c0 4.653-.108 9.31.081 13.956.046 1.121 1.078 2.202 1.656 3.302l1.727-.666c0-3.967-.205-7.949.072-11.896.183-2.593.518-5.59 4.59-4.954.57.089 1.444-.573 1.845-1.127.194-.27-.227-1.256-.633-1.637-1.48-1.39-7.95.15-9.338 3.022m62.185 2.497c-.003-3.326.112-6.659-.094-9.972-.05-.797-1.162-1.527-1.786-2.289-.464.746-1.32 1.486-1.33 2.238a717.207 717.207 0 0 0 .02 21.947c.014.855.994 1.694 1.526 2.54.55-.832 1.533-1.644 1.575-2.502.182-3.65.085-7.313.09-11.962m-46.429 12.472c.01-5.119.119-10.241-.068-15.353-.033-.9-1.307-1.754-2.009-2.63-.53.87-1.492 1.728-1.518 2.613-.145 4.95-.138 9.907-.032 14.859.062 2.905 1.24 3.694 3.627.51z"/><path fill="#0D0804" d="M313.078 393.994c-.126-3.086-.793-6.265-.28-9.24 1.886-10.93 4.032-21.821 6.325-32.675 3.13-14.807 6.562-29.55 9.725-44.35 6.223-29.116 12.364-58.25 18.482-87.387.335-1.595.7-3.519.129-4.912-2.334-5.7-.541-10.648 1.885-15.77 12.544-26.49 24.79-53.122 37.491-79.535 6.396-13.3 16.698-20.888 32.287-19.482 4.747.428 5.115-.938 4.55-5.562-.879-7.2-1.742-14.604-.996-21.752 1.011-9.696 12.235-18.144 21.955-18.712 16.25-.95 26.73 10.621 27.389 22.948.985 18.432-7.895 30.458-24.37 32.357-6.188.714-6.688 2.259-4.953 8.198 2.27 7.765 4.358 15.71 5.274 23.72 2.7 23.627 4.686 47.336 7.223 70.984.359 3.347 1.907 6.695 3.464 9.759 3.006 5.916 6.928 11.419 9.43 17.52 1.234 3.009 1.041 7.29-.089 10.424-1.767 4.903-1.878 9.516-1.563 14.62.757 12.256.63 24.565.971 36.85.47 16.938 1.26 33.871 1.484 50.812.12 9.09-.66 18.192-1.315 27.925-1.342 3.286-2.403 5.936-3.662 8.87-8.887 6.052-18.596 3.008-27.899 3.413-.666.029-1.345-.879-2.062-1.27-5.23-2.86-7.878-7.24-7.132-13.279-3.145-.337-5.61-.593-8.074-.868-2.477-.277-4.944-.679-7.428-.833-2.302-.143-4.62-.03-6.931-.03 1.053 1.53 2.103 1.954 3.162 2.353 5.849 2.204 7.573 4.883 7.009 10.908-.527 5.624-5.216 9.466-13.049 10.949-1.801.34-3.492 1.27-5.67 1.984-6.445.273-12.454.492-18.616.442-10.76-2.692-10.756-2.692-10.63-14.547.025-2.413.003-4.827.003-7.775l-7.675 2.142c4.245 5.475.837 13.358-3.645 15.533-2.866 1.39-6.425 1.99-9.64 1.891-7.895-.242-15.771-1.094-23.685-2.064-1.385-5.12-5.456-4.151-8.874-4.56M413.85 155.703c-.544-1.92-1.496-3.834-1.53-5.764-.045-2.534.633-5.082 1-7.624 1.673 1.992 3.35 3.982 5.014 5.983.097.116.092.316.134.477 6.52 24.943 13.078 49.876 19.529 74.836 1.33 5.148 2.085 10.448 3.497 15.57.39 1.418 2.006 2.917 3.418 3.476.831.33 3.247-.92 3.442-1.796 1.382-6.197 4.593-12.32 1.1-18.887-.908-1.706-1.282-3.81-1.46-5.771-2.173-23.997-4.169-48.01-6.449-71.996-.532-5.6-1.387-11.3-3.1-16.63-3.156-9.824-9.407-16.96-20.344-18.085-12-1.235-19.267 2.876-24.86 14.256-8.95 18.213-17.592 36.58-26.272 54.926-3.416 7.22-6.647 14.531-9.837 21.856-1.555 3.57-2.048 7.843 1.278 10.132 9.702 6.674 19.674 13.007 29.903 18.835 3.445 1.963 7.295.913 9.333-3.68 2.693-6.073 5.823-11.956 8.875-17.864 2.9-5.616 5.657-11.339 9.003-16.686 3.344-5.344 6.002-10.363 3.542-17.016-2.127-5.753-3.368-11.833-5.216-18.548m-15.098 128.767c-.097 14.328-.234 28.655-.276 42.983-.034 11.655-.008 23.312.125 34.966.023 2.05-1.07 5.008 2.77 5.227 8.254.468 16.505.983 24.972 1.491.131-.766.39-1.554.382-2.339-.223-24.314-.512-48.628-.695-72.942-.063-8.438-.512-16.949.408-25.294.697-6.32.766-12.029-1.964-17.945-2.495-5.409-1.403-10.785 2.672-13.016 5.734-3.141 5.749-7.42 4.193-12.695-2.733-9.265-5.3-18.578-7.973-27.86-.322-1.117-.872-2.167-1.68-4.136-1.992 4.662-3.353 8.396-5.135 11.916-4.29 8.472-8.735 16.865-13.198 25.248-3.837 7.209-5.932 14.769-5.563 23.02.454 10.141.666 20.294.962 31.376m34.52-2.622c.077 14.49.175 28.98.224 43.471.035 10.15-.117 20.303.055 30.45.087 5.126-.675 11.006 1.58 15.09 1.48 2.68 7.672 2.752 11.749 4.008 2.058.634 4.082 1.396 6.164 1.934 2.492.643 5.029 1.108 8 1.748.14-2.093.322-3.544.323-4.996.007-12.458.047-24.917-.05-37.375-.152-19.776-.303-39.554-.701-59.326-.075-3.711-.934-7.52-2.09-11.069-1.466-4.5-1.741-8.633.508-12.967 1.04-2.004 1.653-4.39 1.79-6.644.08-1.33-1.154-2.74-1.796-4.114-1.069 1.042-2.823 1.935-3.089 3.152-1.194 5.476-4.977 6.518-9.705 6.397-2.164-.056-4.337.094-6.494-.036-2.657-.161-3.864.747-4.078 3.61-.641 8.59-1.564 17.16-2.39 26.667m-61.005 65.35c.256 6.798.366 13.607.91 20.382.092 1.134 2.094 3.035 3.17 3.005 3.77-.106 7.517-1.29 11.28-1.323 3.801-.034 4.349-1.822 4.263-4.974-.399-14.71-.682-29.425-.973-44.138-.203-10.286-.46-20.572-.5-30.858-.05-13.073.274-26.15.045-39.219-.064-3.666-.288-8.66-2.551-10.692-5.35-4.805-11.81-8.486-18.156-12.02-2.537-1.412-5.274-.482-5.023 3.607.203 3.31-.11 6.654.135 9.96 1.126 15.16 2.46 30.306 3.534 45.47.687 9.722.958 19.472 1.583 29.2.657 10.229 1.514 20.446 2.283 31.6m-45.949 41.81c1.162-.644 2.257-1.495 3.498-1.895 6.136-1.976 8.932-5.183 10.6-12.406 5.14-22.258 12.368-44.03 18.596-66.043 1.568-5.541 3.553-11.311 3.409-16.926-.491-19.112-1.787-38.205-2.956-57.293-.136-2.219-1.397-4.369-2.136-6.55l-2.273-.213c-1.273 2.991-3.056 5.87-3.74 8.99-6.548 29.875-12.94 59.785-19.31 89.698-2.024 9.507-3.767 19.074-5.793 28.58-1.857 8.713-4.06 17.355-5.812 26.088-.536 2.67-.083 5.54-.083 8.868 2.14-.2 3.732-.35 6-.899M461.87 75.011c-4.408-8.598-12.601-12.19-21.601-9.472-6.832 2.063-10.51 9.118-9.722 18.65.645 7.81 5.085 13.456 11.67 14.84 9.131 1.919 15.614-.026 18.416-7.383 1.82-4.774 1.046-10.536 1.237-16.635m-107.1 271.742c-2.344 7.429-4.735 14.844-6.986 22.302-.367 1.218-.286 2.647-.115 3.939.364 2.742 1.478 4.193 4.686 2.968 3.082-1.176 6.336-1.974 9.575-2.647 3.279-.681 4.616-2.096 4.349-5.754-.99-13.537-1.565-27.104-2.404-40.653-.222-3.572-.832-7.12-1.263-10.678-2.226 5.756-3.274 11.421-4.473 17.055-.904 4.253-2 8.465-3.368 13.468m46.447 38.484c-5-1.459-10.686-1.97-11.643-9.306l-15.826 2.231c0 4.3-.401 8.003.14 11.561.361 2.37 1.606 6.04 3.246 6.542 8.684 2.657 17.612 3.163 25.895-1.505 1.586-.895 3.055-3.537 2.992-5.317-.049-1.36-2.602-2.63-4.804-4.206m-64.423 11.056c3.913-.367 7.874-.478 11.727-1.18 3.353-.61 4.95-3.408 3.451-6.265-.817-1.558-4.034-2.97-5.86-2.654-3.655.632-7.18 2.322-10.593 3.927-1.62.76-2.858 2.33-4.27 3.533 1.55.863 3.1 1.726 5.545 2.64m111.573-14.713-13.338-1.964c2.585 5.247 11.267 6.235 13.338 1.964z"/><path fill="#0B0601" d="M312.843 394.305c3.653.097 7.724-.872 8.883 4.518-1.686 1.636-3.174 2.638-4.663 3.64 16.139.954 31.83.939 47.52.964 4.265.007 8.53.14 12.793.214 6.01-.218 12.02-.437 18.915-.732 31.801-.077 62.716-.077 93.63-.077l.282-.874c-7.74-4.027-15.481-8.054-23.485-12.253-.874-.317-1.485-.46-2.196-.485-.1.118-.41.1-.41.1 1.06-2.65 2.122-5.3 3.49-8.116 12.288 6.577 24.233 13.382 36.28 20 2.052 1.127 4.539 2.046 6.83 2.06 24.66.145 49.323-.005 73.983.113 32.963.159 65.926.482 98.888.743.967.007 1.932.097 3.152.162v6.628H516.202c4.543 4.57 8.228 7.97 11.554 11.691 5.083 5.687 9.92 11.594 14.855 17.413.213.252.333.582.542.839 1.97 2.431 2.276 4.898-.302 7.009-3.074 2.516-4.986-.19-6.639-2.063-3.405-3.86-6.222-8.267-9.807-11.936-6.953-7.115-14.191-13.96-21.507-20.704-1.311-1.208-3.563-1.94-5.39-1.96-14.984-.153-29.97-.086-45.345.784 4.576 2.255 9.186 4.443 13.723 6.775 23.62 12.14 42.065 29.958 56.67 51.927 2.604 3.92.589 7.049-4.82 7.964-22.815-36.25-54.377-59.701-97.321-66.277-49.653-7.603-102.619 17.084-128.618 59.724-.347.569-1.053 1.144-1.021 1.682.227 3.845-1.905 5.085-4.964 3.732-3.442-1.522-4.33-4.57-2.142-7.869 3.02-4.554 5.99-9.18 9.418-13.422 15.539-19.234 34.47-34.019 57.581-43.197.743-.295 1.433-.724 2.15-1.911h-4.06c-13.331 0-26.667.226-39.989-.12-4.56-.119-8.161 1.127-11.123 4.226-8.952 9.368-17.846 18.793-26.595 28.35-2.141 2.339-4.15 5.125-7.328 2.689-3.114-2.386-1.492-5.321.625-7.797 7.656-8.952 15.303-17.91 23.192-27.145H100.214v-6.788c1.084-.135 2.193-.387 3.303-.396 32.793-.273 65.586-.608 98.38-.75 28.493-.124 56.999-.502 85.474.23 10.103.259 18.029-2.61 25.472-9.305z"/><path fill="#140B04" d="M284.99 638.984c-18.758 9.971-39.796 6.912-53.573-7.564-13.924-14.632-16.303-36.354-4.966-53.938a1328.253 1328.253 0 0 1 36.511-53.666c11.804-16.481 33.097-20.845 49.795-11.063 16.692 9.779 22.731 29.615 14.846 48.327-7.305 17.337-14.388 34.768-21.735 52.087-4.427 10.434-10.37 19.769-20.878 25.817m-37.105-84.537-4.134 6.26c14.268-4.937 27.671-4.892 40.578 2.37 12.82 7.212 19.868 18.594 22.457 34.068 6.765-15.24 13.873-28.976 18.993-43.417 5.312-14.985-3.061-31.536-17.543-38.292-14.314-6.677-31.531-2.211-40.543 10.58-6.513 9.243-12.95 18.54-19.808 28.43m6.706 84.76c17.118 3.581 33.408-3.348 42.053-17.888 8.296-13.953 6.89-31.941-3.467-44.372-10.675-12.81-27.888-17.402-43.38-11.575-15.826 5.953-25.614 20.98-24.94 38.29.647 16.618 11.74 30.185 29.734 35.546z"/><path fill="#0A0702" d="M450.813 446.348c15.983 7.145 28.735 17.851 39.644 30.873 2.769 3.305 5.281 6.837 7.76 10.37 1.784 2.545 2.43 5.462-.563 7.441-3 1.983-4.997-.342-6.536-2.62-13.13-19.43-30.318-33.753-52.44-41.928-23.648-8.738-47.238-8.48-70.68.663-20.618 8.041-36.582 21.886-48.998 40.025-1.649 2.41-3.52 5.13-6.779 2.94-3.258-2.19-2.065-5.154-.243-7.861 13.982-20.773 32.503-36.115 56.091-44.461 27.882-9.866 55.551-8.536 82.744 4.558z"/><path fill="#0A0702" d="M363.569 479.611c20.477-12.465 41.837-15.157 64.507-8.482 18.142 5.342 32.015 16.472 43.44 31.105.205.261.393.539.561.825 1.8 3.057 5.272 6.516.63 9.383-4.342 2.681-5.965-1.989-7.896-4.58-12.24-16.43-27.894-27.4-48.477-30.469-29.197-4.353-51.986 6.557-69.657 29.49a179.201 179.201 0 0 0-2.69 3.605c-1.657 2.265-3.576 2.813-5.956 1.033-2.306-1.724-2.502-3.547-.874-5.976 6.952-10.373 15.345-19.245 26.412-25.934z"/><path fill="#F98D00" d="M391.45 544.038c.854-1.257 1.707-2.515 2.583-3.468 1.66-.664 3.298-1.63 4.936-2.598 0 0 .018-.008.256.419 3.23.281 6.223.136 9.498.203 6.478 2.503 9.717 6.83 10.59 13.501 1.309 10.003 3.2 19.93 4.801 30.206-.04 1.491-.04 2.666-.04 4.402-5.339-6.294-11.545-9.24-19.139-9.286-7.437-.045-13.497 3.18-19.45 9.313.477-4.334.777-7.128 1.093-9.92 1.123-9.937 2.251-19.873 3.377-29.81 0 0 .004-.023.457-.002.648-.972.843-1.966 1.038-2.96z"/><path fill="#0A0702" d="M392.067 496.14c23.582-5.684 48.266 5.551 61.386 25.24 1.659 2.49 2.243 5.04-.68 6.937-3.06 1.987-4.96-.158-6.584-2.414-8.757-12.172-20.258-20.15-35.29-22.019-19.233-2.392-34.27 5.295-45.93 20.32-.407.524-.614 1.434-1.114 1.615-2.24.812-4.551 1.425-6.837 2.11-.125-2.298-1.227-5.23-.215-6.79 6.189-9.527 14.443-16.896 25.007-21.388 3.206-1.362 6.57-2.351 10.257-3.612z"/><path fill="#261603" d="M544.979 571.941c3.32 5.99 6.67 11.557 9.57 17.348 5.166 10.317 3.286 26.603-11.44 34.058-10.862 5.5-26.355.894-31.585-10.796-6.836-15.282-12.558-31.063-18.712-46.648-2.444-6.19-4.778-12.421-7.13-18.646-2.932-7.757-1-15.8 4.956-20.79 6.753-5.658 15.873-7.065 22.724-2.656 3.482 2.24 6.803 5.417 8.944 8.933 7.786 12.784 15.043 25.89 22.673 39.197m-51.762-44.405c-6.8 6.266-8.483 13.443-4.484 22.037 2.666 5.728 4.74 11.732 7.085 17.61 3.74 9.372 7.485 18.742 11.668 29.212 6.448-19.03 18.7-24.969 37.654-18.68-1.382-2.614-2.102-4.065-2.9-5.471-6.9-12.17-14.204-24.13-20.603-36.558-5.414-10.514-17.972-14.798-28.42-8.15m52.473 90.776c8.444-7.376 10.128-16.4 6.424-26.68-2.702-7.499-11.626-13.512-19.904-13.524-8.486-.012-17.175 5.873-19.891 13.474-3.402 9.516-.68 20.147 6.747 26.35 7.306 6.103 16.568 6.402 26.624.38z"/><path fill="#221403" d="M389.549 546.887c-.72 10.05-1.848 19.986-2.971 29.923-.316 2.792-.616 5.586-1.093 9.92 5.953-6.132 12.013-9.358 19.45-9.313 7.594.046 13.8 2.992 19.138 9.286 0-1.736 0-2.911.27-4.529.732-.686 1.195-.93 1.657-1.174.976 5.744 1.951 11.488 2.721 17.922-.089 2.139.028 3.589.144 5.039-1.357 13.499-12.834 23.029-26.166 21.727-13.704-1.337-23.446-13.364-21.651-27.296 2.102-16.324 4.589-32.598 6.961-48.887.138-.945.745-1.822 1.54-2.618m-4.197 62.892c4.834 9.744 13.058 14.497 22.834 13.196 8.897-1.184 16.257-8.171 17.944-17.037 1.687-8.866-2.119-17.632-9.697-22.332a21.325 21.325 0 0 0-23.906.972c-7.557 5.567-10.223 14.312-7.175 25.2z"/><path fill="#1D1000" d="M155.36 666.727c-1.746-6.781-3.368-13.188-4.99-19.595l1.45-1.002c.967 1.285 2.418 2.438 2.812 3.88 1.46 5.34 2.57 10.774 4.85 16.174 1.523-5.494 2.93-11.024 4.652-16.455.407-1.284 1.872-2.232 2.85-3.335 1.118 1.11 2.821 2.032 3.252 3.365 1.719 5.313 3.041 10.754 4.724 16.932 3.324-6.986 2.92-14.673 6.665-20.582l2.235.838c-2.255 8.233-4.473 16.477-6.836 24.678-.193.67-1.524 1.583-2.085 1.44-.865-.22-1.946-1.132-2.195-1.97-1.416-4.776-2.606-9.619-3.888-14.434-.402-1.51-.851-3.009-2.228-4.564-1.566 5.682-3.028 11.396-4.767 17.025-.462 1.493-1.773 2.724-2.694 4.075-1.08-1.384-2.218-2.727-3.206-4.173-.349-.512-.328-1.275-.6-2.297z"/><path fill="#140B04" d="M533.494 647.106c5.753-.007 11.053-.007 16.352-.007l.086 2.682-14.885.861c-1.954 7.646-1.626 8.084 5.895 8.088 2.573.001 5.146 0 7.824.984-4.223 3.666-9.604 1.098-14.337 2.674v8.522c4.571 0 8.987-.082 13.394.073.839.03 1.645.998 2.467 1.533-.85.502-1.69 1.419-2.552 1.44-5.468.132-10.94.067-17.007.067 0-8.5-.053-16.745.1-24.987.012-.655 1.44-1.283 2.663-1.93z"/><path fill="#180E00" d="M442.981 656.635c-4.173.214-4.936 2.846-5.026 5.897-.093 3.161.042 6.333-.149 9.487-.041.681-1.046 1.305-1.606 1.955-.558-.64-1.585-1.271-1.598-1.923-.126-5.922-.074-11.848-.074-17.522h14.025l.031.16c3.055-.195 6.697-1.475 8.98-.242 1.816.981 2.427 4.98 2.754 7.737.445 3.754.111 7.601.111 11.409l-1.393.693c-.67-.956-1.851-1.876-1.92-2.874-.243-3.48.202-7.027-.243-10.468-.2-1.548-1.883-2.904-2.894-4.347-1.538 1.233-4.076 2.243-4.41 3.743-.746 3.346-.282 6.944-.545 10.422-.083 1.09-.913 2.124-1.4 3.183-.61-1.086-1.653-2.136-1.747-3.266-.248-2.977.19-6.023-.19-8.973-.223-1.735-1.482-3.338-2.706-5.071z"/><path fill="#1D1000" d="M656.45 653.343c8.043.007 9.41 1.373 9.425 8.962.007 3.778.001 7.558.001 10.826-3 .295-6.043.653-9.098.879-3.48.257-6.514-.67-7.249-4.517-.77-4.03 1.499-6.25 5.303-7.056 1.299-.275 2.73-.18 3.912-.692 1.32-.573 2.426-1.643 3.625-2.496-1.415-.901-2.768-2.37-4.263-2.534-1.346-.148-2.826 1.194-4.29 1.772-1.029.406-2.129.633-3.197.94.221-1.177.044-2.794.75-3.436 1.285-1.164 3.095-1.749 5.082-2.648m5.705 14.211-.568-2.924c-2.79.73-5.59 1.426-8.323 2.33-.097.032.62 3.136.74 3.12 2.53-.327 5.028-.893 7.527-1.433.12-.026.197-.251.624-1.093z"/><path fill="#180E00" d="M184.901 667.15c.84-5.162 4.777-5.223 8.32-6.056 1.616-.38 3.098-1.328 4.64-2.019-.565-.938-1.059-2.614-1.708-2.676-2.016-.194-4.167-.048-6.114.501-1.3.368-2.342 1.648-4.565 3.322 1.326-6.444 4.061-8.114 9.79-7.633 4.313.362 6.117 2.71 6.021 6.925-.1 4.438-.022 8.88-.022 12.772-2.86.293-5.778.67-8.707.873-4.08.283-7.345-.69-7.655-6.008m4.316-1.692c-.016 1.25-.29 3.515-.009 3.586 1.796.455 4.06 1.108 5.5.377 1.62-.823 2.533-3.038 3.754-4.647l-.986-1.149c-2.519.485-5.037.97-8.259 1.833z"/><path fill="#1D1000" d="M226.932 669.437c1.754-1.168 3.203-2.128 4.653-3.088-1.236 6.141-5.196 8.09-10.204 6.514-4.715-1.485-7.099-7.135-5.643-13.376 1.14-4.887 5.146-7.623 10.002-6.832 4.77.778 7.233 4.716 6.76 11.34h-13.486c.64 5.175 3.216 6.7 7.918 5.442m-4.123-8.517h6.173l.758-1.511c-1.573-1.197-3.027-3.086-4.755-3.383-1.543-.265-3.88.79-4.992 2.04-2.04 2.295-.295 2.965 2.816 2.854zM562.275 660.684c2.374-6.028 5.914-8.345 10.543-7.248 4.525 1.073 6.647 4.586 6.488 11.3H566.16l-.847 1.274c1.372 1.52 2.508 3.83 4.184 4.33 1.602.477 3.778-.893 5.678-1.523 1.177-.39 2.309-.915 3.7-.83-1.22 4.719-4.338 6.312-8.539 6.02-4.11-.285-6.842-2.546-7.773-6.52-.48-2.05-.267-4.264-.288-6.803m9.975 1.153 3.796-.469c-.441-3.708-2.59-5.33-5.461-4.75-1.919.388-3.523 2.328-5.269 3.574l.82 1.645h6.114z"/><path fill="#180E00" d="M375.46 670.27c-.695-2.409-1.494-4.485-1.55-6.582-.168-6.354 3.474-10.522 8.798-10.453 5.504.07 8.672 4.372 8.174 11.602h-13.29c1.226 6.337 4.932 7.719 9.373 4.043.927-.766 2.306-.986 4.543-1.887-3.967 8.209-9.981 9.07-16.048 3.278m5.645-13.652-4.134 3.898.74 1.054h10.299c-.678-3.885-2.756-5.316-6.905-4.952zM346.008 667.818c-.252-1.526-.518-2.676-.53-3.828-.068-6.582 3.636-10.931 9.094-10.761 5.26.164 8.268 4.15 8.18 11.564h-13.6c1.618 6.558 5.067 7.678 9.632 3.907.86-.71 2.174-.871 4.202-1.632-1.363 4.912-3.924 6.631-7.488 6.92-4.471.364-7.729-1.48-9.49-6.17m9.9-11.208c-3.794-.553-6.25.65-6.688 4.827h11.475c-1.886-2.127-2.987-3.368-4.787-4.827z"/><path fill="#1D1000" d="M424.186 653.606c6.268 3.39 8.356 10.575 5.054 16.22-3.001 5.132-10.935 5.819-14.42 1.027-2.994-4.114-3.009-8.83-.768-13.228 1.962-3.852 5.565-4.975 10.134-4.019m-7.792 13.097c2.88 4.697 7.223 5.881 9.07 2.061 1.318-2.725 1.035-6.605.346-9.722-.251-1.137-3.923-2.473-5.715-2.116-3.752.75-4.147 4.185-4 7.503.021.494.087.986.299 2.274z"/><path fill="#261603" d="M338.954 661.007c-.007 3.82.1 7.153-.096 10.468-.05.871-1.039 1.687-1.596 2.529-.71-.852-2.016-1.689-2.038-2.558-.17-6.79-.094-13.588-.094-21.11-2.51 0-4.623.149-6.692-.086-.677-.077-1.24-1.156-1.854-1.777.596-.467 1.185-1.33 1.789-1.34 5.82-.097 11.642-.093 17.46.017.581.011 1.145.916 1.717 1.406-.64.599-1.229 1.628-1.932 1.714-1.946.238-3.94.083-6.664.083v10.654z"/><path fill="#221403" d="M583.274 657.544c4.652-5.25 10.79-5.742 13.72-1.287.548.832.2 2.254.266 3.404-.957-.323-2.234-.363-2.816-1.02-2.36-2.664-4.822-2.88-7.306-.484-2.524 2.435-2.24 9.414.439 11.494 2.785 2.163 5.137 1.42 7.248-1.308.67-.867 2.074-1.167 4.25-2.309-1.467 6.013-4.314 8.087-8.631 7.976-4.379-.112-7.395-2.538-7.96-6.822-.398-3.02.36-6.194.79-9.644z"/><path fill="#1D1000" d="M634.738 666.47c3.039 5.446 5.449 5.757 9.113 1.78.668-.727 2.007-.835 3.036-1.229-.037 1.04.005 2.09-.149 3.113-.066.439-.507.844-.83 1.22-2.854 3.317-8.185 3.64-11.68.72-3.883-3.243-4.4-12.032-.94-16.005 2.902-3.334 8.619-3.935 11.637-.94.995.987 1.207 2.764 1.777 4.179-1.298-.45-2.814-.616-3.854-1.407-2.92-2.222-6.438-1.646-7.655 1.832-.678 1.937-.41 4.205-.455 6.738zM398.033 654.936c4.422-2.473 8.314-2.556 11.46 1.335.597.739.228 2.258.305 3.417-.96-.329-2.258-.373-2.82-1.038-2.332-2.76-4.831-2.827-7.324-.576-2.55 2.303-2.349 9.396.31 11.478 2.936 2.3 5.443 1.735 7.481-1.512.428-.681 1.795-.772 2.73-1.134-.007 1.148.426 2.996-.096 3.324-2.382 1.496-5.2 3.784-7.541 3.461-2.595-.358-5.98-2.755-6.994-5.13-1.91-4.476-1.805-9.472 2.489-13.625z"/><path fill="#311C03" d="M209.73 660.246c.685 4.386 1.372 8.319 2.1 12.49-3.848 1.157-5.365.26-5.652-4.52-.139-2.318.126-4.668-.112-6.97-.217-2.102-.865-4.16-1.582-7.413l3.811-7.225 4.104 8.635c-.58.991-1.624 2.77-2.67 5.003zM426.042 580.564c-.504.68-.967.924-1.658 1.294-1.872-9.832-3.762-19.76-5.071-29.763-.873-6.672-4.112-10.998-10.31-13.703.327-.73.659-1.046.99-1.361 6.733 2.097 10.312 6.928 11.442 13.64 1.65 9.802 3.11 19.636 4.607 29.893z"/><path fill="#140B04" d="M607.428 654.127c.565.703 1.007 1.766.936 1.802-5.687 2.839-2.674 7.997-2.963 12.095-.104 1.472 2.084 3.105 3.225 4.663-3.725 2.26-6.28 1.32-6.605-2.774-.288-3.62 1.27-8.23-.442-10.7-2.72-3.922.738-6.285.569-9.345-.033-.586 1.286-1.246 1.942-1.836 1.072 2.152 2.024 4.064 3.338 6.095z"/><path fill="#261603" d="M239.946 659.663c-.105 3.913-.02 7.408-.295 10.875-.074.92-1.257 1.753-1.931 2.626-.532-.853-1.504-1.695-1.526-2.561-.139-5.592-.07-11.189-.07-16.568 2.727-.565 4.865-1.255 7.028-1.348 1.042-.045 2.133 1.035 3.202 1.606-.912.547-1.898 1.003-2.72 1.663-1.27 1.02-2.428 2.179-3.688 3.707z"/><path fill="#221403" d="M367.038 654.167c.563-2.638 1.125-4.8 1.687-6.963.577 2.146 1.567 4.276 1.653 6.443.23 5.787.152 11.593-.006 17.386-.027.991-1.054 1.955-1.62 2.932-.569-.975-1.6-1.936-1.63-2.927-.163-5.461-.082-10.93-.084-16.871z"/><path fill="#1D1000" d="M557.97 660.008c-.002 3.967.114 7.445-.077 10.907-.057 1.04-.971 2.032-1.493 3.046-.595-.939-1.684-1.866-1.705-2.817-.15-6.941-.149-13.889-.017-20.831.02-1.039.978-2.059 1.502-3.088.597 1.12 1.61 2.205 1.708 3.366.246 2.956.082 5.946.082 9.417z"/><path fill="#180E00" d="M612.005 656.579c1.39-2.436 7.862-3.977 9.34-2.586.407.381.828 1.368.634 1.637-.401.554-1.275 1.216-1.844 1.127-4.073-.636-4.408 2.361-4.59 4.954-.278 3.947-.073 7.929-.073 11.896l-1.727.666c-.578-1.1-1.61-2.18-1.656-3.302-.189-4.646-.08-9.303-.084-14.392zM674.193 660.007c-.004 4.154.093 7.817-.089 11.467-.042.858-1.025 1.67-1.575 2.503-.532-.847-1.512-1.686-1.527-2.541a717.207 717.207 0 0 1-.02-21.947c.01-.752.867-1.492 1.331-2.238.624.762 1.737 1.492 1.786 2.29.206 3.312.091 6.645.094 10.466z"/><path fill="#311C03" d="M627.71 672.431c-2.332 2.736-3.51 1.947-3.572-.958-.106-4.952-.113-9.91.032-14.859.026-.885.989-1.742 1.518-2.612.702.875 1.976 1.73 2.009 2.629.187 5.112.077 10.234.012 15.8z"/><path fill="#221403" d="M409.63 536.858c.032.488-.3.804-.91 1.322-3.272.347-6.265.492-9.486.208 3.191-.854 6.611-1.278 10.395-1.53z"/><path fill="#311C03" d="M428.985 603.67c-.236-1.16-.353-2.61-.3-4.339.252 1.164.336 2.607.3 4.34z"/><path fill="#221403" d="M398.677 537.683c-1.346 1.256-2.984 2.223-4.392 2.737 1.52-1.31 2.81-2.168 4.392-2.737zM390.992 544.001c.263 1.031.068 2.025-.571 2.99-.259-1.029-.073-2.027.571-2.99z"/><path fill="#FB8E00" d="M413.957 156.091c1.741 6.326 2.982 12.406 5.11 18.16 2.46 6.652-.199 11.671-3.543 17.015-3.346 5.347-6.102 11.07-9.003 16.686-3.052 5.908-6.182 11.79-8.875 17.863-2.038 4.594-5.888 5.644-9.333 3.681-10.23-5.828-20.2-12.16-29.903-18.835-3.326-2.289-2.833-6.562-1.278-10.132 3.19-7.325 6.42-14.636 9.837-21.856 8.68-18.346 17.322-36.713 26.273-54.926 5.592-11.38 12.86-15.49 24.859-14.256 10.937 1.125 17.188 8.261 20.345 18.086 1.712 5.33 2.567 11.029 3.1 16.629 2.28 23.986 4.275 48 6.448 71.996.178 1.961.552 4.065 1.46 5.771 3.493 6.567.282 12.69-1.1 18.887-.195.876-2.61 2.125-3.442 1.796-1.412-.56-3.027-2.058-3.418-3.476-1.412-5.122-2.167-10.422-3.497-15.57-6.451-24.96-13.009-49.893-19.529-74.836-.042-.161-.037-.361-.134-.477-1.664-2-3.34-3.99-5.015-5.983-.366 2.542-1.044 5.09-.999 7.624.034 1.93.986 3.843 1.637 6.153z"/><path fill="#FA8D00" d="M398.762 284.002c-.306-10.615-.518-20.768-.972-30.91-.37-8.25 1.726-15.81 5.563-23.02 4.463-8.382 8.908-16.775 13.198-25.247 1.782-3.52 3.143-7.254 5.134-11.916.81 1.969 1.36 3.02 1.68 4.135 2.674 9.283 5.241 18.596 7.974 27.86 1.556 5.276 1.54 9.555-4.193 12.696-4.075 2.231-5.167 7.607-2.672 13.016 2.73 5.916 2.661 11.624 1.964 17.945-.92 8.345-.471 16.856-.408 25.294.183 24.314.472 48.628.695 72.942.008.785-.25 1.573-.382 2.34-8.467-.51-16.718-1.024-24.971-1.492-3.841-.219-2.748-3.178-2.771-5.227-.133-11.654-.16-23.31-.125-34.966.042-14.328.18-28.655.286-43.45z"/><path fill="#F98D01" d="M433.279 281.383c.82-9.043 1.742-17.613 2.383-26.204.214-2.862 1.421-3.77 4.078-3.61 2.157.131 4.33-.019 6.494.037 4.728.121 8.511-.921 9.705-6.397.266-1.217 2.02-2.11 3.089-3.152.642 1.374 1.875 2.783 1.795 4.114-.136 2.253-.749 4.64-1.79 6.644-2.248 4.334-1.973 8.467-.507 12.967 1.156 3.55 2.015 7.358 2.09 11.07.398 19.771.549 39.55.702 59.325.096 12.458.056 24.917.049 37.375-.001 1.452-.182 2.903-.323 4.996-2.971-.64-5.508-1.105-8-1.748-2.082-.538-4.106-1.3-6.164-1.934-4.077-1.256-10.27-1.327-11.749-4.008-2.255-4.084-1.493-9.964-1.58-15.09-.172-10.147-.02-20.3-.055-30.45-.05-14.49-.147-28.98-.217-43.935z"/><path fill="#F98D00" d="M372.267 346.73c-.77-10.687-1.626-20.904-2.283-31.134-.625-9.727-.896-19.477-1.583-29.199-1.073-15.164-2.408-30.31-3.534-45.47-.246-3.306.068-6.65-.135-9.96-.25-4.089 2.486-5.019 5.023-3.606 6.346 3.533 12.805 7.214 18.156 12.02 2.263 2.032 2.487 7.025 2.551 10.691.229 13.069-.094 26.146-.044 39.219.039 10.286.296 20.572.5 30.858.29 14.713.573 29.427.972 44.138.086 3.152-.462 4.94-4.263 4.974-3.763.033-7.51 1.217-11.28 1.323-1.076.03-3.078-1.87-3.17-3.005-.544-6.775-.654-13.584-.91-20.848z"/><path fill="#F88C00" d="M325.98 389.206c-1.93.35-3.522.499-5.662.699 0-3.328-.453-6.197.083-8.868 1.752-8.733 3.955-17.375 5.812-26.088 2.026-9.506 3.77-19.073 5.794-28.58 6.37-29.913 12.761-59.823 19.31-89.698.683-3.12 2.466-5.999 3.74-8.99l2.272.213c.74 2.181 2 4.331 2.136 6.55 1.169 19.088 2.465 38.181 2.956 57.293.144 5.615-1.841 11.385-3.409 16.926-6.228 22.014-13.456 43.785-18.596 66.043-1.668 7.223-4.464 10.43-10.6 12.406-1.24.4-2.336 1.251-3.836 2.094z"/><path fill="#F68B01" d="m466.981 389.877 23.222 12.081-.282.874c-30.914 0-61.829 0-93.194.022 1.291-.637 2.982-1.566 4.783-1.907 7.833-1.483 12.522-5.325 13.049-10.949.564-6.025-1.16-8.704-7.01-10.908-1.058-.399-2.108-.823-3.161-2.353 2.31 0 4.629-.113 6.931.03 2.484.154 4.951.556 7.428.833 2.463.275 4.929.53 8.074.868-.746 6.04 1.901 10.418 7.132 13.278.717.392 1.396 1.3 2.062 1.271 9.303-.405 19.012 2.639 27.9-3.414.197-.283.507-.265.87-.202.975.2 1.586.338 2.196.476z"/><path fill="#F98D01" d="M461.968 75.401c-.289 5.71.484 11.47-1.335 16.245-2.802 7.357-9.285 9.302-18.416 7.383-6.585-1.384-11.025-7.03-11.67-14.84-.788-9.532 2.89-16.587 9.722-18.65 9-2.719 17.193.874 21.7 9.862z"/><path fill="#EF8700" d="M354.95 346.367c1.188-4.617 2.285-8.829 3.19-13.082 1.198-5.634 2.246-11.3 4.472-17.055.431 3.559 1.041 7.106 1.263 10.678.839 13.549 1.415 27.116 2.404 40.653.267 3.658-1.07 5.073-4.35 5.754-3.238.673-6.492 1.47-9.574 2.647-3.208 1.225-4.322-.226-4.686-2.968-.171-1.292-.252-2.72.115-3.94 2.251-7.457 4.642-14.872 7.165-22.687z"/><path fill="#F68B01" d="M401.6 385.37c1.82 1.443 4.373 2.714 4.422 4.073.063 1.78-1.406 4.422-2.992 5.317-8.283 4.668-17.21 4.162-25.895 1.505-1.64-.502-2.885-4.172-3.246-6.542-.541-3.558-.14-7.26-.14-11.56l15.826-2.232c.957 7.335 6.642 7.847 12.024 9.44z"/><path fill="#EC8500" d="M377.224 403.372c-4.112.195-8.376.062-12.64.055-15.691-.025-31.382-.01-47.52-.964 1.488-1.002 2.976-2.004 4.691-3.276 8.11.336 15.987 1.188 23.882 1.43 3.215.1 6.774-.501 9.64-1.891 4.482-2.175 7.89-10.058 3.645-15.533l7.675-2.142c0 2.948.022 5.362-.004 7.775-.125 11.855-.13 11.855 10.631 14.546z"/><path fill="#EF8700" d="M336.347 396.268c-1.998-.888-3.547-1.751-5.096-2.614 1.41-1.203 2.65-2.772 4.269-3.533 3.413-1.605 6.938-3.295 10.594-3.927 1.825-.315 5.042 1.096 5.86 2.654 1.498 2.857-.1 5.655-3.452 6.266-3.853.7-7.814.812-12.175 1.154z"/><path fill="#DA7B01" d="M448.604 381.872c-2.307 3.98-10.99 2.992-13.574-2.255 4.86.715 9.099 1.34 13.574 2.255z"/><path fill="#0D0804" d="M466.718 389.705c-.347.034-.958-.104-1.832-.423.347-.037.958.106 1.832.423z"/><path fill="#FC8E00" d="M248.08 554.138c6.664-9.581 13.1-18.879 19.613-28.122 9.012-12.791 26.23-17.257 40.543-10.58 14.482 6.756 22.855 23.307 17.543 38.292-5.12 14.44-12.228 28.177-18.993 43.417-2.589-15.474-9.637-26.856-22.457-34.068-12.907-7.262-26.31-7.307-40.578-2.37 1.378-2.087 2.756-4.174 4.328-6.569z"/><path fill="#EF8700" d="M254.18 639.115c-17.584-5.27-28.676-18.836-29.323-35.454-.674-17.31 9.114-32.337 24.94-38.29 15.492-5.827 32.705-1.234 43.38 11.575 10.357 12.43 11.763 30.42 3.467 44.372-8.645 14.54-24.935 21.47-42.463 17.797m-16.74-17.11c11.88 13.2 29.172 15.991 43.286 6.99 13.45-8.579 19.018-25.774 12.704-40.369-5.365-12.398-15.017-19.501-28.539-20.252-13.494-.749-24.106 5.024-30.614 16.89-6.812 12.42-5.525 24.669 3.162 36.741z"/><path fill="#FA8D00" d="M493.518 527.31c10.147-6.422 22.705-2.138 28.12 8.376 6.398 12.427 13.703 24.388 20.603 36.558.797 1.406 1.517 2.857 2.899 5.471-18.954-6.289-31.206-.35-37.654 18.68-4.183-10.47-7.928-19.84-11.668-29.212-2.345-5.878-4.42-11.882-7.085-17.61-4-8.594-2.316-15.771 4.785-22.263z"/><path fill="#E38100" d="M545.404 618.543c-9.77 5.79-19.032 5.492-26.338-.611-7.427-6.203-10.149-16.834-6.747-26.35 2.716-7.6 11.405-13.486 19.89-13.474 8.279.012 17.203 6.025 19.905 13.523 3.704 10.28 2.02 19.305-6.71 26.912m-28.911-9.346c3.722 6.91 9.543 10.563 17.348 10.073 6.849-.43 12.241-3.648 15.459-10.965 3.245-7.246 1.959-13.872-3.099-20.577-3.402-1.9-6.804-3.799-11.052-5.972-2.046.092-4.092.184-6.896.2-6.87 1.296-10.878 5.675-13.362 12.797.039 3.415.078 6.83.112 10.885.432.962.865 1.924 1.49 3.56z"/><path fill="#DA7B01" d="M385.212 609.405c-2.908-10.515-.242-19.26 7.315-24.827a21.325 21.325 0 0 1 23.906-.972c7.578 4.7 11.384 13.466 9.697 22.332-1.687 8.866-9.047 15.853-17.944 17.037-9.776 1.3-18-3.452-22.974-13.57m38.205-4.335c.052-1.163.152-2.326.148-3.489-.037-10.505-8.217-18.692-18.634-18.668-10.253.024-18.706 8.482-18.687 18.7.017 9.302 6.916 17.116 16.282 18.441 9.26 1.31 17.524-4.356 20.89-14.984z"/><path fill="#E38100" d="M661.991 667.909c-.262.487-.339.712-.459.738-2.5.54-4.998 1.106-7.527 1.433-.12.016-.837-3.088-.74-3.12 2.732-.904 5.533-1.6 8.323-2.33.19.974.379 1.95.403 3.279z"/><path fill="#EC8500" d="M189.57 665.27c2.869-.674 5.387-1.159 7.906-1.644l.986 1.149c-1.22 1.609-2.134 3.824-3.754 4.647-1.44.731-3.704.078-5.5-.377-.281-.071-.007-2.335.361-3.774zM222.379 660.92c-2.681.11-4.425-.56-2.386-2.853 1.111-1.251 3.45-2.306 4.992-2.041 1.728.297 3.182 2.186 4.755 3.383l-.758 1.511h-6.603z"/><path fill="#E38100" d="M571.82 661.837h-5.684l-.82-1.645c1.746-1.246 3.35-3.186 5.269-3.573 2.872-.58 5.02 1.041 5.461 4.75-1.361.168-2.579.318-4.225.468z"/><path fill="#DA7B01" d="M381.463 656.535c3.791-.28 5.87 1.15 6.547 5.036h-10.3l-.74-1.054c1.38-1.3 2.757-2.599 4.493-3.982zM356.258 656.719c1.45 1.35 2.55 2.59 4.437 4.718H349.22c.439-4.176 2.894-5.38 7.038-4.718z"/><path fill="#EF8700" d="M416.31 666.306c-.128-.891-.194-1.383-.215-1.877-.147-3.318.248-6.754 4-7.503 1.792-.357 5.464.98 5.715 2.116.69 3.117.972 6.997-.346 9.722-1.847 3.82-6.19 2.636-9.153-2.458z"/><path fill="#1C1004" d="M237.218 621.724c-8.465-11.791-9.752-24.04-2.94-36.46 6.508-11.866 17.12-17.639 30.614-16.89 13.522.75 23.174 7.854 28.539 20.252 6.314 14.595.747 31.79-12.704 40.369-14.114 9.001-31.405 6.21-43.51-7.271m54.322-13.18c.263-2.142.747-4.282.753-6.424.036-11.874-5.135-20.922-15.63-26.393-10.719-5.587-21.398-4.587-30.961 2.704-9.389 7.158-13.047 16.976-10.853 28.668 2.466 13.14 13.4 22.593 26.808 23.445 13.496.859 24.961-7.343 29.883-22z"/><path fill="#0A0702" d="M546.555 588.276c4.704 6.157 5.99 12.783 2.326 20.153-.642-.17-.865-.464-1.052-1.127.31-2.342.585-4.317.711-5.22-3.331.168-6.392 1.145-8.553.156-1.556-.712-2.852-4.157-2.613-6.188.542-4.614 4.525-4.984 8.561-4.528-.423-.953-.623-1.404-.464-2.204l1.084-1.042z"/><path fill="#140B04" d="M515.008 604.998c-.04-3.415-.078-6.83.34-10.605.833-.37 1.21-.378 1.555.01-.323 2.736-.614 5.073-.902 7.387 3.2-1.77 5.43-3.741 7.885-4.083 1.461-.204 4.166 1.852 4.705 3.438.629 1.85.118 4.702-1 6.388-1.825 2.748-4.797 2.484-7.58.784-.022-.118-.43-.331-.568-.6-.23-.446-.323-.624-.443-1.134-1.349-.75-2.67-1.167-3.992-1.585z"/><path fill="#0D0804" d="M529.01 582.032c2.047-.092 4.093-.184 6.562.158.418.831.413 1.228.043 1.651-1.312.142-2.257.256-3.397.393 1.027.952 2.49 1.662 2.568 2.5.235 2.56.723 5.628-.429 7.596-.764 1.306-5.117 2.174-6.183 1.265-1.745-1.487-2.383-4.52-2.95-7.024-.225-.996.983-2.316 1.863-3.525.858-1.029 1.39-2.021 1.923-3.014z"/><path fill="#261603" d="M519.581 607.986s.408.213-.008.526c2.787 6.911 9.372 9.94 15.713 7.484 2.285-.422 4.163-.788 6.167-1.304.276-.366.446-.566.658-.716.024.034-.04.087.268-.04 2.01-2.174 3.712-4.22 5.414-6.265.223.294.446.588.867 1.076-2.578 6.875-7.97 10.094-14.819 10.523-7.805.49-13.626-3.164-17.246-10.554.102-.482.487-.784.936-.588.983.083 1.517-.03 2.05-.142zM528.632 581.994c-.154 1.03-.687 2.023-1.886 3.07-3.714 3.017-6.762 5.98-9.81 8.941-.378.01-.755.019-1.415.026 1.854-6.4 5.863-10.78 13.11-12.037zM535.98 583.814c.005-.396.01-.793.015-1.487 3.402 1.602 6.804 3.501 10.383 5.675-.064.505-.305.736-1.185 1.149-3.497-1.659-6.355-3.498-9.212-5.337zM515.005 605.318c1.324.098 2.646.515 3.683 1.244a27.97 27.97 0 0 1-1.606 1.37s-.385.302-.583.447c-.63-.817-1.064-1.78-1.494-3.061z"/><path fill="#040304" d="M423.288 605.488c-3.238 10.21-11.501 15.877-20.762 14.566-9.366-1.325-16.265-9.139-16.282-18.44-.02-10.219 8.434-18.677 18.687-18.7 10.417-.025 18.597 8.162 18.634 18.667.004 1.163-.096 2.326-.277 3.907z"/><path fill="#FC8E00" d="M291.416 608.944c-4.799 14.257-16.264 22.459-29.76 21.6-13.408-.852-24.342-10.305-26.808-23.445-2.194-11.692 1.464-21.51 10.853-28.668 9.563-7.291 20.242-8.291 30.96-2.704 10.496 5.471 15.667 14.519 15.631 26.393-.006 2.142-.49 4.282-.876 6.824z"/><path fill="#EC8500" d="M535.615 583.841c3.223 1.812 6.081 3.651 9.218 5.658.479.62.679 1.07 1.102 2.023-4.036-.456-8.019-.086-8.56 4.528-.24 2.031 1.056 5.476 2.612 6.188 2.16.99 5.222.012 8.553-.157-.126.904-.4 2.879-.711 5.221-1.738 2.415-3.44 4.46-5.58 6.22.416-4.219.034-7.988-4.513-8.824-1.789-.329-4.9 1.298-5.89 2.946-2.066 3.44-.872 6.64 3.034 8.409-5.935 2.398-12.52-.63-15.285-7.423 3.199 1.387 6.171 1.651 7.995-1.097 1.119-1.686 1.63-4.539 1.001-6.388-.539-1.586-3.244-3.642-4.705-3.438-2.456.342-4.684 2.312-7.885 4.083.288-2.314.579-4.651.902-7.386 3.08-3.36 6.13-6.323 9.519-9.304-.215 1.155-1.423 2.475-1.197 3.471.566 2.504 1.204 5.537 2.95 7.024 1.065.909 5.418.041 6.182-1.265 1.152-1.968.664-5.037.429-7.596-.078-.838-1.54-1.548-2.568-2.5 1.14-.137 2.085-.251 3.397-.393z"/><path fill="#EC8500" d="M517.531 608.128c-.009-.55.432-.902 1.185-1.234.404.199.497.377.727.824-.395.38-.929.493-1.912.41z"/><path fill="#0A0702" d="M535.286 615.996c-4.312-1.712-5.506-4.911-3.44-8.352.99-1.648 4.101-3.275 5.89-2.946 4.547.836 4.929 4.605 4.205 8.951.13.414.194.36-.062.351-.51.221-.608.505-.551.842-1.879.366-3.757.732-6.042 1.154z"/><path fill="#EC8500" d="M541.453 614.692c-.182-.187-.084-.47.401-.725.045.16-.125.359-.4.725z"/></svg>