<svg viewBox="0 0 1080 1080" xml:space="preserve" xmlns="http://www.w3.org/2000/svg"><path d="M284.97 734.89c5.255-10.96 6.58-22.423 7.776-33.928 1.555-14.969 3.292-29.92 4.722-44.901.692-7.255.72-14.571 1.324-21.837.34-4.087.694-8.308 1.973-12.159 7.252-21.832 14.531-43.663 22.36-65.293 2.788-7.707 7.14-14.848 10.71-22.109-8.521-6.271-17.709-10.205-28.233-12.014-6.757-1.161-13.165-4.955-19.408-8.19-2.225-1.152-4.535-3.92-5.03-6.318-2.05-9.916-1.866-19.857 5.104-28.044 3.979-4.673 9.81-5.936 15.861-5.066 14.158 2.038 27.551-.766 40.527-6.228.957-.402 1.81-1.464 2.334-2.424 8.39-15.377 18.004-29.81 30.006-42.728 5.87-6.318 10.107-14.121 15.433-20.98 5.644-7.268 11.473-14.422 17.657-21.23 4.836-5.325 9.966-10.52 15.614-14.946 15.698-12.301 26.138-28.88 37.096-44.974 3.718-5.46 5.351-12.297 8.366-18.29 2.955-5.87 6.543-11.42 9.666-17.21.992-1.84 1.3-4.036 2.065-6.013 3.6-9.295 7.217-18.582 10.9-27.843 1.178-2.962 2.578-5.836 4.024-9.084-27.272-8.607-44.733-25.674-50.407-53.425-4.044 0-7.55.62-10.74-.119-8.964-2.076-14.407-8.408-12.232-18.943 2.512-12.165-1.712-21.49-6.56-31.444-5.762-11.827-10.047-24.069-9.156-37.574 1.575-23.894 10.554-43.966 29.648-59.139 17.347-13.784 36.767-21.035 59.066-19.685 19.224 1.164 36.22 7.887 50.92 20.48 17.103 14.653 25.92 33.664 29.568 55.423.518 3.089.61 6.358.237 9.464-.785 6.506 1.244 12.108 3.86 17.936 1.664 3.712 1.282 8.313 2.021 12.48.441 2.486.646 5.374 2.058 7.255 3.172 4.221 6.93 8.024 10.636 11.816 3.776 3.863 7.942 6.71 13.922 6.233 6.145-.49 11.556 2.567 15.53 6.661 6.8 7.005 15.527 10.677 23.532 15.632 2.76 1.709 5.429 3.674 7.794 5.89 8.428 7.901 17.392 15.38 24.832 24.14 6.167 7.26 10.51 16.08 15.587 24.254 2.128 3.426 4.456 6.804 6.03 10.488 8.867 20.756 13.709 42.657 18.14 64.68 2.403 11.947 5.573 23.75 7.66 35.746 1.47 8.453 1.532 17.14 2.529 25.688 1.03 8.838 2.21 17.67 3.712 26.44 3.887 22.712 7.772 45.428 12.112 68.055 1.603 8.362 4.634 16.44 6.72 24.724 1.927 7.65 3.711 15.355 5.106 23.116 2.099 11.68 4.324 23.38 5.526 35.17 1.156 11.343 1.525 22.815 1.41 34.222-.097 9.796-7.547 15.288-15.285 18.367-10.333 4.111-14.186 10.71-14.93 21.424-.618 8.921-3.9 17.632-5.635 26.508-2.543 13.016-.967 25.925 1.244 38.86.999 5.842.115 12.026 1.29 17.81 1.524 7.497 4.196 14.767 6.472 22.104 3.502 11.29 6.614 22.73 10.762 33.782 4.962 13.22 10.525 26.24 16.412 39.079 5.454 11.893 9.983 23.895 11.198 37.074.382 4.153 2.504 8.122 3.605 12.236 2.405 8.987 4.28 18.135 7.086 26.99 3.315 10.46 7.387 20.678 11.126 31.002 1.548 4.274 3.576 8.447 1.816 13.226-.996 2.705-.176 4.375 2.536 6.181 10.518 7.005 20.155 15.05 27.206 25.806 4.537 6.921 4.417 17.43.108 24.641-8.108 13.571-20.214 22.435-34.07 29.008-8.595 4.077-17.579 7.484-26.656 10.34-5.964 1.877-12.417 1.714-18.07 5.324-9.37 5.982-18.682 12.383-28.816 16.755-11.057 4.77-22.832 8.533-34.667 10.598-7.031 1.228-14.816-1.477-22.185-2.833-1.892-.348-4.113-1.905-5.122-3.556-4.55-7.443-5.527-19.769.978-27.623 7.74-9.345 14.036-19.886 20.976-29.897 1.285-1.853 2.657-3.646 4.326-5.927-10.374-2.68-11.893-10.791-12.828-19.23-1.039-9.369-1.473-18.848-3.252-28.071-.822-4.261-4.266-7.999-6.43-12.023-5.62-10.458-11.748-20.691-16.645-31.48-6.924-15.257-12.764-31.003-19.376-46.407-4.13-9.622-9.105-18.884-13.192-28.522-3.702-8.73-6.724-17.748-10.027-26.645-1.09-2.935-1.616-6.217-3.267-8.781-6.763-10.496-11.19-21.89-14.155-35.125-3.082 4.265-5.408 8.095-8.321 11.409-11.098 12.626-18.975 27.29-27.35 41.705-6.686 11.513-14.503 22.364-21.611 33.639-6.663 10.569-12.952 21.374-19.618 31.94-2.61 4.138-5.303 8.437-8.817 11.75-11.154 10.517-18.101 23.937-25.642 36.83-6.095 10.42-9.135 22.145-8.779 34.455.362 12.498-.319 24.836-5.007 36.642-2.984 7.513-8.143 12.399-16.437 13.002-25.073 1.821-47.348-6.093-66.24-21.926-9.847-8.253-20.866-12.811-32.41-17.178-13.187-4.99-25.961-11.214-36.382-20.672-6.059-5.5-11.078-12.857-14.561-20.315-5.392-11.544 2.454-22.8 15.924-23.942 7.447-.632 14.998.034 22.469-.42 10.232-.622 20.44-1.68 30.644-2.697 4.44-.443 6.376-2.9 6.582-7.62.367-8.446 2.933-16.257 7.147-23.789 2.382-4.259 2.734-9.716 3.706-14.692 4.06-20.792 13.91-38.865 25.852-56.02 2.422-3.48 4.717-7.201 6.223-11.136 5.254-13.728 13.91-25.123 24.114-35.343 4.755-4.762 5.326-10.76 5.542-16.362.276-7.155 2.613-13.49 4.399-20.168 2.844-10.633 4.657-21.537 7.185-32.26 3.303-14.016 9.077-27.01 16.273-39.494 5.976-10.368 11.329-21.104 16.71-31.802 2.853-5.67 5.252-11.574 7.67-17.448.428-1.04.425-3.155-.201-3.591-8.885-6.184-9.235-15.924-9.458-24.96-.308-12.52 1.237-25.074 1.524-37.624.178-7.778-.304-15.59-.85-23.361-.87-12.38-2.038-24.74-3.083-37.107-.766-9.066-1.536-18.131-2.39-28.218-3.878 3.795-7.73 6.944-10.824 10.716-8.051 9.816-18.7 15.89-29.816 21.244-14.396 6.934-27.12 16.08-38.898 28.04 3.377.55 6.195 1.386 9.02 1.407 17.324.128 26.614 21.286 22.934 34.67-3.56 12.95-8.11 25.65-12.723 38.28-1.248 3.419-3.754 6.9-6.642 9.086-5.267 3.985-7.024 9.291-8.987 15.196-3.566 10.725-7.863 21.263-12.653 31.506-4.032 8.62-9.05 16.798-13.897 25.014-5.748 9.74-7.375 20.692-9.647 31.444-2.178 10.307-4.502 20.627-5.81 31.06-1.349 10.765-1.33 21.692-2.32 32.51-.809 8.847-2.22 17.639-3.364 26.455-1.468 11.305-2.865 22.619-4.423 33.912-1.734 12.57-3.62 25.12-5.424 37.68-.516 3.597-1.259 7.19-1.402 10.804-.384 9.723-5.048 16.604-12.129 23.216-15.973 14.917-34.838 12.995-53.79 10.765-13.688-1.61-17.042-15.996-15.272-25.833 2.8-15.565 6.243-31.038 8.374-46.691 1.828-13.428 2.056-27.067 3.254-40.59 1.13-12.75.15-25.936 7.193-37.968m176.75-545.14c.209 2.88-.361 6.111.753 8.583 7.88 17.492 22.457 27.152 40.156 32.365 10.23 3.014 11.809 2.024 16.113-5.14 2.653-5.549 8.198-6.239 11.33-.774-1.352 1.85-2.343 4.21-4.115 5.469-11.79 8.372-18.181 20.65-24.413 33.066-.325.646.015 1.625-.476 2.894-3.073 6.21-7.468 11.92-7.121 19.42.046 1.006-.62 2.111-1.144 3.067-4.554 8.316-9.31 16.525-13.68 24.936-3.083 5.934-5.115 12.463-8.584 18.135-5.483 8.968-11.779 17.44-18.318 26.45-1.729 1.933-3.313 4.024-5.212 5.773-9.237 8.51-18.962 16.535-27.725 25.503-6.987 7.152-12.947 15.328-19.164 23.207-6.24 7.907-11.93 16.264-18.405 23.965-9.618 11.44-18.007 23.67-24.769 36.945-2.284 4.485-5.699 6.668-9.989 8.36-4.655 1.835-9.227 3.877-14.397 5.332-10.837.406-21.678.739-32.508 1.304-1.465.077-3.802 1.024-4.136 2.075-1.283 4.043-1.915 8.293-2.99 13.413 13.45 3.866 26.182 7.524 39.429 11.584 2.777 1.906 5.555 3.811 8.8 6.207.872.766 1.67 1.643 2.627 2.282 5.515 3.68 6.672 6.957 4.158 12.784-4.748 11.004-10.044 21.795-14.286 32.989-6.585 17.379-12.663 34.957-18.55 52.587-1.735 5.198-2.42 10.819-3.008 16.309-.703 6.566-.512 13.228-1.196 19.798-1.46 14.045-3.578 28.027-4.784 42.09-1.184 13.797-2.922 27.31-8.895 40.059-2.334 4.979-4.436 10.402-5.027 15.799-1.81 16.532-3.22 33.13-4.069 49.74-.99 19.409-3.461 38.507-8.845 57.209-1.224 4.252 1.071 8.773 5.547 9.322 7.348.901 14.828.72 23.004.812 8.936-.7 15.42-5.951 21.663-11.656 5.265-4.81 4.424-11.584 5.417-17.654 1.652-10.092 2.698-20.282 4.077-30.42.566-4.162 1.476-8.278 1.983-12.446 1.102-9.053 1.383-18.26 3.2-27.16 3.186-15.612 4.498-31.325 4.875-47.19.133-5.572.374-11.198 1.28-16.68a462.831 462.831 0 0 1 5.735-28.92c2.752-11.88 5.944-23.659 9.578-35.82 1.154-2.119 2.25-4.271 3.473-6.349 3.554-6.035 7.62-11.819 10.636-18.109 4.49-9.36 8.39-19.017 12.23-28.67.922-2.316.623-5.118 1.245-8.293 3.136-5.675 6.272-11.35 10.127-17.068 2.54-2.867 5.822-5.368 7.46-8.681 2.88-5.824 4.959-12.077 6.988-18.277 1.667-5.093 2.97-10.328 4.08-15.575 1.189-5.625-4.227-15.75-9.06-16.55-8.08-1.339-16.276-1.965-24.368-3.24-2.35-.37-4.512-1.929-6.58-3.765.164-8.112 5.17-13.278 10.723-18.339 12.59-11.473 25.597-22.343 41.363-29.239 14.512-6.347 25.24-17.252 36.158-28.243 6.48-6.524 14.463-11.558 22.146-16.682 3.079-1.315 3.761.342 3.75 2.972-.024 5.492-.271 11 .044 16.474.851 14.75 1.954 29.483 2.948 44.223.684 10.153 1.334 20.308 2.072 30.456.053.739.698 1.434.98 3.093.028 6.07.056 12.142-.056 19.032-.167 3.023-.437 6.045-.464 9.069-.019 2.116.494 4.242.427 6.353-.239 7.575-.393 15.166-1.028 22.713-.485 5.769 2.31 9.736 6.548 12.568 6.388 4.268 6.327 8.188 3.728 13.677-.733 1.593-1.555 3.152-2.183 4.786-1.308 3.4-2.184 7.008-3.82 10.234-5.644 11.123-11.58 22.096-17.322 33.17-3.701 7.14-6.928 14.55-10.96 21.492-5.004 8.616-7.305 17.942-8.953 27.587-1.148 6.716-1.93 13.616-4.125 20.005-3.65 10.63-6.118 21.301-7.107 32.545-.516 5.873-2.733 11.616-7.972 16.228-5.509 4.848-9.937 11.185-13.886 17.47-3.795 6.038-5.973 13.074-9.571 19.26-6.216 10.684-13.092 20.982-19.486 31.566-6.165 10.205-9.162 21.473-10.926 33.202-.682 4.532-1.997 9.168-4.034 13.252-3.475 6.966-7.404 13.583-4.923 21.851.35 1.166.369 3.082-.332 3.805-4.391 4.533-8.25 10.311-15.03 11.15-11.524 1.427-23.127 2.314-34.721 3.054-6.474.413-12.996.012-19.495.092-6.183.076-8.654 3.324-5.814 8.741 2.376 4.533 5.455 9.145 9.353 12.345 10.126 8.313 21.78 14.191 34.007 18.944 7.894 3.069 15.987 5.887 23.351 9.97 5.466 3.033 9.719 8.17 14.836 11.929 13.453 9.88 29.07 14.188 45.254 16.785 6.835 1.097 11.606-1.963 13.594-8.772 4.455-15.26 2.717-31.049 3.935-47.356.357-1.212.714-2.424 1.107-4.392 1.988-3.985 4.53-7.796 5.858-11.99 3.719-11.735 11.471-21.107 17.877-31.22 3.555-5.613 9.072-9.95 12.927-15.413 6.132-8.69 11.608-17.84 17.37-26.79 9.933-15.429 20.336-30.579 29.673-46.359 8.8-14.873 16.67-30.23 28.197-43.374 6.285-7.165 11.432-15.316 17.418-22.76 2.952-3.672 7.166-3.17 9.253.829 1.47 2.82 2.351 5.951 3.444 8.962 2.934 8.086 5.585 16.287 8.829 24.246 3.43 8.416 7.726 16.483 11.063 24.932 2.808 7.11 3.61 15.229 7.363 21.707 8.51 14.691 14.309 30.467 20.71 46.027 3.095 7.525 5.786 15.224 9.08 22.659 2.656 5.993 5.956 11.698 8.943 17.545 2.85 5.577 5.474 11.279 8.55 16.728 2.927 5.186 7.512 9.744 9.21 15.244 2.492 8.079 3.168 16.734 4.417 25.174.805 5.44 1.144 10.951 2.003 16.381.1.63 2.375 1.573 3.332 1.297 4.446-1.28 8.784-2.94 14.433-4.907-.48 5.946.646 12.246-1.684 16.762-5.366 10.398-12.22 20.059-18.848 29.762-4.029 5.897-8.78 11.299-13.17 16.952-3.467 4.467-3.338 7.133 1.895 9.296 4.172 1.726 9.298 2.738 13.69 2.059 18.11-2.8 33.904-11.454 49.195-21.075 7.532-4.739 14.976-9.11 24.23-10.487 7.931-1.18 15.77-4.072 23.202-7.253 11.743-5.026 21.744-12.852 30.744-21.884 5.726-5.746 6.283-10.49 1.284-16.86-3.328-4.24-7.56-7.77-11.462-12.263a32.291 32.291 0 0 0-2.679-1.239c-.423-.39-.847-.78-1.333-1.809a36.04 36.04 0 0 0-2.672-1.187c-.423-.388-.845-.777-1.333-1.808-.712-.338-1.424-.676-2.691-1.178-.414-.397-.828-.793-1.303-1.824a33.219 33.219 0 0 0-2.66-1.204c-.424-.4-.847-.8-1.334-1.824-.687-.344-1.374-.69-2.63-1.208-.434-.396-.868-.792-1.372-1.815-.7-.33-1.4-.66-2.566-1.098-.316-.149-.504-.395-.488-1.45-1.018-1.556-2.035-3.11-2.73-5.286 1.659-.973 3.558-1.696 4.904-2.992 1.242-1.195 2.908-3.247 2.612-4.501-.942-3.989-2.739-7.772-4.16-11.65-3.082-8.414-6.428-16.747-9.106-25.29-1.952-6.227-2.921-12.757-4.487-19.113-1.913-7.766-4.012-15.485-5.993-23.233-1.348-5.273-2.12-10.76-4.072-15.794-2.478-6.392-6.126-12.32-8.84-18.633-3.588-8.349-6.712-16.896-10.133-25.32-1.88-4.63-4.406-9.045-5.847-13.797-2.369-7.812-3.761-15.922-6.183-23.715-2.222-7.151-6.365-13.845-7.698-21.102-2.492-13.557-3.929-27.345-5.086-41.097-.724-8.603-.529-17.34-.012-25.972.426-7.102.81-14.553 3.227-21.106 3.482-9.438 4.14-19.106 5.657-29.337 1.772-1.431 3.4-3.11 5.344-4.247 6.042-3.532 12.429-6.525 18.203-10.437 2.162-1.464 3.985-4.789 4.23-7.426.434-4.69-.326-9.517-.812-14.264-.85-8.3-1.766-16.595-2.852-24.867-.89-6.787-1.987-13.55-3.139-20.299-1.823-10.684-3.535-21.406-7.976-32.159-.678-2.37-1.55-4.705-2.003-7.119-2.295-12.25-4.482-24.52-6.87-37.617-2.712-14.305-5.606-28.578-8.065-42.926-1.391-8.12-2.121-16.358-3.051-24.554-1.041-9.167-1.37-18.462-3.074-27.5-3.643-19.326-7.571-38.619-12.169-57.736-2.832-11.777-6.373-23.51-10.98-34.694-3.819-9.271-9.641-17.72-14.614-26.513-4.777-8.446-10.708-15.936-18.409-21.936-3.1-2.415-6.138-4.913-9.292-7.254-5.029-3.732-9.995-7.572-15.24-10.977-4.868-3.16-11.734-4.64-14.75-8.943-5.238-7.474-11.494-8.851-20.14-8.072-4.151-2.874-8.975-5.13-12.31-8.754-6.505-7.07-12.177-14.907-18.147-23.295.244-3.698 1.195-7.523.554-11.06-.794-4.382-2.795-8.571-4.506-12.75-.634-1.547-1.923-2.827-3.142-4.825.708-4.612 2.511-9.366 1.934-13.81-2.51-19.315-10.552-35.91-25.54-48.922-12.506-10.858-26.992-16.521-43.345-17.572-17.69-1.136-32.992 5.273-46.865 15.624-18.155 13.545-26.685 32.011-26.904 54.395-.097 9.861 3.853 18.797 8.224 27.337 5.892 11.511 11.177 22.86 7.72 36.397-1.465 5.74.015 6.375 5.95 6.392 4.167.011 8.788-3.748 13.018 1.53 2.318 3.765 4.636 7.529 6.736 12.04z" fill="#FDFDFC"/><path d="M454.68 933.36c-1.017 15.555.72 31.344-3.735 46.604-1.987 6.809-6.758 9.869-13.594 8.772-16.183-2.598-31.8-6.905-45.254-16.785-5.117-3.759-9.37-8.897-14.836-11.928-7.363-4.084-15.457-6.902-23.35-9.971-12.229-4.753-23.882-10.631-34.008-18.944-3.898-3.2-6.976-7.813-9.353-12.345-2.84-5.417-.37-8.665 5.814-8.741 6.499-.08 13.021.32 19.495-.092 11.594-.74 23.196-1.627 34.721-3.054 6.78-.84 10.64-6.618 15.03-11.15.7-.723.682-2.64.333-3.805-2.482-8.268 1.447-14.885 4.922-21.85 2.037-4.085 3.353-8.721 4.034-13.253 1.764-11.729 4.761-22.997 10.926-33.202 6.394-10.584 13.27-20.883 19.486-31.567 3.598-6.185 5.777-13.22 9.571-19.26 3.949-6.284 8.377-12.62 13.886-17.469 5.24-4.611 7.456-10.355 7.972-16.228.989-11.244 3.457-21.916 7.108-32.545 2.194-6.389 2.976-13.289 4.124-20.005 1.649-9.645 3.95-18.972 8.953-27.587 4.032-6.944 7.259-14.352 10.96-21.492 5.742-11.074 11.679-22.047 17.322-33.17 1.637-3.226 2.513-6.833 3.82-10.234.629-1.634 1.45-3.193 2.666-4.614 5.476 8.186 10.069 16.491 15.615 24.101 3.306 4.537 7.523 9.115 12.387 11.63 5.897 3.05 12.89 5.409 19.441 5.488 18.21.222 36.447-.678 54.651-1.588 6.914-.345 13.871-1.477 20.625-3.042 12.183-2.823 24.17-6.488 36.347-9.345 12.252-2.875 24.761-4.719 36.9-7.975 5.414-1.453 10.476-2.832 16.001-1.623-1.17 9.704-1.828 19.372-5.31 28.81-2.417 6.553-2.801 14.004-3.226 21.106-.517 8.633-.712 17.37.012 25.972 1.157 13.752 2.594 27.54 5.085 41.097 1.333 7.257 5.477 13.951 7.699 21.102 2.421 7.793 3.814 15.903 6.182 23.715 1.44 4.753 3.967 9.168 5.848 13.798 3.42 8.423 6.543 16.97 10.133 25.32 2.714 6.312 6.362 12.24 8.84 18.632 1.951 5.034 2.723 10.521 4.071 15.794 1.981 7.75 4.08 15.468 5.993 23.233 1.566 6.356 2.535 12.886 4.488 19.114 2.677 8.542 6.023 16.875 9.106 25.29 1.42 3.878 3.217 7.661 4.16 11.65.296 1.254-1.371 3.306-2.613 4.5-1.346 1.297-3.245 2.02-5.413 3.37-11.93 7.049-23.35 13.72-35.14 20.394-6.705 2.84-13.04 5.677-19.36 8.508 2.096.473 4.476.95 6.824 1.55 10.43 2.665 20.317 2.467 28.27-6.027 5.15-5.5 9.965-11.313 15.233-17.151 2.243-2.57 4.226-4.774 7.336-1.653.06.343.248.59.871 1.08.981.69 1.655 1.036 2.329 1.382.434.396.869.792 1.657 1.562 1.016.735 1.678 1.097 2.34 1.458.422.4.846.8 1.625 1.572 1.026.736 1.696 1.102 2.366 1.467.414.397.827.793 1.597 1.563a18.84 18.84 0 0 0 2.4 1.448c.423.388.846.777 1.624 1.536 1.03.732 1.704 1.093 2.378 1.454.424.39.848.78 1.63 1.544 1.036.752 1.714 1.131 2.393 1.51 3.828 3.848 8.06 7.379 11.389 11.62 4.999 6.368 4.442 11.112-1.285 16.86-9 9.031-19 16.857-30.744 21.883-7.431 3.181-15.27 6.072-23.2 7.253-9.255 1.378-16.699 5.749-24.232 10.487-15.292 9.62-31.084 18.274-49.194 21.075-4.392.68-9.519-.333-13.69-2.058-5.233-2.164-5.363-4.83-1.894-9.297 4.389-5.653 9.14-11.055 13.169-16.952 6.627-9.702 13.482-19.364 18.848-29.762 2.33-4.516 1.203-10.815 1.684-16.762-5.65 1.967-9.987 3.626-14.433 4.907-.958.276-3.233-.667-3.332-1.297-.86-5.43-1.198-10.94-2.003-16.38-1.25-8.44-1.925-17.096-4.418-25.175-1.697-5.5-6.282-10.058-9.21-15.244-3.075-5.448-5.7-11.15-8.549-16.728-2.987-5.847-6.288-11.553-8.943-17.545-3.294-7.434-5.985-15.133-9.08-22.659-6.402-15.56-12.202-31.336-20.71-46.027-3.753-6.478-4.555-14.597-7.363-21.707-3.337-8.449-7.633-16.516-11.063-24.932-3.245-7.959-5.895-16.16-8.83-24.246-1.092-3.01-1.973-6.142-3.444-8.962-2.086-4-6.3-4.501-9.252-.83-5.986 7.445-11.133 15.596-17.418 22.761-11.527 13.142-19.397 28.5-28.197 43.374-9.337 15.781-19.74 30.93-29.673 46.358-5.762 8.95-11.238 18.102-17.37 26.791-3.854 5.462-9.372 9.8-12.927 15.413-6.405 10.113-14.158 19.485-17.877 31.22-1.33 4.195-3.87 8.005-6.298 12.495-7.753-1.363-15.459-2.332-22.286-5.313-9.728-4.248-18.805-9.983-28.187-15.035-.573-.309-1.373-.196-2.333-.31 1.68 3.5 3.041 6.628 4.649 9.623 3.166 5.9 7.633 10.713 14.357 11.97 6.95 1.3 14.1 1.525 21.158 2.275 3.93.418 7.85.949 11.774 1.429z" fill="#0F0909"/><path d="M723.83 606.83c-5.698-.945-10.761.434-16.175 1.886-12.139 3.257-24.649 5.1-36.9 7.975-12.176 2.858-24.164 6.522-36.347 9.346-6.754 1.565-13.711 2.696-20.625 3.042-18.204.91-36.441 1.809-54.651 1.588-6.55-.08-13.544-2.44-19.441-5.488-4.864-2.516-9.081-7.093-12.387-11.63-5.546-7.611-10.138-15.916-15.279-24.242 1.78-5.52 1.842-9.44-4.546-13.708-4.238-2.833-7.033-6.8-6.548-12.568.635-7.547.79-15.137 1.028-22.713.067-2.111-.446-4.237-.427-6.353.027-3.024.298-6.046.944-9.5 2.592-.077 4.933-.193 6.78.706 12.504 6.087 26.127 5.46 39.409 6.84 16.603 1.726 32.664-2.726 48.813-5.083 20.942-3.056 41.745-7.409 62.359-12.264 20.963-4.937 41.627-11.15 62.413-16.835 4.936-1.35 9.839-2.82 14.757-4.234 4.434 10.026 6.146 20.748 7.97 31.432 1.15 6.748 2.247 13.512 3.138 20.299 1.086 8.271 2.002 16.567 2.852 24.867.486 4.746 1.246 9.573.811 14.264-.244 2.637-2.067 5.961-4.23 7.426-5.772 3.911-12.16 6.905-18.202 10.437-1.944 1.137-3.572 2.815-5.518 4.51z" fill="#F4690A"/><path d="M737 493.23c-4.915 1.778-9.818 3.248-14.753 4.598-20.787 5.684-41.45 11.897-62.413 16.835-20.613 4.855-41.417 9.207-62.359 12.264-16.149 2.357-32.211 6.809-48.813 5.083-13.282-1.38-26.905-.753-39.409-6.84-1.847-.9-4.188-.783-6.71-1.116-.438-6.05-.466-12.12-.053-18.64 2.205-.812 3.965-1.196 5.734-1.538 5.957-1.152 7.32-5.033 6.64-10.519-.608-4.924-.72-9.909-1.099-14.863-1.64-21.464-3.197-42.935-5.003-64.385-.594-7.052-1.85-14.048-2.508-21.263 1.184-2.675 2.073-5.158 3.374-7.704 3.224.237 6.036.538 8.904 1.272.251 1.752.38 3.084.65 4.387a82246.464 82246.464 0 0 0 17.175 82.857c1.544 7.426 3.167 14.837 4.768 22.318l127.84-19.996c-3.013-20.688-5.817-40.723-8.87-60.72-4.708-30.852-8.782-61.834-14.714-92.452-3.265-16.853-9.441-33.19-14.903-49.56-8.491-25.447-28.592-39.047-52.187-47.763-11.566-4.273-24.191-5.677-36.296-8.737 4.138-8.533 10.635-12.883 20.168-12.538 1.677.752 3.117 1.697 4.49 1.607 9.018-.592 17.164 2.8 24.825 6.498 11.159 5.387 22.979 10.592 32.214 18.547 24 20.676 40.16 47.158 50.4 77.062 11.683 34.123 18.799 69.425 25.954 104.69 2.961 14.595 5.458 29.283 8.374 43.888.331 1.662 2.167 4.445 3.03 4.344 5.043-.586 10.319-1.196 14.826-3.287 1.646-.763 1.398-5.61 2.015-8.594 2.224 12.263 4.41 24.533 6.706 36.783.452 2.414 1.325 4.748 2.007 7.482z" fill="#C1B7AC"/><path d="M518.48 385.98c-2.812-.301-5.624-.602-9.034-1.17-3.413-1.617-6.107-3.38-9.063-4.24-10.706-3.113-21.481-5.998-32.269-8.821-7.565-1.98-11.676-7.613-15.306-13.856 5.952-8.681 12.246-17.153 17.73-26.12 3.469-5.672 5.5-12.202 8.583-18.135 4.37-8.41 9.127-16.62 13.681-24.936.524-.956 1.19-2.061 1.143-3.067-.346-7.5 4.049-13.21 7.742-19.643 7.05-5.723 13.386-11.335 19.925-16.701 13.64-11.193 28.94-14.195 46.182-10.174 12.633 2.946 24.463 7.796 35.455 14.198 12.238 7.127 22.772 16.59 25.116 31.747 3.074 19.878 3.593 39.92-3.056 59.11-3.381 9.758-11.491 16.582-21.378 20.448-6.313 2.468-12.764 4.594-19.202 6.726-2.978.987-6.037 2.08-9.121 2.314-5.2.394-9.14 2.263-12.018 6.768-3.483 5.453-8.503 8.441-15.185 7.503-6.04-.849-12.043-1.952-18.054-2.99-4.059-.702-8.167-2.217-11.87 1.039z" fill="#352730"/><path d="M518.53 386.41c3.647-3.689 7.755-2.173 11.813-1.472 6.011 1.039 12.015 2.142 18.054 2.99 6.682.939 11.702-2.05 15.185-7.502 2.878-4.505 6.817-6.374 12.018-6.769 3.084-.234 6.144-1.326 9.121-2.313 6.438-2.132 12.89-4.258 19.202-6.727 9.887-3.866 17.997-10.689 21.378-20.448 6.65-19.19 6.13-39.232 3.056-59.11-2.344-15.156-12.878-24.62-25.116-31.747-10.992-6.402-22.822-11.252-35.455-14.198-17.242-4.02-32.542-1.019-46.182 10.174-6.539 5.366-12.876 10.978-19.664 16.478-.39-.824-.73-1.803-.405-2.45 6.232-12.414 12.625-24.693 24.413-33.065 1.772-1.259 2.763-3.618 4.556-5.882 4.108-2.7 7.775-4.984 11.442-7.27 12.146 2.703 24.771 4.107 36.337 8.38 23.595 8.715 43.695 22.316 52.187 47.764 5.462 16.37 11.638 32.706 14.903 49.559 5.933 30.619 10.006 61.6 14.715 92.452 3.053 19.997 5.857 40.032 8.87 60.72l-127.84 19.996c-1.601-7.482-3.224-14.892-4.768-22.318a80065.51 80065.51 0 0 1-17.175-82.857c-.27-1.303-.4-2.635-.65-4.387z" fill="#F5690B"/><path d="M454.59 177.1c-3.838-4.667-8.46-.907-12.626-.919-5.935-.017-7.416-.651-5.95-6.392 3.457-13.537-1.829-24.885-7.72-36.397-4.371-8.54-8.321-17.476-8.225-27.337.218-22.384 8.748-40.85 26.904-54.395 13.873-10.35 29.176-16.759 46.865-15.624 16.354 1.05 30.84 6.714 43.346 17.572 14.987 13.011 23.029 29.607 25.539 48.922.578 4.445-1.226 9.2-2.16 14.288-7.64 1.55-15.041 3.323-22.468 3.437-4.728.073-9.446-2.54-14.253-3.552-8.001-1.683-16.26-2.925-23.57 1.85-10.165 6.642-15.635 16.569-18.007 28.703-5.41 4.832-11.126 8.923-15.84 13.952-4.489 4.788-7.933 10.556-11.836 15.893z" fill="#C4D9EE"/><path d="M728.21 448.55c-.534 3.4-.286 8.248-1.932 9.011-4.508 2.09-9.784 2.701-14.826 3.287-.864.1-2.7-2.682-3.03-4.344-2.916-14.604-5.413-29.293-8.375-43.888-7.155-35.265-14.27-70.567-25.954-104.69-10.239-29.904-26.399-56.386-50.4-77.062-9.235-7.956-21.055-13.16-32.214-18.547-7.66-3.698-15.806-7.09-24.825-6.499-1.372.09-2.812-.854-4.47-2.002-.488-4.87 1.611-7.156 5.296-9.095 10.657-5.606 21.077-11.662 31.59-17.54 7.92-.931 14.177.446 19.415 7.92 3.015 4.303 9.882 5.783 14.749 8.943 5.245 3.405 10.212 7.245 15.24 10.977 3.155 2.341 6.192 4.84 9.293 7.255 7.701 6 13.632 13.49 18.409 21.936 4.972 8.792 10.795 17.242 14.614 26.513 4.606 11.183 8.147 22.917 10.98 34.694 4.598 19.117 8.526 38.41 12.169 57.736 1.703 9.038 2.032 18.332 3.073 27.5.93 8.195 1.66 16.433 3.052 24.554 2.458 14.348 5.352 28.62 8.146 43.343z" fill="#F69C25"/><path d="M452.51 358.06c3.924 6.079 8.035 11.712 15.6 13.692 10.788 2.824 21.562 5.708 32.269 8.821 2.956.86 5.65 2.624 8.65 4.303-.701 2.814-1.59 5.296-3.181 7.99-4.682-.517-7.585 1.372-9.36 4.563-1.87 3.36-3.1 7.076-4.61 10.637-7.306 5.704-15.288 10.737-21.768 17.262-10.917 10.99-21.645 21.896-36.158 28.243-15.767 6.896-28.773 17.767-41.363 29.239-5.554 5.06-10.56 10.226-11.17 18.838-3.152 1.14-5.83 2.113-8.573 2.359-6.605.59-12.583 2.756-15.754 8.69-3.692 6.91-9.59 8.367-16.41 8.705-2.777-1.906-5.555-3.811-8.696-6.325-2.047-7.604-2.79-14.54.108-21.479.737-1.765.702-3.852 1.022-5.792 4.609-1.952 9.182-3.994 13.836-5.83 4.29-1.69 7.705-3.874 9.99-8.359 6.761-13.275 15.15-25.506 24.769-36.945 6.475-7.702 12.166-16.058 18.405-23.965 6.217-7.879 12.177-16.055 19.164-23.207 8.762-8.968 18.487-16.993 27.725-25.503 1.898-1.75 3.482-3.84 5.506-5.938m8.121 50.94-6.437 2.898.878 2.27c2.623-.745 5.623-.933 7.768-2.385 2.43-1.644.553-2.573-2.209-2.784z" fill="#B97252"/><path d="M340.92 521.65c6.587-.583 12.485-2.039 16.177-8.95 3.17-5.934 9.148-8.099 15.754-8.69 2.743-.245 5.42-1.218 8.484-1.948 2.604.926 4.766 2.485 7.116 2.855 8.092 1.275 16.289 1.901 24.368 3.24 4.833.8 10.249 10.926 9.06 16.55-1.11 5.247-2.413 10.482-4.08 15.575-2.03 6.199-4.108 12.453-6.988 18.277-1.638 3.313-4.92 5.814-8.234 8.62-1.602-.129-2.43-.196-3.292-.642.044-1.2-.048-2.083.221-2.836 3.814-10.684 7.777-21.316 11.485-32.036 1.923-5.56-.035-8.505-6-8.724-4.607-.169-9.258.867-13.864.689-6.882-.266-10.658 3.232-13.206 9.1-3.097 7.135-6.643 14.079-9.626 21.258-2.131 5.13-3.655 10.513-5.817 15.857-1.86 1.166-4.318 2.019-4.66 3.396-1.002 4.04-1.162 8.29-1.814 12.793-4.585 9.387-9.02 18.433-13.419 27.496-.65 1.342-1.188 2.746-1.68 4.155-1.81 5.18-.51 7.915 4.939 8.211 7.095.385 14.25.03 21.352-.432 1.341-.087 3.02-1.926 3.736-3.36 1.999-3.998 3.704-8.16 5.286-12.347 2.398-6.344 4.593-12.765 7.057-19.417 3.318-1.987 6.453-3.711 9.589-5.435-.263 2.578.036 5.38-.885 7.695-3.841 9.654-7.74 19.31-12.231 28.671-3.017 6.29-7.082 12.073-10.636 18.11-1.223 2.076-2.32 4.229-3.906 6.149-.404-1.878-.83-3.734-.26-5.203 1.764-4.545.93-6.268-3.982-6.012-8.686.453-17.376 1.097-26.009 2.124-1.672.2-4.035 2.262-4.473 3.896-2.345 8.756-4.667 17.572-6.074 26.513-1.837 11.679-2.746 23.502-4.206 35.245-.317 2.545-1.63 4.975-1.88 7.517-.904 9.156-1.545 18.338-2.304 27.508-.081.978-.256 1.953-.442 2.919-1.1 5.729-2.552 11.415-3.244 17.192-.992 8.282-1.433 16.632-2.113 24.952-.026.33-.078.658-.143.983-1.317 6.666-3.062 13.282-3.855 20.01-1.108 9.407-1.391 18.909-2.256 28.349-.416 4.536-.97 9.126-2.134 13.514-2.739 10.325-4.5 20.3 5.057 28.362.112.094.13.302.191.456-7.424-.274-14.905-.092-22.252-.993-4.476-.55-6.772-5.07-5.548-9.322 5.384-18.702 7.855-37.8 8.846-57.21.848-16.608 2.258-33.206 4.069-49.74.591-5.397 2.693-10.82 5.026-15.798 5.974-12.747 7.712-26.261 8.895-40.06 1.206-14.062 3.324-28.045 4.785-42.09.683-6.569.492-13.23 1.196-19.797.588-5.49 1.273-11.111 3.009-16.31 5.886-17.63 11.964-35.208 18.549-52.586 4.24-11.193 9.538-21.984 14.286-32.99 2.513-5.826 1.357-9.103-4.158-12.783-.957-.64-1.756-1.516-2.861-2.528z" fill="#6292B0"/><path d="M307.45 873.76c-.438-.064-.455-.271-.567-.366-9.558-8.062-7.796-18.037-5.057-28.362 1.164-4.388 1.718-8.978 2.134-13.514.865-9.44 1.148-18.942 2.256-28.349.793-6.728 2.538-13.344 3.855-20.01.065-.324.117-.654.144-.983.68-8.32 1.12-16.67 2.112-24.952.692-5.777 2.145-11.463 3.244-17.192.186-.966.361-1.94.442-2.919.76-9.17 1.4-18.352 2.304-27.508.251-2.542 1.563-4.972 1.88-7.517 1.46-11.742 2.37-23.565 4.206-35.245 1.407-8.94 3.729-17.757 6.074-26.513.438-1.633 2.8-3.697 4.473-3.895 8.633-1.028 17.322-1.672 26.01-2.125 4.91-.256 5.746 1.467 3.982 6.012-.57 1.47-.144 3.325-.057 5.373-2.884 12.19-6.077 23.968-8.828 35.848a462.716 462.716 0 0 0-5.735 28.92c-.907 5.483-1.148 11.109-1.28 16.68-.378 15.866-1.69 31.579-4.876 47.19-1.817 8.9-2.097 18.108-3.2 27.16-.506 4.167-1.416 8.284-1.983 12.446-1.379 10.138-2.425 20.329-4.076 30.42-.994 6.07-.153 12.845-5.417 17.655-6.243 5.703-12.728 10.956-22.04 11.746m16.11-42.558c-5.97 7.265-11.09-.442-16.686-1.54-1.808 6.688 4.643 6.176 6.959 8.904 1.006 1.186 4.682 1.81 5.735.954 4.198-3.412 7.888-7.462 11.63-11.404.46-.485.106-1.743.129-2.643-1.011.105-2.352-.16-2.969.388-1.592 1.415-2.865 3.19-4.799 5.341z" fill="#152127"/><path d="M598.7 177.1c-10.15 5.955-20.57 12.01-31.227 17.616-3.685 1.939-5.784 4.224-5.563 8.808-9.285.338-15.782 4.688-19.92 13.22-3.709 2.644-7.376 4.93-11.365 7.294-3.693-4.718-9.237-4.027-12.217 1.297-1.154-7.272-1.89-14.332-2.917-21.35-.139-.946-1.737-1.68-2.664-2.913 1.116-6.209 2.238-12.016 3.358-17.823.91-4.723 1.816-9.446 3.077-14.225 6.767-4.189 9.862-11.44 8.394-18.609a77.768 77.768 0 0 1-1.32-9.468c5.912 4.162 11.6 8.051 17.124 12.162 5.312 3.952 11.286 3.24 17.122 2.468 4.687-.62 4.682-5.392 6.306-8.654.206-.413.623-.722.942-1.08 6.018 7.52 11.69 15.356 18.196 22.427 3.335 3.625 8.159 5.88 12.673 8.83z" fill="#B77A55"/><path d="M567.86 145.41c-.343.791-.76 1.1-.966 1.514-1.624 3.262-1.62 8.034-6.306 8.654-5.837.771-11.81 1.484-17.122-2.469-5.524-4.11-11.212-8-17.163-12.498-2.271-3.395-4.36-6.188-6.11-9.18-3.286-5.623-8.258-8.476-13.29-7.34-4.98 1.124-7.452 4.793-8.266 11.795-2.936 3.289-5.513 6.52-8.467 9.796-2.842.444-5.306.844-7.77 1.244 2.24-11.803 7.71-21.73 17.875-28.371 7.31-4.776 15.568-3.534 23.57-1.85 4.806 1.01 9.524 3.624 14.252 3.551 7.427-.114 14.828-1.887 22.582-3.138 1.332 1.222 2.62 2.501 3.255 4.049 1.71 4.178 3.712 8.367 4.506 12.75.64 3.537-.31 7.362-.579 11.493z" fill="#050407"/><path d="M512.84 201.48c.922.832 2.52 1.564 2.659 2.51 1.026 7.019 1.762 14.08 2.65 21.582-3.712 7.157-5.29 8.147-15.52 5.134-17.7-5.213-32.275-14.873-40.156-32.365-1.114-2.473-.544-5.704-.321-9.077 1.828-2.114 3.323-3.663 4.598-5.375 1.84-2.47 3.667-4.78 7.39-3.536.742 1.1 1.362 1.92 2.083 3.05 2.919 3.538 6.528 6.37 8.374 10.08 2.835 5.698 7.12 8.113 12.995 8.404 3.81.189 7.64-.019 11.841-.023a56.964 56.964 0 0 0 3.407-.385z" fill="#408571"/><path d="M492.07 408.35c1.321-3.85 2.55-7.567 4.42-10.927 1.776-3.19 4.68-5.08 9.065-4.37 1.36 7.003 2.616 14 3.21 21.052 1.807 21.45 3.364 42.921 5.003 64.385.379 4.954.491 9.939 1.1 14.863.679 5.486-.683 9.366-6.641 10.52-1.768.341-3.529.725-5.69 1.066-.767-.74-1.411-1.435-1.465-2.173-.738-10.149-1.387-20.304-2.072-30.456-.994-14.74-2.097-29.474-2.947-44.223-.316-5.474-.069-10.982-.045-16.474.012-2.63-.67-4.288-3.938-3.262z" fill="#F46A0D"/><path d="M332.84 487.56c-.04 2.188-.004 4.276-.741 6.04-2.899 6.94-2.155 13.876-.366 21.279-12.626-3.251-25.356-6.91-38.806-10.775 1.074-5.12 1.706-9.37 2.99-13.413.333-1.052 2.67-1.999 4.135-2.075 10.829-.566 21.67-.899 32.788-1.056z" fill="#6393B1"/><path d="M356.16 585.69c.49-4.168.65-8.417 1.651-12.458.342-1.378 2.8-2.23 5.012-3.274 4.2 2.794 7.68 5.539 11.447 8.537 2.376.068 4.793.494 6.495-.416 5.195-2.776 10.113-6.067 15.453-9.258 1.24-.705 2.166-1.31 3.092-1.915.83.067 1.658.135 2.901.285-2.722 5.757-5.859 11.432-9.174 17.406-3.315 2.022-6.45 3.746-10.124 5.88-14.34 7.444-14.72 7.38-25.66-3.777-.346-.354-.727-.674-1.093-1.01z" fill="#ED9735"/><path d="M474.02 180.07c-3.602-.962-5.43 1.348-7.269 3.818-1.275 1.712-2.77 3.261-4.489 5.002-2.64-3.644-4.959-7.408-7.472-11.479 3.707-5.643 7.151-11.411 11.64-16.199 4.715-5.029 10.43-9.12 15.84-13.952 2.597-.732 5.061-1.132 8.036-1.215-2.11 4.899-4.97 9.363-7.29 14.093-3.211 6.54-6.017 13.278-8.996 19.932z" fill="#B77C59"/><path d="M454.78 932.99c-4.024-.104-7.944-.634-11.874-1.053-7.057-.75-14.207-.975-21.158-2.275-6.724-1.257-11.191-6.07-14.357-11.97-1.608-2.995-2.968-6.122-4.649-9.623.96.115 1.76.001 2.334.31 9.38 5.052 18.459 10.787 28.187 15.035 6.827 2.98 14.533 3.95 22.268 5.692.064 1.085-.293 2.297-.75 3.885z" fill="#AFB2CC"/><path d="M743.94 949.98c11.421-6.671 22.841-13.343 34.61-20.081 1.366 1.488 2.383 3.043 3.362 4.954-3.148-2.764-5.131-.56-7.748 2.018-5.321 2.74-9.817 5.64-14.65 7.78-5.004 2.215-9.176 7.144-15.574 5.33zM785.04 937.36c-.639-.033-1.313-.379-2.06-1.014.626.042 1.326.371 2.06 1.014zM789.04 940.38c-.63-.05-1.291-.411-2.023-1.059.617.058 1.304.403 2.023 1.059zM793.03 943.42c-.64-.048-1.31-.414-2.053-1.068.626.058 1.324.404 2.053 1.068zM797.03 946.42c-.65-.037-1.331-.394-2.09-1.044.634.046 1.346.384 2.09 1.044zM801.03 949.42c-.643-.042-1.317-.403-2.069-1.053.628.051 1.333.393 2.069 1.053zM805.05 952.47c-.643-.057-1.321-.436-2.078-1.107.629.067 1.335.426 2.078 1.107z" fill="#C9CAD7"/><path d="M743.57 949.99c6.768 1.812 10.941-3.117 15.944-5.332 4.833-2.14 9.33-5.04 14.347-7.615-4.591 5.664-9.406 11.478-14.556 16.978-7.954 8.494-17.841 8.692-28.271 6.027-2.348-.6-4.728-1.077-6.824-1.55 6.32-2.83 12.656-5.668 19.36-8.508z" fill="#B6B9CF"/><path d="M461.02 409c2.372.209 4.248 1.138 1.82 2.782-2.146 1.452-5.146 1.64-7.769 2.385l-.878-2.27c2.146-.967 4.292-1.933 6.827-2.897z" fill="#9E624E"/><path d="M373.99 578.25c-3.48-2.745-6.96-5.49-10.793-8.357 1.443-5.393 2.966-10.776 5.098-15.906 2.982-7.18 6.529-14.122 9.626-21.257 2.547-5.87 6.323-9.367 13.206-9.101 4.605.178 9.257-.858 13.864-.689 5.965.22 7.923 3.164 6 8.724-3.708 10.72-7.672 21.352-11.485 32.036-.27.753-.178 1.636-.222 2.836-.893.983-1.82 1.588-3.473 2.283-2.11.091-3.492.092-4.722-.291.409-.87.665-1.356.97-2.071-.347-.62-.741-1.01-1.115-1.427.02-.027.033.04-.094-.283-.476-.924-.826-1.527-.934-2.35 1.556-1.584 2.87-2.948 4.183-4.312l-.978-1.364c-1.52.352-3.26.347-4.518 1.124-3.312 2.047-5.85 1.947-8.805-.966-2.636-2.599-4.355-1.344-5.089 3.317-.744 1.37-1.228 2.555-2.013 3.884-4.19 5.095-4.17 5.18 2.35 11.406a47.039 47.039 0 0 1-1.056 2.764m15.18-23.508 8.4-5c-1.358-.913-1.605-1.169-1.902-1.254-.295-.085-.704-.114-.953.027-4.26 2.413-8.488 6-12.746-.093-.243-.348-1.73-.282-2.199.113-.439.369-.57 1.52-.36 2.175 1.021 3.181 5.78 5.398 9.76 4.032z" fill="#172127"/><path d="M356 586.03c.528.001.909.322 1.256.676 10.939 11.156 11.32 11.22 25.477 4.04a325.842 325.842 0 0 1-6.518 19.008c-1.582 4.187-3.288 8.348-5.286 12.347-.717 1.433-2.395 3.272-3.737 3.36-7.102.46-14.258.817-21.352.431-5.448-.295-6.75-3.031-4.939-8.21.493-1.41 1.03-2.814 1.68-4.155 4.4-9.064 8.834-18.11 13.42-27.496m-11.156 32.448c-.59 3.723 2.258 4.23 4.642 4.284 5.287.123 10.605-.034 15.87-.507 2.094-.189 4.084-1.515 6.121-2.324l.75-1.8c-.912-.384-1.832-1.118-2.736-1.098-8.025.174-16.048.482-24.648 1.445m29.066-14.093c-5.845-.379-11.69-.867-17.54-.956-.545-.008-1.128 2.515-1.942 4.453 5.98 0 11.063.16 16.121-.122 1.144-.063 2.203-1.66 3.36-3.375z" fill="#1E2629"/><path d="M323.83 830.94c1.667-1.89 2.94-3.666 4.532-5.082.617-.548 1.958-.282 2.969-.388-.023.9.331 2.159-.129 2.643-3.743 3.943-7.432 7.993-11.63 11.404-1.053.856-4.729.233-5.735-.953-2.316-2.729-8.767-2.216-6.96-8.904 5.598 1.098 10.718 8.804 16.954 1.28z" fill="#BD9D5F"/><path d="M499 135.83c.455-6.945 2.926-10.613 7.906-11.737 5.033-1.136 10.005 1.717 13.29 7.34 1.75 2.992 3.84 5.785 5.815 9.004.571 3.553 1.002 6.79 1.655 9.98 1.467 7.169-1.628 14.42-8.702 18.607-1.067.057-1.476.062-2.165-.141-3.128-6.805-5.649-13.57-8.963-19.923-1.604-3.076-4.696-5.376-7.036-8.384-.548-1.82-1.174-3.283-1.8-4.746m21.074 21.973c3.218-2.353 1.955-5.142.856-7.988-.753-1.948-1.268-3.987-1.936-5.97-1.03-3.059-1.46-6.618-3.363-8.985-1.399-1.74-4.966-2.948-7.168-2.487-2.219.465-3.945 3.283-6.658 5.78 3.935.651 6.604.316 8.074 1.487 3.828 3.048 5.569 7.49 4.532 12.356-.942 4.421.136 6.477 5.663 5.807z" fill="#9E624E"/><path d="M517.07 169.09c.409-.005.818-.01 1.533-.012-.602 4.727-1.508 9.45-2.418 14.173-1.12 5.808-2.241 11.614-3.358 17.823-1.003.54-2.011.676-3.423.392.315-3.627.948-6.854 1.766-10.034 1.92-7.46 3.928-14.896 5.9-22.342z" fill="#D3CBC3"/><path d="M498.64 135.89c.986 1.406 1.612 2.869 1.83 4.737-1.736 1.597-3.556 2.536-4.316 4.018-6.113 11.929-12.013 23.967-18.029 35.946-.468.933-1.325 1.672-2 2.502-.622-.82-1.242-1.638-1.984-2.74 2.858-6.935 5.663-13.674 8.874-20.214 2.322-4.729 5.181-9.193 7.668-14.137 2.444-3.592 5.021-6.823 7.957-10.112z" fill="#D7D2CF"/><path d="M476.22 183.4c.577-1.14 1.433-1.88 1.902-2.813 6.016-11.98 11.916-24.017 18.029-35.946.76-1.483 2.58-2.422 4.237-3.661 2.747 2.602 5.84 4.902 7.444 7.978 3.314 6.352 5.835 13.118 8.963 19.923-1.692 7.654-3.7 15.09-5.62 22.55-.818 3.18-1.451 6.407-2.147 10.008-3.8.425-7.629.632-11.438.444-5.876-.291-10.16-2.706-12.995-8.404-1.846-3.71-5.456-6.543-8.375-10.08z" fill="#B77B56"/><path d="M390.93 568.91c1.382 0 2.764 0 4.56.01-4.611 3.1-9.53 6.39-14.725 9.166-1.702.91-4.119.485-6.495.417.046-1.066.378-1.88 1.124-3.05 7.069 1.53 11.136-2.915 15.536-6.543z" fill="#694B2A"/><path d="M391.09 568.52c-4.553 4.011-8.62 8.455-15.63 6.6-6.933-5.868-6.954-5.953-2.457-10.89 6.03 8.084 11.997 4.56 17.975.831 0 0-.013-.066.101.264.387.67.66 1.012.933 1.353-.256.486-.513.972-.921 1.842z" fill="#C5BDB5"/><path d="M374.97 560.01c.473-4.478 2.192-5.733 4.828-3.134 2.955 2.913 5.494 3.013 8.805.966 1.257-.777 2.998-.772 4.518-1.124l.978 1.364c-1.314 1.364-2.627 2.728-4.54 4.399-8.13 3.804-8.13 3.804-14.589-2.471z" fill="#C5BDB5"/><path d="M388.82 554.9c-3.637 1.207-8.396-1.01-9.416-4.191-.21-.655-.08-1.806.36-2.175.468-.395 1.955-.461 2.198-.113 4.259 6.094 8.486 2.506 12.746.094.25-.141.658-.113.953-.028.297.085.544.34 1.901 1.254a858.821 858.821 0 0 1-8.742 5.16z" fill="#B2AEA9"/><path d="M374.71 560.19c6.72 6.092 6.72 6.092 14.608 2.508.707.516 1.056 1.119 1.533 2.043-5.852 4.05-11.82 7.574-17.548-.653.178-1.343.662-2.529 1.406-3.898zM392.06 566.45c-.321-.112-.594-.453-1.001-1.097.26.088.655.478 1.001 1.097z" fill="#393F41"/><path d="M345.13 618.13c8.312-.616 16.334-.923 24.36-1.098.903-.02 1.823.714 2.736 1.099l-.75 1.8c-2.037.808-4.028 2.135-6.12 2.323a141.22 141.22 0 0 1-15.872.508c-2.383-.055-5.23-.562-4.354-4.632zM373.88 604.8c-1.128 1.303-2.187 2.9-3.33 2.963-5.06.282-10.143.122-16.122.122.814-1.938 1.397-4.46 1.942-4.453 5.85.089 11.694.577 17.51 1.368z" fill="#D3CBC3"/><path d="M519.66 157.88c-5.116.592-6.194-1.463-5.252-5.885 1.036-4.866-.705-9.308-4.532-12.356-1.47-1.17-4.14-.836-8.074-1.487 2.713-2.496 4.44-5.314 6.658-5.78 2.201-.461 5.769.748 7.167 2.487 1.904 2.367 2.334 5.926 3.364 8.985.667 1.983 1.183 4.022 1.935 5.97 1.1 2.847 2.363 5.636-1.266 8.066z" fill="#885141"/></svg>