<svg xmlns="http://www.w3.org/2000/svg" width="282" height="15" xml:space="preserve"><path fill="#F7941E" d="M152.727 3.921c-.223-.42.292-.271.459-.439.12-.121.484-.263.729.067.073.099.479.05.729.029.343-.031.648-.151 1.033-.106.325.037.696-.167.878.229.279.006.56.025.84.015.146-.006.297-.053.438-.1.241-.081.391-.059.442.184.011.053.157.084.241.126.037-.055.082-.109.107-.167.019-.042.01-.092.013-.138.348.108.379-.149.501-.301.042.028.114.048.123.081.045.175.169.147.335.126a.719.719 0 0 1 .404.07c.234.133.285.454.664.449.103-.333.593-.174.778-.426.117-.161.316-.125.543-.103.668.063 1.341.125 2.019.063.08-.008.17.003.247.027.161.05.329.244.457-.035.154.12.322.079.502.038.223-.05 1.061.062 1.192 0 .192-.09.395.228.514-.048.146.047.407.157.429.132.345-.409.863.04 1.255-.199.158-.095.355.047.409.236.019.065.08.122.122.182.019-.077.035-.154.057-.232.009-.023.034-.042.045-.065.076-.162.172-.248.371-.098.124.095.322.059.457-.028.193-.125.388-.342.6.019.078.132.328.191.563.1.162-.063.345-.09.522-.125.337-.067.331-.059.726.26.06.047.215.232.329.026.195-.353.47-.426.847-.204.242.144.286-.343.557-.114.13.11.284.217.451.273.063.022.199-.105.303-.164.221.414.682.155.791.05.229-.224.463-.055.672-.127.277-.096.521.174.849.032.222-.096.509.028.765.112.165.054.394-.035.593-.036.179 0 .383-.24.548.059l-.011-.033c-.04.024-.09.043-.118.075-.01.008.038.052.058.08.027-.03.055-.061.071-.123.164-.104.399.225.519-.068.112-.273.333-.251.58-.223.387.047.771.1 1.156.148.056.007.135.028.164.006.505-.362 1.129-.051 1.676-.219.226-.07.502-.028.757-.032.246-.005.429.41.76.038.097-.107.467-.037.706-.074.187-.03.361-.092.389.144.161-.021.329-.026.484-.067.121-.031.241-.166.333-.149.276.048.599.268.795.201.28-.097.611-.195.82-.136.322.091.599-.108.848-.019.236.085.406.005.599-.035.257-.054.503-.119.765-.02.355.134.688-.005 1.022-.085.314-.074.297.018.158.191.1-.002.276.016.287-.01.127-.327.442-.341.711-.232.288.118.331-.088.487-.143.106-.036.295.09.447.142.003.001.025-.043.044-.063.14-.148.263-.19.379.021.032.058.136.084.19.137.055.053.087.12.128.18.058-.033.108-.084.17-.095.063-.012.183.042.201.02.247-.278.593-.146.901-.192.267-.04.562.048.842-.149.171-.12.568-.103.821-.038.302.077.496.09.682-.146.034-.044.221-.052.3-.019.165.07.292.198.456.269.16.068.134-.324.384-.133.46-.192.884.139 1.343.052.141-.026.427.189.301-.166-.004-.006.072-.048.111-.048.616-.002 1.235 0 1.853.001-.016.221.666-.16.375.297.085.003.207.038.245.006.101-.088.146-.219.251-.303.063-.053.227-.094.287-.063.244.124.478.181.753.074.187-.073.27.006.308.155.005.024.135.055.146.044.346-.354.781.046 1.146-.107.16.094.316.195.481.281.147.079.289.048.324-.096.01-.045-.144-.173-.193-.163-.292.06-.252-.131-.31-.249.31-.142.496.084.736.152.121.034.343.062.381.017.193-.235.327-.283.482.013.008.017.195-.022.292-.049.063-.018.145-.1.165-.087.236.128.474.19.751.079.183-.073.239.113.313.13.278.066.627.254.87.013.237-.234.344-.232.479.031.009.018.048.03.077.036.087.018.179.032.267.049-.075.033-.15.065-.224.101-.073.035-.145.074-.217.11.069.016.145.052.206.042.146-.024.304-.049.425-.115.13-.071-.1-.335.196-.326.162.006.324.106.478.177.235.112.218-.32.473-.149.177.118.293.119.476-.044.122-.109.396-.148.597-.139.128.005.239.16.37.239.165.103.313.114.433-.067.086-.129.216-.163.344-.03.104.108.289.223.283.33-.021.388.54.28.638.55.002.006.149-.024.23-.038a3.375 3.375 0 0 0-.104-.14c-.186-.249-.111-.561.199-.612.129-.021.315.082.488.014.163.065.328.128.488.198.065.029.119.074.242.229-.063.026.021-.201-.228-.071-.068.036-.13.141-.12.206.015.1.01.277.225.22.083-.023.124-.154.123-.355.007-.092.098-.082.146-.04.149.129-.051.511.432.405.021-.004.051.023.078.036-.324.423.357.599.332.949-.393.068-.48.329-.56.598l-.213.049c-.014.002.012-.003.039-.009-.03-.034-.052-.073-.091-.098-.011-.006-.063.032-.098.049a.375.375 0 0 0 .149.057.196.196 0 0 1-.05.165c-.049.051-.125.083-.192.125.056.013.11.043.159.037.116-.016.229-.044.342-.077.546-.161-.196-.181-.046-.298.118-.029.233-.056.351-.083.128.205.263.131.37-.009.059-.078.239-.177-.017-.266-.077-.027-.099-.157-.145-.24.166-.319.146-.315.024-.542-.155-.292-.15-.638-.432-.892-.03-.029.036-.129.058-.196.048-.17.432.347.346-.122-.027-.15.114-.157.164-.028.089.236.261.111.415.09.057.123.039.347.304.226.104-.046.397-.17.086-.36-.193-.117-.134-.241.107-.294.099-.022.128-.366.303-.04.026.046.193.068.284.054.2-.032.368-.056.588.003.176.047.32-.05.187.198-.058.107.036.286.104.416.086.167.248.038.621.061a.855.855 0 0 0 .575-.266c.009-.008-.059-.088-.063-.086-.15.062-.298.127-.446.195-.073.032-.149.065-.218.106-.032.02-.047.059-.063.091-.002.004.05.036.075.034.087-.004.172-.018.14-.074-.276-.24-.604-.378-.44-.633.024-.04.029-.09.043-.134.051.05.099.102.152.149.036.033.084.06.124.089.262-.556.48.12.789.026.182-.056.423.137.395-.223-.013-.133.193-.138.349-.071.246.106.259.176-.03.236-.019.003-.019.07-.026.107.193.024.386.055.58.062.031.001.102-.104.101-.161.001-.1-.031-.215.151-.12.112.06.175.188.29.243.227.108.551.375.543-.154-.001-.02.197-.076.285-.058.338.068.665.127 1.011.016.161-.052.132-.014.318.208.071.084-.089.512.368.258.085-.047.225-.036.337-.03.107.005.02.291.233.126.043-.034-.05-.227-.131-.318-.063-.073-.211-.092-.302-.154-.061-.042-.128-.122-.118-.175.012-.05.115-.107.19-.124.563-.129 1.113-.281 1.721-.266.401.01.061.195.137.234.108.054.255.056.371.103.021.008 0 .137-.043.188-.043.052-.136.078-.207.115.069.015.139.04.21.043.112.005.227 0 .338-.008.063-.004.124-.023.188-.035l-.072-.216c.043-.027.087-.054.129-.083l-.178-.063c-.006-.023-.028-.064-.021-.068.091-.052.181-.115.283-.144.166-.046.43-.143.496-.088.281.231.631-.238.985.172.038.031-.027-.056-.123-.087-.063-.022-.167.032-.254.052.018.05.024.103.053.148a.525.525 0 0 0 .146.162c.035.024.136.026.164.002.061-.051.093-.125.015-.277.136-.103.392-.123.644-.11.08.005.163.091.225.153.052.053.058.145.117.184.081.053.195.072.296.105-.002-.07-.014-.141-.003-.209.014-.083.043-.165.067-.249l.261.108c.056.021.158.062.159.061.192-.315.498-.128.767-.142.29-.015.577-.091.865-.137.064-.011.171.011.19-.016.193-.271.446-.157.696-.094.323.082.65.155.973.244.029.008.054.103.034.141a.994.994 0 0 0-.005.783c.019.041.066.073.101.109.034-.03.1-.06.1-.09-.005-.333.708-.208.576-.616.25-.15.535-.271.739-.457.182-.164.298-.015.338.031.149.173.287.36.14.6-.031.052.064.155.101.235.076-.029.157-.05.226-.09.066-.04.109-.124.181-.142.057-.015.178.024.202.067.028.049 0 .137-.038.192-.02.03-.108.033-.167.043-.245.044-.327.202-.119.288.362.147.057.336.104.494l-.296.069.12-.028-.312-.207c-.031.043-.098.105-.084.127.042.062.12.108.275.107.137.021.152.068.167.117-.171.021-.342.045-.515.065-.065.007-.131.005-.197.008.031.063.071.183.091.18.313-.039.404.106.438.324.016.097.05.196.098.286.017.031.108.063.146.05.073-.023.176-.069.191-.122.021-.063-.035-.142.05-.331.03-.062-.052-.007-.132.049.063.01.138.042.186.024.114-.04.215-.105.319-.16-.078-.009-.156-.018-.373.086-.18.097-.307.08-.309.057-.011-.17.003-.344.007-.517l.129-.186c.117-.026.233-.055.351-.082.073.035.149.069.223.103l.098.107c.025-.049.052-.1.108-.226.001-.048-.025-.017-.052.014l.101.047c.016-.036.038-.069.049-.106.001-.005-.044-.021-.098.046-.089.092-.148.105-.206.119l-.223-.103c.136-.211.241-.478.632-.257.254.142.212-.001.184-.131-.037-.181.46-.156.243-.372-.144-.146-.331-.212.047-.283.076-.015.146-.114.186-.187.106-.208.084-.418-.014-.625.307.136.676-.108.908.024.195.113.173.423.411.602.144.106.233.145.343.046.218-.192.403-.404.743-.463.033-.006.026-.127.06-.185.126-.22.128-.216.399-.015.046.036.129.043.197.053.375.055.749-.183 1.129-.018.025.01.14-.063.134-.075-.098-.242.138-.243.297-.265.291-.041.241.258.438.323-.133.15-.11.262.092.362.027.014-.025.229-.106.28-.181.111-.482.133-.589.27-.169.218-.466-.145-.56.134-.13-.06-.261-.119-.361-.257.003-.048-.025-.017-.051.014.032.016.065.03.1.046.017-.035.039-.069.049-.105.002-.007-.044-.021-.098.045-.288.151-.12.292-.109.409l-.261.06c-.016-.051-.034-.101-.045-.151-.042-.211-.069-.425-.129-.634-.023-.081-.11-.207-.178-.211-.183-.011-.185.094-.201.24-.024.245-.197-.033-.296.021-.069.038-.136.081-.203.122.067.064.132.128.204.187.009.008.055-.013.083-.017.132-.018.292-.121.356.073.008.024.03.055.021.071-.083.138-.196.134-.362.083a2.469 2.469 0 0 0-.567-.091c-.047-.002-.149.09-.147.137.003.057.074.144.138.159.073.018.17-.043.256-.044.073 0 .184.02.21.062.03.05.008.185-.022.191-.261.063-.313.144-.033.231.313.098.291.339.385.536.038.081-.309.208.03.237.243.021.329-.104.298-.376.438.001.151.435.463.534.101.032.323.292.381.284a.565.565 0 0 0 .155-.06c-.111-.241-.042-.577-.437-.676-.37-.092.085-.301-.103-.405.056-.021.159-.06.161-.056.181.289.419-.057.623.034.153.068.269.035.302-.141.028-.139.115-.268.17-.403.043-.104.042-.269.121-.3.105-.041.269.022.405.045.07.011.138.031.207.046-.072.038-.168.061-.21.114-.042.051-.061.182-.036.191.086.035.251.076.285.043.096-.089.144-.23.312-.088.337.286.511-.052.721-.149.192-.091-.076-.119-.087-.176-.045-.258.104-.439.387-.505.353-.082.353-.082.313.263-.005.046-.016.092-.019.139-.009.116.006.235-.026.346-.058.201-.242.03-.306.059-.144.064-.033.319.152.432.062.038.095.113.135.174.047.071-.319.22.043.221.136.001.426-.001.322-.238-.123-.283.406-.456.169-.746-.007-.009.027-.042.042-.064.043.031.103.055.122.096.068.133.106.278.184.41.114.198.119.216-.093.2-.108-.007-.28-.187-.233.084.019.098.055.196.098.288.039.087.1.168.152.251.003-.104-.019-.218.02-.314a.501.501 0 0 1 .192-.177c.27.166.517-.007.771-.025.134-.01.282.026.408.07.065.022.097.108.144.167-.089.045-.171.114-.265.128-.073.013-.164-.071-.239-.064-.068.008-.172.076-.178.125-.008.055.086.171.117.167.21-.03.366-.004.362.196-.004.114-.026.283-.112.326-.112.055-.308.037-.445-.001-.185-.052-.146-.176-.069-.302.034-.056.005-.138.004-.208-.075.038-.146.09-.228.112-.21.053-.307.146-.194.321.215.34-.318.63-.104.97-.044 0-.088-.003-.131.004-.347.049-.693.11-1.039.147-.087.01-.183-.055-.244-.162.001-.049-.025-.018-.052.013l.099.046c.019-.036.041-.068.052-.104 0-.007-.045-.022-.099.045a.933.933 0 0 1-.381.159c-.167.036-.143-.005-.146-.134-.004-.185-.1-.198-.488-.224-.14-.009-.365-.01-.397-.072-.246-.46-.757-.222-1.139-.295-.157-.03-.357.085-.385-.153l-.174.046c.108.138-.198.363.148.465.122.035.212.149.312.232.05.04.092.087.138.132-.079.029-.173.098-.235.082-.48-.123-1.066.062-1.46-.325-.033-.033-.1-.045-.153-.067-.013.044-.039.089-.042.135-.007.109-.003.218-.005.326-.095-.085-.19-.169-.283-.254-.037-.036-.069-.073-.073-.187.002-.048-.025-.017-.051.013l.099.046c.018-.035.039-.069.05-.105.002-.007-.044-.021-.098.046-.367.683-.766.613-1.181.324-.171-.12-.301-.23-.54-.245-.092-.006-.32-.046-.142-.231.163-.169.299-.356.54-.513.059.001.021-.019-.015-.04l-.057.082c.042.013.083.031.127.041.007.001.025-.037-.056-.082-.559-.176-.559-.176-.861-.634-.08-.12-.412-.114-.507.014-.013.016.046.09.054.088.407-.102.241.104.187.241a.67.67 0 0 1-.152.233c-.013.004.014-.002.039-.009-.027-.034-.051-.074-.089-.096-.011-.008-.063.03-.099.049.037.021.074.044.148.056.173.104.266.23.27.398-.001.016.177.027.271.041-.072.037-.14.08-.217.106-.082.029-.17.049-.258.062-.311.046-.142-.084-.109-.187.018-.057-.04-.127-.063-.19-.055.035-.104.077-.166.102-.127.052-.31.068-.381.151-.144.165-.172.219-.308-.012-.054-.091-.386-.157-.531-.108-.488.162-.46-.139-.228-.542.263-.202.192-.245.173-.232-.176.109-.34.23-.51.348l.109.052c.076.031.215.097.22.092.115-.144.215-.295.007-.259-.507.199-.479.564-.788.393.169-.123-.1-.389.233-.465.106-.024.196-.089.293-.135-.289-.029-.05-.259-.181-.337-.232-.139-.288-.251.044-.338.114-.031.233-.049.343-.087.015-.005.013-.114-.019-.136-.356-.248-.093-.289.157-.366.063-.019.081-.141.12-.214-.101-.015-.254-.069-.29-.036-.115.105-.166.28-.401.172-.143-.065-.213-.05-.175.096.032.121.082.237.11.358.001.009-.115.063-.157.051-.447-.119-.354.097-.286.302.017.047.032.095.047.143-.239.057-.11.191-.087.299.033.157.189.344-.166.39-.093.338-.392.374-.692.267-.342-.122-.434-.051-.39.23.004.02-.022.048-.043.064-.108.086-.373-.029-.376.198.144-.018.289-.024.43-.052.414-.082.845-.312 1.156.162.044.067.302.064.453.047.117-.013.224-.101.335-.155.053.111.115.221.156.334.071.202.19.231.367.078.039-.035.048-.108.095-.125.108-.04.281-.112.339-.075.51.324 1.126-.243 1.613.13.053.039.056.123.082.188-.068-.002-.137-.007-.203-.004-.592.017-1.193-.004-1.776.073-.292.038-.566.029-.851.026-.256 0-.562-.056-.75.039-.244.126-.509-.129-.695.09-.018.019-.038.059-.045.057-1.193-.279-2.419.177-3.614-.08-.051-.012-.118.016-.172.036-.53.195-1.063.152-1.617.089-.127-.014-.395-.162-.59.073-.075.089-.418.013-.635.036-.681.074-1.378-.015-2.048.164-.773-.237-1.566.206-2.36-.036-.295-.091-.656.212-1.014.048-.059-.028-.135-.036-.203-.052.072-.035.149-.066.216-.109.108-.075.214-.152.312-.235.024-.02.009-.072.011-.111-.217-.006-.441-.044-.646-.005-.074.014-.177.231-.139.313.174.367-.105.222-.308.227-.153.005-.379-.172-.466.09-.155-.124-.327-.071-.502-.03-.047.009-.106-.022-.162-.034.035-.036.064-.095.106-.102.444-.08-.233-.288.071-.379-.092-.192-.234-.015-.35-.024-.056-.004-.116.025-.249.072-.024-.02.014-.06.054-.101-.051-.016-.106-.054-.146-.046-.072.021-.132.069-.196.106.063.021.126.042.288.041.187.066-.195.236.142.303-.061.053-.12.148-.179.15-.314.009-.624.022-.94.052-.727.07-1.466.048-2.199.066-.059.001-.141.053-.172.034-.487-.297-.962-.068-1.441.026-.297.059-.577.105-.542.438.001.014-.164.04-.252.062.126-.28-.577.117-.332-.28.072-.115.023-.25-.2-.218-.428.066-.829.289-1.291.148-.046-.014-.141.008-.169.04-.39.438-.948.296-1.416.229-.286-.041-.309.15-.479.17-.167.021-.273-.338-.483-.049-.063-.042-.124-.087-.19-.127-.233-.14-.371-.367-.793-.245-.315.092-.72-.055-1.076-.022-.244.023-.312-.021-.369-.193-.021-.063-.149-.1-.227-.148a1.048 1.048 0 0 1-.067-.367c.003-.048-.023-.016-.051.014l.1.046c.018-.035.039-.069.05-.105.001-.006-.043-.021-.099.045a3.788 3.788 0 0 1-.265.397l.332-.03c.007.109.176.27-.047.312-.469.096-.948.396-1.435.041-.478.138-.975-.038-1.431.037-.574.095-1.181-.002-1.728.225-.081.032-.19.078-.259.057-.805-.254-1.63.097-2.438-.044-.244-.042-.502-.032-.753-.04-.393-.013-.787-.106-1.184.018-.139.044-.329.121-.426.076-.32-.146-.617-.016-.845.093-.161.076-.523.164-.4.468.007.018-.128.105-.199.107-.138.005-.275-.042-.414-.045-.143 0-.326.082-.419.032-.22-.115-.286.12-.296.111-.324-.329-.613-.228-.896.044-.428-.096-.556.176-.722.404-.149.206-.282.255-.416-.016-.039-.077-.195-.113-.236-.192-.092-.17-.257-.155-.332-.05-.21.288-.581.234-.879.309-.117.03-.317-.194-.449-.174-.395.066-.704-.402-1.121-.093-.013.011-.104-.038-.15-.068-.357-.24-.649-.216-.88.139-.021.034-.11.081-.136.071-.478-.198-.646.12-.891.347-.27.249-.353.485-.195.788.013.021.107.013.256.042.058.001.021-.02-.018-.042l-.056.083c.042.013.082.03.127.039.007.002.026-.036-.054-.08a.369.369 0 0 1 .071-.354c.03-.037.154-.024.237-.034-.002.037.008.082-.011.111-.094.132-.061.227.101.299.316.145.629.295.947.437a.535.535 0 0 0 .243.054c.234-.023.455-.191.672.102.085.117.479.06.714.122.197.053.383.151.552.252.274.167-.025.141-.104.191-.081.053-.224.123-.217.17.02.143.103.278.159.416.04-.014.109-.022.115-.043.079-.28.326-.249.576-.23.03.001.061-.083.107-.108.211-.115.399-.295.612.04.084.131.422.23.618.201.145-.02.415-.066.449-.1.225-.217.519-.071.754-.155.021.155.107.271.29.328-.146.126-.099.262-.052.407.047.151-.063.176-.173.087-.298-.245-.778.065-1.05-.239-.034.041-.103.083-.101.121.023.328-.323.223-.505.28-.218.066-.169-.138-.241-.225-.063-.074-.172-.122-.236-.193-.09-.099-.16-.211-.237-.317-.102.077-.253.142-.294.236-.043.101.021.23.041.347.004.024.015.048.022.071-.6.247-.86.257-1.438 0-.299-.132-.259-.018-.228.157.004.023-.172.094-.271.101-.133.013-.288-.049-.407-.015-.512.148-.95.177-1.294-.265-.07-.089-.363-.063-.591-.08-.014.002.013-.003.038-.009-.029-.034-.052-.074-.09-.098-.011-.007-.063.032-.098.048a.352.352 0 0 0 .149.059.46.46 0 0 1 .108.207c-.063.012-.124.033-.187.034-.336.008-.77-.101-.994.033-.699.414-1.496.077-2.217.31-.254.081-.646-.112-.962-.206-.195-.059-.323-.171-.524.047-.11.116-.432.176-.629.144-.467-.077-.974.104-1.414-.146-.027-.018-.132.022-.173.057-.478.419-.533.448-1.092.193-.243-.11-.439-.085-.676-.038-.079.016-.181-.053-.242-.161.002-.049-.023-.018-.05.013l.099.047c.018-.035.039-.07.05-.106.001-.006-.044-.02-.099.047-.544.314-1.126.207-1.673.289-.226.035-.505-.066-.725-.161-.193-.082-.232-.016-.319.095-.026.035-.218.043-.229.021-.195-.347-.334-.204-.546.008-.094.092-.338.119-.511.111-.248-.009-.491-.096-.741-.113-.251-.018-.508.009-.763.017s-.575-.062-.748.041c-.246.146-.519-.162-.693.096l-.971-.204c-.063-.144-.12-.12-.213-.007-.257.313-.596.333-1.023.252-.277-.054-.628-.16-.896.099-.023.021-.202-.012-.216-.044-.072-.195-.089-.419-.462-.263-.142.06-.387-.154-.467.113-.246-.047-.501-.074-.735-.145-.243-.07-.249.367-.572.152-.123-.081-.379-.024-.575-.04-.25-.021.197-.285-.124-.272-.148.006-.291.082-.438.095-.324.023-.598.435-.984.089-.046-.043-.281.047-.422.088-.181.056-.348.073-.501-.044-.154-.12-.327-.091-.502-.035-.264.085-.505.097-.759-.048-.093-.052-.275.003-.418.012-.313.021-.627.062-.938.055-.135-.003-.261-.142-.398-.151-.268-.02-.017.176-.117.239-.02.013-.036.026-.054.039-.32-.343-.776-.04-1.165-.149-.235-.066-.557-.124-.843.008a.484.484 0 0 1-.498-.04c-.115-.081-.249-.141-.317.047-.089-.066-.175-.135-.266-.196-.018-.012-.061-.012-.082-.002-.195.095-.394.187-.581.292-.171.097-.453-.177-.566.125-.008.019-.218.025-.235-.003-.207-.353-.657-.2-.883-.161-.326.055-.776-.198-1.003.197-.39-.116-.745.028-1.115.101-.072.014-.189-.007-.24-.05-.539-.445-1.271.111-1.825-.23-.033.037-.056.084-.1.107-.25.146-.506.256-.806.085-.225-.125-.444-.132-.619.069-.143.163-.309.188-.538.13-.617-.154-1.476-.125-2.017-.087-.699.05-1.425.24-2.106.025-.337-.106-.488.235-.817.108-.233-.09-.553-.025-.832-.04-.306-.02-.635-.125-.911-.062-.402.095-.73-.066-1.095-.075-.235-.37-.704-.068-1.019-.223-.008-.005-.137.098-.132.145.031.347-.293.304-.465.23-.292-.128-.548-.157-.846-.047-.181.068-.358.09-.384-.142-.221.037-.443.068-.662.114-.061.014-.124.116-.16.108-.274-.067-.536-.199-.813-.216-.247-.015-.502.159-.76-.016-.155-.104-.298-.119-.442.055-.108.13-.272.242-.439.322-.104.049-.301.153-.379-.024-.074-.169-.182-.153-.341-.111-.484.122-.95.103-1.432-.043-.19-.059-.455.035-.683.072-.384.062-.805.323-1.07-.159-.017-.031-.262-.027-.321.023-.184.161-.334.22-.561.055-.057-.039-.273-.025-.298.015-.196.308-.485.172-.763.149a17.036 17.036 0 0 0-1.262-.055c-.173-.001-.268.012-.378.095-.056-.109-.109-.22-.17-.327-.037-.063-.074-.13-.134-.174-.028-.02-.118-.003-.166.021-.037.018-.082.077-.07.103.029.068.086.127.133.19-.084 0-.198.031-.249-.002-.269-.176-.535-.126-.842-.064a8.567 8.567 0 0 1-1.463.181c-.269.006-.541-.196-.81-.191-.241.006-.553-.309-.751.066-.007.015-.049.032-.053.028-.248-.187-.482-.122-.712.031-.296-.193-.572.052-.85.033-.361-.023-.714-.114-1.069-.185-.111-.021-.24-.12-.318-.096-.592.19-1.185.144-1.796.119a7.032 7.032 0 0 1-.919-.077c-.244-.038-.563-.093-.744.001-.275.141-.575.092-.824.185-.26.099-.553-.075-.774.12-.021.021-.115.021-.124.006-.215-.319-.577-.315-.878-.175-.201.093-.478-.227-.571.11-.188-.132-.387-.026-.584-.024-.247.001-.493-.121-.738-.117-.263.004-.522.119-.787.141-.159.012-.325-.086-.49-.09-.16-.004-.37.008-.472.087-.246.191-.441.373-.653-.006-.281-.002-.563-.013-.843-.006-.117.004-.232.058-.349.063-.167.005-.261-.187-.178-.342.033-.062.061-.124.092-.186-.101.021-.213.025-.299.066-.17.082-.358.16-.482.28-.223.216-.445.222-.691.068-.171-.109-.247-.045-.308.086-.107-.059-.231-.105-.31-.185-.031-.03.164-.216-.039-.171-.244.055-.499-.063-.754.138-.284.224-.821.073-1.12.406-.047.053-.405-.124-.62-.126-.253-.001-.529.196-.752-.012-.137-.125-.46-.212-.257-.477-.178-.096-.354-.191-.578-.084.079-.081.177-.152.231-.243.034-.053 0-.135-.004-.202-.06.019-.12.035-.18.056-.337.113-.452.189-.541.356a.332.332 0 0 1-.401.165c-.182-.066-.189.004-.155.117.027.096.06.19.092.285-.193.041-.444.143-.39-.167.02-.115.169-.218-.122-.189-.066.006-.216-.102-.21-.151.021-.186.159-.013.222-.035.305-.106.601-.231.895-.359.026-.011.039-.1.016-.128-.043-.047-.128-.115-.179-.105-.293.054-.577.138-.87.189-.08.013-.178-.056-.272-.273-.024-.06-.041-.003-.039.052.002.045.026.09.042.135.047-.047.13-.093.132-.141.004-.056-.063-.113-.136-.046-.055.237-.104.304-.176.333-.302.131-.338.3-.125.505.058.057.275.097.063.172-.2.071-.439.205-.668.037-.103-.075-.176-.218-.287-.234-.084-.014-.2.128-.31.189-.046.026-.125.018-.17.044-.213.132-.075-.425-.382-.123-.176.173-.39.112-.632.063-.177-.036-.4.082-.605.123-.05.009-.108-.013-.164-.02.05-.044.091-.103.152-.126.217-.087.099-.217.05-.311-.03-.058-.169-.117-.248-.106-.182.023-.361.095-.39-.144-.06.013-.142.009-.176.041-.148.139-.409.293-.399.429.025.332-.135.145-.279.118-.059-.01-.173.051-.207.104-.047.072-.039.167-.055.253-.046-.058-.083-.122-.142-.169a.498.498 0 0 0-.219-.115c-.1-.019-.209.004-.315.009l.028.279c-.204.049-.51.19-.596.127-.366-.269-.899-.009-1.235-.301-.292-.256-.455-.017-.691.173-.002-.051.035-.087.026-.11-.024-.062-.067-.118-.102-.177-.036.018-.105.042-.103.051a.456.456 0 0 0 .179.236c.095.145-.063.181-.205.131-.118-.04-.19-.164-.29-.244-.105-.082-.184-.08-.257.047-.029.05-.142.066-.217.101.006-.077 0-.153.021-.225.036-.138.066-.28.134-.405.143-.26-.085-.116-.189-.142-.196-.047-.114-.092.01-.16.069-.038.094-.142.116-.22.005-.018-.104-.086-.123-.076a.956.956 0 0 0-.26.175c-.207.225.066.421.057.634-.003.068-.103.136-.158.204-.061-.039-.157-.069-.178-.119-.112-.279-.214-.537.04-.842.181-.219.495-.539-.012-.788.08-.087.144-.191.246-.248.042-.025.208.143.209-.055 0-.091-.044-.235-.119-.262-.132-.047-.286.059-.433.083-.395.064-.374.114-.362-.156.003-.079-.055-.216-.114-.229a.51.51 0 0 0-.339.069c-.164.124.055.124.112.181.158.157.006.284-.095.39-.098.103-.248.142-.331-.036-.063-.134-.112-.275-.207-.393-.027-.033-.292-.297-.282.063.001.044-.009.104-.043.133-.284.236-.292.267.028.306.385.045.449.267.518.509-.263.131-.438-.057-.653-.109-.12-.029-.293.012-.407.07-.047.023-.001.174.002.267.002.056.002.056-.189-.004-.119-.035-.431.198-.458.337-.018.093.2.257-.042.264-.23.008-.21-.152-.189-.338.027-.244-.231-.124-.39-.099-.673-.427-.657-.406.004-.795.156-.092.229-.197.38-.062.147.132.355.283.028.45-.047.023-.082.063-.123.094.073.014.148.043.219.034.273-.032.398-.178.401-.401.027-.006.079-.012.079-.019.014-.263.023-.523.063-.864.002-.047-.023-.016-.051.015l.1.047c.017-.036.039-.069.049-.104.001-.007-.043-.023-.098.043-.115.1-.223.155-.284.132-.136-.05-.306-.227-.361-.202-.192.089-.32.27-.577.285-.017 0-.054.091-.039.126.17.393-.016.344-.316.184-.157-.084-.176-.017-.162.109.021.207.035.416.016.621-.023.238-.307.296-.489.422-.058-.067-.137-.131-.168-.206-.026-.064.001-.145.005-.217-.171.018-.271.068-.218.237.012.037-.084.1-.13.15l-.239-.722c.071.023.159.035.21.075.156.123.156.131.2.076.064-.086.11-.183.183-.261.182-.192-.08-.227-.158-.23a4.393 4.393 0 0 0-.882.045c-.082.015-.143.166-.211.002-.1-.239-.284-.092-.435-.069-.045.005-.081.062-.12.094.049.018.102.052.146.046.175-.022.324-.039.153.159-.124.142.276.372-.151.491-.093.025-.097.339-.096.519.002.179-.04.435.362.334.117.18.513-.064.559.242.001.009.276.018.285-.008.107-.306.367.065.497-.086.024.044.083.114.066.13-.107.109-.257.194-.337.312-.037.054.29.079.115.242-.04.036-.062.086-.091.129-.053-.036-.121-.065-.155-.11-.068-.092-.023-.301-.244-.232-.316.1-.451.034-.483-.231-.005-.036-.076-.066-.116-.098-.012.064-.01.135-.041.195-.02.038-.086.062-.131.092-.21-.45-.606-.26-.97-.184a.52.52 0 0 1-.17.017c-.02-.004-.045-.066-.036-.096.092-.298-.286-.218-.408-.344a.535.535 0 0 0-.157.098c-.086.103-.15.217-.229.324-.111.15-.161.064-.203-.036-.01-.024-.024-.05-.022-.073.009-.296-.417-.065-.433-.221-.017-.149.113-.311.179-.467-.066-.018-.142-.062-.197-.047-.125.03-.339.004-.291.199.062.249-.191.197-.333.246-.042.015-.107-.02-.161-.031.034-.036.063-.076.105-.104.044-.029.135-.037.144-.067.019-.065-.002-.136-.006-.205-.06.02-.123.036-.179.062-.074.035-.139.088-.216.107-.032.009-.121-.042-.127-.075-.014-.065-.01-.188.023-.197.314-.088.638-.156.958-.234.05-.014.09-.054.135-.083-.061-.04-.116-.104-.184-.117-.102-.021-.231-.036-.318-.001-.378.155-.366.16-.504-.141-.06-.13-.167-.24-.249-.362-.041-.061-.116-.142-.094-.184.074-.139.188-.265-.044-.369-.06.108-.123.216-.177.327-.009.019.027.05.02.071-.317.75-.318.75-.111 1.373l.047.145c-.322-.131-.625-.013-.927.066-.058.015-.091.098-.134.149.082.044.184.138.242.12.249-.069.392-.042.431.193.021.122.083.238.11.359.008.037-.037.115-.066.119-.145.018-.293.018-.44.022.088.186-.012.283-.232.291-.09.002-.246-.036-.264-.084-.077-.208-.151-.408-.383-.726-.023-.062-.041-.004-.038.052.002.045.028.089.042.135.047-.048.13-.093.133-.142.003-.055-.064-.112-.137-.045-.078.168-.195.113-.235.141-.137.089-.234.279-.371.297-.176.023-.372-.102-.566-.125-.108-.015-.298.018-.338.079-.211.326-.63.248-.944.366-.213.08-.505.092-.643.221-.318.3-.652-.059-.952.078-.083-.259-.18-.225-.417-.067-.298.197-.672.422-1.01.016-.205.132-.504-.261-.694.102-.038.071-.315.108-.461.084-.164-.03-.244-.025-.376.077-.178.137-.697.085-.952-.022-.217-.092-.442-.267-.685.015-.054.063-.273.046-.414.037-.459-.029-.926-.096-1.361.082-.296.122-.312-.155-.469-.182-.185-.032-.401.115-.583-.041-.185-.155-.274-.047-.387.081-.042.047-.212.085-.25.059-.289-.211-.446.264-.727.089-.156-.096-.263-.015-.352.107-.094.127-.247.172-.339.02-.18-.298-.448-.26-.751-.173a1.581 1.581 0 0 1-.348.064c-.267.013-.368-.445-.793-.135-.205.15-.591-.107-.883-.13-.443-.032-.909-.061-1.363.055-.471.119-.94.289-1.455.099-.081-.029-.257.16-.387.16-.191-.001-.378-.111-.571-.123-.17-.009-.346.059-.521.085-.203.032-1.453-.037-1.664-.14-.269-.132-.21.188-.396.158a1.406 1.406 0 0 0-.475-.008c-.071.015-.074.157-.243.083-.604-.269-.606-.253-1.271-.09-.149.036-.338-.051-.496-.024-.428.07-.831.196-1.294.157-.301-.025-.626.179-.925-.057-.042-.034-.164-.005-.249.004-.06.006-.132.012-.173.04-.362.266-.748-.301-.962-.046-.304.362-.655.061-.95.177-.267.105-.206-.203-.374-.214a3.302 3.302 0 0 0-.507.01c-.101.009-.248.023-.288.078-.129.175-.254.147-.444.074-.355-.14-.727-.33-1.096.004-.026.022-.095.046-.117.034-.359-.183-.742-.226-1.161-.176-.09.011-.245-.074-.295-.147-.249-.374-.41-.271-.625.035-.054.077-.336.118-.462.074-.25-.084-.527.149-.757-.085-.225-.227-.303.277-.547.106-.246-.171-.218.206-.386.14-.113-.044-.196-.138-.293-.21-.16.24-.393.215-.638.119-.088-.033-.164-.09-.25-.126-.049-.021-.12-.041-.167-.028-.398.109-.494.105-.992-.052a.521.521 0 0 0-.244-.024c-.264.051-.542.193-.785.161-.255-.036-.451.105-.717.051-.229-.048-.526.086-.78.167-.192.06-.337.028-.504-.051-.223-.107-.567-.118-.864-.036-.141.039-.258.146-.398.17-.128.022-.311-.082-.405-.038-.291.138-.69-.183-.908.171-.174-.215-.62.196-.728-.206-.004-.015-.213.013-.327.015-.14.002-.322.042-.414-.014-.228-.141-.44-.113-.676-.044-.285.085-.57.165-.846-.028-.021-.015-.14.084-.222.106-.136.035-.29.088-.418.065-.273-.049-.533-.141-.799-.216-.162.396-.499.041-.74.117-.063.021-.161-.059-.24-.056-.259.013-.494.201-.773.079-.212-.091-.473.161-.667-.058-.556.286-1.128-.11-1.706.043-.2.055-.438-.179-.727.03-.121.088-.474-.06-.722-.07-.167-.009-.314.357-.447.128-.193-.327-.396-.076-.589-.086-.195-.011-.398-.04-.586-.011-.198.031-.446-.247-.615.077-.02.037-.339-.031-.52-.049-.222-.023-.446-.069-.665-.054-.112.006-.206.152-.327.183-.089.022-.226-.08-.312-.055-.193.057-.385.063-.495-.063-.203-.228-.29.153-.467.041-.143-.089-.321-.223-.468-.208-.339.034-.669.143-1.001.225-.062.015-.118.047-.177.071-.258-.527-.833-.37-1.28-.333a3.798 3.798 0 0 1-1.25-.123c-.407-.101-.875-.053-1.222-.308-.381.498-.866-.022-1.325.098-.493.129-1.042-.089-1.576-.104-.447-.013-.901-.127-1.332-.077-.292.033-.404-.021-.563-.178-.114-.115-.229-.131-.393.045-.121.128-.493.216-.665.155-.192-.067-.595.085-.601-.285-.001-.091-.125-.181-.193-.27-.014.092.005.245-.049.266-.314.121-.633.296-.995.083-.205-.12-.409-.233-.635.015-.047.052-.273.016-.404-.016-.295-.067-.8-.124-1.115-.082-.239.032-.509.212-.646-.117-.006-.015-.064-.033-.076-.025-.549.338-.928-.164-1.407-.205-.292-.027-.723-.244-.485-.666-.368-.135-.215-.313-.096-.526.063-.114.021-.281-.017-.416-.124-.446-.332-.875-.261-1.354.052-.345-.101-.752.071-1.032.259-.423.079-.757-.014-1.132-.018-.072.026-.216.08-.231.318-.091.536-.156.128-.409-.082-.059-.087-.266-.06-.394.06-.275.199-.54.25-.815.063-.343.368-.635.198-1.042-.078-.191.164-.491.303-.724.059-.097.414.046.334-.258-.015-.059.368-.152.445-.279.128-.212.324-.265.556-.333.152-.043.276-.156.408-.244.076-.049.065-.043-.138-.126-.081-.034-.125-.129-.185-.197l.196-.014c.113-.007.229-.007.341-.024.157-.024.154-.006.146.135-.02.342.038.351.496.186.048-.017.112-.005.168-.005-.013.058-.005.131-.045.17-.071.07-.174.117-.26.177-.068.048-.189.109-.183.152.013.09.42.151.458.07.12-.258.361-.243.628-.299.344-.073.568.033.833.142.119.048.289.079.41.048.935-.237 1.864.015 2.794-.018.137-.005.286.071.411.045.199-.04.382-.133.571-.204.095.356.367.084.56.109.387.051.768.131 1.152.196.137.023.275.044.414.055.211.015.464-.247.626-.001.169.258.381-.008.527.071.15.08.183.283.475.188.197-.063.461-.056.666-.002.211.055.387.047.596.018a.86.86 0 0 1 .484.095c.416.228.464.225.741-.143.026-.034.142-.065.162-.05.059.046.077.128.135.173.167.128.325.305.524.349.175.039.4-.1.607-.116.308-.022.641-.062.923.009.286.072.586.165.838.318.247-.391.552-.03.828-.052.114-.01.239 0 .34-.036a.907.907 0 0 1 .836.089c.24.149.478.178.69-.062.139-.157.314-.147.547-.107.528.09 1.065.238 1.61.012.08-.034.218.019.325.044.11.028.234.122.319.099.749-.196 1.462.003 2.188.078.167.017.345-.062.52-.074.138-.009.305-.02.412.035.2.101.377.081.592.045.366-.06.834.022 1.086-.14.242-.157.381-.112.471-.005.141.169.201.285.435.072a.793.793 0 0 1 .456-.187c.958-.032 1.919-.04 2.879-.059.238-.005.284.376.649.181.129-.069.436.168.567-.131.012-.027.204-.007.31.001.314.025.627.056.941.083.23-.323.599.06.877-.129.177-.119.404-.067.574.056.471.337 1.061.088 1.576.207.049.011.147-.067.197-.121.15-.157.313-.158.545-.124.41.063.834.06 1.251.099.361.035.717.091 1.077.137.181.022.16-.014.597-.194.148-.061.474-.366.666.018.01.021.045.054.051.051.512-.206 1.005.216 1.524.013.178-.07.383-.147.595-.016.057.035.15-.331.303-.015.058.122.189.24.326.309.231.116.262-.127.396-.19.321-.152.541-.113.856.111.109.078.219.16.347.209.047.018.146-.052.221-.082-.029-.03-.066-.057-.083-.091-.019-.046-.039-.138-.03-.14.143-.043.314-.132.432-.098.438.125.811-.063 1.205-.138.386-.074.78-.233 1.063.149.338-.003.681.023 1.014-.017.322-.039.623-.174.936.047.055.039.268-.181.445-.021.228.207.237-.128.383-.115a.662.662 0 0 1 .22.062c.086.039.165.136.24.131.285-.019.554-.207.858-.042.028.015.134-.072.206-.108.091-.046.197-.137.276-.124.222.033.456.081.646.176.271.137.371.009.479-.153.356.527.848-.089 1.237.09.177.081.162-.063.24-.099.265-.122.517-.161.832-.039.265.104.601.284.902-.065.076-.088.433-.035.653-.01.22.025.385.137.589-.113.166-.202.421-.112.52.188.077.235.2.262.443.183.168-.055.366-.061.52-.133.145-.068.327.231.421-.048.003-.01.122-.007.123 0 .09.419.555-.03.719.208.163-.083.33-.234.489-.231.165.003.305.098.38-.1.184.156.39.032.587.03.167-.002.342-.008.503.023.355.068.671-.202 1.055-.048.379.152.742-.143 1.117-.142.473.001.944.088 1.418.103.351.01.75.18 1.039-.159.021-.024.13 0 .197.005.111.009.224.015.333.034.193.032.382.08.575.108.165.023.456.075.48.033.13-.227.334-.063.486-.105.554-.15 1.072-.008 1.59.107.113.025.193.207.291.208.203.001.413-.057.609-.116.56-.17 1.135-.145 1.713-.146.157 0 .317-.132.473-.128.191.002.376.099.57.127.193.027.392.019.588.031.111.007.23.052.331.032.321-.065.589-.081.938.027.292.091.721.095 1.095-.024.941-.299 1.934-.146 2.904-.213a.447.447 0 0 1 .242.049c.261.157.407.123.663-.081.185-.147.583-.264.914-.056.078.05.227.069.324.045.357-.09.673-.036 1.006.083.4.144 1.157.092 1.651-.063l1.037-.026c.505.014 1.01.043 1.514.036.226-.003.423-.099.688-.02.172.051.441-.109.544.159.04-.015.085-.025.119-.046.479-.324.987-.301 1.556-.184.158.033.5.287.682-.06.009-.018.147-.018.194.01.508.31.982.215 1.46-.069.292-.174.782-.16 1.126.009.048.024.105.094.125.085.308-.122.657.002.937-.075.588-.163.978.032 1.318.359.138.132.133.042.227-.021.241-.163.581-.185.809-.393.083-.076.329-.13.417-.085.267.138.453.078.728-.011.225-.073.539.064.817.089.066.006.144-.067.216-.104.121-.061.236-.156.366-.173.22-.029.451.009.674-.016.208-.023.523-.183.595-.123.42.35.977.001 1.409.218.062.031.235-.009.287-.061.073-.076-.095-.277.145-.278.276-.002.605-.019.822.092.608.313 1.252.117 1.873.129.376.006.905-.059 1.353.002.053.006.114-.053.176-.07.315-.084.63-.428.955-.018a.377.377 0 0 0 .114-.042c.196-.112.391-.401.588-.004.011.022.119.038.127.027.355-.444.971-.006 1.37-.29.256.121.501.183.828.157.174-.014.389.017.586-.021.117-.021.286-.092.34-.054.434.311.867.097 1.271-.023.309-.091.574-.003.845.029.219.027.388.193.667.115.105-.029.381.103.404.194.082.319.174.25.401.077.17-.13.39-.044.575.057.048.025.131.006.198.007-.007-.047.002-.104-.025-.14-.053-.068-.194-.166-.182-.179.084-.092.192-.17.305-.238.015-.008.117.055.151.101.189.25.675.418.895.22.163-.147.337-.034.442-.146.188-.202.275.059.419.06.026 0 .059.038.078.033.476-.149.922-.162 1.341.124.06.041.225-.01.336-.035.507-.116 1.009-.291 1.532-.066.327-.33.666.157 1.073-.04.288-.138.788.067 1.151-.013.368-.081.563.28.925.127.266-.113.575-.17.873-.205.186-.022.415-.001.573.074.248.117.514-.111.758.085.271.217.355-.232.642-.169.375.082.794.057 1.15.171.398.127.76.179 1.178.077.33-.079.764.15.992-.238.31.121.621-.031.93-.006.112.009.253.055.33.015.392-.202.69.382 1.08.067.354.078.708.151 1.084.1.125-.016.018.266.254.163-.082-.501.378-.102.563-.213.196-.116.565-.007.828-.077.296-.079.588.007.852-.047.347-.07.51.378.917.132.236-.144.584-.159.931-.103.188.03.382.03.578.091.143.044.459.021.477-.026.114-.315.44.075.563-.14.182-.318.313.042.474.023.153-.018.257-.159.467-.067.158.067.385.027.582.029.157.001.507-.23.309.18.144-.014.378.01.414-.047.15-.246.328-.24.575-.127.064.03.164.011.248.015-.088.05-.187.091-.263.151-.071.055-.184.177-.17.188.096.087.209.167.334.218.05.019.216-.057.213-.075-.014-.083-.068-.162-.108-.242.187-.022.213-.097.204-.255-.013-.154.28-.191.298-.104.081.412.303-.049.456.063.149.111.387.3.579-.009.01-.017.132.009.2.019.164.025.33.076.495.072.213-.006.206-.136.152-.267.063-.009.141-.042.188-.024.19.075.365.174.556.25.1.039.216.051.326.073.231.043.336-.382.643-.116.142.129.344.211.615.336.057.001.021-.02-.017-.042l-.058.083c.043.013.083.03.128.039.006.002.027-.035-.053-.08zm80.214-1.327-.08.092.1.046c.018-.034.038-.069.05-.104.001-.007-.044-.022-.107.188-.006-.022-.015-.043-.021-.065-.041.024-.09.043-.119.075-.007.01.038.053.059.082.026-.033.055-.063.118-.314zm-22.15 3.069c-.038-.021-.074-.043-.11-.065l-.058.083c.042.014.082.031.127.04.007.002.025-.036-.227-.086l.078-.017c-.029-.035-.052-.075-.089-.098-.012-.008-.064.031-.099.048.037.022.074.045.378.095zm-5.336-1.867-.111-.064c-.02.027-.037.055-.058.083.042.014.084.031.128.039.007.001.025-.036-.228-.085l.079-.018c-.027-.035-.051-.075-.088-.098-.012-.008-.065.031-.1.049.038.023.074.044.378.094zm-31.621 1.078c-.026.031-.052.063-.079.092.033.016.066.032.1.046.018-.035.039-.069.05-.104.001-.006-.044-.021-.106.188l-.022-.064c-.04.024-.089.044-.117.075-.009.009.035.052.058.08.023-.03.053-.062.116-.313zm-72.752 6.71a1.807 1.807 0 0 1-.079.092c.033.018.066.032.099.048.018-.034.038-.069.049-.104.002-.007-.043-.022-.105.188-.006-.022-.015-.043-.022-.065-.041.024-.089.044-.118.075-.008.01.037.052.058.08.027-.031.054-.062.118-.314zm76.565-7.366-.11-.064-.058.083c.042.014.082.031.128.04.008 0 .025-.037-.256-.019.052-.093.09-.128.081-.152-.023-.062-.066-.118-.103-.177-.037.017-.104.042-.102.05.028.078.066.152.42.239zM61.032 5.607a3.949 3.949 0 0 1-.11-.064c-.019.027-.039.055-.057.083.042.014.083.031.127.039.007.002.025-.036-.297-.039l.126-.133c-.049-.016-.106-.055-.144-.043-.071.02-.132.068-.197.105.063.021.127.042.552.052zm157.601.314c.063.102.004.297.813.024-.097.024-.161.024-.198.049-.111.075-.214.161-.321.243.158-.014.317-.018.472-.049.029-.006.026-.122-.494-.021.09-.305.077-.315-.513-.153.08-.059.148-.111.22-.163-.078-.01-.163-.04-.233-.023-.101.025-.189.083-.283.127.091.018.183.039.537-.034zm-38.758-1.927c-.052-.019-.09-.048-.123-.043-.143.021-.287.054-.216.217.019.039.066.066.102.098.074-.087.151-.176.253-.493l-.078.092.099.045c.019-.034.038-.068.049-.104.002-.006-.045-.021-.086.188zm-35.714 8.26.079-.02c-.029-.033-.052-.072-.089-.096-.012-.008-.065.031-.1.048.037.022.072.045.605.062-.113-.011-.225-.025-.336-.028-.02-.001-.04.055-.059.083l.351.137c.012-.044.022-.086-.451-.186zm66.885-6.962-.11-.064-.058.083c.042.015.084.032.128.038.007.002.025-.036-.125-.206l-.265-.295c-.038.128-.082.256-.11.387-.001.008.13.057.183.043.066-.017.116-.078.357.014zm17.315.469c-.019-.015-.053-.066-.082-.065-.143.01-.217.069-.294.187-.136.207.084.202.176.234.218.076.105-.072.121-.142.016-.068.049-.134-.342-.192.02-.039.053-.07.051-.102-.001-.047-.008-.118-.047-.14-.158-.088-.454-.019-.511.129-.016.044.079.116.122.174.102-.117.208-.219.806-.083zm-44.076 4.756c-.047-.035-.101-.079-.155-.122-.021.028-.065.07-.056.083.048.067.109.126.167.188.014-.043.025-.085-.488-.575.038.119.052.193.089.257.022.036.08.057.121.085l.039-.157c.026-.109.072-.219.072-.327-.001-.043-.104-.119-.158-.117-.066.001-.17.057-.19.106-.027.056.024.135.559.579zm38.984-4.578c.21-.083.478-.04.368-.273-.022-.046-.178-.076-.267-.068-.133.013-.313.033-.236.211.023.056.098.095.105.338a6.54 6.54 0 0 0-.066-.199c-.083.088-.166.175-.252.262.053.025.127.08.152.066.076-.035.132-.098.196-.337zM207.19 4.394l-.154-.124c-.021.028-.064.071-.056.083.048.067.108.126.167.188.014-.042.024-.084-.413-.513-.084.021-.181.024-.248.064-.055.03-.111.108-.104.155.012.052.102.135.151.132.143-.012.3-.035.412-.099.072-.042.078-.165.111-.25-.051-.014-.103-.038-.154-.038-.055.002-.111.025.288.402zm17.803 1.909c.057-.015.122-.019.171-.043.058-.027.104-.072.152-.11-.077-.037-.179-.119-.229-.101-.159.056-.299.15-.446.229.03.028.063.083.089.08.089-.007.175-.034 1.715-.296-.074-.035-.102-.058-.128-.058-.149-.006-.387-.055-.436 0-.143.172-.359.152-.54.218.034.036.06.093.102.103.132.034.294.097.4.061.209-.073.388-.206-.85-.083zm9.021-2.26c-.227.129.105.18.094.192-.209.225.188.28.176.447 0 .008.124.034.186.027.049-.007.128-.051.128-.078-.003-.094-.048-.187-.05-.28-.008-.356-.116-.429-.227.464-.108-.03-.267-.078-.429-.121-.024-.007-.073.009-.079.022-.015.035-.028.098-.01.106.149.08.306.15.466.216.015.006.073-.043.098-.075.01-.013-.014-.044-.353-.92zm-26.102.397c.089-.093.171-.153.159-.173-.044-.072-.119-.132-.182-.196-.063.06-.17.116-.179.179-.008.048.11.109.318.623.136.094.291.286.419.273.189-.017.36-.18.537-.282-.131-.041-.291-.057-.391-.129-.119-.085-.188-.221-.282-.332-.032-.036-.083-.061-.125-.091-.035.052-.087.102-.102.156-.026.112-.033.227-.172-.028zM84.193 11.714l-.11-.064c-.019.027-.037.057-.057.083.042.014.083.032.126.04.008.001.027-.036-.147-.104.028-.058.049-.121.087-.175.049-.068.111-.13.429-.596-.087.101-.187.214-.282.329-.011.015.019.068.021.067.059-.009.131-.011.171-.04.085-.063.157-.137.223-.214.021-.024.011-.073.001-.106-.003-.012-.051-.016-.395.364-.265.13-.443-.042-.653-.117-.127-.045-.5.094-.217-.223-.081-.008-.202-.048-.235-.017-.094.08-.231.264-.212.278.209.154.472.262.665.427.155.131.266.031.585.068zm161.582-8.091c-.079.029-.211.046-.227.091-.028.084.007.183.017.277.344-.161.387.03.465.242.111.295.13.289.433.061.062-.046.161-.058.214-.109.075-.076.123-.17.183-.256-.106-.004-.214.003-.319-.014-.094-.016-.257-.052-.26-.089-.032-.316-.243-.287-1.147.265-.116.026-.233.05-.346.081-.294.078-.296.093-.093.332.064.074.133.15.172.234.093.2.209.201.373.05.041-.036.128-.083.169-.071.186.056.368.099.344-.14-.021-.193-.206-.111-.341-.086-.029.006-.066.027-.085.018-.067-.028-.163-.06-.18-.107-.019-.047.024-.137.075-.17.066-.042.173-.038.253-.07.048-.018.078-.066.114-.102-.036-.018-.077-.054-.109-.048-.117.022-.233.053.295-.389zm-21.041.808-.11-.064-.056.083c.042.015.082.032.126.039.008.002.026-.035-.081-.583-.422.087-.875.361-.928.572-.028.104.004.271.09.329.118.079.311.08.472.113.005-.091-.009-.184.013-.271a.435.435 0 0 1 .118-.221c.101-.091.236-.153.339-.242.05-.042.099-.14.075-.172-.049-.061-.15-.093-.058.417zm6.126 1.33c-.257-.061-.354-.113-.432-.096-.111.022-.286.081-.3.142-.025.122.065.236.261.167.111-.037.213-.094-.391-.216.033-.009.087-.018.087-.023-.037-.396.372-.198.542-.298.245-.147.406-.394.591-.604.019-.021-.038-.108-.083-.136-.058-.036-.186-.076-.206-.057-.079.072-.125.168-.187.254-.221.299-.224.302-.529.062-.06-.047-.042-.224-.198-.071-.058.055-.147.161-.124.186.076.089.396.137.007.247-.067.019-.12.108-.148.172-.02.044-.011.122.024.151.06.053.151.08 1.086.12zm-1.801-2.585c-.52-.072-.512-.073-.465.329.01.086-.061.178-.095.269-.458.227-.598.576-.297.625.381.064.489.397.842.421.102.006.205-.026.307-.04-.014-.067-.009-.139-.043-.2-.136-.243-.122-.513.054-.532a1.97 1.97 0 0 1 .664.02c.135.033-.093.289.174.341.018.002-.005.138-.009.212.075-.034.162-.055.22-.103.135-.114.156-.411.402-.323.267.097.458-.017.683-.028.276-.014.41.166.345.421-.022.089.005.241-.05.263-.192.081-.384.207-.299.352.048.082.395.011.544.089.201.105.563-.091.629.232l.173-.051c-.085-.108.017-.342-.265-.312-.268.028-.242-.062-.119-.175.092-.082.229-.129 1.159-.023-.056-.221-.439-.322-.727-.192-.024.013-.057.016-.085.021.033.037.059.092.103.106.21.064.425.121.642.173.009.001.044-.071-.744-.279-.124-.259-.053-.641-.59-.64-.105-.131-.228-.257-.313-.396-.071-.118-.079-.103-.215-.028-.449.245-.461.231-.61-.17-.026-.07-.047-.142-.014-.369l-.079.091c.033.017.067.031.101.047.017-.035.038-.069.049-.105.001-.007-.043-.021-.128.124-.086.019-.2.018-.251.064-.147.128.072.119.113.181.038.056.04.128.057.193-.068-.006-.135-.017-.203-.02-.439-.017-.879-.026-1.317-.046-.347-.018-.438-.17-.35-.915-.019.126-.035.182-.034.238 0 .046.025.09.041.135.047-.047.128-.093.133-.142.002-.054-.065-.111-.133.142zM85.068 12.187c-.02-.044-.023-.094-.052-.107-.254-.115-.478-.278-.826-.155-.199.069-.427.202-.682.07-.094-.049-.231-.042-.349-.061l.185.223c.054.063.479.187.617.303.237.198.688-.165.804.234.039-.017.11-.037.11-.054-.002-.17-.228-.393.193-.453zm129.41-8.659.031-.166c-.086 0-.179.017-.259-.001-.157-.033-.35-.051-.451-.138-.313-.267-.36-.32-.472-.258-.112.063-.234.167-.263.268-.054.214.093.359.335.442.107.038.213.087.309.144.211.121.361.112.489-.098.05-.081.185-.129.281-.193zm2.771 3.027c.009-.065.049-.145.016-.181-.118-.125-.284-.224-.388-.357-.188-.241.306-.197.263-.386-.038-.171-.404-.293-.104-.513-.083-.004-.218-.035-.241-.007-.212.271-.411.549-.594.833-.024.035.076.174.102.171.255-.033.331.067.424.248.05.1.319.123.522.192zm15.206-3.394c-.027.008-.06.01-.086.022-.077.032-.149.067-.224.103.092.015.195.014.271.05.066.033.146.112.14.164-.023.191-.142.054-.228.034a.175.175 0 0 0-.061.006c.015.117-.011.259.061.346.06.072.232.08.354.115.09-.279.271.008.415-.045.176-.065.381-.167.597-.045.012.007.174-.108.185-.173.01-.05-.106-.165-.169-.166a3.57 3.57 0 0 0-.6.061c-.328.052-.342.043-.309-.231.042-.329.042-.329-.346-.241zM87.936 10.128c.087-.02.183-.028.26-.065.049-.022.074-.085.11-.129-.056-.003-.112-.009-.168-.007-.112.003-.224.01-.338.017.076-.054.19-.099.22-.166.035-.081.016-.188-.013-.276-.025-.077-.576-.204-.669-.165a.22.22 0 0 0-.063.045c-.027.03.089.571.107.614.107.264.326.207.554.132zm-3.691.706c.052-.02.126-.028.151-.061.252-.335.375-.23.476.076.061.179.221.132.328.036.179-.161.227-.392.04-.523-.179-.123-.496-.236-.695-.188-.202.05-.337.301-.49.47-.022.027.007.102.041.138.029.03.098.036.149.052zm150.62-8.653c.015-.006-.033 0-.059.024-.274.242-.309.651-.063.857.137.115.287.218.436.325.021.017.069.039.073.034a.386.386 0 0 0 .081-.094c-.171-.122.108-.525-.4-.441-.042.007-.142-.082-.15-.135-.011-.047.058-.133.114-.154.136-.05.301-.054.424-.117.046-.023.044-.217.005-.232-.119-.047-.267-.044-.461-.067zM247.4 5.185c-.007-.291.497-.286.269-.471-.193-.154-.554-.168-.842-.235-.026-.006-.114.063-.11.093.016.142.097.324-.216.16-.024.052-.081.11-.066.152a.55.55 0 0 0 .151.244c.022.02.153-.026.22-.061.044-.023.064-.081.092-.125.124-.214.23-.289.313.017.016.057.086.106.189.226zm-25.289-.204c.117.455.298.687.629.825.043.019.095.023.142.032.007-.045.026-.093.02-.136-.025-.208-.329-.333-.22-.605.03-.074-.233-.235-.382-.338-.021-.016-.192.056-.202.098-.017.091.026.19.013.124zm4.816-.74c-.009-.016-.013-.04-.026-.046a73.32 73.32 0 0 0-.693-.323c-.063.135-.114.276-.195.404-.032.054-.14.075-.188.127-.03.03-.034.125-.015.132.085.036.226.092.271.063.217-.141.349-.407.72-.276.022.008.082-.053.126-.081zm-.656.894c-.136-.102-.293-.228-.463-.341-.024-.017-.146.018-.162.048-.113.222.096.684.343.757.045.015.155-.012.166-.038.05-.131.077-.269.116-.426zm-14.745.732c-.088.02-.178.035-.263.063-.049.018-.086.058-.13.087.041.023.083.069.119.066.386-.044.519.145.593.409.008.022.157.016.241.022.002-.049.026-.129.005-.139-.224-.097-.157-.213-.08-.366.059-.119.001-.248-.222-.203-.088.018-.175.042-.263.061zm22.099-.293c.025.035.14.224.165.217.278-.089.415.161.64.153.046-.002.104-.118.126-.187.008-.025-.067-.099-.108-.1-.314-.009-.547-.119-.718-.333-.03-.037-.08-.063-.12-.094-.018.042-.053.084-.052.126-.001.047.027.096.067.218zm-14.15-.162a4.967 4.967 0 0 1-.174.072c.069.057.136.12.212.169a.745.745 0 0 0 .236.108c.157.037.32.057.481.083.01-.047.05-.113.026-.133a3.251 3.251 0 0 0-.462-.369c-.042-.026-.167.035-.319.07zm-4.184.125c-.021-.013-.045-.025-.069-.038-.23-.138-.556-.174-.669-.434l-.138.085c.145.109-.213.251.03.355.229.096.438.271.73.131.046-.021.079-.064.116-.099zm-114.462 6.826c-.131-.113-.25-.23-.392-.321-.019-.013-.177.098-.246.169a.882.882 0 0 0-.175.26c-.01.02.066.093.11.1.165.018.339.043.497.016.08-.017.133-.14.206-.224zm62.936-.383c-.008-.017-.013-.045-.024-.047-.429-.063-.859-.122-1.289-.18-.006-.001-.035.044-.031.063.011.047.036.134.054.134.396-.014.75.233 1.157.113.05-.015.089-.053.133-.083zm45.208-7.869c.019.036.051.163.137.253.059.062.192.075.294.109-.001-.07-.029-.149.003-.207.074-.139.233-.287-.146-.215-.035.006-.147-.129-.151-.203-.006-.085.223-.238-.103-.183-.053.009-.084.144-.102.222-.011.046.026.097.068.224zm33.506.42c-.016-.033-.018-.075-.046-.097-.168-.123-.335-.25-.519-.358-.068-.04-.181-.032-.275-.046.022.095.004.23.074.276.179.118.395.199.603.285.032.013.1-.036.163-.06zm-32.606-1.395c-.011.071-.018.129-.028.187-.008.048.062.255.089.271.081.047.151.112.239.141.094.03.202.024.303.034-.016-.085-.002-.187-.056-.25-.098-.111-.233-.2-.357-.293-.044-.032-.105-.049-.19-.09zm4.515 1.428c-.032-.012-.14-.082-.243-.078-.197.006-.335.072-.241.283.057.13.097.214.299.167.19-.047.354-.086.185-.372zm15.811-1.654c.115-.027.146-.03.173-.041.072-.031.144-.065.218-.1a5.355 5.355 0 0 1-.164-.121c-.101-.077-.193-.161-.3-.23-.039-.024-.11-.012-.167-.017-.019.156-.058.314-.04.467.002.028.235.035.28.042zm11.317 2.541c.045.14.049.223.099.277.039.042.134.062.205.066.04.001.113-.044.124-.078.019-.065-.033-.156.005-.2.113-.132.079-.212-.095-.247-.101-.022-.258-.052-.307-.01-.058.049-.029.17-.031.192zm-89.617-.035c-.085.088-.213.191-.194.212.118.146.267.278.407.413.035-.177.081-.355.093-.534.002-.024-.177-.054-.306-.091zm81.263-3.209c-.005.076-.019.14-.012.203.029.283.364.291.569.417.011.008.075-.034.105-.061.012-.013 0-.055-.018-.069a29.376 29.376 0 0 0-.539-.439c-.019-.017-.05-.026-.105-.051zm-5.321.726c-.091-.305-.348-.505-.446-.421-.087.076-.17.283-.14.303.14.085.317.133.489.171.043.011.114-.063.097-.053zm-6.333 2.454a9.2 9.2 0 0 0 .116-.129l-.468-.238c-.034.076-.101.153-.096.227.01.171.106.278.448.14zm-5.893.615c-.115.047-.382.015-.266.251.085.176.248.048.378.032.088-.01.195-.019.252-.064.048-.038.049-.129.038-.194-.005-.034-.076-.088-.116-.086-.088.002-.174.036-.286.061zm-.228-1.436c-.187-.048-.322-.119-.448-.106-.112.009-.213.112-.317.173.071.066.141.135.217.195.244.196.202-.159.37-.137.039.005.094-.064.178-.125zm-3.954 2.022c-.088-.083-.131-.145-.196-.182-.077-.045-.174-.067-.261-.1-.029.059-.101.13-.08.172.048.096.119.212.221.252.073.028.214-.049.318-.087.012-.004-.004-.063-.002-.055zm10.088-2.721c-.032-.329-.206-.303-.385-.239a.506.506 0 0 0-.193.124c-.022.024.492.292.512.263.043-.075.069-.156.066-.148zm10.118 1.973c-.058.015-.116.023-.171.043-.049.019-.089.051-.135.077.058.022.113.054.174.066.132.026.268.057.402.055.046 0 .131-.096.126-.142-.007-.057-.081-.138-.144-.149-.074-.016-.167.031-.252.05zm-22.842-2.468.379-.279c-.168-.039-.336-.103-.507-.106-.052 0-.178.18-.151.241.031.07.193.102.279.144zm16.042.202.294-.203c-.131-.041-.277-.131-.385-.107-.109.024-.182.166-.267.256l.358.054zm4.274 1.89c-.08.068-.193.128-.182.162.049.158.133.308.203.462.034-.027.092-.05.098-.08a1.74 1.74 0 0 0 .052-.403c-.001-.044-.099-.085-.171-.141zm5.344-2.797-.348-.203c-.038.074-.115.152-.105.222.015.104.022.275.247.205.074-.024.116-.122.206-.224zm-20.543 2.458c-.172-.058-.304-.125-.444-.135-.043-.004-.105.151-.158.234.155.04.309.084.469.111.019.002.066-.103.133-.21zm21.891-2.244.253-.147c-.137-.054-.273-.113-.416-.153-.019-.005-.08.096-.123.147.095.052.192.104.286.153zm4.775 1.527c.124.026.26.058.4.083.062.01.129.001.193-.001a.218.218 0 0 0 .002-.063c-.024-.242-.273-.081-.398-.145-.047-.025-.127-.005-.19-.001-.002-.001-.002.04-.007.127zm-19.674 1.695-.23.216c.131.041.259.094.394.114.034.006.094-.089.142-.138l-.306-.192zm-65.757-.2c-.006-.017-.007-.037-.02-.049-.116-.108-.501-.14-.643-.053-.022.013-.049.049-.042.06.022.032.059.074.096.079.158.021.321.038.481.042.043-.001.087-.052.128-.079zm80.927-1.831c-.169-.073-.276-.137-.294-.124-.117.093-.216.203-.319.306.081.005.172.032.241.01.109-.034.2-.099.372-.192zm-14.051-.257-.208.22c.131.039.259.089.394.109.03.004.086-.092.133-.143l-.319-.186zm.709-.412c-.056-.082-.141-.235-.16-.23-.223.065-.016.183-.036.278-.016.067-.057.134-.054.198.003.036.07.088.116.096.042.006.136-.034.141-.059.012-.092-.003-.185-.007-.283zm-5.721.602c-.041-.091-.047-.144-.073-.151-.127-.037-.262-.088-.393-.084-.094.004-.186.086-.278.135.081.007.162.011.242.022.149.021.301.046.502.078zm-.734-1.025c-.026.132-.062.193-.043.238.041.101 0 .271.222.248.068-.008.128-.078.193-.119l-.372-.367zm-11.283 3.017c.14-.079.406 0 .363-.242-.003-.023-.005-.057-.023-.068-.227-.122-.184.193-.374.162-.069-.012-.16.043-.234.077-.007.003.02.091.03.091.085.002.17-.013.238-.02zm2.21-1.318c-.023.057-.067.107-.05.128.08.11.482.148.636.063.03-.018.034-.071.047-.107a85.59 85.59 0 0 0-.633-.084zm-.935-1.697c-.026.132-.061.193-.042.239.042.1-.002.271.222.248.068-.007.129-.079.193-.119a39.823 39.823 0 0 0-.373-.368zM80.648 11.608c-.042.208-.067.343-.093.477.08.007.176.041.24.016.202-.077.062-.205.036-.31-.013-.047-.079-.082-.183-.183zm100.481-7.399c-.202-.072-.327-.139-.46-.154-.043-.005-.11.12-.167.184.087.031.175.09.262.087.101-.003.203-.061.365-.117zm39.142 2.005c.066-.105.188-.24-.099-.177-.054.01-.085.138-.104.214-.011.042.008.108.046.136.054.038.141.075.203.066.131-.018.21-.073.045-.162-.037-.017-.062-.051-.091-.077zm-73.045.879c-.01.034.021-.018.012-.066-.006-.039-.063-.105-.089-.104a1.701 1.701 0 0 0-.402.087c-.032.012-.01.126-.011.193.057-.006.118-.005.173-.019.077-.017.154-.042.317-.091zm8.203-1.085c-.089.084-.127.12-.161.154l.406.263c-.004-.068.02-.147-.016-.201-.054-.079-.147-.141-.229-.216zm-49.995.118c.04-.132.095-.225.068-.246-.065-.051-.168-.071-.256-.103-.03.058-.101.136-.079.169.042.063.139.099.267.18zm99.974-3.22c.023.121.025.212.059.294.025.059.093.105.142.159.043-.063.103-.123.124-.19.013-.042-.016-.11-.054-.14-.059-.045-.143-.067-.271-.123zm-13.732 1.088c.046-.146.096-.274.123-.406.006-.023-.074-.059-.114-.088-.053.127-.113.253-.153.383-.007.019.073.058.144.111zm14.724.605c-.151-.047-.239-.098-.324-.095-.048.001-.092.093-.138.143.079.045.152.109.239.127.037.007.106-.08.223-.175zm5.212-.807c-.163-.019-.263-.052-.345-.033-.045.01-.102.148-.084.159a.544.544 0 0 0 .259.094c.034.002.079-.098.17-.22zm-7.674 2.107-.171-.214-.184.404c.053.014.136.051.153.035.078-.067.138-.15.202-.225zm19.915-1.865c-.05-.033-.097-.084-.12-.078a1.95 1.95 0 0 0-.378.146c-.021.011.037.12.059.184.142-.083.285-.165.439-.252zm24.298.836c.04-.132.096-.224.067-.246-.064-.053-.168-.071-.257-.103-.029.059-.101.135-.078.17.042.061.141.097.268.179zm-29.303-1.253c.039-.132.097-.224.068-.246-.065-.051-.17-.07-.257-.102-.029.058-.101.135-.079.17.042.062.14.099.268.178zm6.656-.725c-.089.055-.175.107-.26.161.097.047.234.153.288.13.101-.045.154-.164.229-.252-.079-.013-.157-.024-.257-.039zM188.917 9.1c-.046-.082-.061-.169-.12-.202-.055-.032-.158-.005-.24-.003.016.05.019.102.048.145.024.037.083.059.118.092.053.05.1.103.148.154l.046-.186zm-80.832-3.021.246-.139c-.089-.015-.179-.046-.265-.037-.076.008-.145.062-.218.096l.237.08zM92.976 10.72a7.84 7.84 0 0 1-.145-.153l-.219.267c.052.011.119.046.155.029.077-.036.142-.096.209-.143zm2.655.906c.101-.068.144-.095.186-.122l-.319-.178c-.015.042-.057.099-.04.126.043.067.115.117.173.174zm-1.558.714-.137-.158-.236.258c.051.013.117.051.153.035.083-.032.15-.089.22-.135zm11.558.089-.206-.135c.001.068-.021.146.008.203.034.066.114.116.175.173l.023-.241zm45.597-6.989c-.029.068-.076.138-.089.212-.005.031.06.07.093.104l.219-.266-.223-.05zm-21.617 6.6c-.03.068-.076.14-.088.213-.005.03.059.068.092.104l.219-.266-.223-.051zm41.04-6.412c.012-.073.039-.15.03-.223-.002-.033-.074-.06-.114-.09-.051.1-.102.198-.151.297l.235.016zm-27.934 6.788c.062-.088.118-.172.176-.256-.079-.007-.21-.042-.229-.016-.053.064-.058.155-.07.235-.001.01.082.025.123.037zm47.822-8.593-.308-.143c-.01.066-.053.175-.023.191.078.042.188.046.284.055.011.001.03-.067.047-.103zm12.94-.099c-.023.023-.086.07-.08.076.06.066.12.14.203.175.032.013.123-.073.188-.114l-.311-.137zm1.467-.18.166-.171c-.083 0-.174-.017-.246.009-.079.029-.141.095-.212.145l.292.017zm-26.016 6.729c-.073-.087-.105-.123-.136-.159l-.235.258c.052.014.118.05.152.037.082-.033.148-.091.219-.136zm24.75-4.917.174.124c.05-.098.098-.199.147-.298-.053-.004-.129-.025-.155-.005-.07.05-.115.12-.166.179zm-14.673 4.748a29.556 29.556 0 0 0-.301-.153c-.008.066-.048.176-.018.189.079.041.188.043.287.052.007 0 .026-.069.032-.088zm23.809-4.979c-.024.021-.085.069-.08.075.06.065.12.14.203.174.03.013.123-.072.188-.112a52.744 52.744 0 0 1-.311-.137zm6.909-.518c.034-.067.082-.136.099-.209.009-.03-.055-.071-.086-.107l-.232.26c.051.013.102.028.219.056zm-27.413 6.516c-.021.053-.066.118-.049.134a.825.825 0 0 0 .23.137c.012.004.076-.081.117-.125l-.298-.146zm34.61-5.569c.055-.089.106-.173.16-.257-.06-.021-.165-.066-.171-.058a.561.561 0 0 0-.117.215c-.006.02.072.058.128.1zm14.047-2.421c-.089-.009-.181-.03-.271-.023-.04.002-.075.063-.109.098l.356.121.024-.196zm-5.527 1.723-.307-.142c-.011.065-.053.175-.023.19.078.042.187.046.284.055.011 0 .031-.067.046-.103zm6.046-1.24-.363-.119c-.008.043-.038.114-.018.127a.839.839 0 0 0 .256.097c.026.006.073-.059.125-.105zm1.282 1.334c-.02.05-.065.116-.048.133a.762.762 0 0 0 .23.135c.011.005.077-.08.116-.124l-.298-.144zm-40.431 1.331c-.062-.043-.102-.074-.144-.104-.011.067-.035.136-.023.201.008.033.077.06.118.089l.049-.186zm4.027-.889c-.099.011-.183.012-.259.034-.023.006-.024.068-.035.106.082-.002.165.003.244-.011.022-.002.029-.066.05-.129zm7.26-1.031-.159-.167c-.024.05-.067.1-.067.151 0 .036.059.07.094.105l.132-.089zm-5.938 1.282-.023.14c.054.005.12.029.158.01.052-.025.081-.082.122-.125l-.257-.025zm11.802-1.777c.052-.051.089-.084.125-.119-.08-.008-.163-.027-.24-.017-.042.006-.074.064-.11.099l.225.037zM93.485 11.329c-.054.048-.117.085-.111.102.026.063.076.119.117.178.032-.028.096-.062.091-.081-.016-.064-.057-.126-.097-.199zm97.625-.665c-.098.011-.183.012-.258.034-.024.006-.026.067-.037.104.082-.002.165.005.244-.009.022-.003.029-.066.051-.129zm-3.191.847c-.025.065-.068.118-.054.151.028.06.091.108.141.161.017-.044.06-.093.046-.13-.022-.06-.079-.114-.133-.182zm44.924-5.567-.159-.166c-.024.049-.069.099-.069.151.001.035.061.069.095.104a7.92 7.92 0 0 1 .133-.089zm-4.751-3.333-.125.12c.08.007.163.027.24.016.042-.006.074-.064.11-.098l-.225-.038zm-8.106 2.142-.168-.018c-.009.044-.038.1-.016.13.029.042.099.068.149.1.01-.045.016-.088.035-.212zm7.946-1.282.205-.132c-.06-.021-.12-.057-.181-.055-.044 0-.086.05-.13.079.044.043.088.088.106.108zM80.193 12.017c-.03-.002-.1-.01-.168-.018-.007.045-.037.1-.015.131.03.042.099.067.151.099l.032-.212zm114.828-.281c-.013-.082-.013-.151-.037-.213-.01-.02-.084-.021-.13-.029.001.067-.007.137.009.202.004.018.082.022.158.04zm-100.517.872c-.057-.043-.102-.096-.123-.09-.076.021-.144.063-.214.098.032.027.071.079.096.075.078-.013.151-.048.241-.083zm133.011-8.43-.155-.139c-.017.044-.061.096-.046.128.029.06.093.107.142.161l.059-.15zm-127.427 7.036c-.099.012-.183.012-.258.033-.024.007-.026.07-.038.106.082-.002.166.005.245-.009.022-.005.027-.069.051-.13zM218.285 6.28a2.081 2.081 0 0 0-.023.141c.053.004.12.028.157.011.052-.026.082-.083.121-.127-.054-.004-.107-.01-.255-.025zm13.645-2.964c-.099.012-.183.012-.259.033-.025.008-.025.07-.036.106.082-.001.165.005.243-.009.021-.004.027-.068.052-.13zm-12.387 3.002-.171.13c.054.013.116.049.156.036.072-.023.13-.077.195-.119l-.18-.047zm7.662-1.77c-.053.048-.117.085-.109.102.026.063.076.118.115.177.033-.027.098-.059.092-.08-.016-.064-.059-.125-.098-.199zm6.174-1.415c-.098.011-.183.011-.258.033-.023.007-.024.07-.037.106.081-.001.167.005.245-.008.022-.005.027-.069.05-.131zm10.387-1.049c-.053.048-.118.085-.111.103.026.062.077.118.117.176.032-.027.097-.061.091-.081-.015-.064-.059-.123-.097-.198zM92.165 9.38l-.169-.019c-.007.045-.038.101-.015.131.03.042.099.065.15.099l.034-.211zm152.177-7.148c-.025.068-.07.12-.055.152.029.061.093.108.142.162.017-.044.059-.092.045-.129-.024-.062-.078-.114-.132-.185zm.637-.003c-.059-.043-.103-.096-.123-.09-.077.022-.145.064-.216.098.032.027.071.08.097.075.077-.014.149-.049.242-.083zm-113.23 3.737c-.013-.083-.013-.151-.038-.214-.008-.02-.083-.02-.127-.029 0 .067-.008.137.008.202.003.018.081.022.157.041zm-42.097 4.196-.024.142c.053.005.121.028.157.01.052-.025.082-.081.122-.126l-.255-.026zm152.512-6.796c-.061-.043-.102-.074-.143-.104-.01.068-.036.136-.023.2.008.034.076.06.118.09l.048-.186zm-8.722 2.146c-.082-.021-.144-.058-.184-.044-.073.025-.132.078-.195.119.052.012.111.048.154.036.075-.019.139-.067.225-.111zm-87.576-1.247.203-.133c-.06-.02-.12-.056-.181-.055-.043 0-.087.05-.129.078.044.045.089.09.107.11zM92.523 9.713c.12-.079.162-.105.204-.134-.059-.02-.121-.055-.181-.054-.042-.001-.085.05-.128.076.043.046.087.091.105.112zm60.212-3.899-.158-.167c-.024.05-.068.1-.067.15-.001.035.059.071.092.105.055-.035.109-.072.133-.088zm.275-.125.169-.13c-.051-.014-.115-.049-.153-.036-.073.024-.133.078-.197.118l.181.048zm-70.508 5.545c-.012-.082-.013-.15-.039-.212-.008-.02-.083-.02-.127-.03.001.068-.007.138.008.203.006.018.083.022.158.039zm81.512-5.96c-.053.05-.09.085-.125.12.08.006.164.027.24.016.041-.005.072-.064.11-.099l-.225-.037zm.879 1.376c.054-.05.09-.085.125-.12-.08-.007-.163-.027-.24-.016-.042.005-.073.063-.109.098l.224.038zM50.334 7.931l-.159-.167c-.024.05-.069.101-.069.151 0 .035.06.069.093.104.055-.035.11-.073.135-.088zm193.05-2.841a4.833 4.833 0 0 0-.023.141c.054.004.121.029.157.01.054-.026.083-.083.122-.125-.053-.005-.107-.012-.256-.026zM84.881 11.611c-.022-.048-.042-.107-.05-.106a1.34 1.34 0 0 0-.229.054.282.282 0 0 0 .029.089c.078-.005.156-.021.25-.037zm65.154-.81c-.091-.098-.125-.133-.156-.169-.026.052-.069.103-.069.152 0 .036.061.071.094.104l.131-.087zm-59.013-.739c-.099.012-.183.013-.258.034-.024.009-.025.069-.036.107.082-.002.165.003.244-.01.021-.005.028-.069.05-.131zm59.368.899c-.053.049-.117.085-.11.103.026.063.077.118.118.178.03-.026.097-.06.091-.08-.017-.065-.059-.126-.099-.201zm29.741-6.654.155.139c.018-.043.063-.095.046-.128-.028-.06-.092-.108-.143-.162-.015.043-.033.088-.058.151zm-8.72 2.189c.048.042.102.09.157.141.016-.044.061-.096.044-.129-.027-.059-.091-.107-.141-.16a3.644 3.644 0 0 1-.06.148zm5.996-1.453-.168-.017c-.009.044-.039.1-.016.13.028.042.099.068.149.101.009-.046.016-.089.035-.214zm8.368-.822c-.057-.043-.102-.095-.122-.09-.076.023-.144.064-.215.098.033.027.071.08.097.075.075-.013.15-.049.24-.083zm6.677-.275c-.055.047-.117.086-.11.103.027.062.075.118.116.177.033-.028.097-.061.091-.081-.017-.064-.059-.124-.097-.199zm-5.059 2.414c-.011-.083-.011-.151-.036-.213-.01-.019-.084-.021-.128-.029 0 .067-.009.138.009.202.002.017.08.021.155.04zm12.803-3.212-.169-.018c-.007.043-.037.1-.015.129.03.043.099.067.15.1.009-.044.016-.087.034-.211zm.444.432c-.014-.082-.014-.151-.039-.213-.007-.02-.082-.021-.127-.029.001.067-.008.136.008.202.003.016.081.021.158.04zm-107.189 6.5c-.012-.082-.012-.151-.037-.212-.009-.021-.083-.021-.128-.03 0 .068-.008.137.008.202.004.018.081.022.157.04zm107.911-5.907c-.025.067-.069.119-.055.152.029.059.092.108.142.161.017-.044.058-.094.045-.128-.022-.063-.079-.115-.132-.185zM79.388 11.364l-.155-.138c-.017.042-.062.095-.045.128.028.06.092.107.14.16l.06-.15zm92.656 1.083c.051-.037.111-.083.17-.129-.052-.013-.116-.049-.155-.035-.071.023-.13.076-.195.117l.18.047zM50.756 14.116l.045-.067c-.044-.006-.089-.019-.132-.018-.016 0-.028.038-.043.06l.13.025zm35.302-6.327c-.032.024-.064.053-.097.077.025.013.06.038.073.032.039-.017.069-.047.104-.073l-.08-.036zm1.992.313-.097.078c.025.012.06.037.072.032.04-.019.07-.049.104-.073l-.079-.037zm7.715-1.8c-.032.025-.063.052-.097.078.025.012.06.038.073.032.038-.017.069-.048.103-.073a3.203 3.203 0 0 0-.079-.037zm10.346-1.838a1.68 1.68 0 0 1 .046-.065c-.045-.008-.089-.021-.133-.019-.016 0-.029.039-.042.059l.129.025zM83.604 9.795c.03.026.062.051.093.079.014-.021.046-.05.039-.062-.02-.031-.057-.057-.087-.084a1.123 1.123 0 0 1-.045.067zm20.8-4.777.046-.066c-.044-.007-.088-.019-.132-.018-.015 0-.029.038-.042.059l.128.025zM71.739 12.92l-.093-.079c-.014.02-.046.05-.04.061.021.031.058.057.087.083l.046-.065zm11.333-2.566-.046.065c.044.007.089.019.133.018.016-.002.029-.038.043-.059-.044-.009-.088-.019-.13-.024zm.51.114a3.906 3.906 0 0 0-.094-.079c-.013.021-.045.049-.039.061.021.031.057.056.087.084l.046-.066zm-11.727 2.924.045-.065c-.043-.008-.088-.02-.132-.019-.015.002-.028.04-.042.06l.129.024zm28.386-6.602c-.014.021-.046.049-.039.061.021.031.057.058.087.084.014-.021.046-.05.039-.061-.02-.031-.057-.057-.087-.084zm-28.226 6.798c.029.026.061.053.093.079.014-.021.046-.049.039-.061-.021-.031-.056-.057-.086-.083a.914.914 0 0 0-.046.065zm7.441-1.77-.096.078c.024.012.059.037.073.031.038-.017.069-.048.103-.072a1.091 1.091 0 0 1-.08-.037zm10.905-2.434.044-.064c-.044-.009-.088-.021-.132-.019-.015.001-.029.038-.043.059l.131.024zm-6.49 1.671c.031-.025.063-.052.095-.076-.025-.013-.059-.039-.072-.033-.039.017-.069.048-.103.073.024.009.049.022.08.036zm34.24-7.135.093.079c.013-.021.045-.05.039-.061-.021-.031-.057-.056-.087-.083-.014.019-.029.04-.045.065zM94.98 10.796l.046-.066c-.044-.007-.089-.021-.133-.019-.016.002-.029.04-.042.059.043.009.087.016.129.026zm-1.167.35c-.029-.015-.054-.026-.079-.037-.009.037-.025.073-.022.109 0 .013.045.023.071.034l.03-.106zm24.325-5.343c-.025-.012-.06-.038-.072-.033-.039.017-.069.048-.104.074.025.011.059.037.073.031.039-.018.069-.047.103-.072zM100.97 9.941l-.08-.035c-.009.037-.024.072-.022.109 0 .012.044.022.07.034l.032-.108zm2.388-.201-.093-.077c-.014.021-.047.048-.039.06.02.032.057.056.087.085l.045-.068zm-10.214 2.44c-.014.021-.046.05-.04.061.021.031.057.057.087.085.014-.021.045-.05.039-.061-.02-.033-.057-.057-.086-.085zm5.341-.491c.017-.025.031-.047.045-.065-.044-.008-.088-.02-.132-.018-.015 0-.028.038-.042.058.042.008.087.018.129.025zm4.858-.155-.096.077c.025.013.059.037.073.031.039-.016.069-.048.103-.071l-.08-.037zm26.156-5.838.096-.078c-.025-.011-.059-.037-.072-.031-.039.016-.069.047-.103.073.025.01.05.022.079.036zm-26.202 6.27.045-.065c-.044-.007-.09-.02-.133-.018-.015.001-.028.038-.042.059l.13.024zm31.035-7.242.045-.065c-.044-.008-.089-.02-.132-.018-.016 0-.03.038-.043.059.044.008.087.015.13.024zm5.607-.663c-.015.02-.046.048-.04.059.021.033.058.057.086.084.015-.021.046-.049.04-.06-.02-.032-.056-.057-.086-.083zm-29.141 7.055-.092-.079c-.014.022-.047.05-.039.062.02.032.057.056.087.084.013-.022.027-.042.044-.067zm-.015.237-.046.067c.044.005.089.02.132.017.015 0 .029-.038.043-.059a3.706 3.706 0 0 1-.129-.025zm20.673-4.591c-.031-.024-.062-.051-.093-.078-.015.021-.047.049-.04.059.021.032.057.058.088.085l.045-.066zm6.617-1.488c-.015.02-.046.049-.039.06.02.031.056.057.086.083.015-.02.047-.05.039-.06-.019-.031-.055-.057-.086-.083zm7.811-1.512c-.015.021-.046.049-.04.06.021.032.058.057.086.084.015-.021.049-.049.04-.06-.021-.031-.058-.056-.086-.084zm-6.345 1.947c-.015.021-.046.05-.039.06.021.033.057.057.087.084.014-.02.046-.049.039-.059-.021-.031-.058-.057-.087-.085zm-28.918 7.159-.093-.077c-.015.021-.046.049-.04.061.02.031.057.057.087.083.015-.021.029-.04.046-.067zm42.928-9.339c-.015.021-.046.049-.039.061.02.031.057.056.087.083.015-.02.045-.049.038-.06-.02-.032-.057-.056-.086-.084zM142.103 6.41l-.079-.037c-.01.038-.024.074-.022.11.002.012.046.023.069.035l.032-.108zm-9.661 2.488.097-.078c-.025-.011-.059-.038-.072-.032-.039.019-.069.048-.104.073l.079.037zm-11.378 3.122a.968.968 0 0 0 .045-.065c-.044-.007-.089-.019-.133-.017-.014 0-.028.036-.042.059l.13.023zm35.703-7.608c-.025-.012-.061-.038-.074-.032-.038.017-.067.047-.101.073.023.011.059.037.072.031.038-.017.067-.047.103-.072zm-1.499.527c.03.015.055.025.08.037.009-.036.024-.073.022-.109 0-.014-.047-.024-.071-.035-.009.036-.021.072-.031.107zm-23.387 5.691-.045.065c.044.008.088.021.132.02.015-.002.029-.039.043-.06l-.13-.025zm-3.616 1.344c-.03-.014-.056-.025-.079-.037-.009.037-.025.074-.024.11.002.014.046.023.071.034l.032-.107zm24.801-5.611c-.024-.011-.058-.037-.071-.032-.039.018-.07.048-.103.074.023.012.058.039.071.031.04-.017.07-.047.103-.073zm.047.511c.032-.023.065-.051.097-.076-.025-.013-.06-.037-.072-.032-.039.017-.069.048-.104.072l.079.036zm3.206-.747c.018-.025.032-.046.048-.066-.047-.007-.09-.02-.134-.018-.016.001-.027.038-.043.059l.129.025zm-26.159 6.727c.032-.027.063-.053.096-.078-.024-.012-.059-.039-.072-.032-.038.018-.068.047-.103.073l.079.037zm31.226-7.398-.096.078c.024.012.06.038.073.032.038-.017.068-.048.103-.072a1.522 1.522 0 0 0-.08-.038zm2.471-.444c-.015.021-.048.05-.039.06.02.032.056.057.086.085.015-.021.046-.049.039-.061-.02-.032-.056-.056-.086-.084zm-8.862 2.246-.097.08c.025.01.059.036.072.031.039-.019.069-.048.103-.073l-.078-.038zm6.599-1.461.079.036c.009-.036.024-.074.023-.109-.001-.013-.047-.023-.072-.035l-.03.108zm7.732-1.461.045-.066c-.044-.007-.09-.02-.132-.018-.016 0-.028.038-.044.059l.131.025zM148.586 9.3c.03.012.055.024.079.036.009-.037.025-.074.023-.11-.002-.013-.046-.023-.07-.035-.012.036-.021.074-.032.109zm-8.973 2.282c.017-.025.031-.046.047-.066-.045-.007-.089-.021-.134-.018-.015 0-.028.037-.042.058.043.008.087.016.129.026zm31.879-7.55-.097.077c.024.012.059.038.071.032.039-.018.07-.048.104-.072l-.078-.037zm-36.806 8.721c-.014.021-.047.05-.04.062.021.031.056.056.087.084.014-.021.046-.05.039-.061-.02-.032-.056-.057-.086-.085zm7.889-1.352-.095.077c.024.012.059.039.071.031.038-.016.07-.046.104-.071a12.64 12.64 0 0 1-.08-.037zM172 4.512c-.014.021-.046.05-.039.061.02.031.057.057.088.085.014-.021.045-.05.038-.061-.021-.033-.058-.057-.087-.085zm-7.874 2.461c-.014.021-.048.048-.041.061.021.032.057.056.088.084.015-.021.046-.05.039-.062-.022-.031-.056-.056-.086-.083zm9.164-1.983c-.014.02-.046.048-.039.06.02.032.058.057.087.083.015-.02.046-.048.038-.06-.019-.031-.055-.056-.086-.083zm-1.199 1.313a6.512 6.512 0 0 1-.093-.079c-.015.021-.046.048-.039.06.021.032.057.057.087.084l.045-.065zm7.287-1.667c.032-.026.063-.052.097-.078-.024-.013-.06-.039-.072-.032-.041.017-.07.047-.104.073.023.011.05.022.079.037zm-23.125 5.863c.016-.025.029-.046.044-.067-.044-.005-.089-.019-.133-.017-.016.002-.028.038-.044.059.045.007.089.017.133.025zm-.674.823a2.747 2.747 0 0 1-.097.078c.024.012.06.039.073.033.038-.019.069-.049.103-.074a.894.894 0 0 1-.079-.037zm4.317-.773-.093-.078c-.014.02-.048.049-.04.061.021.031.057.056.089.083a.94.94 0 0 1 .044-.066zm28.119-6.43c-.024-.011-.058-.037-.071-.031-.039.017-.068.048-.103.072.023.012.059.038.072.032.038-.016.069-.048.102-.073zm3.172-.484a4.57 4.57 0 0 1-.096.078c.025.012.06.038.073.032.039-.017.069-.047.103-.072l-.08-.038zm-34.685 8.362.096-.078c-.024-.012-.06-.038-.073-.033-.038.018-.067.048-.103.074.024.01.051.021.08.037zm39.145-8.702-.093-.079c-.015.02-.048.048-.04.061.021.032.058.057.087.083l.046-.065zm-29.091 7.411-.092-.079c-.016.021-.047.05-.039.062.019.031.056.056.086.083l.045-.066zm5.98-1.418c-.024-.012-.059-.039-.073-.032-.038.017-.068.048-.102.073.023.012.06.036.072.031.039-.017.07-.047.103-.072zm27.721-5.636c.018-.025.03-.045.046-.066-.045-.007-.089-.02-.134-.018-.014 0-.027.038-.043.059l.131.025zM188.65 6.617c-.024-.012-.06-.038-.073-.031-.039.017-.069.046-.103.072.025.011.059.038.071.03.041-.016.07-.046.105-.071zm7.934-1.052c-.03-.025-.061-.052-.094-.078-.013.02-.045.049-.038.061.021.032.057.056.087.084l.045-.067zm11.24-2.278c.03-.026.064-.052.095-.078-.024-.012-.058-.039-.072-.033-.039.017-.068.048-.102.074l.079.037zm-4.095 1.156-.097.077c.024.012.06.039.071.032.039-.016.07-.047.104-.073a1.304 1.304 0 0 1-.078-.036zm1.576-.369-.095.079c.023.012.059.038.073.031.038-.017.067-.047.103-.072l-.081-.038zm-20.119 5.863-.093-.078c-.015.021-.047.049-.039.061.02.031.057.057.087.083.014-.021.026-.041.045-.066zm27.737-6.24-.097.077c.025.011.06.038.073.032.039-.016.069-.048.102-.072l-.078-.037zm-5.164 1.516a3.591 3.591 0 0 0-.096.077c.024.013.059.04.071.032.039-.017.069-.046.104-.072a2.482 2.482 0 0 1-.079-.037zm7.586-1.615-.096.078c.025.012.059.038.073.031.038-.017.069-.047.103-.072-.026-.01-.05-.023-.08-.037zm-12.05 2.968-.096.079c.023.011.059.037.072.031.039-.018.068-.048.103-.073a1.544 1.544 0 0 0-.079-.037zm8.75-1.931.096-.077c-.024-.012-.06-.039-.072-.033-.038.017-.068.048-.104.073l.08.037zm3.079-.564.045-.066c-.044-.006-.088-.02-.132-.017-.016.001-.029.038-.043.059l.13.024zm-9.487 2.604a.714.714 0 0 1-.078-.038c-.011.038-.025.074-.024.111.002.012.046.023.071.034.009-.037.021-.072.031-.107zm2.74-.562.097-.078c-.024-.012-.06-.039-.072-.033-.038.019-.069.048-.104.074l.079.037zm3.282-.643-.094-.079c-.013.02-.046.048-.039.06.021.032.058.056.087.084a.914.914 0 0 0 .046-.065zm-19.984 5.085.094.079c.014-.02.046-.049.039-.061-.02-.031-.057-.057-.088-.083l-.045.065zm23.555-5.42c.032-.025.065-.05.096-.077-.024-.012-.058-.039-.07-.032-.04.018-.07.048-.104.072l.078.037zm.926-.06a3 3 0 0 1 .097-.077c-.025-.012-.061-.037-.074-.032-.038.018-.069.047-.103.073l.08.036zm-2.997.933c-.031-.013-.055-.026-.08-.037-.009.038-.023.075-.022.111 0 .013.046.022.07.034.011-.036.02-.073.032-.108zm7.843-1.862-.096.077c.023.011.059.038.072.032.038-.018.069-.048.102-.072a.964.964 0 0 0-.078-.037zm-8.29 2.144c-.023-.01-.059-.037-.072-.032-.038.019-.068.049-.103.074.025.011.06.036.072.031.039-.017.07-.047.103-.073zm-21.661 5.233.08.038c.008-.038.024-.074.022-.11-.002-.013-.047-.023-.071-.035l-.031.107zm22.204-5.103-.096.077c.023.012.058.039.071.031.039-.017.069-.047.104-.072l-.079-.036zm1.514-.275.08.037c.008-.038.024-.074.022-.11-.001-.012-.046-.024-.07-.035-.011.036-.023.071-.032.108zm6.933-1.431.097-.077c-.026-.012-.061-.038-.074-.033-.039.018-.067.048-.103.073.025.012.05.025.08.037zm4.734-1.105.097-.078c-.025-.011-.061-.037-.072-.031-.039.018-.069.048-.104.072l.079.037zm-34.016 8.062c.03.015.056.025.081.037.007-.037.024-.074.022-.11-.001-.012-.046-.022-.072-.034-.009.036-.02.072-.031.107zm37.155-8.438c-.03.025-.063.052-.097.078.026.012.061.038.073.032.04-.016.07-.046.103-.072a1.531 1.531 0 0 0-.079-.038zm-8.863 2.49c.032-.024.064-.05.097-.077-.025-.011-.06-.038-.073-.032-.039.018-.067.047-.103.072l.079.037zm2.917-.48c-.031.026-.063.053-.097.079.025.011.061.037.074.031.039-.017.068-.048.104-.072l-.081-.038zm.255.364.097-.08c-.024-.011-.06-.037-.073-.031-.039.018-.069.047-.104.072l.08.039zm11.109-2.182c-.025-.013-.059-.04-.071-.032-.04.017-.07.047-.104.073.024.011.059.038.072.032.039-.019.071-.048.103-.073zm2.009-.414.095-.078c-.024-.011-.058-.038-.071-.032-.04.017-.069.047-.103.072a.983.983 0 0 0 .079.038zm-7.509 2.141-.079-.036c-.01.036-.025.073-.022.109 0 .013.045.024.07.035l.031-.108zm7.203-1.635a7.666 7.666 0 0 0-.093-.079c-.015.021-.048.048-.04.061.021.031.057.056.087.084l.046-.066zM226.8 5.982l.08.037c.009-.037.023-.075.021-.111 0-.013-.046-.024-.069-.034l-.032.108zm13.93-3.196c-.014.021-.046.048-.039.061.021.032.057.056.087.084.014-.021.047-.048.041-.061-.022-.032-.058-.057-.089-.084zm-8.834 2.784c-.029-.027-.062-.052-.093-.079-.015.021-.047.048-.039.061.02.031.058.056.087.083.015-.02.029-.04.045-.065zm.481-.057c-.014.021-.046.049-.039.061.021.032.058.056.087.084.014-.021.047-.048.04-.06-.022-.032-.058-.056-.088-.085zm8.032-1.619a1.743 1.743 0 0 1-.093-.078c-.016.021-.048.048-.041.06.021.031.057.057.087.083.015-.019.03-.04.047-.065zm-30.39 2.614.096-.079c-.024-.011-.059-.037-.072-.032-.039.018-.069.048-.102.074l.078.037zm27.301-.693c.028.026.061.052.092.079.014-.022.046-.05.04-.061-.02-.032-.058-.057-.087-.084-.013.021-.029.042-.045.066zm11.598-1.884-.093-.077c-.015.021-.047.048-.04.061.02.031.057.056.088.083l.045-.067zM4.872 4.954l-.097.078c.025.011.059.038.073.032.04-.018.069-.048.103-.073l-.079-.037zM2.463 6.405l.096-.078c-.025-.011-.059-.037-.072-.032-.039.018-.07.048-.103.074l.079.036zm6.256 5.353c.03.014.055.024.08.037.009-.038.025-.073.022-.111 0-.012-.045-.022-.07-.033l-.032.107zm28.676-6.381.08.037c.009-.037.024-.073.022-.109 0-.013-.046-.024-.07-.035l-.032.107zm-24.658 6.254c.017-.025.032-.045.045-.066-.043-.007-.089-.02-.132-.017-.016 0-.029.037-.043.058l.13.025zm30.792-5.975c.03.014.055.025.08.038.008-.037.025-.074.023-.11 0-.013-.046-.023-.071-.035l-.032.107zm-7.222 2.03.096-.077c-.024-.012-.059-.038-.072-.032-.039.018-.069.048-.103.073.025.01.05.022.079.036zM27.7 9.928c-.03-.014-.055-.024-.079-.037-.009.037-.025.073-.023.11 0 .012.045.023.07.035l.032-.108zm13.723-1.701c-.015.019-.047.049-.04.06.021.032.057.058.087.084.015-.021.046-.048.039-.06-.02-.033-.056-.057-.086-.084zm.302.261-.095.079c.024.011.059.038.072.031.039-.018.069-.047.103-.073a1.686 1.686 0 0 1-.08-.037zm13.629-2.969c-.025-.011-.06-.038-.072-.031-.04.017-.069.048-.104.072.026.012.06.038.073.032.038-.017.069-.047.103-.073zm.016.252-.096.078c.024.011.059.038.072.032.039-.017.069-.047.103-.072l-.079-.038zm3.281.301c-.015.021-.046.05-.04.06.021.033.057.057.087.085.014-.021.045-.049.039-.061-.02-.031-.055-.056-.086-.084zm.19.945-.08-.037c-.009.037-.025.074-.023.11.001.013.045.022.07.035l.033-.108zM36.97 13.621c-.014.021-.047.049-.039.061.02.031.057.057.087.084.014-.021.046-.049.039-.06-.02-.032-.057-.057-.087-.085zm-.269.819.045-.066c-.044-.007-.089-.021-.132-.019-.015.002-.029.038-.043.06l.13.025zm1.16.084-.096.079c.024.01.059.037.072.03.039-.017.07-.047.104-.072a12.64 12.64 0 0 1-.08-.037zm13.057-2.78.045-.065c-.045-.008-.089-.021-.133-.019-.016 0-.029.037-.043.059.045.01.088.016.131.025zm7.422-.52-.093-.078c-.015.021-.046.048-.04.06.021.032.057.057.087.084l.046-.066zm194.548-7.361c-.637.369-.715.179-.347.363-.054-.282.164-.371.436-.427.006 0 .009-.09-.012-.098-.092-.039-.193-.064-.292-.094-.069.186-.197.129-.313.047-.041-.028-.041-.096-.059-.146.376-.048.189-.247.145-.391-.025-.082-.11-.209-.177-.213-.187-.01-.253.091-.189.245.011.029-.057.115-.077.112-.244-.028-.463-.003-.647.151-.011.011-.111-.024-.14-.055-.032-.037-.059-.112-.034-.138.185-.208.619-.26.571-.62 0-.002.096-.033.117-.02.31.195.81.088 1.022.46.074.128.229.125.376-.059.258-.323.292-.304.714-.037.159.101.286.144.38-.072.064-.15.125-.283.298-.014.084.131.292.235.289.412-.001.086-.096.182-.172.255-.019.017-.141-.048-.218-.066-.113-.027-.337-.27-.272.093.009.042-.082.108-.145.146-.093.054-.199.089-.3.133.097.014.198.021.29.045.029.007.063.071.053.092-.06.111-.192.219-.184.323.006.092.2.166.24.267.121.319-.096.149-.246.118-.058-.012-.155.055-.213.104-.057.048.162.469-.2.087-.087-.094-.417-.168-.444-.139-.254.295-.394-.437-.625-.035-.075-.088-.151-.178.375-.829.568-.59.61-.476.689-.382.021.024.195.007.222-.03.097-.13-.037-.494-.204-.55-.064-.022-.21.014-.239.058-.032.045.033.135-.468.904zm.437-.511-.17-.019c-.007.044-.036.101-.016.13.031.043.099.068.151.099l.035-.21zm-.327.915c-.054.051-.092.085-.126.12.081.007.163.028.239.017.043-.006.073-.063.111-.098a19.175 19.175 0 0 0-.224-.039zm18.927-3.29c.32.13.597.398.552.58-.004.018-.045.044-.049.042-.392-.204-.294.179-.453.249-.021.01-.118-.066-.147-.114-.213-.357-.67-.023-.935-.224-.015.043-.021.091-.044.134-.123.221-.582.392-.823.305-.002-.001.068-.09.053-.116a.788.788 0 0 0-.174-.177c-.062-.047-.139-.079-.207-.117.099-.045.194-.12.298-.129.162-.013.331.035.495.029.166-.005.32-.085.207-.232-.212-.275.174-.274.253-.413.111-.198.267-.087.438-.051.212.044.444.016.666.026.077.004.213.031.215.056.025.257.287.087.408.161.011.006.009.031-.753-.009-.802-.089-.839-.111-.877-.132-.019.027-.037.055-.057.082.042.015.084.032.127.04.008.001.026-.036.807.01zm-.109.187c-.098.011-.182.012-.257.034-.023.007-.024.068-.037.105.082 0 .166.004.244-.009.022-.003.028-.068.05-.13zm-13.611.562c-.011.036-.031.069-.05.105a8.436 8.436 0 0 1-.099-.047c.026-.03.053-.061.05-.013-.072.366-.317.322-.528.267-.195-.049-.186.023-.149.124.044.13.023.298.316.241.159-.03.39.199.5-.06.186-.431.487-.495.955-.299.098.04.279-.057.424-.089-.012-.093-.071-.227-.019-.272.145-.127.352-.267.348-.317-.006-.066-.032-.132-.048-.198-.1.021-.261.02-.29.068-.123.219-.23.035-.337.006-.273-.073-.271-.076-.576.218-.034.032-.115.045-.174.045-.111-.001-.239.008-.327-.033-.213-.103-.386-.055-.563.053.197.061.146.351.468.247.054-.066.1-.052.099-.046zm-2.021.833c-.063.04-.184.095-.219.072-.135-.078-.228-.214-.37-.276-.382-.166-.248-.61-.626-.762-.087-.034-.203-.018-.304-.023.02.083.015.23.06.241.392.093.594.407.49.616-.205.425.198.455.417.615.06.043.414-.06.454-.115.044-.063.091-.164.149-.171.124-.017.294.062.379.016.083-.044.054-.214.13-.293.078-.08.225-.118.34-.174-.137-.021-.276-.036-.408-.07-.084-.021-.155-.098-.236-.101-.141-.005-.285.025-.427.042.055.084.108.169.179.274-.003.02.019.091-.008.109zm-4.8 2.11c.044.042.145.044.217.066-.002-.069.002-.14-.006-.21-.008-.048-.013-.123-.051-.138-.427-.188-.518-.497-.475-.865.005-.048-.094-.105-.143-.158-.012.27-.398.029-.394.168.006.199.033.287-.238.155-.045-.02-.149.043-.226.068.037.079.051.182.12.232.078.056.209.065.381-.003.141-.084.191-.074.244-.065-.077.048-.148.101-.229.14-.017.01-.067-.028-.102-.044.053-.046.106-.091.087-.031-.121.164-.185.226-.234.294-.037.054-.058.116-.086.174.439-.132.823-.093 1.135.217zM82.625 13.421c-.188-.155-.565-.055-.69-.324a.434.434 0 0 0-.164.029c-.121.05-.056.176.071.298.201.189.287.477.646.532a.674.674 0 0 0 .31-.017c.034-.013.018-.13.025-.196-.069-.115-.103-.245-.198-.322zM239.872 1.775c-.082.088-.165.174-.245.264-.104.113-.125.362-.41.166-.005.079-.053.192-.008.229.154.134.46.127.498.379.01.062.087.115.135.171.015-.063.047-.128.039-.189-.021-.147-.025-.145.309-.515.045-.05.033-.133.056-.243-.124-.085-.249-.174-.374-.262zm29.056.497c.168-.117.359-.219.484-.362.027-.031-.178-.202-.275-.31l-.223-.103c-.071-.022-.193-.034-.202-.067-.068-.239-.252-.133-.407-.099-.049.01-.09.048-.135.073.1.065.199.132.303.194.115.069.249.12.339.204.028.025-.067.138-.104.211.072.087.146.173.22.259zM257.024 5.36c.067-.058.394-.037.171-.158-.159-.086.172-.456-.268-.285-.254-.235-.317.104-.494.122-.125.012-.355.035-.242.206.065.103.254.173.407.209.098.022.226-.045.342-.073.028-.006.066-.006.084-.021zm12.113-3.759c.163-.089.319-.188.489-.266.151-.069.317-.116.476-.172-.153 0-.308.001-.463-.002-.026 0-.066-.017-.075-.035-.091-.197-.201-.302-.413-.078-.129.134-.462.194-.236.451l.222.102zm-19.728 3.965c-.045-.007-.086-.025-.127-.04.02-.027.037-.055.058-.083.036.02.074.044.016.042-.182-.003-.269.029-.356.036-.092.004-.184-.017-.275-.026.057.069.097.171.177.202.35.134.689.009 1.019-.083.217-.062.051-.207.044-.315-.146.015-.322.147-.405-.077-.045-.121-.124-.138-.195-.011-.044.08-.068.167-.007.274.077.046.06.082.051.081zm-2.994-2.863c.202-.073.331-.594.181-.734-.025-.023-.115-.039-.128-.027-.163.157-.349.307-.466.486-.089.137.148.33.329.296.027-.007.058-.011.084-.021zm8.364-.242c.085-.049.157-.11.234-.167-.074-.066-.14-.143-.226-.198-.236-.149-.447.04-.67.063-.018.002-.037.129-.025.195.046.239.085.249.516.148.058-.013.124-.014.171-.041zm8.681-.609a.483.483 0 0 0-.303.226c-.067.135-.119.314-.06.437.047.096.275.201.362-.044.053.045.097.1.157.136.044.024.109.025.167.037.002-.023.015-.049.007-.069-.037-.091-.072-.184-.126-.268-.032-.052-.097-.087-.146-.131l.296-.17c-.135-.064-.26-.17-.354-.154zm-7.982 1.849c-.153.046-.413.033-.282.264.07.129-.055.394.31.353.176-.018.354-.027.532-.039-.098-.111-.197-.218-.285-.332-.033-.039-.036-.095-.052-.142-.074-.036-.149-.07-.223-.104zm-58.54 7.438c.217.193.448.364.804.274.071-.017.171-.073.181-.123.009-.051-.052-.141-.113-.168-.181-.083-.377-.143-.567-.209-.102.074-.203.15-.305.226zm56.972-9.326c-.11-.004-.232-.028-.325.004-.076.027-.184.138-.166.184.066.184.073.318-.192.388-.023.007-.004.129-.004.197.102-.003.245.03.299-.015.213-.169.088-.505.434-.623.004-.001-.015-.044-.021-.068-.008-.023-.016-.066-.025-.067zm20.903-.904c-.231-.044-.492.193-.479.407.002.039.079.107.085.104.112-.049.218-.149.328-.151.083-.002.168.118.258.178.006.003.096-.05.093-.073-.009-.071-.041-.141-.087-.284-.03-.028-.097-.161-.198-.181zm-8.017 1.496c.008.008.103-.025.13-.055.052-.056.133-.14.113-.184-.024-.052-.14-.078-.219-.11-.127-.052-.252-.087-.12-.247.052-.063.281-.173.048-.26-.05-.019-.208.129-.291.216-.047.047-.039.129-.061.212.133.145.262.289.4.428zM90.335 12.221c-.078.023-.383-.01-.138.177.147.11.076.128-.047.173-.112.041-.216.098-.323.148.161.035.402.14.466.089.171-.134.266-.334.452-.592-.218-.001-.325-.023-.41.005zm158.982-9.846a.46.46 0 0 0-.235.043c-.298.187-.02.3.07.451.08.134.104.33.344.195.148-.084.049-.197-.076-.295-.062-.047-.016-.188-.02-.299-.019-.024-.047-.093-.083-.095zm-10.098-.414c-.003-.108-.104-.213-.16-.319l-.538.294.527.342c.071-.122.174-.221.171-.317zM89.415 12.896c-.069-.034-.825-.09-.84-.062a.085.085 0 0 0-.007.064c.047.148.475.235.8.159.057-.015.1-.067.161-.11-.064-.027-.089-.04-.114-.051zm-4.497.287c-.096.003-.189.148-.276.236-.019.019.427.174.52.151.07-.016.127-.076.183-.124.011-.008-.012-.043-.043-.138-.094-.035-.241-.131-.384-.125zm151.68-11.217c.064.208.166.407.254.607.211-.209-.078-.38-.06-.573.005-.067.051-.135.052-.201 0-.041-.047-.082-.162-.259-.051.24-.111.343-.084.426zM255.7 3.804c.106-.059.304-.12.303-.177-.004-.171-.316-.315-.495-.23-.061.028-.022.199-.03.304.074.034.149.068.222.103zm6.144-2.458c-.04-.032-.189.029-.286.046.058.058.179.146.163.167-.065.089-.187.151-.253.24-.02.027.071.11.11.163.283-.068.452-.468.266-.616zm11.694.312c.052-.033.105-.148.085-.166a1.853 1.853 0 0 0-.363-.227c-.034-.016-.11.025-.167.041.023.048.057.096.067.146.011.046.022.112-.005.141-.051.052-.132.083-.199.124.051.016.101.043.151.043.058 0 .116-.024.175-.038.085-.019.187-.023.256-.064zm-22.91 1.287c.05-.107.161-.229.134-.319-.03-.089-.199-.146-.307-.218-.021.096-.045.191-.069.297l.242.24zm1.113.854c-.092.099-.16.211-.237.32l.3.108c.061-.128.12-.256.216-.462-.158.018-.251.006-.279.034zm-34.243-1.346c-.104.035-.206.076-.307.114.024.03.048.083.076.085.148.01.302.028.445.002.095-.018.18-.099.258-.161.026-.021.027-.072.025-.108 0-.012-.05-.034-.072-.031-.087.015-.171.038-.256.058-.056.012-.115.022-.169.041zm60.949-1.44c-.01-.002-.048.049-.04.059.059.073.109.176.194.206.111.039.253.021.38.019.008 0 .014-.082.029-.181a17.674 17.674 0 0 0-.563-.103zM90.707 11.662c-.032.015-.046.059-.062.092-.002.004.052.037.074.034.264-.051.352.011.218.224.055.008.131.038.16.019.073-.048.125-.118.149-.143-.077-.318-.242-.367-.539-.226zm177.09-9.153c.121-.082.271-.146.354-.248.049-.059-.009-.178-.02-.27l-.478.267.144.251zm-14.07 2.767c-.217.03-.436.065-.653.098.012.034.018.095.034.096.189.022.379.044.568.043.035 0 .072-.104.088-.13-.022-.064-.034-.107-.037-.107zm-3.764-3.085c-.102.03-.34-.012-.203.19.034.052.146.126.157.12.127-.081.243-.175.459-.342-.225.015-.327.006-.413.032zM276.281.944c-.052-.013-.14-.048-.149-.036a3.75 3.75 0 0 0-.297.377c-.011.016.058.068.216.25l.23-.591zM91.134 12.747c-.122-.005-.254-.035-.36-.003-.06.019-.105.14-.103.213.001.059.084.114.168.218l.295-.428zm127.54-10.172c.079.111.185.211.281.314.048-.049.145-.108.133-.142-.04-.114-.118-.218-.206-.368-.115.105-.221.179-.208.196zM86.535 12.167c-.055.127-.115.252-.153.382-.004.012.131.081.187.071.295-.056.1-.216.093-.371a7.406 7.406 0 0 0-.127-.082zm112.107-1.574c-.104.01-.201.074-.301.114.134.054.266.119.408.158.03.008.102-.082.215-.179-.147-.045-.238-.102-.322-.093zm51.447-5.665c-.04-.028-.063-.068-.095-.103-.314.146-.013.316-.031.475.409-.13.416-.159.126-.372zm-6.094-1.97c-.017-.007-.082.016-.082.019.012.048.012.107.048.141.074.069.165.129.255.182.032.017.09.008.131 0 .015-.002.018-.042.043-.111-.12-.072-.256-.153-.395-.231zm-46.775 7.885c-.009.014.018.066.021.066.059-.01.132-.011.173-.04a1.32 1.32 0 0 0 .221-.214c.022-.025.013-.072.003-.107-.002-.011-.049-.014-.135-.035-.089.1-.188.213-.283.33zm16.286-3.253c-.047 0-.139.067-.135.101.009.124.068.239.263.17.06-.021.092-.092.19-.194-.143-.039-.231-.077-.318-.077zm41.831-6.141.487.147c.017-.043.063-.113.044-.125-.081-.064-.181-.114-.27-.165l-.261.143zM99.343 13.077c-.044.009-.101.146-.084.158a.543.543 0 0 0 .259.093c.033.003.078-.097.168-.219-.162-.019-.261-.051-.343-.032zM256.767 3.046c.006-.019-.108-.085-.113-.081-.122.091-.236.19-.352.287l.32.092c.062-.12.114-.207.145-.298zm-3.973-1.203c-.109.042-.206.106-.308.162.101.047.211.14.298.126.074-.012.122-.147.205-.26-.077-.013-.151-.046-.195-.028zm8.002.719c.054.006.115.026.159.013.148-.042.394-.016.295-.25-.014-.038-.073-.063-.108-.091l-.346.328zm-10.54 3.057c.081.007.162.011.243.022.054.008.105.039.157.037.058-.002.114-.029.172-.045-.042-.058-.067-.145-.13-.167-.065-.024-.163.012-.274.026-.049.035-.108.081-.168.127zm18.12-3.809c-.137-.035-.292.003-.244.183l.575.021c-.109-.072-.206-.173-.331-.204zm11.245-.784c-.059.081-.187.192-.161.235.054.085.194.13.299.192l.053-.211-.191-.216zM95.94 13.242c-.019 0-.039.054-.059.084.118.044.235.091.352.136l.043-.191c-.115-.011-.225-.027-.336-.029zM206.558 2.516c-.09-.032-.2-.107-.263-.086-.205.073-.05.204-.04.312.1-.076.201-.152.303-.226zm-9.704 8.641c.013-.053.053-.113.032-.153-.047-.093-.124-.176-.189-.262-.011.064-.022.129-.039.216l.196.199zm14.311-3.26c.081.005.171.035.242.015.102-.028.189-.091.284-.139l-.263-.044c-.087.058-.176.113-.263.168zm-14.264 3.722c-.037-.005-.084.049-.126.077l.317.179.064-.185c-.079-.024-.165-.062-.255-.071zm51.216-9.624-.312-.206c-.03.044-.099.105-.084.127.042.062.119.107.155.137l.241-.058zm-4.754 1.887c.013-.052.053-.114.032-.154-.047-.093-.125-.176-.19-.262l-.039.216.197.2zm5.049-1.567c-.08-.007-.21-.042-.229-.017-.052.064-.058.155-.069.236-.001.008.08.024.123.037l.175-.256zm1.497.512c-.007.03.06.069.092.104l.219-.266c-.052-.011-.104-.022-.222-.05-.03.068-.076.138-.089.212zm.085 1.998.256-.372c-.302.023-.388.147-.256.372zm15.584-3.224c.082-.001.176.017.244-.009.081-.029.144-.095.213-.146a20.413 20.413 0 0 1-.291-.017c-.053.053-.109.113-.166.172zM252.729 5.08a.794.794 0 0 0 .229.136c.012.005.078-.081.118-.124l-.3-.146c-.018.052-.065.118-.047.134zm14.81-3.547c-.024.05-.08.138-.07.143a.835.835 0 0 0 .259.094c.025.005.072-.061.122-.107l-.311-.13zm-15.656 3.861c-.082-.004-.172-.033-.243-.014-.101.028-.189.09-.284.139.08.012.159.025.263.043.088-.058.176-.112.264-.168zm2.582-.203c.016.046.102.117.116.11.084-.035.154-.089.229-.138l-.324-.15c-.009.068-.038.128-.021.178zm.828-.047-.148.298c.054.003.13.026.158.005.067-.051.112-.121.163-.18a18.03 18.03 0 0 1-.173-.123zM273.64.94c-.082-.007-.171-.035-.242-.016-.103.028-.19.091-.284.139l.262.043.264-.166zm.382-.007c-.056.063-.087.139-.128.211.056.013.128.051.162.035.093-.044.17-.113.317-.215-.25-.024-.334-.049-.351-.031zm-57.404 1.734c.002.046.027.09.043.135.046-.047.13-.094.132-.142.005-.055-.063-.112-.141-.231-.018.126-.035.183-.034.238zM83.569 13.643c-.072.024-.131.076-.196.118.053.013.112.047.156.036.074-.021.139-.067.224-.111-.082-.022-.145-.058-.184-.043zm112.792-3.201c.054.004.121.028.157.012.053-.026.083-.084.123-.126-.054-.005-.106-.012-.258-.025a2.208 2.208 0 0 1-.022.139zm-.086.396c.002.045.026.09.042.134.046-.047.132-.092.133-.14.003-.056-.063-.113-.142-.231-.018.125-.035.181-.033.237zm-2.329 1.001c-.055.002-.109.022-.164.036.057.038.112.105.171.108.065.002.137-.054.28-.119-.151-.014-.219-.028-.287-.025zm22.039-4.519c-.076.019-.144.056-.216.086.021.029.05.086.061.084.094-.023.185-.056.339-.107-.114-.04-.155-.07-.184-.063zm-15.546 4.037c.054.006.12.029.158.01.053-.023.082-.081.122-.125a9.335 9.335 0 0 0-.258-.024 2.099 2.099 0 0 1-.022.139zm41.978-9.738c-.076.022-.144.065-.214.099.031.026.071.079.096.075.078-.015.15-.05.24-.084-.056-.044-.101-.096-.122-.09zm-5.278 2.316c-.021.03-.065.071-.056.085.048.066.11.125.167.187l.042-.149c-.045-.036-.101-.079-.153-.123zM103.3 12.61c-.021.041-.068.089-.056.12.024.059.082.107.126.162l.088-.18-.158-.102zm3.642.473c.081.007.164.026.241.017.042-.007.074-.065.11-.099a20.494 20.494 0 0 1-.225-.038l-.126.12zM250.906 2.126c-.076.02-.145.057-.216.086.021.03.05.087.061.085.093-.023.184-.056.339-.106-.114-.042-.155-.072-.184-.065zm6.018-.63c.009-.066.033-.135.021-.199-.006-.035-.077-.06-.118-.09-.018.065-.034.13-.048.186l.145.103zm3.528-.196c-.023.006-.024.069-.036.106.081-.001.166.005.244-.009.021-.003.028-.068.051-.13-.1.011-.184.011-.259.033zm-15.958 3.881c-.073.023-.133.077-.196.118.052.014.11.047.153.037.075-.019.14-.067.226-.112-.08-.021-.144-.057-.183-.043zm16.392-3.671c-.075.022-.143.064-.215.099.033.026.071.079.096.075.079-.014.151-.049.242-.083-.058-.045-.103-.097-.123-.091zm-1.181.426c-.02.029-.066.07-.056.084.047.066.11.125.168.187l.043-.148c-.047-.036-.101-.08-.155-.123zm3.448-.727c.081.007.164.027.241.017.042-.006.073-.064.109-.099l-.225-.037c-.051.05-.088.084-.125.119zm-17.766 4.385c-.074.023-.133.077-.197.118.052.014.111.049.154.037.074-.018.14-.066.226-.111-.082-.021-.146-.057-.183-.044zm11.896-2.698c-.008-.02-.084-.021-.128-.029.001.068-.007.137.008.201.006.018.082.023.158.041-.012-.081-.012-.151-.038-.213zM81.458 12.575c-.055.002-.109.023-.164.037.057.038.111.105.169.106.067.004.137-.053.282-.117-.151-.014-.219-.028-.287-.026zM264.774 1.633c-.061-.021-.121-.055-.183-.055-.042 0-.085.05-.128.078l.107.11.204-.133zm-9.807 2.809c-.063-.104-.004-.297-.271-.249.064.104.004.297.271.249zM270.353.798c-.062-.02-.122-.055-.183-.055-.042.001-.085.05-.128.078l.106.109.205-.132zm-4.67 1.227c-.008-.02-.083-.021-.128-.03 0 .068-.007.138.008.202.005.019.082.022.157.041-.012-.083-.012-.152-.037-.213zm.397.062c-.008-.02-.084-.02-.128-.028.001.067-.006.136.009.201.004.017.082.022.157.04-.013-.082-.012-.15-.038-.213zm3.344.076c-.024.007-.024.069-.038.105.082 0 .165.006.244-.008.021-.004.028-.069.051-.131-.099.011-.182.012-.257.034zm5.266-.612c-.011.066-.034.135-.022.199.006.033.077.06.117.09l.049-.187-.144-.102zm2.813-.346c-.086-.212-.257-.072-.396-.063.082.213.256.072.396.063zm4.358-.239c-.01.066-.035.135-.021.199.007.034.075.061.116.09l.049-.186a7.493 7.493 0 0 0-.144-.103zM86.379 11.426c-.028-.034-.051-.074-.089-.099-.011-.006-.064.032-.098.049l.109.066a.895.895 0 0 0 .078-.016zm2.822-.037c-.028-.033-.052-.072-.089-.097-.011-.008-.064.031-.099.049.037.021.074.045.109.066.026-.006.052-.013.079-.018zm-.909.679c-.041.023-.089.043-.118.075-.009.008.037.052.058.081l.081-.093a.664.664 0 0 1-.021-.063zm-6.481 1.823c.009-.036.025-.072.023-.109 0-.012-.046-.022-.071-.034l-.031.106.079.037zm7.413-1.574c-.014.021-.047.05-.04.06.021.032.057.058.087.084l.045-.065c-.03-.025-.062-.051-.092-.079zm.58.331c-.028-.033-.051-.074-.089-.097-.011-.007-.064.031-.099.048l.11.067.078-.018zm-2.255.604c-.025-.011-.059-.037-.072-.031-.04.018-.07.048-.103.072l.079.037.096-.078zm-1.531.514c-.044-.008-.088-.02-.132-.018-.015.001-.029.037-.042.058.044.009.087.018.13.024l.044-.064zm4.813-.579c-.014.021-.046.049-.039.061.021.032.057.056.086.084l.046-.065a1.445 1.445 0 0 0-.093-.08zm6.471-.422c-.015.021-.046.05-.039.062.02.032.057.056.086.083l.046-.065-.093-.08zm5.2.343-.057.082c.042.015.084.031.127.04.007.002.027-.037.041-.059-.037-.019-.073-.042-.111-.063zm39.856-.279c-.041.026-.089.044-.118.076-.009.01.036.053.057.08l.084-.091c-.009-.021-.015-.041-.023-.065zm75.672-9.88c-.028-.033-.051-.074-.088-.097-.012-.007-.066.032-.099.049l.109.066.078-.018zm7.324-.698c-.026-.011-.061-.038-.073-.032-.039.018-.068.048-.104.073l.08.037.097-.078zm3.991.08-.129.082.178.063a6.16 6.16 0 0 0-.049-.145zm-29.673 7.937c-.044-.008-.088-.021-.132-.018-.015 0-.028.038-.042.059l.129.024c.018-.024.032-.045.045-.065zm-.319.462c.01-.037.025-.073.024-.108-.001-.013-.047-.024-.07-.036-.011.037-.022.072-.031.107a.875.875 0 0 0 .077.037zm13.988-3.108c-.03-.033-.052-.073-.09-.098-.012-.007-.064.031-.099.049.036.022.073.046.109.066.027-.004.052-.011.08-.017zm-14.809 3.662c.021.031.058.058.087.084.015-.021.048-.049.038-.06-.02-.032-.055-.058-.086-.084-.013.02-.045.048-.039.06zm-.502.3c.024.011.057.038.072.032.039-.019.069-.049.102-.072a.852.852 0 0 0-.079-.037l-.095.077zm16.721-3.98c-.015.021-.047.05-.04.061.021.032.058.057.087.085l.045-.065a2.417 2.417 0 0 0-.092-.081zm25.734-5.851c-.028-.033-.052-.073-.09-.097-.011-.007-.063.031-.098.049l.11.067c.027-.006.053-.011.078-.019zm7.712.224c-.021.027-.039.055-.058.083.041.014.081.031.126.04.008.001.025-.036.041-.058a3.916 3.916 0 0 1-.109-.065zm1.635-.226c-.016.021-.048.049-.04.061.021.032.056.057.087.084.014-.021.027-.042.045-.066l-.092-.079zm-.121.495c-.028-.034-.052-.074-.089-.097-.012-.008-.064.031-.098.049.035.022.07.044.108.066l.079-.018zm.74-.329c-.012.021-.046.049-.039.06.022.033.058.057.089.085a.87.87 0 0 1 .045-.066c-.031-.026-.062-.053-.095-.079zm.515.123c.031.015.064.031.099.046.018-.035.039-.069.049-.105.002-.006-.044-.021-.069-.034a3.256 3.256 0 0 0-.079.093zm3.35-.529c-.039.017-.069.047-.104.073.026.011.061.038.074.032.04-.018.068-.048.103-.073-.026-.012-.06-.038-.073-.032zm-16.01 3.941c-.025-.011-.058-.038-.073-.032-.039.018-.069.048-.102.073l.078.036.097-.077zm15.89-3.631c-.014.021-.045.049-.039.06.022.032.058.057.087.084l.046-.066-.094-.078zm-18.331 4.823c-.025-.012-.059-.038-.071-.032-.039.018-.07.048-.104.072l.08.037.095-.077zm-.764.255c-.009.036-.025.075-.023.111 0 .012.047.021.071.033l.032-.107a.88.88 0 0 1-.08-.037zm1.188-.225c.021.032.056.056.088.085.012-.021.046-.049.039-.061-.022-.032-.058-.056-.089-.085-.013.022-.046.049-.038.061zm19.265-4.46.1.045c.018-.036.037-.069.05-.105.002-.006-.044-.021-.071-.033l-.079.093zm-14.923 3.707c.015-.021.047-.05.04-.061-.021-.031-.057-.057-.087-.084l-.047.066c.032.025.063.052.094.079zm-3.108.881c.009-.038.023-.074.022-.109 0-.013-.046-.023-.071-.036l-.03.107.079.038zm14.363-3.111.101.046c.018-.035.038-.068.049-.105.002-.007-.043-.021-.069-.033l-.081.092zm8.525-1.92c-.013.02-.045.049-.038.06.02.031.057.057.086.084a5.36 5.36 0 0 0 .047-.067l-.095-.077zm3.11-.017.101.046c.017-.035.038-.069.049-.105.001-.006-.043-.021-.069-.033-.028.03-.053.061-.081.092zm2.103-.499c-.024-.012-.06-.038-.073-.031-.039.017-.069.047-.103.072l.079.038c.033-.026.063-.053.097-.079zm-14.617 3.489c-.015.021-.046.049-.039.061.019.032.057.056.086.084.016-.021.03-.042.046-.066a3.521 3.521 0 0 0-.093-.079zm6.247-1.38c-.023-.012-.058-.038-.072-.032-.038.017-.069.047-.102.072l.079.037.095-.077zm4.583-.993c-.027-.033-.051-.073-.088-.096-.011-.008-.065.031-.1.049.037.021.073.044.11.066l.078-.019zm4.386-1.127c.02.032.057.057.086.084.015-.021.045-.049.039-.061-.02-.032-.057-.057-.087-.084-.014.021-.046.05-.038.061zm-11.527 2.949c-.028-.032-.052-.073-.09-.097-.011-.006-.063.032-.098.049l.109.066a.914.914 0 0 0 .079-.018zm7.219-1.839-.058.082c.043.014.083.032.128.04.007.002.027-.037.041-.057-.037-.023-.074-.044-.111-.065zm.583.02c.01-.038.025-.074.024-.11 0-.013-.048-.024-.072-.035-.009.036-.021.072-.031.108.03.013.055.024.079.037zm1.518-.269.1.046c.018-.035.038-.069.049-.105.002-.006-.043-.021-.068-.033-.029.031-.055.062-.081.092zm-11.952 2.887c-.036.018-.068.048-.104.072.026.012.061.039.074.032.039-.017.068-.048.103-.072-.024-.01-.059-.037-.073-.032zm2.456-.573c-.038.019-.068.048-.104.073.025.012.061.039.074.032.038-.016.069-.048.102-.072-.025-.012-.06-.038-.072-.033zm9.517-2.25c-.042.024-.09.043-.118.076-.009.008.036.052.057.08l.082-.09a2.636 2.636 0 0 0-.021-.066zm-8.992 2.254-.057.084c.043.013.083.031.126.038.008.003.026-.035.041-.057l-.11-.065zm9.462-1.974c-.045-.007-.089-.02-.133-.019-.016.002-.029.039-.042.06l.129.025.046-.066zm-9.532 2.302c-.015.021-.048.048-.04.061.021.031.058.056.087.083l.046-.065-.093-.079zm-.871.514c-.027-.034-.052-.074-.087-.097-.012-.007-.066.031-.1.049.036.022.072.045.109.066.027-.006.053-.011.078-.018zm13.328-3.109c-.03-.034-.052-.074-.091-.098-.01-.007-.063.031-.098.049.036.022.074.043.11.067.026-.006.052-.013.079-.018zm-13.104 3.212-.224-.103.224.103zm1.618-.533c-.014.021-.046.049-.038.061.019.032.056.056.085.084.015-.021.029-.042.047-.065l-.094-.08zm.661.001c-.028-.034-.051-.073-.089-.096-.011-.007-.064.03-.099.048.037.021.072.044.108.067.029-.005.054-.012.08-.019zm11.047-2.577-.223-.103.223.103zm-13.229 3.216.079-.147-.176.041.097.106zm12.606-3.071c-.021.027-.039.055-.058.082.043.015.083.032.127.04.008.002.025-.036.042-.058a2.934 2.934 0 0 1-.111-.064zm-7.34 2.335c.009-.035.024-.074.021-.108 0-.013-.045-.023-.07-.036l-.031.107.08.037zm13.918-3.317c.032.015.065.031.1.045.018-.034.039-.068.048-.104.003-.006-.042-.021-.067-.033l-.081.092zm3.009-.322c-.008.037-.024.074-.022.11.001.013.046.023.071.035.009-.036.021-.072.03-.107l-.079-.038zm.488.043c-.03-.034-.053-.074-.092-.097-.01-.008-.063.031-.098.049l.11.066.08-.018zm.474.044a3.98 3.98 0 0 1-.056.082c.041.014.083.032.127.04.007.001.025-.036.042-.058l-.113-.064zm-15.897 3.866c-.015.021-.046.049-.039.061.021.032.058.057.087.083l.046-.066a6.463 6.463 0 0 1-.094-.078zm19.301-3.883c.016-.021.047-.049.039-.06-.02-.032-.056-.057-.086-.084-.015.02-.028.041-.047.065l.094.079zm-52.401 2.583c-.013.053-.054.115-.033.155.049.094.125.176.19.263l.039-.217-.196-.201zm3.628.398c-.039.024-.089.043-.118.075-.008.009.037.053.058.081l.083-.091c-.008-.022-.014-.043-.023-.065zm.184.269c-.009.036-.024.072-.023.109.001.013.046.023.07.035.011-.037.023-.073.032-.108l-.079-.036zM84.506 12.329c.015-.021.047-.049.04-.061-.021-.031-.057-.056-.087-.085-.014.021-.028.043-.045.066l.092.08zM218.15 5.03c.032.016.065.03.1.046.017-.035.039-.068.05-.105.001-.007-.045-.02-.071-.033a2.154 2.154 0 0 1-.079.092z"/></svg>