<svg xmlns="http://www.w3.org/2000/svg" xmlns:xlink="http://www.w3.org/1999/xlink" version="1.1" id="Layer_1" x="0px" y="0px" width="100%" viewBox="0 0 800 800" enable-background="new 0 0 800 800" xml:space="preserve">

<path fill="#FE9000" opacity="1.000000" stroke="none" d=" M13.003120,483.900208   C10.997010,470.081909 9.051743,456.687439 6.981377,443.312317   C3.480835,420.697815 4.726964,397.907776 5.302010,375.242584   C5.676778,360.471252 8.866791,345.760590 10.960442,331.046173   C13.967785,309.910248 19.871931,289.511719 26.876619,269.393707   C36.480728,241.809967 49.033401,215.684464 64.485718,190.874878   C77.321976,170.265472 91.940269,151.130157 108.215668,133.112442   C123.752571,115.912277 140.869186,100.607147 159.052155,86.298141   C183.266434,67.242828 209.607071,51.825565 237.483597,38.951729   C266.474060,25.563473 296.837067,16.198513 328.142761,10.212765   C342.087921,7.546407 356.337128,5.948255 370.519836,5.173991   C389.743683,4.124516 409.070679,3.489188 428.288055,4.274900   C442.908508,4.872665 457.436066,7.897888 471.988983,9.955829   C493.293945,12.968594 513.864014,18.917704 534.114075,25.994995   C561.364136,35.518730 587.240173,47.928940 611.762817,63.203808   C632.641296,76.208740 652.059387,91.015671 670.277161,107.580658   C687.178955,122.949013 702.261902,139.809097 716.416321,157.686584   C734.936096,181.077835 750.028198,206.511658 762.650330,233.402039   C774.180359,257.965790 783.364868,283.477905 788.880127,310.096069   C792.214233,326.187195 794.397156,342.519653 796.992493,358.760406   C800.603699,381.358582 799.266785,404.160828 798.697021,426.825928   C798.325684,441.596954 795.108521,456.304596 793.039795,471.022888   C790.044861,492.331543 784.077637,512.899292 776.997437,533.146606   C767.469666,560.393494 755.053955,586.266479 739.777161,610.790466   C726.770325,631.670715 711.953674,651.079651 695.394531,669.300842   C680.030640,686.206848 663.165039,701.283752 645.285828,715.436584   C621.892639,733.954407 596.460510,749.051270 569.567810,761.666077   C545.003052,773.188965 519.495056,782.394287 492.869293,787.878235   C476.613220,791.226440 460.105865,793.357788 443.707092,796.009216   C421.104462,799.663696 398.270813,798.629089 375.646240,797.668335   C349.102570,796.541138 322.879425,791.692261 297.163849,784.616455   C267.444763,776.439026 238.972534,765.097961 211.933594,750.357971   C189.878677,738.335022 168.729294,724.813232 149.783432,708.195129   C137.617188,697.523682 125.257339,686.962097 114.072639,675.306885   C94.114944,654.509583 76.728767,631.666260 61.843746,606.846008   C45.453571,579.516052 32.250404,550.851135 22.868685,520.444763   C19.191742,508.527710 16.272192,496.377045 13.003120,483.900208  M398.385101,537.393860   C397.095215,538.251526 395.805359,539.109253 394.010376,540.266052   C393.156952,541.523376 392.303558,542.780640 390.534027,543.964844   C390.348053,544.963501 390.162109,545.962097 389.958557,546.976624   C389.958557,546.976624 389.955292,546.999939 389.141937,546.774597   C388.753540,547.683289 388.146912,548.560181 388.009247,549.505432   C385.636871,565.793579 383.149994,582.067993 381.047607,598.391724   C379.253265,612.324036 388.994507,624.350586 402.698883,625.688477   C416.031036,626.989990 427.508148,617.459656 429.105377,603.381226   C429.021210,601.937988 428.937042,600.494812 428.926971,598.232117   C427.951324,592.488098 426.975677,586.744019 426.084747,580.128052   C424.544281,570.307190 423.085449,560.472595 421.435150,550.670227   C420.305237,543.958862 416.726105,539.128418 409.265045,536.686096   C405.845215,537.109863 402.425354,537.533630 398.987061,537.963684   C398.987061,537.963684 398.969269,537.971619 398.385101,537.393860  M467.856964,380.097717   C468.230713,371.001129 469.010284,361.899200 468.890533,352.809113   C468.667389,335.868073 467.877289,318.935181 467.407135,301.996552   C467.066193,289.712036 467.192627,277.403259 466.435974,265.146973   C466.120789,260.042511 466.232239,255.429855 467.999268,250.527481   C469.129242,247.392563 469.322021,243.111893 468.087799,240.102448   C465.585785,234.001724 461.663910,228.499481 458.657837,222.582626   C457.101227,219.518875 455.552826,216.171143 455.193756,212.823730   C452.657196,189.175873 450.671509,165.467239 447.970764,141.839630   C447.055145,133.829300 444.966125,125.884888 442.697296,118.119560   C440.962097,112.180687 441.461578,110.635536 447.649994,109.922241   C464.125488,108.023232 473.004913,95.996658 472.019928,77.564926   C471.361145,65.238052 460.880096,53.666855 444.631378,54.617031   C434.911224,55.185440 423.687012,63.633202 422.675629,73.328506   C421.929901,80.477165 422.793304,87.880379 423.672577,95.080673   C424.237274,99.704765 423.868652,101.071350 419.122314,100.643173   C403.532806,99.236832 393.231293,106.825119 386.835266,120.125214   C374.133270,146.537994 361.888000,173.170120 349.343750,199.659378   C346.917633,204.782471 345.125275,209.730194 347.458740,215.429504   C348.029388,216.823166 347.665466,218.746521 347.330414,220.342163   C341.211670,249.479782 335.071350,278.613007 328.848267,307.728516   C325.684875,322.528870 322.252594,337.271942 319.123413,352.079285   C316.829712,362.932953 314.684113,373.823669 312.798553,384.754120   C312.285309,387.729431 312.952423,390.908325 312.607513,394.615601   C305.399841,400.999908 297.473541,403.868713 287.370911,403.609253   C258.895996,402.877991 230.389664,403.255829 201.896500,403.379578   C169.103012,403.522003 136.310333,403.856506 103.517487,404.129974   C102.406578,404.139221 101.297684,404.390717 100.213501,404.526093   C100.213501,406.766327 100.213501,408.707611 100.213501,411.313843   C163.545609,411.313843 226.659988,411.313843 289.540924,411.313843   C281.652039,420.548889 274.004730,429.507294 266.349335,438.458832   C264.231720,440.935028 262.610138,443.869568 265.723602,446.256042   C268.901978,448.692352 270.910797,445.905640 273.051880,443.566833   C281.800507,434.010132 290.695190,424.585083 299.646881,415.217438   C302.608948,412.117737 306.209595,410.872009 310.770447,410.990570   C324.091797,411.336914 337.428009,411.111908 350.758392,411.110840   C352.111755,411.110748 353.465118,411.110840 354.818512,411.110840   C354.102112,412.297577 353.412231,412.726990 352.669037,413.022156   C329.557098,422.200104 310.626862,436.985291 295.087860,456.219269   C291.660309,460.461884 288.690918,465.086914 285.669708,469.641479   C283.481628,472.940063 284.370178,475.988159 287.811615,477.510162   C290.870789,478.863098 293.003174,477.622681 292.775543,473.777618   C292.743683,473.239502 293.450134,472.664795 293.796875,472.096130   C319.796234,429.456329 372.762177,404.769379 422.414917,412.372284   C465.358643,418.947906 496.920929,442.398315 519.735901,478.649231   C525.144958,477.733704 527.160339,474.604248 524.555176,470.685272   C509.950867,448.716278 491.505615,430.897186 467.885773,418.757507   C463.349274,416.425903 458.739075,414.237671 454.162872,411.983307   C469.537628,411.112976 484.524200,411.045929 499.508484,411.199829   C501.335236,411.218567 503.586670,411.950653 504.897583,413.158997   C512.213989,419.902863 519.451904,426.748199 526.405029,433.863373   C529.989807,437.531616 532.807007,441.938354 536.212158,445.798706   C537.865234,447.672791 539.776611,450.378174 542.850525,447.861877   C545.429016,445.751099 545.123291,443.284027 543.152588,440.852814   C542.944214,440.595764 542.824219,440.265900 542.610840,440.014221   C537.676147,434.195038 532.839294,428.287964 527.756165,422.601135   C524.430176,418.880066 520.745483,415.479614 516.202087,410.910339   C574.128174,410.910339 630.500183,410.910339 686.735413,410.910339   C686.735413,408.439850 686.735413,406.501526 686.735413,404.281769   C685.515381,404.216797 684.549561,404.127106 683.583069,404.119507   C650.620605,403.859467 617.658447,403.535736 584.695435,403.377228   C560.034851,403.258636 535.372864,403.409424 510.712494,403.263763   C508.420746,403.250244 505.933563,402.331390 503.882294,401.204559   C491.834717,394.586182 479.889618,387.781250 467.856964,380.097717  M285.307800,638.804871   C295.497437,632.935913 301.441315,623.600769 305.867767,613.166870   C313.215118,595.848022 320.297607,578.416870 327.603241,561.080139   C335.488342,542.368103 329.449127,522.531738 312.757324,512.753357   C296.058655,502.971008 274.766327,507.334991 262.962036,523.816101   C250.366165,541.402466 238.171814,559.301514 226.450653,577.482117   C215.114212,595.065979 217.492950,616.787659 231.417404,631.419922   C245.193527,645.896301 266.232117,648.955383 285.307800,638.804871  M450.481415,446.173096   C423.620056,433.254425 395.950867,431.924438 368.069031,441.789642   C344.480988,450.135620 325.960114,465.477997 311.978180,486.250702   C310.155762,488.958313 308.963226,491.921753 312.221405,494.111969   C315.480408,496.302673 317.351196,493.581329 319.000427,491.171814   C331.415833,473.032715 347.380280,459.188324 367.998810,451.146545   C391.440125,442.003906 415.030151,441.745880 438.677521,450.484161   C460.800476,458.659088 477.988831,472.982269 491.117920,492.411713   C492.657440,494.689972 494.654358,497.014679 497.653992,495.031952   C500.647461,493.053284 500.001312,490.136261 498.216461,487.591461   C495.738007,484.057587 493.225891,480.526184 490.456909,477.221008   C479.547577,464.199036 466.795898,453.492554 450.481415,446.173096  M363.269806,479.817627   C352.502472,486.300140 344.108521,495.172119 337.156616,505.544861   C335.528748,507.973755 335.724976,509.796936 338.031006,511.521332   C340.410797,513.300964 342.329803,512.753113 343.986389,510.487793   C344.871613,509.277344 345.761749,508.069824 346.677032,506.882050   C364.348450,483.950195 387.137299,473.039734 416.334106,477.393402   C436.917450,480.462677 452.570770,491.431305 464.811096,507.861572   C466.741730,510.453125 468.365448,515.123230 472.707031,512.442017   C477.349030,509.575317 473.876343,506.116028 472.077179,503.058563   C471.908875,502.772583 471.720795,502.495331 471.516602,502.233765   C460.091064,487.601074 446.218475,476.470520 428.076080,471.129028   C405.405548,464.454376 384.045685,467.146210 363.269806,479.817627  M391.671875,496.239746   C388.380219,497.399841 385.015686,498.388580 381.810242,499.751465   C371.246277,504.243042 362.991516,511.611969 356.803284,521.139099   C355.790619,522.698059 356.893158,525.631042 357.018066,527.928955   C359.303864,527.244019 361.615662,526.630859 363.855347,525.818787   C364.354828,525.637756 364.562408,524.727722 364.969147,524.203613   C376.628296,509.179230 391.666443,501.491913 410.899841,503.884247   C425.930664,505.753845 437.431793,513.731079 446.189087,525.902649   C447.812683,528.159180 449.713226,530.304382 452.773773,528.316956   C455.696045,526.419373 455.111786,523.869507 453.453217,521.380554   C440.332977,501.691406 415.649200,490.456024 391.671875,496.239746  M544.806152,571.618225   C537.349426,558.633667 530.092102,545.527710 522.306030,532.743713   C520.164612,529.227783 516.844055,526.051514 513.362122,523.810913   C506.511078,519.402405 497.390808,520.808899 490.637573,526.467285   C484.682098,531.457275 482.750092,539.500244 485.681244,547.256836   C488.033539,553.481506 490.367920,559.713806 492.811707,565.902649   C498.965851,581.487976 504.688232,597.269409 511.524475,612.551453   C516.753784,624.241272 532.246826,628.846191 543.108887,623.347412   C557.835205,615.892395 559.715149,599.606384 554.549500,589.289368   C551.649597,583.497681 548.298645,577.931824 544.806152,571.618225  M155.484222,667.100342   C155.632523,667.748718 155.612152,668.512329 155.961243,669.023621   C156.948853,670.470154 158.087830,671.813354 159.167191,673.197266   C160.088226,671.846008 161.399460,670.615295 161.860825,669.121948   C163.599808,663.493347 165.062271,657.779297 166.628281,652.097229   C168.004852,653.652344 168.453522,655.150269 168.855621,656.660645   C170.137619,661.476440 171.327621,666.319031 172.744064,671.094604   C172.992706,671.932800 174.074341,672.844055 174.939056,673.065063   C175.499954,673.208435 176.830826,672.294312 177.023605,671.625488   C179.387466,663.423889 181.604630,655.180054 183.859741,646.947144   C183.114914,646.667786 182.370087,646.388367 181.625259,646.108948   C177.880692,652.018066 178.284058,659.705261 174.959579,666.691406   C173.277054,660.513245 171.954773,655.071899 170.236404,649.758728   C169.805344,648.425903 168.102356,647.504517 166.983948,646.394043   C166.005722,647.496887 164.540985,648.445496 164.133881,649.729431   C162.411926,655.159973 161.004608,660.690308 159.482300,666.184143   C157.201599,660.784302 156.091263,655.349487 154.632095,650.010010   C154.238113,648.568298 152.786667,647.415466 151.820602,646.130005   C151.336838,646.463867 150.853058,646.797729 150.369293,647.131592   C151.991714,653.538757 153.614136,659.945984 155.484222,667.100342  M533.039795,647.112000   C532.270081,647.752747 530.842651,648.381348 530.830566,649.036133   C530.678467,657.277954 530.730713,665.523560 530.730713,674.022888   C536.797729,674.022888 542.270447,674.088074 547.738342,673.955444   C548.599915,673.934631 549.439758,673.018250 550.289612,672.515869   C549.468079,671.980713 548.661865,671.012512 547.822571,670.983032   C543.415527,670.828064 539.000183,670.910461 534.429443,670.910461   C534.429443,667.593384 534.429443,664.981079 534.429443,662.388245   C539.161987,660.812317 544.542542,663.380249 548.765564,659.714050   C546.088318,658.730042 543.515076,658.731201 540.941772,658.729858   C533.421021,658.725952 533.092651,658.288330 535.047058,650.642212   C539.961731,650.357788 544.946716,650.069336 549.931702,649.780884   C549.903137,648.887024 549.874573,647.993225 549.846008,647.099365   C544.546692,647.099365 539.247375,647.099365 533.039795,647.112000  M443.411652,656.704895   C444.204803,658.367615 445.463867,659.970520 445.687073,661.706482   C446.066162,664.655518 445.628784,667.702087 445.877197,670.679077   C445.971466,671.808594 447.013367,672.858948 447.623352,673.945374   C448.111237,672.885681 448.941315,671.851868 449.023834,670.761536   C449.286926,667.283997 448.823486,663.685608 449.568512,660.340393   C449.902740,658.839722 452.441162,657.829956 453.979370,656.597412   C454.989838,658.040466 456.673584,659.396484 456.873474,660.944214   C457.317810,664.384644 456.873016,667.931213 457.115387,671.411865   C457.184845,672.409790 458.365326,673.330383 459.036407,674.286438   C459.500580,674.055176 459.964783,673.823853 460.428986,673.592590   C460.428986,669.785278 460.763123,665.938416 460.317932,662.183899   C459.991119,659.427490 459.379852,655.428345 457.563965,654.447266   C455.280731,653.213806 451.639465,654.494019 448.584198,654.689575   C448.573700,654.636108 448.563232,654.582642 448.552734,654.529175   C444.103912,654.529175 439.655090,654.529175 434.528229,654.529175   C434.528229,660.202698 434.476471,666.128601 434.601593,672.050781   C434.615356,672.702881 435.642487,673.333557 436.199615,673.974182   C436.760406,673.323853 437.764893,672.700317 437.806091,672.018555   C437.996765,668.864929 437.862000,665.693481 437.955170,662.531677   C438.045044,659.480713 438.808105,656.848877 443.411652,656.704895  M656.054749,653.415894   C654.464111,654.242371 652.653809,654.826599 651.369934,655.991333   C650.662659,656.632996 650.840210,658.249939 650.618835,659.427246   C651.687195,659.120056 652.787292,658.893005 653.816406,658.486633   C655.279663,657.908875 656.759949,656.567383 658.105713,656.714722   C659.601379,656.878479 660.954041,658.347961 662.368958,659.248962   C661.169800,660.102478 660.064453,661.172485 658.743530,661.745117   C657.562256,662.257080 656.130859,662.161926 654.831543,662.437256   C651.027649,663.243286 648.759827,665.462830 649.529236,669.493286   C650.263733,673.340271 653.297058,674.266602 656.778381,674.009705   C659.832520,673.784241 662.876831,673.426025 665.876160,673.131287   C665.876160,669.862549 665.882263,666.083496 665.874878,662.304504   C665.860168,654.715515 664.492798,653.350342 656.054749,653.415894  M184.882233,667.551575   C185.211243,672.468201 188.475403,673.442200 192.556137,673.159363   C195.485184,672.956421 198.402100,672.578857 201.262634,672.285522   C201.262634,668.393616 201.184723,663.951965 201.285156,659.514343   C201.380569,655.298401 199.576538,652.951477 195.263809,652.589355   C189.534988,652.108215 186.800171,653.778442 185.474442,660.222351   C187.697067,658.548157 188.738998,657.267517 190.038925,656.900452   C191.986069,656.350525 194.137405,656.204529 196.152618,656.398621   C196.802032,656.461121 197.296082,658.137146 197.861206,659.075073   C196.318665,659.765564 194.836746,660.713623 193.221191,661.093750   C189.678299,661.927246 185.740723,661.987915 184.882233,667.551575  M226.627914,669.645447   C222.229996,670.694458 219.654388,669.170349 219.014053,663.995605   C223.726166,663.995605 228.135635,663.995605 232.500290,663.995605   C232.973221,657.371216 230.509491,653.432617 225.739746,652.655151   C220.883774,651.863708 216.878677,654.599670 215.738403,659.487366   C214.282486,665.728027 216.665970,671.377991 221.380844,672.862549   C226.388992,674.439392 230.348938,672.490051 231.584885,666.349426   C230.135223,667.308960 228.685577,668.268555 226.627914,669.645447  M562.195679,661.083740   C562.295715,663.223328 562.082397,665.436279 562.562683,667.486816   C563.493713,671.461426 566.226196,673.722046 570.336060,674.007385   C574.537354,674.299072 577.654785,672.705505 578.874268,667.987000   C577.483887,667.902100 576.351929,668.426636 575.175354,668.816956   C573.275452,669.447021 571.099365,670.817261 569.497253,670.339966   C567.821228,669.840637 566.684998,667.529541 565.312805,666.010376   C565.595276,665.585632 565.877747,665.160828 566.160217,664.736084   C570.552551,664.736084 574.944824,664.736084 579.305847,664.736084   C579.464783,658.021851 577.343445,654.508728 572.818176,653.436401   C568.188721,652.339417 564.648621,654.656189 562.195679,661.083740  M375.695251,670.594116   C381.526825,676.063354 387.540894,675.201904 391.508331,666.992554   C389.271362,667.894043 387.891785,668.113647 386.965088,668.880493   C382.523895,672.555969 378.818390,671.173584 377.592102,664.837158   C382.091766,664.837158 386.513458,664.837158 390.881592,664.837158   C391.379761,657.606934 388.212402,653.305908 382.708344,653.234863   C377.384125,653.166138 373.742401,657.333557 373.910675,663.688171   C373.966187,665.784668 374.765289,667.861450 375.695251,670.594116  M346.111786,668.193359   C347.769440,672.507568 351.026672,674.352417 355.498291,673.988831   C359.061951,673.698975 361.623016,671.979614 362.986267,667.067871   C360.958221,667.828674 359.643860,667.989380 358.783722,668.699951   C354.219299,672.470764 350.769653,671.351257 349.152679,664.793335   C353.803192,664.793335 358.295929,664.793335 362.751068,664.793335   C362.839600,657.378052 359.832733,653.392761 354.572266,653.228882   C349.114044,653.058899 345.410431,657.408142 345.477936,663.990356   C345.489746,665.142212 345.755920,666.291504 346.111786,668.193359  M423.814636,653.499451   C419.616577,652.649780 416.014252,653.773376 414.052338,657.624573   C411.811218,662.023743 411.826263,666.738892 414.819275,670.853027   C418.305298,675.644775 426.238983,674.957764 429.239868,669.826660   C432.541809,664.180725 430.453857,656.996643 423.814636,653.499451  M338.953522,660.514038   C338.953522,657.268005 338.953522,654.022034 338.953522,650.352783   C341.678864,650.352783 343.672424,650.508484 345.617737,650.270325   C346.321350,650.184204 346.909485,649.154663 347.550354,648.555603   C346.978485,648.065735 346.414459,647.161255 345.833496,647.150330   C340.014587,647.040161 334.192200,647.035950 328.373016,647.133728   C327.769348,647.143860 327.180023,648.005920 326.584045,648.472656   C327.198669,649.093506 327.761169,650.172729 328.437714,650.249695   C330.506897,650.485046 332.619934,650.335205 335.129730,650.335205   C335.129730,657.858154 335.053650,664.655396 335.224030,671.446472   C335.245819,672.315369 336.551086,673.152100 337.261749,674.003723   C337.819427,673.162354 338.807068,672.346252 338.858459,671.475037   C339.053986,668.159546 338.947266,664.826233 338.953522,660.514038  M583.087280,657.889465   C582.844849,660.994324 582.085876,664.167236 582.483948,667.187744   C583.048523,671.472168 586.065247,673.898315 590.443665,674.010437   C594.761169,674.121094 597.607849,672.046875 599.075867,666.034485   C596.898865,667.175537 595.495728,667.476135 594.824585,668.343323   C592.713623,671.070618 590.361938,671.814026 587.576843,669.650940   C584.898804,667.570923 584.614319,660.591675 587.137939,658.156921   C589.622192,655.760132 592.084106,655.977356 594.444153,658.641663   C595.025574,659.297974 596.302979,659.337830 597.260376,659.661133   C597.194702,658.511108 597.542114,657.089355 596.994263,656.256531   C594.064148,651.802307 587.926086,652.293396 583.087280,657.889465  M634.625000,666.057190   C634.783081,663.938416 634.514648,661.670288 635.192566,659.733459   C636.410278,656.254639 639.928101,655.679016 642.848083,657.900879   C643.887695,658.691956 645.403564,658.857117 646.702026,659.307983   C646.132141,657.892517 645.920288,656.116089 644.925354,655.128967   C641.906555,652.133728 636.190491,652.734558 633.287354,656.069031   C629.828796,660.041504 630.344910,668.830750 634.227112,672.073792   C637.723145,674.994141 643.053650,674.670776 645.908203,671.353577   C646.231262,670.978088 646.672180,670.572998 646.738342,670.133545   C646.891968,669.111633 646.849976,668.060364 646.887268,667.020996   C645.857910,667.414612 644.519287,667.523376 643.850708,668.249268   C640.186768,672.227295 637.777039,671.916138 634.625000,666.057190  M397.715820,655.151794   C393.738831,659.089417 393.633698,664.085449 395.544250,668.561462   C396.557770,670.935974 399.943146,673.333313 402.537598,673.690979   C404.878571,674.013611 407.696899,671.725830 410.079071,670.229980   C410.600830,669.902405 410.167633,668.054077 410.174194,666.906067   C409.240021,667.268494 407.872742,667.359009 407.445374,668.039673   C405.406647,671.286560 402.900360,671.851807 399.963745,669.552063   C397.305084,667.470276 397.103546,660.376892 399.653595,658.074341   C402.147034,655.822815 404.645630,655.889648 406.977783,658.650085   C407.539917,659.315430 408.838104,659.359009 409.797821,659.688477   C409.720947,658.529358 410.089691,657.010010 409.492645,656.271362   C406.346802,652.379517 402.455231,652.462585 397.715820,655.151794  M209.731293,659.793640   C210.774811,658.013855 211.818329,656.234009 212.399246,655.243225   C211.017303,652.335327 209.875824,649.933472 208.295212,646.607605   C206.714081,649.604858 205.290543,652.303406 204.483643,653.833008   C205.201324,657.086853 205.849472,659.144287 206.066467,661.246216   C206.304138,663.548462 206.039368,665.897949 206.178497,668.215759   C206.465408,672.995483 207.982391,673.892639 211.830536,672.735901   C211.101807,668.564941 210.414597,664.631714 209.731293,659.793640  M607.066711,654.007385   C606.114197,652.095642 605.161743,650.183899 604.089600,648.031982   C603.434082,648.621948 602.115417,649.282227 602.147766,649.867798   C602.317200,652.928162 598.858887,655.290527 601.578979,659.213867   C603.291504,661.683899 601.732910,666.293579 602.020935,669.913269   C602.346680,674.007263 604.900757,674.947266 608.626038,672.686829   C607.485352,671.129272 605.297241,669.495850 605.401123,668.024292   C605.690491,663.925781 602.677124,658.767639 608.364319,655.928772   C608.435242,655.893433 607.992798,654.829712 607.066711,654.007385  M240.000229,659.234436   C241.205719,658.134583 242.363678,656.975525 243.633713,655.955994   C244.455780,655.296082 245.441742,654.840210 246.354263,654.292908   C245.285202,653.722168 244.194229,652.642029 243.151642,652.686829   C240.988586,652.779907 238.851212,653.470154 236.123077,654.035095   C236.123077,659.414368 236.055008,665.011047 236.194382,670.602539   C236.215973,671.468506 237.187576,672.310852 237.719849,673.164124   C238.393707,672.291077 239.577347,671.458618 239.650681,670.537781   C239.926773,667.071472 239.841278,663.576294 240.000229,659.234436  M367.038330,654.642578   C367.040497,660.108521 366.958710,665.577026 367.121704,671.038147   C367.151306,672.028992 368.183258,672.989868 368.752472,673.964600   C369.317749,672.988098 370.345093,672.024231 370.372162,671.033020   C370.530396,665.239990 370.608429,659.434448 370.377869,653.646545   C370.291595,651.480469 369.302429,649.350342 368.724915,647.203857   C368.162720,649.366150 367.600525,651.528503 367.038330,654.642578  M557.969727,659.513062   C557.969604,656.536743 558.133606,653.546692 557.887512,650.590881   C557.790833,649.429626 556.776672,648.344788 556.180420,647.225159   C555.656372,648.253967 554.698303,649.274414 554.678467,650.312805   C554.546021,657.255005 554.545898,664.202515 554.695496,671.144104   C554.715942,672.094788 555.805420,673.022400 556.400024,673.960693   C556.921692,672.946899 557.835876,671.954773 557.893250,670.915344   C558.084412,667.453430 557.968201,663.974548 557.969727,659.513062  M612.008118,657.014771   C612.008728,661.667786 611.900024,666.325317 612.089294,670.970642   C612.134949,672.092163 613.166626,673.173462 613.744873,674.273254   C614.320557,674.051086 614.896179,673.828918 615.471802,673.606750   C615.471802,669.639771 615.266846,665.658386 615.544495,661.710938   C615.726807,659.118408 616.061646,656.121216 620.134949,656.757019   C620.703979,656.845825 621.577759,656.183838 621.978760,655.629517   C622.173096,655.360840 621.751587,654.374268 621.345642,653.992676   C619.866882,652.602478 613.395447,654.142517 612.008118,657.014771  M674.193359,659.511658   C674.190430,656.186035 674.305054,652.853149 674.099182,649.540161   C674.049622,648.743286 672.936951,648.012512 672.313232,647.251343   C671.849426,647.996948 670.992737,648.737305 670.982666,649.488953   C670.884766,656.803955 670.876343,664.121704 671.002319,671.435913   C671.017090,672.291382 671.996643,673.130249 672.528992,673.976807   C673.079163,673.143616 674.061646,672.331909 674.104309,671.473511   C674.285706,667.824158 674.188721,664.160950 674.193359,659.511658  M627.765320,671.983948   C627.774109,666.865112 627.883850,661.742676 627.696899,656.630981   C627.663940,655.731201 626.389526,654.876831 625.688416,654.001526   C625.158508,654.871643 624.196289,655.729065 624.170288,656.613953   C624.024963,661.563477 624.032104,666.521118 624.137634,671.472778   C624.199524,674.378296 625.378174,675.167419 627.765320,671.983948  z"/>
<path fill="#0D0804" opacity="1.000000" stroke="none" d=" M313.077850,393.993805   C312.952423,390.908325 312.285309,387.729431 312.798553,384.754120   C314.684113,373.823669 316.829712,362.932953 319.123413,352.079285   C322.252594,337.271942 325.684875,322.528870 328.848267,307.728516   C335.071350,278.613007 341.211670,249.479782 347.330414,220.342163   C347.665466,218.746521 348.029388,216.823166 347.458740,215.429504   C345.125275,209.730194 346.917633,204.782471 349.343750,199.659378   C361.888000,173.170120 374.133270,146.537994 386.835266,120.125214   C393.231293,106.825119 403.532806,99.236832 419.122314,100.643173   C423.868652,101.071350 424.237274,99.704765 423.672577,95.080673   C422.793304,87.880379 421.929901,80.477165 422.675629,73.328506   C423.687012,63.633202 434.911224,55.185440 444.631378,54.617031   C460.880096,53.666855 471.361145,65.238052 472.019928,77.564926   C473.004913,95.996658 464.125488,108.023232 447.649994,109.922241   C441.461578,110.635536 440.962097,112.180687 442.697296,118.119560   C444.966125,125.884888 447.055145,133.829300 447.970764,141.839630   C450.671509,165.467239 452.657196,189.175873 455.193756,212.823730   C455.552826,216.171143 457.101227,219.518875 458.657837,222.582626   C461.663910,228.499481 465.585785,234.001724 468.087799,240.102448   C469.322021,243.111893 469.129242,247.392563 467.999268,250.527481   C466.232239,255.429855 466.120789,260.042511 466.435974,265.146973   C467.192627,277.403259 467.066193,289.712036 467.407135,301.996552   C467.877289,318.935181 468.667389,335.868073 468.890533,352.809113   C469.010284,361.899200 468.230713,371.001129 467.576019,380.733643   C466.233948,384.019714 465.172791,386.669891 463.914490,389.603210   C455.026520,395.655792 445.317627,392.612030 436.015045,393.017029   C435.348938,393.046021 434.670013,392.138275 433.953156,391.746307   C428.722107,388.886139 426.075104,384.507935 426.821472,378.468231   C423.675934,378.130890 421.210236,377.875427 418.746857,377.599731   C416.270416,377.322510 413.802612,376.921143 411.319092,376.767151   C409.016907,376.624420 406.698883,376.736694 404.387848,376.736694   C405.441437,378.266724 406.490753,378.691101 407.549652,379.090027   C413.398773,381.293671 415.123199,383.973297 414.558655,389.997955   C414.031677,395.621643 409.343323,399.464081 401.510468,400.946838   C399.708801,401.287872 398.018463,402.217194 395.840668,402.930634   C389.395111,403.204132 383.385742,403.422760 377.224121,403.372528   C366.463928,400.680725 366.468384,400.680786 366.593323,388.826385   C366.618744,386.412964 366.596985,383.999023 366.596985,381.051056   C363.653076,381.872437 361.400909,382.500824 358.921783,383.192535   C363.166748,388.667755 359.758881,396.550720 355.276703,398.725525   C352.411499,400.115723 348.852448,400.716064 345.636841,400.617340   C337.741882,400.374969 329.865662,399.523071 321.952087,398.552673   C320.566742,393.432953 316.495728,394.401886 313.077850,393.993805  M413.849579,155.701721   C413.306091,153.781097 412.354492,151.867737 412.320190,149.938080   C412.275177,147.403503 412.952698,144.856079 413.319489,142.314194   C414.993469,144.306351 416.670166,146.296249 418.334442,148.296524   C418.431000,148.412537 418.426331,148.612915 418.468445,148.774109   C424.988220,173.716705 431.545624,198.649612 437.996643,223.610001   C439.327118,228.757919 440.081696,234.057785 441.493774,239.179504   C441.884766,240.597626 443.500458,242.096909 444.911865,242.655975   C445.743073,242.985168 448.158783,241.735748 448.354004,240.860107   C449.735596,234.663391 452.946564,228.539505 449.453552,221.973175   C448.546204,220.267487 448.171967,218.163101 447.994324,216.201859   C445.820679,192.205261 443.825439,168.192108 441.545227,144.205933   C441.012848,138.605881 440.158356,132.906815 438.445648,127.576706   C435.288666,117.752220 429.037811,110.615700 418.101044,109.490562   C406.101105,108.256050 398.834320,112.367340 393.241882,123.746712   C384.290710,141.960449 375.648804,160.327011 366.968872,178.672806   C363.552582,185.893387 360.321747,193.204086 357.132263,200.528534   C355.577484,204.098953 355.083679,208.372498 358.410339,210.661011   C368.112183,217.335144 378.083679,223.667862 388.313049,229.496338   C391.758026,231.459229 395.608490,230.409042 397.646149,225.815079   C400.339447,219.742874 403.469147,213.859940 406.520660,207.952164   C409.421753,202.335632 412.178009,196.613083 415.524048,191.266388   C418.868439,185.922256 421.526154,180.903275 419.066498,174.250336   C416.939453,168.497116 415.697968,162.416504 413.849579,155.701721  M398.751648,284.469482   C398.655457,298.796936 398.518127,313.124237 398.476013,327.451843   C398.441742,339.107361 398.468475,350.763794 398.600616,362.418304   C398.623871,364.467224 397.531036,367.426483 401.371613,367.644531   C409.624939,368.113068 417.875641,368.627502 426.343445,369.136139   C426.474457,368.369965 426.732635,367.582275 426.725433,366.796997   C426.502350,342.482819 426.213135,318.169189 426.030121,293.854736   C425.966583,285.416687 425.518219,276.906403 426.438354,268.560608   C427.135162,262.240387 427.203796,256.532196 424.474396,250.616150   C421.979065,245.207458 423.071350,239.831268 427.145721,237.599503   C432.879608,234.458710 432.895020,230.180023 431.338959,224.904694   C428.606140,215.640060 426.039093,206.326614 423.365784,197.044220   C423.044342,195.928162 422.494293,194.877930 421.685150,192.908737   C419.694489,197.570969 418.333252,201.304962 416.550537,204.825485   C412.260864,213.296631 407.815735,221.690186 403.353455,230.072510   C399.515717,237.281799 397.420502,244.841858 397.790131,253.092850   C398.244446,263.234467 398.456390,273.386963 398.751648,284.469482  M433.272278,281.847260   C433.349304,296.337616 433.446716,310.827942 433.496429,325.318390   C433.531281,335.468689 433.378784,345.621246 433.550903,355.768738   C433.637817,360.893707 432.875702,366.773773 435.130951,370.858398   C436.610779,373.538605 442.802765,373.610352 446.879517,374.866302   C448.938049,375.500458 450.961853,376.262390 453.044342,376.800049   C455.535706,377.443237 458.073029,377.908478 461.043884,378.548462   C461.184662,376.455475 461.365906,375.003998 461.366760,373.552429   C461.373962,361.094086 461.414276,348.635193 461.317871,336.177490   C461.164825,316.401093 461.013855,296.623444 460.615723,276.851288   C460.540985,273.139587 459.681519,269.331299 458.525513,265.782104   C457.059692,261.281586 456.784637,257.149078 459.033905,252.815231   C460.074341,250.810577 460.687469,248.424225 460.823090,246.170532   C460.903168,244.840195 459.670197,243.430832 459.027710,242.056992   C457.958954,243.099243 456.204803,243.992035 455.939301,245.209457   C454.745392,250.684616 450.962311,251.727219 446.234406,251.605621   C444.070343,251.549957 441.897308,251.700256 439.739746,251.569565   C437.082977,251.408615 435.876160,252.317398 435.662476,255.179153   C435.020905,263.770264 434.098450,272.340424 433.272278,281.847260  M372.267456,347.196655   C372.523132,353.994537 372.632904,360.804108 373.177551,367.578766   C373.268768,368.713348 375.271118,370.613586 376.346405,370.583588   C380.116730,370.478455 383.864380,369.294434 387.627228,369.260895   C391.428284,369.227051 391.975586,367.439423 391.890045,364.286957   C391.491028,349.576233 391.208313,334.862244 390.917358,320.148743   C390.713928,309.863312 390.456909,299.577148 390.417694,289.290619   C390.367828,276.217590 390.690643,263.140717 390.462189,250.072342   C390.398071,246.405853 390.174133,241.412628 387.911011,239.380142   C382.560394,234.574814 376.101440,230.894028 369.755341,227.360779   C367.218323,225.948273 364.481171,226.877975 364.731995,230.966766   C364.935059,234.276978 364.621338,237.621338 364.866760,240.926071   C365.992584,256.086975 367.327942,271.232666 368.400726,286.397064   C369.088470,296.118774 369.358765,305.869385 369.983765,315.596283   C370.641022,325.825928 371.497864,336.042725 372.267456,347.196655  M326.317963,389.006073   C327.480255,388.363007 328.575500,387.511810 329.816223,387.112152   C335.951599,385.135681 338.747620,381.928802 340.415649,374.706055   C345.555847,352.448242 352.784119,330.676880 359.012146,308.663055   C360.579803,303.121948 362.565308,297.351807 362.421021,291.736694   C361.929932,272.625305 360.633636,253.532440 359.464844,234.443527   C359.329010,232.224991 358.068115,230.075348 357.328796,227.893784   C356.571320,227.822845 355.813812,227.751923 355.056335,227.681000   C353.783325,230.671982 352.000427,233.551178 351.316559,236.671295   C344.768280,266.546204 338.376923,296.455627 332.006592,326.369263   C329.982056,335.875885 328.239441,345.442566 326.213409,354.948853   C324.356323,363.662384 322.152618,372.303772 320.400635,381.036957   C319.864838,383.707794 320.317505,386.576965 320.317505,389.904907   C322.457581,389.704529 324.049561,389.555481 326.317963,389.006073  M461.869629,75.011261   C457.462067,66.412994 449.268860,62.820068 440.268524,65.538696   C433.436523,67.602348 429.759247,74.657188 430.546875,84.189384   C431.192261,91.999771 435.632050,97.645264 442.217194,99.028946   C451.348328,100.947594 457.830933,99.002586 460.633392,91.646141   C462.452179,86.871880 461.679047,81.110237 461.869629,75.011261  M354.770813,346.752716   C352.426361,354.181946 350.035187,361.597076 347.784424,369.054596   C347.416565,370.273438 347.497620,371.701904 347.668945,372.994019   C348.032562,375.735931 349.146606,377.187012 352.355499,375.962189   C355.437225,374.785858 358.690918,373.987946 361.929596,373.315155   C365.208771,372.633972 366.545959,371.219330 366.278748,367.561279   C365.289795,354.023865 364.713776,340.456848 363.874512,326.907593   C363.653290,323.336060 363.043396,319.788574 362.611969,316.230042   C360.386047,321.985535 359.337677,327.651398 358.139343,333.285339   C357.234741,337.538300 356.138397,341.750488 354.770813,346.752716  M401.217773,385.237366   C396.217255,383.778107 390.532074,383.266144 389.574829,375.931335   C384.083313,376.705414 378.970490,377.426117 373.748596,378.162201   C373.748596,382.462769 373.347900,386.164764 373.889496,389.723358   C374.250214,392.093475 375.494843,395.762695 377.135162,396.264709   C385.819397,398.922302 394.747437,399.427887 403.029541,394.759552   C404.615753,393.865417 406.084839,391.222839 406.021515,389.443359   C405.973145,388.083832 403.419617,386.813385 401.217773,385.237366  M336.794647,396.293396   C340.708344,395.925964 344.668732,395.814911 348.521667,395.113678   C351.874573,394.503357 353.472290,391.704681 351.973480,388.848419   C351.155579,387.289764 347.938690,385.878815 346.113556,386.194183   C342.457703,386.825958 338.933136,388.516144 335.519592,390.120819   C333.900757,390.881805 332.661743,392.450745 331.250641,393.653595   C332.800018,394.516602 334.349365,395.379608 336.794647,396.293396  M448.368469,381.580566   C444.128845,380.956451 439.889221,380.332367 435.030304,379.617096   C437.614838,384.863586 446.296631,385.851715 448.368469,381.580566  z"/>
<path fill="#0B0601" opacity="1.000000" stroke="none" d=" M312.842682,394.304688   C316.495728,394.401886 320.566742,393.432953 321.725525,398.822998   C320.040253,400.459106 318.551727,401.461182 317.063171,402.463257   C333.201660,403.417145 348.892578,403.401550 364.583374,403.427429   C368.847839,403.434448 373.112061,403.566620 377.376404,403.641357   C383.385742,403.422760 389.395111,403.204132 396.291138,402.908813   C428.092346,402.832123 459.006866,402.832123 489.921356,402.832123   C490.015411,402.540802 490.109436,402.249481 490.203461,401.958130   C482.462677,397.931213 474.721863,393.904297 466.717834,389.704559   C465.843964,389.388397 465.233337,389.245056 464.522156,389.219971   C464.421600,389.338287 464.111633,389.320068 464.111633,389.320068   C465.172791,386.669891 466.233948,384.019714 467.602509,381.204376   C479.889618,387.781250 491.834717,394.586182 503.882294,401.204559   C505.933563,402.331390 508.420746,403.250244 510.712494,403.263763   C535.372864,403.409424 560.034851,403.258636 584.695435,403.377228   C617.658447,403.535736 650.620605,403.859467 683.583069,404.119507   C684.549561,404.127106 685.515381,404.216797 686.735413,404.281769   C686.735413,406.501526 686.735413,408.439850 686.735413,410.910339   C630.500183,410.910339 574.128174,410.910339 516.202087,410.910339   C520.745483,415.479614 524.430176,418.880066 527.756165,422.601135   C532.839294,428.287964 537.676147,434.195038 542.610840,440.014221   C542.824219,440.265900 542.944214,440.595764 543.152588,440.852814   C545.123291,443.284027 545.429016,445.751099 542.850525,447.861877   C539.776611,450.378174 537.865234,447.672791 536.212158,445.798706   C532.807007,441.938354 529.989807,437.531616 526.405029,433.863373   C519.451904,426.748199 512.213989,419.902863 504.897583,413.158997   C503.586670,411.950653 501.335236,411.218567 499.508484,411.199829   C484.524200,411.045929 469.537628,411.112976 454.162872,411.983307   C458.739075,414.237671 463.349274,416.425903 467.885773,418.757507   C491.505615,430.897186 509.950867,448.716278 524.555176,470.685272   C527.160339,474.604248 525.144958,477.733704 519.735901,478.649231   C496.920929,442.398315 465.358643,418.947906 422.414917,412.372284   C372.762177,404.769379 319.796234,429.456329 293.796875,472.096130   C293.450134,472.664795 292.743683,473.239502 292.775543,473.777618   C293.003174,477.622681 290.870789,478.863098 287.811615,477.510162   C284.370178,475.988159 283.481628,472.940063 285.669708,469.641479   C288.690918,465.086914 291.660309,460.461884 295.087860,456.219269   C310.626862,436.985291 329.557098,422.200104 352.669037,413.022156   C353.412231,412.726990 354.102112,412.297577 354.818512,411.110840   C353.465118,411.110840 352.111755,411.110748 350.758392,411.110840   C337.428009,411.111908 324.091797,411.336914 310.770447,410.990570   C306.209595,410.872009 302.608948,412.117737 299.646881,415.217438   C290.695190,424.585083 281.800507,434.010132 273.051880,443.566833   C270.910797,445.905640 268.901978,448.692352 265.723602,446.256042   C262.610138,443.869568 264.231720,440.935028 266.349335,438.458832   C274.004730,429.507294 281.652039,420.548889 289.540924,411.313843   C226.659988,411.313843 163.545609,411.313843 100.213501,411.313843   C100.213501,408.707611 100.213501,406.766327 100.213501,404.526093   C101.297684,404.390717 102.406578,404.139221 103.517487,404.129974   C136.310333,403.856506 169.103012,403.522003 201.896500,403.379578   C230.389664,403.255829 258.895996,402.877991 287.370911,403.609253   C297.473541,403.868713 305.399841,400.999908 312.842682,394.304688  z"/>
<path fill="#140B04" opacity="1.000000" stroke="none" d=" M284.989990,638.984070   C266.232117,648.955383 245.193527,645.896301 231.417404,631.419922   C217.492950,616.787659 215.114212,595.065979 226.450653,577.482117   C238.171814,559.301514 250.366165,541.402466 262.962036,523.816101   C274.766327,507.334991 296.058655,502.971008 312.757324,512.753357   C329.449127,522.531738 335.488342,542.368103 327.603241,561.080139   C320.297607,578.416870 313.215118,595.848022 305.867767,613.166870   C301.441315,623.600769 295.497437,632.935913 284.989990,638.984070  M247.884949,554.446716   C246.507095,556.533203 245.129242,558.619690 243.751389,560.706116   C258.019196,555.769531 271.422119,555.815491 284.329437,563.077209   C297.148560,570.289246 304.197021,581.671204 306.785614,597.145386   C313.550751,581.904785 320.659210,568.168945 325.778839,553.728027   C331.091492,538.742798 322.717926,522.191528 308.235962,515.436035   C293.922333,508.759064 276.704773,513.224548 267.692505,526.015564   C261.179749,535.259033 254.743790,544.556580 247.884949,554.446716  M254.590851,639.206787   C271.709015,642.787109 287.998657,635.857666 296.643890,621.317932   C304.940186,607.365051 303.534485,589.376526 293.176605,576.946472   C282.502106,564.136536 265.288971,559.543640 249.796066,565.371460   C233.970703,571.324341 224.183365,586.350952 224.856979,603.660706   C225.503693,620.279358 236.596085,633.845520 254.590851,639.206787  z"/>
<path fill="#0A0702" opacity="1.000000" stroke="none" d=" M450.812866,446.347870   C466.795898,453.492554 479.547577,464.199036 490.456909,477.221008   C493.225891,480.526184 495.738007,484.057587 498.216461,487.591461   C500.001312,490.136261 500.647461,493.053284 497.653992,495.031952   C494.654358,497.014679 492.657440,494.689972 491.117920,492.411713   C477.988831,472.982269 460.800476,458.659088 438.677521,450.484161   C415.030151,441.745880 391.440125,442.003906 367.998810,451.146545   C347.380280,459.188324 331.415833,473.032715 319.000427,491.171814   C317.351196,493.581329 315.480408,496.302673 312.221405,494.111969   C308.963226,491.921753 310.155762,488.958313 311.978180,486.250702   C325.960114,465.477997 344.480988,450.135620 368.069031,441.789642   C395.950867,431.924438 423.620056,433.254425 450.812866,446.347870  z"/>
<path fill="#0A0702" opacity="1.000000" stroke="none" d=" M363.568512,479.611450   C384.045685,467.146210 405.405548,464.454376 428.076080,471.129028   C446.218475,476.470520 460.091064,487.601074 471.516602,502.233765   C471.720795,502.495331 471.908875,502.772583 472.077179,503.058563   C473.876343,506.116028 477.349030,509.575317 472.707031,512.442017   C468.365448,515.123230 466.741730,510.453125 464.811096,507.861572   C452.570770,491.431305 436.917450,480.462677 416.334106,477.393402   C387.137299,473.039734 364.348450,483.950195 346.677032,506.882050   C345.761749,508.069824 344.871613,509.277344 343.986389,510.487793   C342.329803,512.753113 340.410797,513.300964 338.031006,511.521332   C335.724976,509.796936 335.528748,507.973755 337.156616,505.544861   C344.108521,495.172119 352.502472,486.300140 363.568512,479.611450  z"/>
<path fill="#F98D00" opacity="1.000000" stroke="none" d=" M391.450134,544.037903   C392.303558,542.780640 393.156952,541.523376 394.032532,540.569946   C395.692902,539.906494 397.331085,538.939087 398.969269,537.971619   C398.969269,537.971619 398.987061,537.963684 399.224823,538.390625   C402.455200,538.672424 405.447784,538.527283 408.723267,538.594238   C415.201019,541.097351 418.439697,545.423279 419.312683,552.095215   C420.621643,562.098450 422.512177,572.025696 424.114380,582.300903   C424.073425,583.791992 424.073425,584.967285 424.073425,586.703186   C418.735107,580.408936 412.528534,577.462891 404.935150,577.417175   C397.498444,577.372498 391.438385,580.597717 385.484863,586.729675   C385.961914,582.395874 386.262451,579.602112 386.578003,576.809998   C387.701019,566.872986 388.829132,556.936584 389.955292,546.999939   C389.955292,546.999939 389.958557,546.976624 390.411987,546.998413   C391.060333,546.026123 391.255219,545.031982 391.450134,544.037903  z"/>
<path fill="#0A0702" opacity="1.000000" stroke="none" d=" M392.066833,496.139343   C415.649200,490.456024 440.332977,501.691406 453.453217,521.380554   C455.111786,523.869507 455.696045,526.419373 452.773773,528.316956   C449.713226,530.304382 447.812683,528.159180 446.189087,525.902649   C437.431793,513.731079 425.930664,505.753845 410.899841,503.884247   C391.666443,501.491913 376.628296,509.179230 364.969147,524.203613   C364.562408,524.727722 364.354828,525.637756 363.855347,525.818787   C361.615662,526.630859 359.303864,527.244019 357.018066,527.928955   C356.893158,525.631042 355.790619,522.698059 356.803284,521.139099   C362.991516,511.611969 371.246277,504.243042 381.810242,499.751465   C385.015686,498.388580 388.380219,497.399841 392.066833,496.139343  z"/>
<path fill="#261603" opacity="1.000000" stroke="none" d=" M544.978516,571.941223   C548.298645,577.931824 551.649597,583.497681 554.549500,589.289368   C559.715149,599.606384 557.835205,615.892395 543.108887,623.347412   C532.246826,628.846191 516.753784,624.241272 511.524475,612.551453   C504.688232,597.269409 498.965851,581.487976 492.811707,565.902649   C490.367920,559.713806 488.033539,553.481506 485.681244,547.256836   C482.750092,539.500244 484.682098,531.457275 490.637573,526.467285   C497.390808,520.808899 506.511078,519.402405 513.362122,523.810913   C516.844055,526.051514 520.164612,529.227783 522.306030,532.743713   C530.092102,545.527710 537.349426,558.633667 544.978516,571.941223  M493.217316,527.536499   C486.417419,533.802002 484.733551,540.978638 488.732971,549.572571   C491.398895,555.301025 493.472504,561.304932 495.817993,567.182800   C499.557892,576.555115 503.303436,585.925110 507.485626,596.395203   C513.933838,577.365112 526.186157,571.425964 545.139954,577.715332   C543.757996,575.100708 543.038086,573.650330 542.240723,572.243896   C535.340881,560.074097 528.036316,548.113403 521.637085,535.686340   C516.222595,525.171631 503.665070,520.888184 493.217316,527.536499  M545.690491,618.312378   C554.134460,610.936279 555.818359,601.911377 552.113953,591.631470   C549.411926,584.133179 540.487915,578.119751 532.209534,578.107971   C523.723511,578.095886 515.035278,583.981079 512.318604,591.581543   C508.917023,601.098145 511.638947,611.728516 519.065613,617.931885   C526.371765,624.034546 535.633728,624.333618 545.690491,618.312378  z"/>
<path fill="#221403" opacity="1.000000" stroke="none" d=" M389.548615,546.887268   C388.829132,556.936584 387.701019,566.872986 386.578003,576.809998   C386.262451,579.602112 385.961914,582.395874 385.484863,586.729675   C391.438385,580.597717 397.498444,577.372498 404.935150,577.417175   C412.528534,577.462891 418.735107,580.408936 424.073425,586.703186   C424.073425,584.967285 424.073425,583.791992 424.343079,582.174072   C425.075165,581.487610 425.537598,581.243774 426.000031,581.000000   C426.975677,586.744019 427.951324,592.488098 428.721313,598.921509   C428.632111,601.060791 428.748596,602.510681 428.865082,603.960632   C427.508148,617.459656 416.031036,626.989990 402.698883,625.688477   C388.994507,624.350586 379.253265,612.324036 381.047607,598.391724   C383.149994,582.067993 385.636871,565.793579 388.009247,549.505432   C388.146912,548.560181 388.753540,547.683289 389.548615,546.887268  M385.352203,609.778748   C390.185547,619.522644 398.409851,624.275757 408.185577,622.975037   C417.083099,621.791199 424.442688,614.803589 426.130035,605.937805   C427.817413,597.071838 424.011017,588.305725 416.433167,583.606018   C409.019348,579.008057 399.566925,579.392334 392.527405,584.577942   C384.970337,590.144775 382.304260,598.889648 385.352203,609.778748  z"/>
<path fill="#1D1000" opacity="1.000000" stroke="none" d=" M155.360382,666.726746   C153.614136,659.945984 151.991714,653.538757 150.369293,647.131592   C150.853058,646.797729 151.336838,646.463867 151.820602,646.130005   C152.786667,647.415466 154.238113,648.568298 154.632095,650.010010   C156.091263,655.349487 157.201599,660.784302 159.482300,666.184143   C161.004608,660.690308 162.411926,655.159973 164.133881,649.729431   C164.540985,648.445496 166.005722,647.496887 166.983948,646.394043   C168.102356,647.504517 169.805344,648.425903 170.236404,649.758728   C171.954773,655.071899 173.277054,660.513245 174.959579,666.691406   C178.284058,659.705261 177.880692,652.018066 181.625259,646.108948   C182.370087,646.388367 183.114914,646.667786 183.859741,646.947144   C181.604630,655.180054 179.387466,663.423889 177.023605,671.625488   C176.830826,672.294312 175.499954,673.208435 174.939056,673.065063   C174.074341,672.844055 172.992706,671.932800 172.744064,671.094604   C171.327621,666.319031 170.137619,661.476440 168.855621,656.660645   C168.453522,655.150269 168.004852,653.652344 166.628281,652.097229   C165.062271,657.779297 163.599808,663.493347 161.860825,669.121948   C161.399460,670.615295 160.088226,671.846008 159.167175,673.197266   C158.087830,671.813354 156.948853,670.470154 155.961243,669.023621   C155.612152,668.512329 155.632523,667.748718 155.360382,666.726746  z"/>
<path fill="#140B04" opacity="1.000000" stroke="none" d=" M533.493896,647.105713   C539.247375,647.099365 544.546692,647.099365 549.846008,647.099365   C549.874573,647.993225 549.903137,648.887024 549.931702,649.780884   C544.946716,650.069336 539.961731,650.357788 535.047058,650.642212   C533.092651,658.288330 533.421021,658.725952 540.941772,658.729858   C543.515076,658.731201 546.088318,658.730042 548.765564,659.714050   C544.542542,663.380249 539.161987,660.812317 534.429443,662.388245   C534.429443,664.981079 534.429443,667.593384 534.429443,670.910461   C539.000183,670.910461 543.415527,670.828064 547.822571,670.983032   C548.661865,671.012512 549.468079,671.980713 550.289673,672.515869   C549.439758,673.018250 548.599915,673.934631 547.738342,673.955444   C542.270447,674.088074 536.797729,674.022888 530.730713,674.022888   C530.730713,665.523560 530.678467,657.277954 530.830566,649.036133   C530.842651,648.381348 532.270081,647.752747 533.493896,647.105713  z"/>
<path fill="#180E00" opacity="1.000000" stroke="none" d=" M442.981140,656.634766   C438.808105,656.848877 438.045044,659.480713 437.955170,662.531677   C437.862000,665.693481 437.996765,668.864929 437.806091,672.018555   C437.764893,672.700317 436.760406,673.323853 436.199615,673.974182   C435.642487,673.333557 434.615356,672.702881 434.601593,672.050781   C434.476471,666.128601 434.528229,660.202698 434.528229,654.529175   C439.655090,654.529175 444.103912,654.529175 448.552734,654.529175   C448.563232,654.582642 448.573700,654.636108 448.584198,654.689575   C451.639465,654.494019 455.280731,653.213806 457.563965,654.447266   C459.379852,655.428345 459.991119,659.427490 460.317932,662.183899   C460.763123,665.938416 460.428986,669.785278 460.428986,673.592590   C459.964783,673.823853 459.500580,674.055176 459.036407,674.286438   C458.365326,673.330383 457.184845,672.409790 457.115387,671.411865   C456.873016,667.931213 457.317810,664.384644 456.873474,660.944214   C456.673584,659.396484 454.989838,658.040466 453.979370,656.597412   C452.441162,657.829956 449.902740,658.839722 449.568512,660.340393   C448.823486,663.685608 449.286926,667.283997 449.023834,670.761536   C448.941315,671.851868 448.111237,672.885681 447.623352,673.945374   C447.013367,672.858948 445.971466,671.808594 445.877197,670.679077   C445.628784,667.702087 446.066162,664.655518 445.687073,661.706482   C445.463867,659.970520 444.204803,658.367615 442.981140,656.634766  z"/>
<path fill="#1D1000" opacity="1.000000" stroke="none" d=" M656.450928,653.342834   C664.492798,653.350342 665.860168,654.715515 665.874878,662.304504   C665.882263,666.083496 665.876160,669.862549 665.876160,673.131287   C662.876831,673.426025 659.832520,673.784241 656.778381,674.009705   C653.297058,674.266602 650.263733,673.340271 649.529236,669.493286   C648.759827,665.462830 651.027649,663.243286 654.831543,662.437256   C656.130859,662.161926 657.562256,662.257080 658.743530,661.745117   C660.064453,661.172485 661.169800,660.102478 662.368958,659.248962   C660.954041,658.347961 659.601379,656.878479 658.105713,656.714722   C656.759949,656.567383 655.279663,657.908875 653.816406,658.486633   C652.787292,658.893005 651.687195,659.120056 650.618835,659.427246   C650.840210,658.249939 650.662659,656.632996 651.369934,655.991333   C652.653809,654.826599 654.464111,654.242371 656.450928,653.342834  M662.156433,667.554321   C661.966980,666.579346 661.777588,665.604431 661.588135,664.629517   C658.798279,665.359741 655.997070,666.055786 653.264893,666.960388   C653.168030,666.992493 653.885681,670.096008 654.005371,670.080444   C656.534241,669.753296 659.032654,669.187500 661.532349,668.646851   C661.652222,668.620911 661.729065,668.395752 662.156433,667.554321  z"/>
<path fill="#180E00" opacity="1.000000" stroke="none" d=" M184.901123,667.150635   C185.740723,661.987915 189.678299,661.927246 193.221191,661.093750   C194.836746,660.713623 196.318665,659.765564 197.861206,659.075073   C197.296082,658.137146 196.802032,656.461121 196.152618,656.398621   C194.137405,656.204529 191.986069,656.350525 190.038925,656.900452   C188.738998,657.267517 187.697067,658.548157 185.474442,660.222351   C186.800171,653.778442 189.534988,652.108215 195.263809,652.589355   C199.576538,652.951477 201.380569,655.298401 201.285156,659.514343   C201.184723,663.951965 201.262634,668.393616 201.262634,672.285522   C198.402100,672.578857 195.485184,672.956421 192.556137,673.159363   C188.475403,673.442200 185.211243,672.468201 184.901123,667.150635  M189.217499,665.459412   C189.200577,666.709656 188.926819,668.973877 189.208496,669.045166   C191.004089,669.500061 193.268127,670.152954 194.707825,669.421570   C196.327972,668.598633 197.241165,666.383972 198.461899,664.774780   C198.133133,664.391907 197.804367,664.009094 197.475616,663.626282   C194.957321,664.111389 192.439041,664.596436 189.217499,665.459412  z"/>
<path fill="#1D1000" opacity="1.000000" stroke="none" d=" M226.931915,669.436768   C228.685577,668.268555 230.135223,667.308960 231.584885,666.349426   C230.348938,672.490051 226.388992,674.439392 221.380844,672.862549   C216.665970,671.377991 214.282486,665.728027 215.738403,659.487366   C216.878677,654.599670 220.883774,651.863708 225.739746,652.655151   C230.509491,653.432617 232.973221,657.371216 232.500290,663.995605   C228.135635,663.995605 223.726166,663.995605 219.014053,663.995605   C219.654388,669.170349 222.229996,670.694458 226.931915,669.436768  M222.808884,660.919983   C224.866516,660.919983 226.924164,660.919983 228.981796,660.919983   C229.234650,660.416260 229.487488,659.912537 229.740341,659.408813   C228.167175,658.212280 226.713104,656.322693 224.985397,656.025818   C223.442459,655.760681 221.104279,656.815857 219.992599,658.066650   C217.953598,660.360718 219.697540,661.030823 222.808884,660.919983  z"/>
<path fill="#1D1000" opacity="1.000000" stroke="none" d=" M562.275208,660.683960   C564.648621,654.656189 568.188721,652.339417 572.818176,653.436401   C577.343445,654.508728 579.464783,658.021851 579.305847,664.736084   C574.944824,664.736084 570.552551,664.736084 566.160217,664.736084   C565.877747,665.160828 565.595276,665.585632 565.312805,666.010376   C566.684998,667.529541 567.821228,669.840637 569.497253,670.339966   C571.099365,670.817261 573.275452,669.447021 575.175354,668.816956   C576.351929,668.426636 577.483887,667.902100 578.874268,667.987000   C577.654785,672.705505 574.537354,674.299072 570.336060,674.007385   C566.226196,673.722046 563.493713,671.461426 562.562683,667.486816   C562.082397,665.436279 562.295715,663.223328 562.275208,660.683960  M572.250427,661.837219   C573.467468,661.686951 574.684509,661.536621 576.046021,661.368469   C575.604553,657.660156 573.456543,656.038757 570.584717,656.618713   C568.666382,657.006165 567.061584,658.946472 565.316406,660.191833   C565.589661,660.740173 565.862915,661.288574 566.136169,661.836914   C567.887817,661.836914 569.639404,661.836914 572.250427,661.837219  z"/>
<path fill="#180E00" opacity="1.000000" stroke="none" d=" M375.459839,670.270630   C374.765289,667.861450 373.966187,665.784668 373.910675,663.688171   C373.742401,657.333557 377.384125,653.166138 382.708344,653.234863   C388.212402,653.305908 391.379761,657.606934 390.881592,664.837158   C386.513458,664.837158 382.091766,664.837158 377.592102,664.837158   C378.818390,671.173584 382.523895,672.555969 386.965088,668.880493   C387.891785,668.113647 389.271362,667.894043 391.508331,666.992554   C387.540894,675.201904 381.526825,676.063354 375.459839,670.270630  M381.105377,656.618652   C379.727234,657.918091 378.349091,659.217529 376.970917,660.516968   C377.217377,660.868225 377.463806,661.219543 377.710236,661.570862   C381.009705,661.570862 384.309204,661.570862 388.009674,661.570862   C387.332184,657.685852 385.254059,656.255249 381.105377,656.618652  z"/>
<path fill="#180E00" opacity="1.000000" stroke="none" d=" M346.008179,667.817627   C345.755920,666.291504 345.489746,665.142212 345.477936,663.990356   C345.410431,657.408142 349.114044,653.058899 354.572266,653.228882   C359.832733,653.392761 362.839600,657.378052 362.751068,664.793335   C358.295929,664.793335 353.803192,664.793335 349.152679,664.793335   C350.769653,671.351257 354.219299,672.470764 358.783722,668.699951   C359.643860,667.989380 360.958221,667.828674 362.986267,667.067871   C361.623016,671.979614 359.061951,673.698975 355.498291,673.988831   C351.026672,674.352417 347.769440,672.507568 346.008179,667.817627  M355.908295,656.610168   C352.114166,656.056824 349.658936,657.260925 349.220306,661.437378   C352.811615,661.437378 356.099792,661.437378 360.694763,661.437378   C358.808655,659.309937 357.708374,658.068848 355.908295,656.610168  z"/>
<path fill="#1D1000" opacity="1.000000" stroke="none" d=" M424.185638,653.606201   C430.453857,656.996643 432.541809,664.180725 429.239868,669.826660   C426.238983,674.957764 418.305298,675.644775 414.819275,670.853027   C411.826263,666.738892 411.811218,662.023743 414.052338,657.624573   C416.014252,653.773376 419.616577,652.649780 424.185638,653.606201  M416.393707,666.703430   C419.273468,671.399658 423.616577,672.584229 425.464233,668.763977   C426.782379,666.038574 426.499420,662.158997 425.810089,659.042358   C425.558533,657.905151 421.886963,656.568848 420.095490,656.926331   C416.343201,657.675110 415.947937,661.110962 416.094513,664.428955   C416.116302,664.922913 416.182434,665.414917 416.393707,666.703430  z"/>
<path fill="#261603" opacity="1.000000" stroke="none" d=" M338.953522,661.006836   C338.947266,664.826233 339.053986,668.159546 338.858459,671.475037   C338.807068,672.346252 337.819427,673.162354 337.261749,674.003723   C336.551086,673.152100 335.245819,672.315369 335.224030,671.446472   C335.053650,664.655396 335.129730,657.858154 335.129730,650.335205   C332.619934,650.335205 330.506897,650.485046 328.437714,650.249695   C327.761169,650.172729 327.198669,649.093506 326.584045,648.472656   C327.180023,648.005920 327.769348,647.143860 328.373016,647.133728   C334.192200,647.035950 340.014587,647.040161 345.833496,647.150330   C346.414459,647.161255 346.978485,648.065735 347.550323,648.555603   C346.909485,649.154663 346.321350,650.184204 345.617737,650.270325   C343.672424,650.508484 341.678864,650.352783 338.953522,650.352783   C338.953522,654.022034 338.953522,657.268005 338.953522,661.006836  z"/>
<path fill="#221403" opacity="1.000000" stroke="none" d=" M583.273865,657.544373   C587.926086,652.293396 594.064148,651.802307 596.994263,656.256531   C597.542114,657.089355 597.194702,658.511108 597.260376,659.661133   C596.302979,659.337830 595.025574,659.297974 594.444153,658.641663   C592.084106,655.977356 589.622192,655.760132 587.137939,658.156921   C584.614319,660.591675 584.898804,667.570923 587.576843,669.650940   C590.361938,671.814026 592.713623,671.070618 594.824585,668.343323   C595.495728,667.476135 596.898865,667.175537 599.075867,666.034485   C597.607849,672.046875 594.761169,674.121094 590.443665,674.010437   C586.065247,673.898315 583.048523,671.472168 582.483948,667.187744   C582.085876,664.167236 582.844849,660.994324 583.273865,657.544373  z"/>
<path fill="#1D1000" opacity="1.000000" stroke="none" d=" M634.738281,666.470825   C637.777039,671.916138 640.186768,672.227295 643.850708,668.249268   C644.519287,667.523376 645.857910,667.414612 646.887329,667.020996   C646.849976,668.060364 646.891968,669.111633 646.738342,670.133545   C646.672180,670.572998 646.231262,670.978088 645.908203,671.353577   C643.053650,674.670776 637.723145,674.994141 634.227112,672.073792   C630.344910,668.830750 629.828796,660.041504 633.287354,656.069031   C636.190491,652.734558 641.906555,652.133728 644.925354,655.128967   C645.920288,656.116089 646.132141,657.892517 646.702026,659.307983   C645.403564,658.857117 643.887695,658.691956 642.848083,657.900879   C639.928101,655.679016 636.410278,656.254639 635.192566,659.733459   C634.514648,661.670288 634.783081,663.938416 634.738281,666.470825  z"/>
<path fill="#1D1000" opacity="1.000000" stroke="none" d=" M398.033020,654.936279   C402.455231,652.462585 406.346802,652.379517 409.492645,656.271362   C410.089691,657.010010 409.720947,658.529358 409.797821,659.688477   C408.838104,659.359009 407.539917,659.315430 406.977783,658.650085   C404.645630,655.889648 402.147034,655.822815 399.653595,658.074341   C397.103546,660.376892 397.305084,667.470276 399.963745,669.552063   C402.900360,671.851807 405.406647,671.286560 407.445374,668.039673   C407.872742,667.359009 409.240021,667.268494 410.174194,666.906067   C410.167633,668.054077 410.600830,669.902405 410.079071,670.229980   C407.696899,671.725830 404.878571,674.013611 402.537598,673.690979   C399.943146,673.333313 396.557770,670.935974 395.544250,668.561462   C393.633698,664.085449 393.738831,659.089417 398.033020,654.936279  z"/>
<path fill="#311C03" opacity="1.000000" stroke="none" d=" M209.729340,660.246094   C210.414597,664.631714 211.101807,668.564941 211.830536,672.735901   C207.982391,673.892639 206.465408,672.995483 206.178497,668.215759   C206.039368,665.897949 206.304138,663.548462 206.066467,661.246216   C205.849472,659.144287 205.201324,657.086853 204.483643,653.833008   C205.290543,652.303406 206.714081,649.604858 208.295212,646.607605   C209.875824,649.933472 211.017303,652.335327 212.399246,655.243225   C211.818329,656.234009 210.774811,658.013855 209.729340,660.246094  z"/>
<path fill="#311C03" opacity="1.000000" stroke="none" d=" M426.042389,580.564026   C425.537598,581.243774 425.075165,581.487610 424.384033,581.858337   C422.512177,572.025696 420.621643,562.098450 419.312683,552.095215   C418.439697,545.423279 415.201019,541.097351 409.002136,538.392090   C409.329987,537.662048 409.661896,537.346375 409.993774,537.030640   C416.726105,539.128418 420.305237,543.958862 421.435150,550.670227   C423.085449,560.472595 424.544281,570.307190 426.042389,580.564026  z"/>
<path fill="#140B04" opacity="1.000000" stroke="none" d=" M607.428345,654.126709   C607.992798,654.829712 608.435242,655.893433 608.364319,655.928772   C602.677124,658.767639 605.690491,663.925781 605.401123,668.024292   C605.297241,669.495850 607.485352,671.129272 608.626038,672.686829   C604.900757,674.947266 602.346680,674.007263 602.020935,669.913269   C601.732910,666.293579 603.291504,661.683899 601.578979,659.213867   C598.858887,655.290527 602.317200,652.928162 602.147766,649.867798   C602.115417,649.282227 603.434082,648.621948 604.089600,648.031982   C605.161743,650.183899 606.114197,652.095642 607.428345,654.126709  z"/>
<path fill="#261603" opacity="1.000000" stroke="none" d=" M239.945709,659.663208   C239.841278,663.576294 239.926773,667.071472 239.650681,670.537781   C239.577347,671.458618 238.393707,672.291077 237.719849,673.164124   C237.187576,672.310852 236.215973,671.468506 236.194382,670.602539   C236.055008,665.011047 236.123077,659.414368 236.123077,654.035095   C238.851212,653.470154 240.988586,652.779907 243.151642,652.686829   C244.194229,652.642029 245.285202,653.722168 246.354263,654.292908   C245.441742,654.840210 244.455780,655.296082 243.633713,655.955994   C242.363678,656.975525 241.205719,658.134583 239.945709,659.663208  z"/>
<path fill="#221403" opacity="1.000000" stroke="none" d=" M367.038330,654.166687   C367.600525,651.528503 368.162720,649.366150 368.724915,647.203857   C369.302429,649.350342 370.291595,651.480469 370.377869,653.646545   C370.608429,659.434448 370.530396,665.239990 370.372162,671.033020   C370.345093,672.024231 369.317749,672.988098 368.752472,673.964600   C368.183258,672.989868 367.151306,672.028992 367.121704,671.038147   C366.958710,665.577026 367.040497,660.108521 367.038330,654.166687  z"/>
<path fill="#1D1000" opacity="1.000000" stroke="none" d=" M557.969727,660.007568   C557.968201,663.974548 558.084412,667.453430 557.893250,670.915344   C557.835876,671.954773 556.921692,672.946899 556.400024,673.960693   C555.805420,673.022400 554.715942,672.094788 554.695496,671.144104   C554.545898,664.202515 554.546021,657.255005 554.678467,650.312805   C554.698303,649.274414 555.656372,648.253967 556.180420,647.225159   C556.776672,648.344788 557.790833,649.429626 557.887512,650.590881   C558.133606,653.546692 557.969604,656.536743 557.969727,660.007568  z"/>
<path fill="#180E00" opacity="1.000000" stroke="none" d=" M612.005310,656.578979   C613.395447,654.142517 619.866882,652.602478 621.345642,653.992676   C621.751587,654.374268 622.173096,655.360840 621.978760,655.629517   C621.577759,656.183838 620.703979,656.845825 620.134949,656.757019   C616.061646,656.121216 615.726807,659.118408 615.544495,661.710938   C615.266846,665.658386 615.471802,669.639771 615.471802,673.606750   C614.896179,673.828918 614.320557,674.051086 613.744873,674.273254   C613.166626,673.173462 612.134949,672.092163 612.089294,670.970642   C611.900024,666.325317 612.008728,661.667786 612.005310,656.578979  z"/>
<path fill="#180E00" opacity="1.000000" stroke="none" d=" M674.193359,660.007202   C674.188721,664.160950 674.285706,667.824158 674.104309,671.473511   C674.061646,672.331909 673.079163,673.143616 672.528992,673.976807   C671.996643,673.130249 671.017090,672.291382 671.002319,671.435913   C670.876343,664.121704 670.884766,656.803955 670.982666,649.488953   C670.992737,648.737305 671.849426,647.996948 672.313232,647.251343   C672.936951,648.012512 674.049622,648.743286 674.099182,649.540161   C674.305054,652.853149 674.190430,656.186035 674.193359,660.007202  z"/>
<path fill="#311C03" opacity="1.000000" stroke="none" d=" M627.709106,672.431458   C625.378174,675.167419 624.199524,674.378296 624.137634,671.472778   C624.032104,666.521118 624.024963,661.563477 624.170288,656.613953   C624.196289,655.729065 625.158508,654.871643 625.688416,654.001526   C626.389526,654.876831 627.663940,655.731201 627.696899,656.630981   C627.883850,661.742676 627.774109,666.865112 627.709106,672.431458  z"/>
<path fill="#221403" opacity="1.000000" stroke="none" d=" M409.629395,536.858398   C409.661896,537.346375 409.329987,537.662048 408.719238,538.179932   C405.447784,538.527283 402.455200,538.672424 399.234070,538.387512   C402.425354,537.533630 405.845215,537.109863 409.629395,536.858398  z"/>
<path fill="#311C03" opacity="1.000000" stroke="none" d=" M428.985229,603.670898   C428.748596,602.510681 428.632111,601.060791 428.684265,599.331177   C428.937042,600.494812 429.021210,601.937988 428.985229,603.670898  z"/>
<path fill="#221403" opacity="1.000000" stroke="none" d=" M398.677185,537.682739   C397.331085,538.939087 395.692902,539.906494 394.285095,540.420410   C395.805359,539.109253 397.095215,538.251526 398.677185,537.682739  z"/>
<path fill="#221403" opacity="1.000000" stroke="none" d=" M390.992065,544.001343   C391.255219,545.031982 391.060333,546.026123 390.420776,546.990479   C390.162109,545.962097 390.348053,544.963501 390.992065,544.001343  z"/>
<path fill="#FB8E00" opacity="1.000000" stroke="none" d=" M413.957306,156.091156   C415.697968,162.416504 416.939453,168.497116 419.066498,174.250336   C421.526154,180.903275 418.868439,185.922256 415.524048,191.266388   C412.178009,196.613083 409.421753,202.335632 406.520660,207.952164   C403.469147,213.859940 400.339447,219.742874 397.646149,225.815079   C395.608490,230.409042 391.758026,231.459229 388.313049,229.496338   C378.083679,223.667862 368.112183,217.335144 358.410339,210.661011   C355.083679,208.372498 355.577484,204.098953 357.132263,200.528534   C360.321747,193.204086 363.552582,185.893387 366.968872,178.672806   C375.648804,160.327011 384.290710,141.960449 393.241882,123.746712   C398.834320,112.367340 406.101105,108.256050 418.101044,109.490562   C429.037811,110.615700 435.288666,117.752220 438.445648,127.576706   C440.158356,132.906815 441.012848,138.605881 441.545227,144.205933   C443.825439,168.192108 445.820679,192.205261 447.994324,216.201859   C448.171967,218.163101 448.546204,220.267487 449.453552,221.973175   C452.946564,228.539505 449.735596,234.663391 448.354004,240.860107   C448.158783,241.735748 445.743073,242.985168 444.911865,242.655975   C443.500458,242.096909 441.884766,240.597626 441.493774,239.179504   C440.081696,234.057785 439.327118,228.757919 437.996643,223.610001   C431.545624,198.649612 424.988220,173.716705 418.468445,148.774109   C418.426331,148.612915 418.431000,148.412537 418.334442,148.296524   C416.670166,146.296249 414.993469,144.306351 413.319489,142.314178   C412.952698,144.856079 412.275177,147.403503 412.320190,149.938080   C412.354492,151.867737 413.306091,153.781097 413.957306,156.091156  z"/>
<path fill="#FA8D00" opacity="1.000000" stroke="none" d=" M398.762390,284.002136   C398.456390,273.386963 398.244446,263.234467 397.790131,253.092850   C397.420502,244.841858 399.515717,237.281799 403.353455,230.072510   C407.815735,221.690186 412.260864,213.296631 416.550537,204.825485   C418.333252,201.304962 419.694489,197.570969 421.685150,192.908737   C422.494293,194.877930 423.044342,195.928162 423.365784,197.044220   C426.039093,206.326614 428.606140,215.640060 431.338959,224.904694   C432.895020,230.180023 432.879608,234.458710 427.145721,237.599503   C423.071350,239.831268 421.979065,245.207458 424.474396,250.616150   C427.203796,256.532196 427.135162,262.240387 426.438354,268.560608   C425.518219,276.906403 425.966583,285.416687 426.030121,293.854736   C426.213135,318.169189 426.502350,342.482819 426.725433,366.796997   C426.732635,367.582275 426.474457,368.369965 426.343445,369.136139   C417.875641,368.627502 409.624939,368.113068 401.371613,367.644531   C397.531036,367.426483 398.623871,364.467224 398.600616,362.418304   C398.468475,350.763794 398.441742,339.107361 398.476013,327.451843   C398.518127,313.124237 398.655457,298.796936 398.762390,284.002136  z"/>
<path fill="#F98D01" opacity="1.000000" stroke="none" d=" M433.278931,281.382996   C434.098450,272.340424 435.020905,263.770264 435.662476,255.179153   C435.876160,252.317398 437.082977,251.408615 439.739746,251.569565   C441.897308,251.700256 444.070343,251.549957 446.234406,251.605621   C450.962311,251.727219 454.745392,250.684616 455.939301,245.209457   C456.204803,243.992035 457.958954,243.099243 459.027710,242.057007   C459.670197,243.430832 460.903168,244.840195 460.823090,246.170532   C460.687469,248.424225 460.074341,250.810577 459.033905,252.815231   C456.784637,257.149078 457.059692,261.281586 458.525513,265.782104   C459.681519,269.331299 460.540985,273.139587 460.615723,276.851288   C461.013855,296.623444 461.164825,316.401093 461.317871,336.177490   C461.414276,348.635193 461.373962,361.094086 461.366760,373.552429   C461.365906,375.003998 461.184662,376.455475 461.043884,378.548462   C458.073029,377.908478 455.535706,377.443237 453.044342,376.800049   C450.961853,376.262390 448.938049,375.500458 446.879517,374.866302   C442.802765,373.610352 436.610779,373.538605 435.130951,370.858398   C432.875702,366.773773 433.637817,360.893707 433.550903,355.768738   C433.378784,345.621246 433.531281,335.468689 433.496429,325.318390   C433.446716,310.827942 433.349304,296.337616 433.278931,281.382996  z"/>
<path fill="#F98D00" opacity="1.000000" stroke="none" d=" M372.267487,346.730896   C371.497864,336.042725 370.641022,325.825928 369.983765,315.596283   C369.358765,305.869385 369.088470,296.118774 368.400726,286.397064   C367.327942,271.232666 365.992584,256.086975 364.866760,240.926071   C364.621338,237.621338 364.935059,234.276978 364.731995,230.966766   C364.481171,226.877975 367.218323,225.948273 369.755341,227.360779   C376.101440,230.894028 382.560394,234.574814 387.911011,239.380142   C390.174133,241.412628 390.398071,246.405853 390.462189,250.072342   C390.690643,263.140717 390.367828,276.217590 390.417694,289.290619   C390.456909,299.577148 390.713928,309.863312 390.917358,320.148743   C391.208313,334.862244 391.491028,349.576233 391.890045,364.286957   C391.975586,367.439423 391.428284,369.227051 387.627228,369.260895   C383.864380,369.294434 380.116730,370.478455 376.346405,370.583588   C375.271118,370.613586 373.268768,368.713348 373.177551,367.578766   C372.632904,360.804108 372.523132,353.994537 372.267487,346.730896  z"/>
<path fill="#F88C00" opacity="1.000000" stroke="none" d=" M325.979767,389.206238   C324.049561,389.555481 322.457581,389.704529 320.317505,389.904907   C320.317505,386.576965 319.864838,383.707794 320.400635,381.036957   C322.152618,372.303772 324.356323,363.662384 326.213409,354.948853   C328.239441,345.442566 329.982056,335.875885 332.006592,326.369263   C338.376923,296.455627 344.768280,266.546204 351.316559,236.671295   C352.000427,233.551178 353.783325,230.671982 355.056335,227.681000   C355.813812,227.751923 356.571320,227.822845 357.328796,227.893784   C358.068115,230.075348 359.329010,232.224991 359.464844,234.443527   C360.633636,253.532440 361.929932,272.625305 362.421021,291.736694   C362.565308,297.351807 360.579803,303.121948 359.012146,308.663055   C352.784119,330.676880 345.555847,352.448242 340.415649,374.706055   C338.747620,381.928802 335.951599,385.135681 329.816223,387.112152   C328.575500,387.511810 327.480255,388.363007 325.979767,389.206238  z"/>
<path fill="#F68B01" opacity="1.000000" stroke="none" d=" M466.981049,389.877380   C474.721863,393.904297 482.462677,397.931213 490.203461,401.958130   C490.109436,402.249481 490.015411,402.540802 489.921356,402.832123   C459.006866,402.832123 428.092346,402.832123 396.727356,402.853943   C398.018463,402.217194 399.708801,401.287872 401.510468,400.946838   C409.343323,399.464081 414.031677,395.621643 414.558655,389.997955   C415.123199,383.973297 413.398773,381.293671 407.549652,379.090027   C406.490753,378.691101 405.441437,378.266724 404.387848,376.736694   C406.698883,376.736694 409.016907,376.624420 411.319092,376.767151   C413.802612,376.921143 416.270416,377.322510 418.746857,377.599731   C421.210236,377.875427 423.675934,378.130890 426.821472,378.468231   C426.075104,384.507935 428.722107,388.886139 433.953156,391.746307   C434.670013,392.138275 435.348938,393.046021 436.015045,393.017029   C445.317627,392.612030 455.026520,395.655792 463.914490,389.603210   C464.111633,389.320068 464.421600,389.338287 464.785828,389.400574   C465.760376,389.601013 466.370728,389.739197 466.981049,389.877380  z"/>
<path fill="#F98D01" opacity="1.000000" stroke="none" d=" M461.968445,75.401123   C461.679047,81.110237 462.452179,86.871880 460.633392,91.646141   C457.830933,99.002586 451.348328,100.947594 442.217194,99.028946   C435.632050,97.645264 431.192261,91.999771 430.546875,84.189384   C429.759247,74.657188 433.436523,67.602348 440.268524,65.538696   C449.268860,62.820068 457.462067,66.412994 461.968445,75.401123  z"/>
<path fill="#EF8700" opacity="1.000000" stroke="none" d=" M354.949097,346.366760   C356.138397,341.750488 357.234741,337.538300 358.139343,333.285339   C359.337677,327.651398 360.386047,321.985535 362.611969,316.230042   C363.043396,319.788574 363.653290,323.336060 363.874512,326.907593   C364.713776,340.456848 365.289795,354.023865 366.278748,367.561279   C366.545959,371.219330 365.208771,372.633972 361.929596,373.315155   C358.690918,373.987946 355.437225,374.785858 352.355499,375.962189   C349.146606,377.187012 348.032562,375.735931 347.668945,372.994019   C347.497620,371.701904 347.416565,370.273438 347.784424,369.054596   C350.035187,361.597076 352.426361,354.181946 354.949097,346.366760  z"/>
<path fill="#F68B01" opacity="1.000000" stroke="none" d=" M401.599121,385.370361   C403.419617,386.813385 405.973145,388.083832 406.021515,389.443359   C406.084839,391.222839 404.615753,393.865417 403.029541,394.759552   C394.747437,399.427887 385.819397,398.922302 377.135162,396.264709   C375.494843,395.762695 374.250214,392.093475 373.889496,389.723358   C373.347900,386.164764 373.748596,382.462769 373.748596,378.162201   C378.970490,377.426117 384.083313,376.705414 389.574829,375.931335   C390.532074,383.266144 396.217255,383.778107 401.599121,385.370361  z"/>
<path fill="#EC8500" opacity="1.000000" stroke="none" d=" M377.224121,403.372498   C373.112061,403.566620 368.847839,403.434448 364.583374,403.427429   C348.892578,403.401550 333.201660,403.417145 317.063171,402.463257   C318.551727,401.461182 320.040253,400.459106 321.755341,399.186707   C329.865662,399.523071 337.741882,400.374969 345.636841,400.617340   C348.852448,400.716064 352.411499,400.115723 355.276703,398.725525   C359.758881,396.550720 363.166748,388.667755 358.921783,383.192535   C361.400909,382.500824 363.653076,381.872437 366.596985,381.051056   C366.596985,383.999023 366.618744,386.412964 366.593323,388.826385   C366.468384,400.680786 366.463928,400.680725 377.224121,403.372498  z"/>
<path fill="#EF8700" opacity="1.000000" stroke="none" d=" M336.346680,396.268005   C334.349365,395.379608 332.800018,394.516602 331.250671,393.653625   C332.661743,392.450745 333.900757,390.881805 335.519592,390.120819   C338.933136,388.516144 342.457703,386.825958 346.113556,386.194183   C347.938690,385.878815 351.155579,387.289764 351.973480,388.848419   C353.472290,391.704681 351.874573,394.503357 348.521667,395.113678   C344.668732,395.814911 340.708344,395.925964 336.346680,396.268005  z"/>
<path fill="#DA7B01" opacity="1.000000" stroke="none" d=" M448.604248,381.872345   C446.296631,385.851715 437.614838,384.863586 435.030304,379.617096   C439.889221,380.332367 444.128845,380.956451 448.604248,381.872345  z"/>
<path fill="#0D0804" opacity="1.000000" stroke="none" d=" M466.717834,389.704590   C466.370728,389.739197 465.760376,389.601013 464.886353,389.282288   C465.233337,389.245056 465.843964,389.388397 466.717834,389.704590  z"/>
<path fill="#FC8E00" opacity="1.000000" stroke="none" d=" M248.079254,554.138367   C254.743790,544.556580 261.179749,535.259033 267.692505,526.015564   C276.704773,513.224548 293.922333,508.759064 308.235962,515.436035   C322.717926,522.191528 331.091492,538.742798 325.778839,553.728027   C320.659210,568.168945 313.550751,581.904785 306.785614,597.145386   C304.197021,581.671204 297.148560,570.289246 284.329437,563.077209   C271.422119,555.815491 258.019196,555.769531 243.751389,560.706116   C245.129242,558.619690 246.507095,556.533203 248.079254,554.138367  z"/>
<path fill="#EF8700" opacity="1.000000" stroke="none" d=" M254.180939,639.114868   C236.596085,633.845520 225.503693,620.279358 224.856979,603.660706   C224.183365,586.350952 233.970703,571.324341 249.796066,565.371460   C265.288971,559.543640 282.502106,564.136536 293.176605,576.946472   C303.534485,589.376526 304.940186,607.365051 296.643890,621.317932   C287.998657,635.857666 271.709015,642.787109 254.180939,639.114868  M237.440063,622.005371   C249.321503,635.204407 266.612823,637.996216 280.727295,628.994507   C294.177765,620.416260 299.745148,603.220520 293.430847,588.626465   C288.066406,576.227722 278.413788,569.124817 264.892029,568.374390   C251.398285,567.625427 240.786148,573.397705 234.277664,585.264465   C227.466400,597.683289 228.752533,609.932861 237.440063,622.005371  z"/>
<path fill="#FA8D00" opacity="1.000000" stroke="none" d=" M493.518494,527.310059   C503.665070,520.888184 516.222595,525.171631 521.637085,535.686340   C528.036316,548.113403 535.340881,560.074097 542.240723,572.243896   C543.038086,573.650330 543.757996,575.100708 545.139954,577.715332   C526.186157,571.425964 513.933838,577.365112 507.485626,596.395203   C503.303436,585.925110 499.557892,576.555115 495.817993,567.182800   C493.472504,561.304932 491.398895,555.301025 488.732971,549.572571   C484.733551,540.978638 486.417419,533.802002 493.518494,527.310059  z"/>
<path fill="#E38100" opacity="1.000000" stroke="none" d=" M545.404175,618.542725   C535.633728,624.333618 526.371765,624.034546 519.065613,617.931885   C511.638947,611.728516 508.917023,601.098145 512.318604,591.581543   C515.035278,583.981079 523.723511,578.095886 532.209534,578.107971   C540.487915,578.119751 549.411926,584.133179 552.113953,591.631470   C555.818359,601.911377 554.134460,610.936279 545.404175,618.542725  M516.492676,609.197327   C520.215210,616.106445 526.035645,619.759521 533.841431,619.270203   C540.689514,618.840942 546.082153,615.621948 549.299622,608.305115   C552.545410,601.058655 551.258911,594.433228 546.200989,587.727722   C542.799011,585.828369 539.397034,583.929016 535.148926,581.755859   C533.102783,581.848083 531.056580,581.940247 528.252747,581.955078   C521.383728,583.251526 517.375000,587.631042 514.891052,594.752686   C514.929871,598.167725 514.968689,601.582825 515.002563,605.637634   C515.435425,606.599609 515.868347,607.561584 516.492676,609.197327  z"/>
<path fill="#DA7B01" opacity="1.000000" stroke="none" d=" M385.212402,609.404541   C382.304260,598.889648 384.970337,590.144775 392.527405,584.577942   C399.566925,579.392334 409.019348,579.008057 416.433167,583.606018   C424.011017,588.305725 427.817413,597.071838 426.130035,605.937805   C424.442688,614.803589 417.083099,621.791199 408.185577,622.975037   C398.409851,624.275757 390.185547,619.522644 385.212402,609.404541  M423.416840,605.070190   C423.468658,603.907288 423.568787,602.744202 423.564789,601.581482   C423.528473,591.075989 415.348145,582.889099 404.931244,582.913269   C394.677795,582.936951 386.224884,591.395447 386.243622,601.613159   C386.260681,610.915039 393.159973,618.728821 402.526428,620.054199   C411.786774,621.364685 420.050354,615.697876 423.416840,605.070190  z"/>
<path fill="#E38100" opacity="1.000000" stroke="none" d=" M661.991211,667.908813   C661.729065,668.395752 661.652222,668.620911 661.532349,668.646851   C659.032654,669.187500 656.534241,669.753296 654.005371,670.080444   C653.885681,670.096008 653.168030,666.992493 653.264893,666.960388   C655.997070,666.055786 658.798279,665.359741 661.588135,664.629517   C661.777588,665.604431 661.966980,666.579346 661.991211,667.908813  z"/>
<path fill="#EC8500" opacity="1.000000" stroke="none" d=" M189.569122,665.270508   C192.439041,664.596436 194.957321,664.111389 197.475616,663.626282   C197.804367,664.009094 198.133133,664.391907 198.461899,664.774780   C197.241165,666.383972 196.327972,668.598633 194.707825,669.421570   C193.268127,670.152954 191.004089,669.500061 189.208496,669.045166   C188.926819,668.973877 189.200577,666.709656 189.569122,665.270508  z"/>
<path fill="#EC8500" opacity="1.000000" stroke="none" d=" M222.378845,660.919250   C219.697540,661.030823 217.953598,660.360718 219.992599,658.066650   C221.104279,656.815857 223.442459,655.760681 224.985397,656.025818   C226.713104,656.322693 228.167175,658.212280 229.740341,659.408813   C229.487488,659.912537 229.234650,660.416260 228.981796,660.919983   C226.924164,660.919983 224.866516,660.919983 222.378845,660.919250  z"/>
<path fill="#E38100" opacity="1.000000" stroke="none" d=" M571.820679,661.837036   C569.639404,661.836914 567.887817,661.836914 566.136169,661.836914   C565.862915,661.288574 565.589661,660.740173 565.316406,660.191833   C567.061584,658.946472 568.666382,657.006165 570.584717,656.618713   C573.456543,656.038757 575.604553,657.660156 576.046021,661.368469   C574.684509,661.536621 573.467468,661.686951 571.820679,661.837036  z"/>
<path fill="#DA7B01" opacity="1.000000" stroke="none" d=" M381.462616,656.535034   C385.254059,656.255249 387.332184,657.685852 388.009674,661.570862   C384.309204,661.570862 381.009705,661.570862 377.710236,661.570862   C377.463806,661.219543 377.217377,660.868225 376.970917,660.516968   C378.349091,659.217529 379.727234,657.918091 381.462616,656.535034  z"/>
<path fill="#DA7B01" opacity="1.000000" stroke="none" d=" M356.258179,656.718994   C357.708374,658.068848 358.808655,659.309937 360.694763,661.437378   C356.099792,661.437378 352.811615,661.437378 349.220306,661.437378   C349.658936,657.260925 352.114166,656.056824 356.258179,656.718994  z"/>
<path fill="#EF8700" opacity="1.000000" stroke="none" d=" M416.310883,666.305664   C416.182434,665.414917 416.116302,664.922913 416.094513,664.428955   C415.947937,661.110962 416.343201,657.675110 420.095490,656.926331   C421.886963,656.568848 425.558533,657.905151 425.810089,659.042358   C426.499420,662.158997 426.782379,666.038574 425.464233,668.763977   C423.616577,672.584229 419.273468,671.399658 416.310883,666.305664  z"/>
<path fill="#1C1004" opacity="1.000000" stroke="none" d=" M237.217529,621.723877   C228.752533,609.932861 227.466400,597.683289 234.277664,585.264465   C240.786148,573.397705 251.398285,567.625427 264.892029,568.374390   C278.413788,569.124817 288.066406,576.227722 293.430847,588.626465   C299.745148,603.220520 294.177765,620.416260 280.727295,628.994507   C266.612823,637.996216 249.321503,635.204407 237.217529,621.723877  M291.538757,608.543274   C291.802185,606.402283 292.286041,604.261963 292.292450,602.120178   C292.328125,590.245605 287.156555,581.198181 276.661194,575.726990   C265.943237,570.139709 255.264465,571.140015 245.700851,578.431274   C236.312271,585.589050 232.654312,595.406921 234.848297,607.099487   C237.313797,620.239075 248.248459,629.691711 261.655945,630.544434   C275.151581,631.402771 286.617126,623.201233 291.538757,608.543274  z"/>
<path fill="#0A0702" opacity="1.000000" stroke="none" d=" M546.555176,588.276001   C551.258911,594.433228 552.545410,601.058655 548.880615,608.429321   C548.238770,608.259338 548.015930,607.965149 547.828735,607.302490   C548.139221,604.959778 548.414124,602.985413 548.540039,602.081177   C545.209045,602.249878 542.147644,603.227356 539.986633,602.238037   C538.430664,601.525696 537.135254,598.081360 537.374084,596.049683   C537.916443,591.435730 541.899048,591.065674 545.935120,591.521973   C545.511902,590.569275 545.311523,590.118225 545.471191,589.318359   C546.072571,588.738403 546.313904,588.507202 546.555176,588.276001  z"/>
<path fill="#140B04" opacity="1.000000" stroke="none" d=" M515.007507,604.997864   C514.968689,601.582825 514.929871,598.167725 515.347656,594.392822   C516.181274,594.023743 516.558289,594.014526 516.902832,594.403687   C516.579773,597.139038 516.289185,599.476135 516.001465,601.789612   C519.201599,600.019409 521.430176,598.048523 523.885559,597.706604   C525.347107,597.502991 528.052490,599.558838 528.591431,601.145020   C529.219788,602.994080 528.709045,605.847046 527.590332,607.532837   C525.766296,610.281311 522.793884,610.016846 520.011230,608.317139   C519.988770,608.198975 519.581360,607.985901 519.443359,607.717834   C519.212891,607.271179 519.120422,607.092651 519.000366,606.582642   C517.651001,605.833435 516.329285,605.415649 515.007507,604.997864  z"/>
<path fill="#0D0804" opacity="1.000000" stroke="none" d=" M529.010437,582.032471   C531.056580,581.940247 533.102783,581.848083 535.572021,582.190247   C535.990295,583.021179 535.985474,583.417725 535.614624,583.841492   C534.303101,583.982788 533.357666,584.096924 532.217773,584.234497   C533.245483,585.186462 534.708496,585.896240 534.785645,586.733643   C535.021240,589.293457 535.509338,592.362061 534.357239,594.330200   C533.592712,595.636292 529.240356,596.503784 528.174133,595.595459   C526.428589,594.108398 525.791077,591.074524 525.224548,588.571289   C524.999023,587.575195 526.207397,586.254517 527.087402,585.045654   C527.944641,584.017212 528.477539,583.024841 529.010437,582.032471  z"/>
<path fill="#261603" opacity="1.000000" stroke="none" d=" M519.581360,607.985901   C519.581360,607.985901 519.988770,608.198975 519.572571,608.511597   C522.359558,615.423462 528.945251,618.451111 535.286011,615.996277   C537.570618,615.573914 539.449341,615.208191 541.453369,614.691528   C541.729431,614.325500 541.898621,614.126221 542.110840,613.976135   C542.135437,614.009644 542.071716,614.062927 542.378662,613.935425   C544.388062,611.762329 546.090576,609.716614 547.793030,607.670959   C548.015930,607.965149 548.238770,608.259338 548.660034,608.746582   C546.082153,615.621948 540.689514,618.840942 533.841431,619.270203   C526.035645,619.759521 520.215210,616.106445 516.594910,608.715881   C516.697144,608.234436 517.081787,607.931641 517.531067,608.127686   C518.514038,608.211121 519.047668,608.098511 519.581360,607.985901  z"/>
<path fill="#261603" opacity="1.000000" stroke="none" d=" M528.631592,581.993774   C528.477539,583.024841 527.944641,584.017212 526.746338,585.064453   C523.032410,588.081299 519.983887,591.043335 516.935364,594.005371   C516.558289,594.014526 516.181274,594.023743 515.521362,594.030762   C517.375000,587.631042 521.383728,583.251526 528.631592,581.993774  z"/>
<path fill="#261603" opacity="1.000000" stroke="none" d=" M535.980713,583.814270   C535.985474,583.417725 535.990295,583.021179 535.995056,582.327148   C539.397034,583.929016 542.799011,585.828369 546.378052,588.001831   C546.313904,588.507202 546.072571,588.738403 545.192627,589.150513   C541.696228,587.492371 538.838440,585.653320 535.980713,583.814270  z"/>
<path fill="#261603" opacity="1.000000" stroke="none" d=" M515.005005,605.317749   C516.329285,605.415649 517.651001,605.833435 518.688110,606.562134   C517.962952,607.225891 517.522339,607.578796 517.081787,607.931641   C517.081787,607.931641 516.697144,608.234436 516.499146,608.379028   C515.868347,607.561584 515.435425,606.599609 515.005005,605.317749  z"/>
<path fill="#040304" opacity="1.000000" stroke="none" d=" M423.287903,605.487793   C420.050354,615.697876 411.786774,621.364685 402.526428,620.054199   C393.159973,618.728821 386.260681,610.915039 386.243622,601.613159   C386.224884,591.395447 394.677795,582.936951 404.931244,582.913269   C415.348145,582.889099 423.528473,591.075989 423.564789,601.581482   C423.568787,602.744202 423.468658,603.907288 423.287903,605.487793  z"/>
<path fill="#FC8E00" opacity="1.000000" stroke="none" d=" M291.415894,608.943848   C286.617126,623.201233 275.151581,631.402771 261.655945,630.544434   C248.248459,629.691711 237.313797,620.239075 234.848297,607.099487   C232.654312,595.406921 236.312271,585.589050 245.700851,578.431274   C255.264465,571.140015 265.943237,570.139709 276.661194,575.726990   C287.156555,581.198181 292.328125,590.245605 292.292450,602.120178   C292.286041,604.261963 291.802185,606.402283 291.415894,608.943848  z"/>
<path fill="#EC8500" opacity="1.000000" stroke="none" d=" M535.614624,583.841492   C538.838440,585.653320 541.696228,587.492371 544.832642,589.499268   C545.311523,590.118225 545.511902,590.569275 545.935120,591.521973   C541.899048,591.065674 537.916443,591.435730 537.374084,596.049683   C537.135254,598.081360 538.430664,601.525696 539.986633,602.238037   C542.147644,603.227356 545.209045,602.249878 548.540039,602.081177   C548.414124,602.985413 548.139221,604.959778 547.828735,607.302490   C546.090576,609.716614 544.388062,611.762329 542.248413,613.521484   C542.664551,609.303162 542.282776,605.534058 537.736267,604.697937   C535.947021,604.368958 532.835083,605.995728 531.845398,607.644348   C529.779968,611.084778 530.974060,614.283875 534.880005,616.052917   C528.945251,618.451111 522.359558,615.423462 519.595032,608.629761   C522.793884,610.016846 525.766296,610.281311 527.590332,607.532837   C528.709045,605.847046 529.219788,602.994080 528.591431,601.145020   C528.052490,599.558838 525.347107,597.502991 523.885559,597.706604   C521.430176,598.048523 519.201599,600.019409 516.001465,601.789612   C516.289185,599.476135 516.579773,597.139038 516.902832,594.403687   C519.983887,591.043335 523.032410,588.081299 526.421997,585.100464   C526.207397,586.254517 524.999023,587.575195 525.224548,588.571289   C525.791077,591.074524 526.428589,594.108398 528.174133,595.595459   C529.240356,596.503784 533.592712,595.636292 534.357239,594.330200   C535.509338,592.362061 535.021240,589.293457 534.785645,586.733643   C534.708496,585.896240 533.245483,585.186462 532.217773,584.234497   C533.357666,584.096924 534.303101,583.982788 535.614624,583.841492  z"/>
<path fill="#EC8500" opacity="1.000000" stroke="none" d=" M517.531067,608.127686   C517.522339,607.578796 517.962952,607.225891 518.715759,606.893616   C519.120422,607.092651 519.212891,607.271179 519.443359,607.717834   C519.047668,608.098511 518.514038,608.211121 517.531067,608.127686  z"/>
<path fill="#0A0702" opacity="1.000000" stroke="none" d=" M535.286011,615.996277   C530.974060,614.283875 529.779968,611.084778 531.845398,607.644348   C532.835083,605.995728 535.947021,604.368958 537.736267,604.697937   C542.282776,605.534058 542.664551,609.303162 541.941467,613.648987   C542.071716,614.062927 542.135437,614.009644 541.878540,614.000366   C541.368713,614.221313 541.270813,614.505127 541.328003,614.842468   C539.449341,615.208191 537.570618,615.573914 535.286011,615.996277  z"/>
<path fill="#EC8500" opacity="1.000000" stroke="none" d=" M541.453369,614.691528   C541.270813,614.505127 541.368713,614.221313 541.854004,613.966797   C541.898621,614.126221 541.729431,614.325500 541.453369,614.691528  z"/>
</svg>