<?xml version="1.0" encoding="UTF-8"?>
<svg enable-background="new 0 0 800 800" version="1.1" viewBox="0 0 800 800" xml:space="preserve" xmlns="http://www.w3.org/2000/svg">

<path d="m626.12 444.05c3.286-11.792 6.6032-23.576 9.8507-35.379 4.902-17.816 11.25-35.064 21.294-50.662 3.1757-4.9312 7.652-9.0247 11.898-13.795 0.36536-0.29358 0.83936-0.23187 0.84607 0.11517-0.008301 0.80823-0.023254 1.2693-0.065796 2.0883-2.248 4.6798 0.1228 10.123 4.8921 11.321 10.164 2.5523 20.108 1.524 29.349-3.2212 4.2648-2.1897 9.2457-5.0195 8.5775-11.023-0.4458-4.0056-3.968-5.7242-7.7482-6.4968-0.01709 0.00824 0.001099-0.024933 0.038696-0.27933-0.22247-0.67029-0.48267-1.0862-0.89313-1.541-0.15033-0.038879-0.38294-0.24469-0.38294-0.24469 3.252 0.40921 6.7313 0.21106 9.7178 1.3292 15.852 5.9348 25.768 18.302 33.165 32.696 8.5438 16.626 14.241 34.335 17.535 52.781 2.8935 16.199 6.3385 32.318 8.6302 48.601 1.7898 12.716 2.4534 25.614 3.1402 38.456 1.2297 22.995 2.1526 46.007 3.0987 69.016 0.47479 11.549 0.79474 23.106 1.0486 34.663 0.36151 16.458 0.60077 32.919 0.88354 49.378 0.030883 1.7994 0.004272 3.5997 0.004272 6.0675-9.3828 0-18.307 0-27.704-0.53003-0.46857-30.678-0.34357-60.827-0.55011-90.974-0.047119-6.8693-1.2384-13.731-1.9067-20.596-0.38361-3.9401-0.58783-7.9086-1.2003-11.813-1.4161-9.0282-3.1904-18.002-4.5255-27.041-1.6373-11.085-2.967-22.216-4.4466-33.325-0.48212-3.62-1.0173-7.2329-1.5281-10.849-0.41656 0.032226-0.83319 0.064423-1.2498 0.096619 0 1.5568-0.04956 3.1154 0.008057 4.67 0.36237 9.7751 1.0037 19.547 1.0767 29.324 0.1778 23.817 0.099243 47.636 0.11017 71.455 6.71e-4 1.496-0.044617 2.999-0.19067 4.4868-1.3057 13.302-2.6375 26.601-3.9647 39.9-0.68481 6.8627-1.3441 13.728-2.0723 20.587-0.86621 8.1572-1.7938 16.308-2.6949 24.462-14.78 0.058166-29.559 0.11627-44.789-0.33777-0.79218-17.464-0.98804-34.421-1.5098-51.368-0.79108-25.7 1.655-51.455-1.7684-77.125-1.3784-10.336-1.3205-20.856-2.337-31.251-1.7887-18.292-3.8398-36.558-5.9099-54.821-0.73859-6.5158-1.7726-13.002-2.8647-19.47-0.19562-1.1584-1.3364-2.1571-2.0408-3.2296-0.58862 1.3289-1.7627 2.7073-1.6555 3.9775 0.31458 3.7279 1.2856 7.3952 1.7318 11.118 0.8855 7.3894 1.5882 14.801 2.3727 22.202 1.2198 11.507 2.4235 23.016 3.6753 34.52 0.80499 7.3978 1.6793 14.788 2.5311 22.181 1.1715 10.167 3.2504 20.323 3.3666 30.501 0.42969 37.66 0.21271 75.327 0.23871 112.99-15.119 0.11328-30.238 0.24487-45.357 0.33209-7.6369 0.044007-15.274 0.007691-23.668 0.007691 0-5.6755-0.006408-11.074 0.001282-16.473 0.01947-13.59-0.035522-27.182 0.10602-40.771 0.062134-5.9619 0.50073-11.921 0.82355-17.879 0.25976-4.7946 0.57636-9.5865 0.91437-14.376 0.55902-7.919 1.2648-15.83 1.682-23.756 0.16406-3.1152-0.28186-6.2626-0.38629-10.159 0.21393-2.403 0.40778-4.0402 0.50696-5.6831 0.44891-7.4346 0.52502-14.911 1.3857-22.297 1.2293-10.549 3.0492-21.029 4.5743-31.544 1.8598-12.823 3.7017-25.649 5.4456-38.488 0.10565-0.7775-0.71979-1.6814-1.1121-2.5265m77.76 125.97c-1.8237-0.36908-3.6473-0.73816-5.471-1.1072 7.1364-2.7725 15.189-1.7434 22.656-7.3424-12.142 1.9271-22.86 3.6282-34.869 5.5342 9.4584 5.3245 18.044 5.9124 26.912 4.362 0.043884-0.48602 0.087707-0.97198 0.13159-1.458-2.8238 0-5.6475 0-9.3597 0.011475z" fill="#8ECAE6"/>
<path d="m38.848 561.06c0.025989-1.4216 0.051983-2.8432 0.23521-4.8735 0.015808-1.4429-0.12562-2.2771-0.26706-3.1113 0.057006-2.7491 0.11401-5.4982 0.31701-9.0031 0.54911-5.8771 0.95223-10.998 1.3553-16.12 0.15124-0.42816 0.30248-0.85638 0.86814-1.6507 4.1754 0.25195 7.9232 1.3028 11.699 1.4179 24.896 0.75854 49.799 1.302 74.699 1.9451 10.113 0.26123 20.223 0.5965 30.418 1.2651 7.2749 16.914 18.882 29.338 34.924 37.589 5.0138 2.5787 10.715 4.4362 11.062 11.484 0.17622 3.123 0.35245 6.246 0.26323 10.181-0.32751 8.4345-0.47372 16.058-0.3757 23.678 0.018097 1.4062 1.024 2.7997 1.5741 4.199v49.917c-55.419 0-111.01 0-167.15-0.46716-0.59589-17.394-0.59705-34.322-0.67822-51.248-0.043648-9.1022-0.22459-18.204-0.34358-27.306 0.13858-0.75214 0.27715-1.5043 0.61527-2.9065 0.39546-8.7639 0.59138-16.878 0.7873-24.991z" fill="#FF9001"/>


<path d="m355.53 550.84c-0.38559 4.4155-0.77118 8.831-1.2269 14.05-5.7709 0-11.885 0.37012-17.886-0.28754-1.3265-0.14526-2.2545-3.9269-4.0634-7.3561-5.3171 0.49231-11.951 1.1169-18.587 1.7113-1.1575 0.10364-2.3263 0.10809-3.4899 0.11078-5.8313 0.013611-11.669-0.15863-17.492 0.052246-10.2 0.36926-20.392 1.3879-30.586 1.3635-11.525-0.027587-23.062-0.68646-34.565-1.4895-7.5952-0.53021-15.139-1.7986-23.464-2.8375-2.0826-0.7431-3.3722-1.4737-4.7372-2.0132-10.635-4.2036-20.451-9.377-26.688-19.689-1.5979-2.6422-4.5277-4.479-6.7772-7.0551-1.5256-2.8798-3.0105-5.4683-4.7384-7.883-2.7661-3.8657-5.6934-7.6162-8.3857-11.602-5.6789-8.3927-11.573-16.565-17.356-24.815-5.4263-7.7409-10.619-15.648-16.141-23.319-3.2016-4.4477-6.8495-8.5741-10.431-13.161-4.4156-7.9287-8.6965-15.541-13.092-23.507-1.15-7.9832-3.2206-15.648-2.9633-23.234 0.33596-9.9028 4.2759-18.665 14.491-22.729 7.3102-2.9084 14.876-1.8253 21.591 1.1435 6.4774 2.8637 12.135 7.5827 18.211 11.874 0.21663 1.3609 0.090302 2.5146 0.57617 3.2794 3.8297 6.028 7.9182 11.894 11.66 17.975 10.608 17.238 21.07 34.566 31.646 51.824 1.2406 2.0246 2.8286 3.8363 4.2555 5.7467 6.4059 10.6 13.339 20.929 18.995 31.916 2.8155 5.469 7.5198 4.359 11.198 4.9133 11.297 1.7026 22.779 2.1512 34.174 3.2498 8.7443 0.84311 17.466 1.9235 26.196 2.9143 12.788 1.4514 25.557 3.1012 38.368 4.3131 8.8222 0.83466 17.697 1.2943 26.557 1.4484 2.9292 0.050964 4.1039 1.1323 4.764 4.2262-0.030731 10.08-0.020599 19.473-0.010437 28.867m-147.65-35.307c1.1089-0.48383 2.2178-0.96759 4.1094-1.7928-0.75223 2.3918-0.90892 4.1425-1.7719 5.4136-3.4447 5.0743-7.109 9.9994-10.444 14.635 6.8727-0.4093 16.283-15.613 15.506-25.359-6.5349 3.3619-13.285 6.8345-20.035 10.307 0.14687 0.40308 0.29373 0.80609 0.44058 1.2091 3.8806-1.3087 7.7612-2.6174 12.195-4.4138z" fill="#053248"/>
<path d="m592.15 255.18c-6.8275-10.023-10.021-21.503-9.9766-33.225 0.038391-10.256-1.6772-19.939-3.8914-29.753-3.2681-14.486 2.3767-27.358 14.972-34.904 12.456-7.4626 28.713-6.3828 39.283 3.1284 3.3115 2.9798 5.837 3.2088 10.055 1.8672 34.677-11.029 73.134 3.9986 91.585 35.401 0.71069 1.2095 1.5308 2.3547 2.9898 4.584 1.0592-3.6045 1.6052-6.1065 2.5666-8.4371 0.42102-1.0206 1.6904-1.6912 2.5745-2.5208 0.74823 1.1661 2.2522 2.4428 2.1007 3.4771-0.42639 2.911-1.5339 5.7221-2.4205 8.7343 1.0004 3.5981 8.8798 0.90382 6.9457 7.9881-2.5656-0.46159-5.1492-0.92642-8.103-1.4579 11.517 44.572-2.1113 78.134-43.061 100.53-12.061 4.3611-27.475-6.45-29.354-22.487 1.5513-0.40057 3.1769-0.70807 4.7258-1.2394 7.3527-2.5222 13.502-6.4982 16.286-14.223 2.4332-6.7514-0.6001-12.684-7.7138-13.844-4.5931-0.74918-9.4075-0.14081-14.995-0.14081 1.7297-5.1244 3.7421-11.086 5.9254-17.554-27.532 1.4113-54.642 0.92612-79.408-17.625 0 8.7485 0.10272 15.85-0.049622 22.946-0.062683 2.9235-0.67407 5.8353-1.0359 8.7524m21.76-36.966c-3.9695-3.5307-8.2781-6.756-11.812-10.679-3.4344-3.8132-6.0742-8.3421-9.0629-12.557-0.2876 11.574 24.743 34.452 33.196 32.466-4.5315-7.7974-9.1293-15.773-13.845-23.677-0.30768-0.51582-1.5219-0.49083-3.7789-1.136 2.8123 5.7569 5.0322 10.301 6.5432 15.325-0.2132 0.18819-0.42645 0.37636-1.2407 0.25865z" fill="#630313"/>

<path d="m74.042 216.01c2.833-28.62 14.556-52.499 38.649-68.955 31.156-21.279 71.156-13.455 95.195 17.916 8.322 10.861 13.896 22.994 16.872 36.782 0.094254 1.1303 0.422 1.7338 0.74974 2.3372 0.15494 0.41965 0.30986 0.83928 0.22264 1.7202 0.012939 1.0726 0.26802 1.684 0.52309 2.2953 0.23123 1.0439 0.46245 2.0878 0.37718 3.8083-0.25165 4.3091-2.0393 5.1666-5.5663 5.1571-47.238-0.12663-94.476-0.074172-141.71-0.12596-1.7693-0.001938-3.538-0.61002-5.307-0.93561z" fill="#FF9102"/>
<path d="m126.16 310.84c-18.1-3.6754-30.201-14.834-37.985-31.013-4.1827-8.6938-7.5093-17.695-7.5623-27.653-0.031029-5.8337-1.0365-11.657-1.355-17.498-0.080956-1.4845 0.78656-3.0207 1.7096-4.9427 29.259-0.39783 58.026-0.38614 86.767-0.058059-3.9013 3.7118-8.1367 6.866-8.6267 12.945h46.954c1.7454-2.7849 3.2809-5.235 5.1216-7.6495 0.80165 0.34259 1.2983 0.64954 1.6498 1.3263-0.39694 6.8176-0.64874 13.265-1.1703 19.954-0.45624 0.93631-0.64276 1.6318-1.1414 2.121-1.6597-3.2651-3.0072-6.3238-4.3562-9.3858h-48.836c0.53259 15.381 6.0276 27.977 16.502 38.697 8.414 8.6107 18.464 10.842 29.715 8.5582 6.4769-1.3148 12.769-3.5388 19.145-5.3534 5.7784 1.0337 6.7957 3.0988 3.7145 8.1227-0.89358 1.457-2.4478 2.5089-4.3777 3.8956-3.4442 1.8927-6.2099 3.6363-8.9756 5.3799 2.0659 2.1151 4.1288 4.233 6.2082 6.3347 0.082199 0.083099 0.32092 0.011292 0.48672 0.011627 9.2305 6.8279 8.4203 26.444 0.32617 34.29-6.3479 6.1532-13.367 9.4297-21.455 11.349-9.4614 2.2454-30.327-7.0762-35.361-15.515-1.8252-3.0599-3.832-6.0116-5.9526-9.6742-7.2688-21.938-13.606-43.356-15.186-65.931-0.2626-3.7519-2.3697-7.5214-4.1976-10.98-2.2482-4.2536-6.0335-6.8491-11.021-5.8267-4.6403 0.95128-7.8072 6.0171-7.8188 11.511-0.018715 8.8564 4.7347 15.182 11.64 19.748 6.7955 4.4932 10.139 10.738 11.456 18.38 0.78865 4.5767-1.2247 7.2329-5.9069 8.0254-2.4412 0.41318-4.9319 0.53433-7.7348 0.71191-1.0148-0.010132-1.6951 0.055206-2.3753 0.12054z" fill="#073248"/>
<path d="m592.12 255.54c0.38989-3.2741 1.0013-6.1859 1.064-9.1094 0.15234-7.096 0.049622-14.197 0.049622-22.946 24.766 18.551 51.876 19.036 79.408 17.625-2.1833 6.468-4.1957 12.43-5.9254 17.554 5.5873 0 10.402-0.60837 14.995 0.14081 7.1137 1.1603 10.147 7.0925 7.7138 13.844-2.7839 7.7248-8.9337 11.701-16.286 14.223-1.5489 0.53131-3.1745 0.83881-4.7258 1.2394 1.8798 16.037 17.293 26.848 29.106 22.731-0.46381 2.3673-1.331 4.7327-2.566 7.5763-0.94958 0.78329-1.6468 0.97079-2.0958 1.4112-5.7979 5.6864-11.63 11.341-17.295 17.158-2.0672 2.1223-3.7175 4.6508-5.5579 6.994 0 0-0.474-0.061706-0.7113-0.087097-2.6198 0.1748-5.3863-0.33984-7.3185 0.69833-8.6068 4.6244-17.28 8.967-27.357 8.4037-9.3629-0.52347-16.438-5.472-22.628-12.278-7.2118-7.9293-10.778-17.535-13.432-27.544-1.7419-6.57-2.7015-13.348-3.9686-19.813-0.78796-0.22092-1.1011-0.36404-1.4238-0.39029-2.2424-0.18204-4.4868-0.33981-6.7305-0.5054 0.39423-2.6762 0.43109-5.468 1.2516-8.0064 2.2015-6.8103 4.965-13.444 7.037-20.289 0.8985-2.9685 0.4978-6.2356-2.6032-8.6307z" fill="#FEA182"/>
<path d="m107.08 335.72c0.99444-0.34955 1.9889-0.69907 3.5307-0.69327 1.3806 3.0016 2.1961 5.6536 3.05 8.2931 4.2562 13.155 14.691 15.64 26.006 9.5203 4.5654-2.4691 8.5424-7.1884 14.402-2.8574 0 0-0.068131 0.004517 0.018982 0.23431 0.39073 0.40622 0.69435 0.58261 0.99798 0.759 0 0-0.067993 0.021454-0.023895 0.33029 0.75162 0.75439 1.4591 1.2 2.1667 1.6456 10.225 11.792 15.623 26.048 20.59 40.505 1.2233 3.5606 2.0764 7.2485 3.145 11.702 0.39545 4.0857 1.0662 7.3542 1.0014 10.608-0.059082 2.9686-2.3417 4.7638-4.4026 2.0652-2.8031-3.6705-6.2961-5.7088-10.377-7.7267 0.012772-3.4124 1.2023-7.0638-0.094421-9.2198-5.0839-8.4527-9.4583-18.353-16.885-24.133-10.71-8.3345-24.227-12.276-38.39-11.604-14.803 0.70288-27.373 16.102-28.384 25.783-1.7117 16.385-2.8726 32.829-4.2535 49.248-1.7578 20.903-3.5424 41.803-5.2138 62.712-0.25056 3.1346-1.6059 4.3135-4.6913 4.3809-8.4793 0.18527-16.953 0.63046-25.433 0.79553-0.6655 0.012939-1.3578-1.3484-2.0376-2.071 0.17465-4.8241 0.012181-9.6891 0.59219-14.464 1.3197-10.864 2.7357-21.731 4.6046-32.511 2.6346-15.198 5.271-30.42 8.7159-45.446 4.3103-18.8 9.9472-37.224 20.929-53.462 6.9374-10.258 14.915-19.362 27.932-23.267 1.2809-0.3353 1.8917-0.73144 2.5025-1.1276z" fill="#FE9205"/>
<path d="m41.43 506.09c1.053 0.62061 1.7453 1.9819 2.4108 1.969 8.4794-0.16507 16.953-0.61026 25.433-0.79553 3.0855-0.067413 4.4408-1.2464 4.6913-4.3809 1.6714-20.909 3.456-41.81 5.2138-62.712 1.3808-16.42 2.5418-32.863 4.2535-49.248 1.0112-9.6804 13.58-25.08 28.384-25.783 14.163-0.67255 27.68 3.2691 38.39 11.604 7.4265 5.7795 11.801 15.68 16.885 24.133 1.2967 2.156 0.10719 5.8074-0.28029 9.1031-3.6723-3.1234-7.0333-6.5508-10.328-10.041-3.1663-3.3537-6.2641-6.7722-9.392-10.162-6.0175-3.904-11.675-8.623-18.152-11.487-6.715-2.9688-14.28-4.0519-21.591-1.1435-10.215 4.0643-14.155 12.826-14.491 22.729-0.25736 7.586 1.8132 15.251 2.7519 23.622-0.23536 11.148-0.68305 21.562-0.44091 31.96 0.36682 15.751 1.2755 31.489 1.8071 47.237 0.1142 3.3835 1.4516 4.6406 4.8001 4.742 11.93 0.36114 23.852 0.98221 35.781 1.3787 2.1838 0.072571 4.3873-0.44507 7.0077-0.65048 2.9875 0.004394 5.5489-0.030915 8.1103-0.066254 2.8591 3.7992 5.7864 7.5496 8.5525 11.415 1.7278 2.4147 3.2128 5.0032 4.3976 8.006-2.784 1.341-5.1589 2.1898-7.5338 3.0385-10.112-0.30158-20.222-0.63684-30.335-0.89807-24.9-0.64313-49.803-1.1866-74.699-1.9451-3.7763-0.11511-7.5241-1.166-11.696-1.7613-3.0009-2.7492-3.5013-5.6912-2.1976-9.4177 1.1435-3.2687 1.3015-6.8821 2.268-10.445z" fill="#E7E4DF"/>
<path d="m598.05 548.18c-4.692 0.65851-9.3677 1.4875-14.08 1.9373-7.8885 0.75275-15.792 1.6224-23.704 1.8091-24.079 0.56805-48.164 0.83325-72.763 0.75256-1.2457-6.0245-1.9434-11.59-2.7127-17.145-0.93985-6.7866-1.9398-13.565-2.9138-20.347 2.9853-1.0582 5.8941-2.5857 8.9702-3.0874 9.632-1.571 19.342-2.6581 28.994-4.1155 10.129-1.5295 20.225-3.2767 30.337-4.9173 11.875-1.9265 23.744-3.8904 35.632-5.7324 4.0715-0.63083 8.1924-0.9425 12.774-0.96149-0.52515 10.131-1.5281 19.825-2.5544 29.515-0.068481 0.64642-0.37762 1.2654-0.46588 1.912-0.34198 2.5067-0.77167 5.0118-0.91901 7.532-0.16345 2.7969 0.51282 5.7642-0.1991 8.3788-1.0189 3.7414 0.67865 4.3768 3.605 4.4682z" fill="#8ECAE6"/>
<path d="m222.72 290.49c-6.4093 2.2105-12.702 4.4345-19.179 5.7493-11.251 2.2839-21.301 0.052552-29.715-8.5582-10.475-10.72-15.97-23.316-16.502-38.697h48.836c1.349 3.062 2.6965 6.1207 4.4859 9.68 3.4145 3.5429 5.9518 2.3684 7.6338-0.7067 1.2365-2.2606 1.6567-4.9626 2.4866-7.4526 0.51721-1.5517 1.1199-3.075 1.6843-4.611 0.46631 0.044403 0.93262 0.088806 1.3989 0.13319 0.68007 2.7913 1.3601 5.5827 2.0402 8.374-3.806 2.9078-2.4566 6.2031-0.635 9.4545 1.9149 3.4179 4.129 6.6788 5.8841 10.173 2.6749 5.3254 2.2903 7.2303-3.1221 9.0057-3.9484 1.2952-4.7168 3.8163-5.2965 7.4553z" fill="#FCA182"/>
<path d="m730.62 667.86c0.45093-8.2397 1.3785-16.391 2.2448-24.548 0.72821-6.8582 1.3875-13.724 2.0723-20.587 1.3271-13.3 2.6589-26.599 3.9647-39.9 0.14606-1.4878 0.19134-2.9908 0.19067-4.4868-0.010926-23.818 0.067626-47.638-0.11017-71.455-0.072998-9.7768-0.71429-19.549-1.0767-29.324-0.057617-1.5546-0.008057-3.1132-0.008057-4.67 0.41656-0.032196 0.83319-0.064393 1.2498-0.096619 0.51086 3.6162 1.046 7.229 1.5281 10.849 1.4796 11.109 2.8093 22.24 4.4466 33.325 1.3351 9.0391 3.1094 18.012 4.5255 27.041 0.61243 3.9044 0.81665 7.8729 1.2003 11.813 0.66834 6.8649 1.8596 13.727 1.9067 20.596 0.20654 30.147 0.081543 60.296 0.076477 90.895-7.2537 0.51245-14.507 0.57361-22.211 0.54864z" fill="#259FBC"/>
<path d="m167.76 229.36c-28.767-0.011688-57.535-0.023377-86.725-0.041992-2.6761-0.006928-4.9299-0.006928-7.5232-0.006928 0-4.6023 0-8.6416 0.26541-12.992 2.0344 0.014267 3.803 0.62234 5.5724 0.62428 47.238 0.051789 94.477-6.71e-4 141.71 0.12596 3.527 0.009446 5.3147-0.84799 5.5173-4.753 0.75981 3.2189 3.1322 4.7899 6.1369 6.1835 6.3053 2.9243 12.437 6.2226 18.935 9.7133 0.29491 0.34602 0.36795 0.68278 0.36795 0.68278-9.5769 0.13307-19.154 0.26614-29.666 0.34166-18.822 0.002472-36.709 0.06253-54.596 0.12259z" fill="#FFA531"/>
<path d="m355.95 550.87c-0.4325-9.4236-0.44263-18.817-0.20966-28.559 12.305-0.28796 24.366-0.22723 36.879 0.28589 1.4817 6.911 4.5691 9.1418 10.605 7.8092 1.7685-0.39038 3.5479-0.73096 5.3211-1.1 15.43-3.2114 30.325 6.6025 29.602 21.076-6.0898 6.0574-12.329 11.975-18.213 18.225-3.4778 3.6942-7.3571 5.9197-12.548 5.3327 0.59164-3.2769 1.0355-6.0643 2.0227-8.6437 2.6035-6.8025 1.4933-11.077-4.6826-15.418-5.2519-3.692-10.705-7.0964-15.992-10.74-4.8235-3.3239-9.8236-3.6148-14.936-0.99774-5.025 2.5721-5.2962 7.1544-4.6388 12.012-4.2622 0.24908-8.5244 0.49811-13.209 0.71674z" fill="#FEA182"/>
<path d="m598.49 548.15c-3.3599-0.056946-5.0574-0.69238-4.0385-4.4338 0.71191-2.6147 0.035645-5.582 0.1991-8.3788 0.14734-2.5203 0.57703-5.0253 0.91901-7.532 0.088257-0.64661 0.3974-1.2656 0.46588-1.912 1.0262-9.6908 2.0292-19.384 2.9908-29.493 8.9182-17.507 17.883-34.597 26.973-52.018 0.51715 0.51486 1.3426 1.4188 1.2369 2.1963-1.7439 12.839-3.5858 25.665-5.4456 38.488-1.5251 10.516-3.345 20.995-4.5743 31.544-0.86066 7.3857-0.93677 14.862-1.3857 22.297-0.099182 1.6429-0.29303 3.2802-0.60162 5.256-5.5408 1.5413-10.923 2.7466-16.739 3.9862z" fill="#259FBC"/>
<path d="m438.58 550.54c0.28604-14.626-14.608-24.44-30.039-21.229-1.7733 0.36908-3.5526 0.70966-5.3211 1.1-6.0361 1.3326-9.1235-0.89819-10.138-7.7227 5.1961-7.3996 13.625-5.9816 20.61-8.356 6.5336-2.2209 11.446-0.35028 15.826 4.7054 1.0757 1.2419 3.5265 1.7476 5.3654 1.7945 7.6528 0.19513 15.313 0.085755 23.498 0.17444 0.52722 0.086426 0.80524 0.14819 0.70697 0.59485-0.22006 10.048-0.34183 19.649-0.46362 29.251-6.536-0.053467-13.072-0.10693-20.045-0.3128z" fill="#FD7F54"/>
<path d="m128.87 310.8c2.4683-0.25308 4.959-0.37424 7.4002-0.78742 4.6822-0.79242 6.6956-3.4487 5.9069-8.0254-1.3168-7.6415-4.6603-13.887-11.456-18.38-6.9048-4.5655-11.658-10.891-11.64-19.748 0.011604-5.4936 3.1786-10.559 7.8188-11.511 4.9871-1.0224 8.7724 1.573 11.021 5.8267 1.8279 3.4584 3.935 7.2278 4.1976 10.98 1.5802 22.576 7.9169 43.993 14.963 65.683-2.0334 0.064453-4.041-0.28445-6.5311-0.95557-6.3599-6.2018-12.288-12.032-18.079-17.996-1.4302-1.473-2.4137-3.3797-3.6025-5.0871z" fill="#F59E7F"/>
<path d="m369.45 550.39c-0.95303-5.0966-0.68182-9.6789 4.3432-12.251 5.1127-2.6171 10.113-2.3262 14.936 0.99774 5.2872 3.6433 10.74 7.0477 15.992 10.74 6.176 4.3416 7.2862 8.6159 4.6826 15.418-0.98724 2.5794-1.4311 5.3668-2.2788 8.4254-6.501-2.5714-12.942-5.3226-19.153-8.5186-3.4843-1.7927-6.7564-4.1143-9.8192-6.5769-3.0036-2.4152-5.6208-5.3111-8.7032-8.2347z" fill="#FD7F54"/>
<path d="m458.84 520.97c0.16538-1.8726 0.40573-3.624 0.72672-5.9632 6.5955 0 13.092 0 20.019 0.52002 0.41736 11.396 0.36066 22.273 0.44226 33.149 0.011505 1.5281 0.7002 3.0511 1.0754 4.5765-0.57153 2.3347-1.1431 4.6693-1.8199 7.4334-5.455 0-11.051 0-17.024-0.56085-0.33859-12.108-0.2818-23.654-0.28137-35.201 6.1e-5 -1.8516 0.62918-4.3585-2.7858-3.7706 0 0-0.27802-0.061767-0.35297-0.18286z" fill="#8ECAE6"/>
<path d="m681.57 667.76c-0.38562-37.762-0.16864-75.429-0.59833-113.09-0.11615-10.178-2.1951-20.334-3.3666-30.501-0.85181-7.3926-1.7261-14.783-2.5311-22.181-1.2518-11.504-2.4555-23.013-3.6753-34.52-0.78455-7.4016-1.4872-14.813-2.3727-22.202-0.44617-3.7231-1.4172-7.3904-1.7318-11.118-0.10718-1.2702 1.0669-2.6486 1.6555-3.9775 0.70434 1.0724 1.8452 2.0712 2.0408 3.2296 1.0921 6.4674 2.1261 12.954 2.8647 19.47 2.07 18.263 4.1212 36.529 5.9099 54.821 1.0165 10.395 0.95856 20.914 2.337 31.251 3.4233 25.67 0.9773 51.425 1.7684 77.125 0.52173 16.947 0.71759 33.904 1.0367 51.312-1.0076 0.4635-1.9926 0.47089-3.3371 0.38098z" fill="#30A2BF"/>
<path d="m147.15 390.17c3.0686 3.0026 6.1664 6.421 9.3327 9.7747 3.2948 3.4899 6.6558 6.9173 10.363 10.489 4.4208 1.6867 7.9138 3.725 10.717 7.3955 2.0609 2.6986 4.3435 0.90347 4.4026-2.0652 0.064758-3.2538-0.60596-6.5222-0.9678-10.202 2.3972 7.5665 5.1291 15.47 7.13 23.555 2.3054 9.3152 4.0242 18.779 5.8754 28.202 0.71077 3.618 1.0842 7.3024 1.4482 11.317-1.5901-1.5504-3.1781-3.3621-4.4187-5.3867-10.575-17.258-21.037-34.586-31.646-51.824-3.7419-6.0805-7.8304-11.947-11.66-17.975-0.48587-0.76477-0.35954-1.9184-0.57616-3.2794z" fill="#B77622"/>
<path d="m158.17 530.93c2.2918-1.2158 4.6667-2.0645 7.3823-3.0363 2.6587 2.0839 5.5884 3.9207 7.1863 6.5629 6.2364 10.312 16.052 15.486 26.688 19.689 1.365 0.53955 2.6546 1.2701 4.313 2.0882 0.46992 7.7469 0.60603 15.318 0.57983 23.329-0.50958-6.6077-6.2107-8.4651-11.224-11.044-16.043-8.2514-27.65-20.676-34.924-37.589z" fill="#B6731D"/>
<path d="m167.73 229.68c17.914-0.37645 35.801-0.43651 54.183-0.40414 0.040542 3.4866-0.54337 6.9162 3.2042 9.8567-3.2126 4.2992-4.4293 1.8858-5.688-1.3436-2.2466-5.7642-4.7696-6.5298-8.5556-2.8491-1.5356 2.4502-3.0711 4.9003-4.8165 7.6852h-46.954c0.49004-6.079 4.7254-9.2332 8.6267-12.945z" fill="#F6A280"/>
<path d="m115.95 335.38c3.0963-6.718 6.1926-13.436 9.7422-20.064 5.1384 6.2285 9.8926 12.316 14.48 18.527 2.4106 3.2633 4.5298 6.7419 6.4767 10.268-3.3102 2.1786-6.1005 4.7312-9.3843 6.0996-3.2003 1.3336-7.405 2.8725-10.298 1.8523-9.8603-3.4772-11.147-6.1147-11.017-16.682z" fill="#FEA182"/>
<path d="m696.23 320.92c2.2872 4.6457 4.5743 9.2914 7.2059 13.975 0.34442 0.038239 0.57703 0.24405 0.68115 0.54352 0.37006 0.71127 0.63593 1.123 0.90173 1.5348 0 0-0.018189 0.033173-0.002564 0.42133 1.1606 9.3864-1.3944 13.259-9.9613 15.545-6.3693 1.6996-12.72 2.1154-19.039-0.54831 6.7427-10.726 13.478-21.098 20.214-31.471z" fill="#FCA182"/>
<path d="m696.23 320.6c-6.7407 10.688-13.476 21.061-20.555 31.761-2.1307-1.883-3.9182-4.094-5.7056-6.3049 0.014893-0.46115 0.029846-0.92227 0.038147-1.7305 1.8337-2.6902 3.484-5.2187 5.5512-7.3411 5.6655-5.8165 11.497-11.471 17.295-17.158 0.44897-0.4404 1.1462-0.6279 2.0955-1.0342 0.67358 0.42987 0.97961 0.961 1.2804 1.8071z" fill="#DE7E61"/>
<path d="m146.96 343.97c-2.2508-3.3814-4.37-6.86-6.7806-10.123-4.5876-6.2105-9.3418-12.298-14.211-18.752-0.11722-1.3687-0.050369-2.4216 0.10443-3.8621 0.76816-0.453 1.4484-0.51834 2.4632-0.50821 1.5235 1.7829 2.5069 3.6896 3.9371 5.1626 5.7906 5.9638 11.719 11.794 17.687 18.038-0.62947 3.3629-1.3499 6.3611-2.4023 9.732-0.33203 0.37262-0.79794 0.31314-0.79794 0.31314z" fill="#DE7E61"/>
<path d="m211.18 234.97c3.4809-3.7163 6.0039-2.9508 8.2505 2.8134 1.2587 3.2294 2.4754 5.6428 6.0119 1.6389 1.7147-2.5495 3.3194-4.7576 4.9241-6.9658 0.60463 0.10616 1.2092 0.2123 1.8139 0.31845 0.99329 2.9256 1.9866 5.8513 2.8321 8.9652-1.5598-1.9535-2.9717-4.0953-5.0077-7.1836-2.8097 8.1009-3.1489 15.201-1.0937 22.507-0.8999 0.03067-1.4169-0.008453-1.9339-0.047546-0.20996-0.67761-0.41991-1.3552-0.85774-2.3233-0.90798-3.0817-1.588-5.8731-2.2681-8.6644-0.46632-0.044388-0.93263-0.088791-1.3989-0.13319-0.56436 1.536-1.1671 3.0592-1.6843 4.611-0.8299 2.49-1.2501 5.1919-2.4866 7.4526-1.6819 3.0751-4.2193 4.2496-7.3216 0.91309 0.056824-0.98965 0.24335-1.6852 0.98283-2.4169 1.7758 0.017639 3.6315 0.60876 4.117 0.036804 2.82-3.3221 2.6683-16.61-0.14038-19.802-0.55456-0.63019-1.9414-0.52794-2.9445-0.76346-0.49663-0.30693-0.99326-0.61388-1.7949-0.95647z" fill="#253F5C"/>
<path d="m146.65 344.11c0.30385-0.1442 0.76976-0.084716 1.0045-0.076599 2.2943 1.7537 4.3538 3.4993 6.412 5.5938-5.8608-3.9821-9.8378 0.73718-14.403 3.2063-11.315 6.1196-21.75 3.6352-26.006-9.5203-0.85397-2.6396-1.6694-5.2915-2.6527-8.3121 1.3202-0.18604 2.7903 0.002228 4.6035 0.28464 0.2131 10.662 1.4995 13.299 11.36 16.776 2.893 1.0202 7.0977-0.51871 10.298-1.8523 3.2838-1.3684 6.0741-3.921 9.3843-6.0996z" fill="#D58528"/>
<path d="m481.53 553.23c-0.80209-1.5042-1.4908-3.0272-1.5023-4.5553-0.081604-10.876-0.024902-21.752 0.028595-33.086 0.4389-0.47064 0.83701-0.48389 1.5313-0.44873 1.2702 6.8302 2.2702 13.608 3.2101 20.395 0.76932 5.5551 1.467 11.12 2.2542 17.081-1.6598 0.46448-3.3774 0.5285-5.5219 0.61371z" fill="#259FBC"/>
<path d="m37.107 589.12c0.4568 8.9412 0.63774 18.043 0.68139 27.145 0.081173 16.927 0.082333 33.854 0.21619 51.238-0.59354-0.61871-1.8866-1.692-1.8913-2.7708-0.10682-24.558-0.077865-49.116-0.035049-73.674 0.001034-0.59308 0.45061-1.1854 1.0288-1.9388z" fill="#E7E4DF"/>
<path d="m459.09 521.6c3.5132-1.0345 2.8841 1.4724 2.8841 3.324-4.28e-4 11.547-0.057221 23.093-0.1824 35.052-0.92285-0.38757-2.2887-1.0747-2.4854-2.0083-0.42566-2.0193-0.25217-4.1648-0.5018-6.6875-0.056244-10.03 0.065521-19.632 0.28558-29.68z" fill="#30A2BF"/>
<path d="m229.3 257c-2.4381-7.2365-2.0989-14.336 0.71082-22.437 2.036 3.0883 3.448 5.2301 5.2374 7.5448 0.2126 1.7349 0.04776 3.297-0.21889 5.5873-1.02 3.0474-1.7749 5.4537-2.941 7.6407-0.43611 0.81787-1.8307 1.1247-2.7883 1.6645z" fill="#E4D5D3"/>
<path d="m219.89 314.28c-0.3137 0.35208-0.55243 0.42389-0.63463 0.34079-2.0794-2.1017-4.1424-4.2196-6.2082-6.3347 2.7657-1.7436 5.5313-3.4872 8.6911-5.1982-0.30408 3.6349-1.0022 7.2373-1.8482 11.192z" fill="#F59E7F"/>
<path d="m38.572 561.36c0.080071 7.8116-0.11585 15.925-0.57837 24.309-0.19395-3.7336-0.13798-7.7372-0.043987-11.74 0.096027-4.0894 0.22937-8.1778 0.62236-12.569z" fill="#E7E4DF"/>
<path d="m228.91 257.07c1.3405-0.60956 2.7351-0.91635 3.1712-1.7342 1.1662-2.187 1.921-4.5933 2.8887-7.3138-0.25362 2.9909 0.13852 6.6486-1.0306 9.7101-1.5671 4.1036-4.3176 3.8853-6.9444-0.35443 0.49817-0.31613 1.0152-0.27701 1.9151-0.30768z" fill="#708BA6"/>
<path d="m40.146 528.1c-0.061062 4.9689-0.46418 10.09-1.093 15.515 0.099838-4.9184 0.42541-10.141 1.093-15.515z" fill="#E7E4DF"/>

<path d="m38.589 553.25c0.36862 0.6593 0.51006 1.4935 0.44951 2.5109-0.36022-0.65649-0.51846-1.4962-0.44951-2.5109z" fill="#E7E4DF"/>
<path d="m157.14 352.63c-0.62386-0.12659-1.3314-0.5722-2.0784-1.362 0.6386 0.11819 1.3166 0.58057 2.0784 1.362z" fill="#D58528"/>
<path d="m225.62 203.81c-0.43741-0.32326-0.76515-0.9267-0.87103-1.6651 0.47479 0.37167 0.72775 0.8783 0.87103 1.6651z" fill="#FFA531"/>
<path d="m226.39 207.84c-0.38878-0.34721-0.64386-0.95856-0.68738-1.6934 0.41473 0.39407 0.61792 0.91168 0.68738 1.6934z" fill="#FFA531"/>
<path d="m106.8 335.62c-0.33199 0.4902-0.94279 0.88635-1.8494 1.2247 0.32633-0.47812 0.94845-0.89844 1.8494-1.2247z" fill="#D58528"/>
<path d="m252.22 228.87c-0.19485 0.024032-0.2679-0.31273-0.25421-0.48378 0.15883 0.039215 0.30396 0.24948 0.25421 0.48378z" fill="#F6A280"/>
<path d="m154.92 350.79c-0.13609 0.008148-0.43971-0.16824-0.81857-0.60644 0.15938-0.026001 0.40146 0.2019 0.81857 0.60644z" fill="#D58528"/>
<path d="m669.95 346.41c1.8151 1.8532 3.6025 4.0642 5.726 6.2999 6.6617 2.3358 13.013 1.9199 19.382 0.22037 8.5669-2.286 11.122-6.1581 9.9784-15.553 3.7645 0.3844 7.2867 2.103 7.7325 6.1086 0.66821 6.004-4.3126 8.8337-8.5775 11.023-9.2416 4.7451-19.185 5.7735-29.349 3.2212-4.7693-1.1977-7.1401-6.6409-4.8921-11.321z" fill="#259FBC"/>
<path d="m704.33 570.01c3.2679-0.005738 6.0917-0.005738 8.9155-0.005738-0.043885 0.48602-0.087708 0.97198-0.13159 1.458-8.8685 1.5504-17.454 0.96246-26.912-4.362 12.009-1.906 22.727-3.6071 34.869-5.5342-7.4673 5.599-15.52 4.5699-22.656 7.3424 1.8237 0.36908 3.6473 0.73816 5.9152 1.1015z" fill="#fff"/>
<path d="m705.06 336.71c-0.3034-0.15738-0.56928-0.56912-0.78894-1.2415 0.30627 0.15534 0.56647 0.57123 0.78894 1.2415z" fill="#259FBC"/>
<path d="m144.14 508.13c-2.1944 0.24512-4.3978 0.76276-6.5817 0.69019-11.929-0.39645-23.851-1.0175-35.781-1.3787-3.3485-0.10141-4.6859-1.3584-4.8001-4.742-0.53153-15.748-1.4402-31.486-1.8071-47.237-0.24214-10.398 0.20555-20.812 0.55577-31.606 4.4923 7.2245 8.7732 14.837 13.17 23.137 2.0534 4.3018 3.8952 7.9715 5.9478 11.519 5.6711 9.802 11.407 19.567 17.162 29.32 4.0061 6.7886 8.0866 13.533 12.134 20.298z" fill="#FD9106"/>
<path d="m144.56 508.17c-4.4733-6.8041-8.5538-13.549-12.56-20.337-5.7554-9.7529-11.491-19.518-17.162-29.32-2.0526-3.5477-3.8944-7.2174-5.8131-11.203 3.4663 3.8994 7.1142 8.0258 10.316 12.473 5.5217 7.671 10.714 15.578 16.141 23.319 5.7831 8.2499 11.677 16.422 17.356 24.815-2.7282 0.22202-5.2897 0.25732-8.2771 0.25296z" fill="#B6731D"/>
<path d="m207.6 515.78c-4.1572 1.5525-8.0378 2.8612-11.918 4.1699-0.14685-0.40302-0.29372-0.80603-0.44058-1.2091 6.7499-3.4726 13.5-6.9452 20.035-10.307 0.77753 9.7456-8.6332 24.949-15.506 25.359 3.3353-4.6359 6.9996-9.561 10.444-14.635 0.86295-1.2712 1.0196-3.0218 1.7719-5.4136-1.8916 0.82526-3.0005 1.309-4.386 2.0367z" fill="#80929C"/>
<path d="m615.86 217.48c-2.2199-4.5443-4.4399-9.0887-7.2521-14.846 2.257 0.64517 3.4713 0.62018 3.7789 1.136 4.716 7.9048 9.3138 15.88 13.845 23.677-8.4535 1.986-33.484-20.892-33.196-32.466 2.9887 4.2146 5.6285 8.7435 9.0629 12.557 3.5336 3.9233 7.8422 7.1486 12.288 11.024 0.79889 0.43704 1.1218 0.52921 1.5835 0.85466 0.39355 0.22105 0.64832 0.20883 0.90308 0.1966-0.094666-0.37105-0.18927-0.74211-0.32819-1.3294-0.20105-0.47421-0.41455-0.67043-0.68475-0.80492z" fill="#E4D5D3"/>
<path d="m212.83 236.3c1.1482-0.13431 2.535-0.23656 3.0896 0.39363 2.8087 3.1916 2.9604 16.48 0.14038 19.802-0.48555 0.57196-2.3412-0.019165-3.8473-0.27762-0.031464-6.6523 0.22034-13.1 0.61728-19.918z" fill="#F59E7F"/>
<path d="m615.83 219.18c-0.32294-0.092148-0.64587-0.18431-1.1442-0.46842 0.037719-0.38011 0.25098-0.56828 0.8186-0.99625 0.6247-0.10529 0.8382 0.090927 0.8429 0.7283-0.2738 0.49838-0.39551 0.61737-0.51727 0.73636z" fill="#630313"/>
<path d="m616.39 218.66c0.29102 0.2079 0.38562 0.57896 0.48029 0.95001-0.25476 0.012237-0.50952 0.024459-0.90308-0.1966-0.016968-0.3523 0.10474-0.47128 0.42279-0.75342z" fill="#630313"/>
</svg>
