<?xml version="1.0" encoding="UTF-8"?>
<svg enable-background="new 0 0 1080 1080" version="1.1" viewBox="0 0 1080 1080" xml:space="preserve" xmlns="http://www.w3.org/2000/svg">

<path d="m284.97 734.89c5.2546-10.96 6.5808-22.423 7.7758-33.928 1.555-14.969 3.2925-29.92 4.7222-44.901 0.69238-7.2548 0.72049-14.571 1.3237-21.837 0.33936-4.087 0.69428-8.3082 1.9735-12.159 7.2519-21.832 14.531-43.663 22.359-65.293 2.7889-7.7065 7.1399-14.848 10.71-22.109-8.5202-6.271-17.708-10.205-28.232-12.014-6.7574-1.1613-13.165-4.955-19.408-8.1896-2.2247-1.1527-4.5354-3.9207-5.031-6.3184-2.05-9.9163-1.8653-19.857 5.105-28.044 3.9786-4.6729 9.8105-5.9361 15.861-5.0655 14.158 2.0371 27.551-0.76642 40.527-6.228 0.95715-0.40286 1.8096-1.464 2.3339-2.4247 8.3905-15.377 18.004-29.809 30.006-42.728 5.8693-6.3173 10.107-14.121 15.433-20.98 5.6441-7.2675 11.473-14.422 17.657-21.23 4.8364-5.3251 9.9664-10.52 15.614-14.946 15.698-12.301 26.138-28.88 37.096-44.974 3.7176-5.4599 5.351-12.297 8.3663-18.289 2.9545-5.8709 6.5428-11.42 9.6657-17.211 0.99219-1.8398 1.2997-4.036 2.0653-6.013 3.5993-9.2943 7.2166-18.582 10.9-27.843 1.1779-2.9621 2.5773-5.8362 4.0238-9.084-27.272-8.607-44.733-25.674-50.407-53.425-4.0439 0-7.5494 0.62073-10.74-0.11838-8.964-2.0766-14.407-8.4082-12.232-18.943 2.5116-12.165-1.712-21.491-6.5607-31.444-5.7616-11.827-10.046-24.069-9.1554-37.574 1.5753-23.894 10.554-43.966 29.648-59.139 17.347-13.784 36.767-21.035 59.066-19.685 19.224 1.1637 36.22 7.887 50.919 20.48 17.104 14.653 25.921 33.664 29.569 55.423 0.51776 3.0886 0.61078 6.358 0.23651 9.4638-0.78412 6.5062 1.2444 12.108 3.8595 17.936 1.6653 3.7113 1.2832 8.3127 2.022 12.479 0.44086 2.4864 0.64569 5.375 2.0582 7.2554 3.1712 4.2218 6.9302 8.0246 10.636 11.816 3.7755 3.8631 7.9421 6.7097 13.922 6.2334 6.145-0.4894 11.556 2.5672 15.53 6.6613 6.799 7.0048 15.527 10.677 23.532 15.632 2.7597 1.7085 5.4286 3.6737 7.7934 5.8904 8.4284 7.9005 17.392 15.379 24.832 24.139 6.1674 7.2608 10.51 16.08 15.587 24.254 2.1286 3.4267 4.4566 6.8047 6.0303 10.488 8.8674 20.756 13.709 42.657 18.14 64.68 2.4033 11.947 5.5734 23.75 7.66 35.746 1.4703 8.4528 1.5323 17.141 2.529 25.688 1.0305 8.8381 2.2108 17.671 3.7115 26.44 3.887 22.712 7.7727 45.428 12.112 68.055 1.6038 8.3623 4.6349 16.441 6.7206 24.724 1.9265 7.6504 3.7113 15.355 5.1059 23.116 2.0988 11.681 4.3237 23.381 5.5258 35.171 1.1562 11.342 1.5247 22.814 1.4111 34.221-0.097595 9.7958-7.548 15.288-15.286 18.367-10.333 4.1114-14.186 10.711-14.929 21.424-0.61859 8.9214-3.9011 17.632-5.6357 26.508-2.5436 13.016-0.9671 25.925 1.2441 38.861 0.99847 5.841 0.11475 12.025 1.2901 17.809 1.5236 7.4973 4.1952 14.767 6.4714 22.104 3.5023 11.29 6.6144 22.731 10.762 33.782 4.9619 13.22 10.525 26.241 16.412 39.079 5.4542 11.893 9.9836 23.895 11.198 37.074 0.38257 4.1528 2.5046 8.1226 3.6055 12.236 2.405 8.9871 4.2789 18.135 7.0856 26.991 3.3148 10.459 7.3874 20.677 11.126 31.001 1.5481 4.2747 3.5757 8.4476 1.8163 13.226-0.99591 2.7048-0.17615 4.3753 2.536 6.1816 10.518 7.0049 20.155 15.05 27.206 25.806 4.5369 6.9207 4.4169 17.43 0.10828 24.641-8.1088 13.571-20.214 22.435-34.071 29.008-8.5947 4.0766-17.578 7.4833-26.655 10.34-5.9647 1.8771-12.417 1.7141-18.071 5.3236-9.3701 5.9822-18.681 12.383-28.815 16.755-11.057 4.77-22.832 8.5327-34.667 10.598-7.0315 1.2277-14.816-1.4766-22.185-2.8325-1.8929-0.34827-4.1132-1.9058-5.1221-3.5562-4.5501-7.4431-5.5275-19.769 0.97766-27.623 7.7405-9.3453 14.036-19.886 20.976-29.897 1.285-1.8535 2.6572-3.6465 4.3257-5.9272-10.374-2.6809-11.893-10.791-12.828-19.23-1.0385-9.3687-1.4731-18.848-3.2522-28.071-0.82196-4.2614-4.266-7.9987-6.4288-12.023-5.6206-10.458-11.749-20.691-16.646-31.48-6.9241-15.257-12.764-31.003-19.376-46.407-4.1304-9.6222-9.1049-18.884-13.192-28.522-3.702-8.7294-6.7239-17.748-10.027-26.645-1.0895-2.9349-1.6154-6.2172-3.2672-8.7812-6.7624-10.496-11.19-21.89-14.155-35.125-3.0813 4.2653-5.4076 8.0952-8.3207 11.409-11.098 12.626-18.975 27.29-27.349 41.705-6.6873 11.513-14.504 22.364-21.612 33.639-6.6631 10.569-12.952 21.374-19.618 31.941-2.6101 4.1373-5.3024 8.4365-8.8171 11.75-11.154 10.516-18.101 23.936-25.642 36.829-6.0945 10.42-9.1352 22.145-8.7787 34.455 0.36188 12.498-0.31879 24.836-5.0073 36.642-2.9835 7.5128-8.1424 12.399-16.437 13.002-25.073 1.8214-47.348-6.0931-66.239-21.926-9.8474-8.2531-20.867-12.811-32.41-17.178-13.188-4.989-25.962-11.214-36.383-20.672-6.0586-5.4993-11.078-12.857-14.561-20.315-5.392-11.544 2.4545-22.799 15.924-23.942 7.4474-0.63202 14.998 0.034057 22.469-0.41992 10.232-0.6217 20.44-1.6799 30.644-2.6972 4.4395-0.44263 6.3765-2.9006 6.582-7.6202 0.36774-8.4458 2.9335-16.256 7.1468-23.788 2.3825-4.2595 2.7346-9.7169 3.7064-14.692 4.0607-20.792 13.911-38.865 25.852-56.021 2.4216-3.4794 4.7173-7.2009 6.2232-11.135 5.2543-13.728 13.909-25.123 24.114-35.343 4.7553-4.7622 5.3258-10.76 5.5421-16.362 0.27615-7.155 2.6125-13.491 4.3985-20.168 2.844-10.633 4.6576-21.537 7.1851-32.261 3.3036-14.016 9.0776-27.01 16.273-39.494 5.9759-10.368 11.329-21.104 16.711-31.802 2.8521-5.6696 5.2515-11.574 7.6693-17.448 0.42743-1.0386 0.42511-3.1547-0.20163-3.5909-8.8842-6.1834-9.2342-15.924-9.4571-24.96-0.30881-12.52 1.2368-25.074 1.5235-37.624 0.17767-7.7778-0.30417-15.59-0.85007-23.361-0.86966-12.38-2.0383-24.74-3.0831-37.107-0.76584-9.0658-1.5358-18.131-2.3904-28.218-3.877 3.7955-7.7292 6.9448-10.823 10.716-8.0516 9.8161-18.7 15.89-29.816 21.244-14.396 6.9342-27.121 16.08-38.898 28.04 3.3771 0.55023 6.195 1.3869 9.019 1.4077 17.325 0.1282 26.615 21.286 22.935 34.669-3.5611 12.951-8.1102 25.651-12.723 38.28-1.2488 3.4193-3.7542 6.9015-6.6423 9.0866-5.2668 3.9848-7.024 9.2916-8.9871 15.196-3.5658 10.725-7.8632 21.263-12.653 31.506-4.0315 8.6205-9.0494 16.798-13.897 25.014-5.7475 9.7404-7.375 20.692-9.6471 31.444-2.178 10.307-4.5022 20.627-5.8096 31.061-1.3488 10.764-1.3307 21.691-2.32 32.51-0.80896 8.8466-2.2198 17.638-3.3643 26.454-1.4677 11.305-2.8654 22.619-4.4228 33.912-1.7337 12.571-3.6209 25.12-5.4241 37.681-0.5162 3.5959-1.2588 7.189-1.4016 10.803-0.38409 9.723-5.0484 16.604-12.129 23.216-15.973 14.917-34.838 12.995-53.79 10.765-13.688-1.6105-17.042-15.996-15.272-25.833 2.8004-15.565 6.2427-31.038 8.3734-46.691 1.8278-13.428 2.0565-27.067 3.2545-40.59 1.1295-12.749 0.1496-25.936 7.1924-37.968m176.75-545.14c0.20926 2.88-0.36105 6.1112 0.7529 8.5836 7.8808 17.492 22.457 27.152 40.156 32.365 10.231 3.0131 11.809 2.0232 16.113-5.1412 2.6537-5.5479 8.198-6.2383 11.331-0.77328-1.3525 1.8504-2.3434 4.2099-4.116 5.4687-11.789 8.3719-18.181 20.651-24.413 33.066-0.32425 0.64594 0.015503 1.6252-0.47604 2.8943-3.0726 6.2109-7.4677 11.92-7.1211 19.42 0.046508 1.0062-0.61936 2.1111-1.1431 3.0674-4.554 8.3158-9.3111 16.525-13.681 24.936-3.0828 5.9338-5.1145 12.463-8.5831 18.135-5.4838 8.9673-11.779 17.439-18.318 26.449-1.7291 1.9333-3.313 4.0243-5.2119 5.7734-9.2379 8.5095-18.962 16.535-27.725 25.503-6.9878 7.1517-12.947 15.328-19.164 23.207-6.2395 7.9072-11.93 16.264-18.405 23.965-9.6184 11.44-18.007 23.67-24.769 36.945-2.2847 4.4854-5.6991 6.6684-9.9894 8.3598-4.6546 1.8351-9.2274 3.8774-14.397 5.332-10.837 0.40622-21.678 0.73935-32.508 1.3048-1.4649 0.076507-3.8019 1.0235-4.1356 2.075-1.2832 4.0429-1.9157 8.2924-2.9897 13.413 13.45 3.8651 26.181 7.5234 39.428 11.584 2.7776 1.9055 5.5552 3.811 8.8002 6.2061 0.8718 0.76685 1.6702 1.6436 2.6275 2.2824 5.5146 3.6796 6.6711 6.9573 4.1574 12.784-4.7474 11.004-10.044 21.795-14.286 32.989-6.5848 17.379-12.663 34.957-18.549 52.587-1.7354 5.1979-2.4205 10.819-3.0087 16.309-0.70361 6.5665-0.5126 13.228-1.196 19.798-1.461 14.045-3.5783 28.027-4.7846 42.09-1.1835 13.797-2.9213 27.311-8.8949 40.059-2.3332 4.9791-4.4352 10.402-5.0264 15.799-1.8105 16.532-3.2206 33.13-4.0689 49.74-0.99124 19.409-3.4618 38.507-8.8458 57.209-1.224 4.2518 1.0717 8.7731 5.5478 9.3222 7.3474 0.90131 14.828 0.719 23.004 0.81226 8.9352-0.69952 15.42-5.9518 21.663-11.656 5.2646-4.8099 4.4236-11.584 5.417-17.654 1.6516-10.092 2.6975-20.282 4.0767-30.421 0.5661-4.1613 1.4763-8.2778 1.9834-12.445 1.1016-9.0533 1.3823-18.261 3.1989-27.161 3.1864-15.611 4.4984-31.324 4.8759-47.19 0.13254-5.5709 0.3736-11.197 1.2802-16.679 1.6027-9.6927 3.5175-19.349 5.7347-28.921 2.752-11.88 5.9441-23.658 9.5775-35.82 1.154-2.1182 2.2498-4.2706 3.4731-6.3479 3.5542-6.035 7.6194-11.819 10.636-18.109 4.4908-9.3612 8.39-19.017 12.231-28.671 0.92148-2.3159 0.62241-5.1174 1.2438-8.2929 3.1363-5.6748 6.2726-11.35 10.127-17.068 2.5414-2.8667 5.8226-5.3676 7.4612-8.6808 2.8799-5.8234 4.9581-12.077 6.9873-18.277 1.6671-5.0931 2.9702-10.328 4.0796-15.575 1.1893-5.6245-4.2263-15.75-9.0596-16.55-8.0797-1.3384-16.276-1.9649-24.368-3.2397-2.3494-0.37006-4.5116-1.9288-6.5801-3.7646 0.1637-8.1127 5.1692-13.278 10.723-18.339 12.591-11.473 25.597-22.343 41.363-29.239 14.512-6.3478 25.241-17.252 36.158-28.243 6.4805-6.5248 14.463-11.558 22.146-16.682 3.0789-1.3158 3.7615 0.34128 3.75 2.9718-0.024108 5.4921-0.27133 11 0.044465 16.474 0.85083 14.749 1.9536 29.483 2.9474 44.223 0.68451 10.153 1.3342 20.308 2.072 30.456 0.053681 0.7384 0.69791 1.4339 0.9798 3.0924 0.028198 6.0709 0.056396 12.142-0.055603 19.032-0.16654 3.023-0.43738 6.045-0.46396 9.0693-0.018616 2.1165 0.49368 4.242 0.42709 6.3527-0.23907 7.5754-0.39298 15.166-1.0278 22.713-0.48526 5.769 2.3097 9.736 6.5477 12.568 6.3875 4.2686 6.3268 8.1884 3.7284 13.677-0.73386 1.5931-1.5551 3.1528-2.1834 4.7865-1.3077 3.4007-2.1837 7.0078-3.8206 10.234-5.6434 11.123-11.58 22.096-17.321 33.17-3.7019 7.1407-6.9282 14.549-10.961 21.492-5.0035 8.6155-7.304 17.942-8.9525 27.587-1.1479 6.7163-1.9299 13.616-4.1245 20.005-3.6511 10.629-6.1187 21.301-7.1073 32.545-0.5163 5.8724-2.733 11.616-7.9724 16.228-5.5086 4.8481-9.9368 11.185-13.886 17.469-3.7945 6.0389-5.9725 13.075-9.5709 19.26-6.2163 10.685-13.092 20.983-19.486 31.567-6.1645 10.205-9.1616 21.473-10.926 33.202-0.68155 4.532-1.997 9.1678-4.0343 13.252-3.4746 6.9658-7.4035 13.583-4.9222 21.851 0.34982 1.1656 0.36826 3.0818-0.33252 3.8052-4.3908 4.5322-8.2501 10.311-15.03 11.15-11.524 1.4271-23.127 2.3132-34.721 3.0533-6.4735 0.41333-12.996 0.012085-19.495 0.092346-6.1832 0.076294-8.6536 3.3243-5.8138 8.741 2.3763 4.5328 5.455 9.1452 9.3531 12.345 10.126 8.313 21.779 14.191 34.007 18.944 7.8939 3.0686 15.987 5.8867 23.351 9.9708 5.4662 3.0318 9.7187 8.17 14.836 11.928 13.453 9.8803 29.07 14.188 45.254 16.785 6.8347 1.097 11.606-1.9627 13.594-8.7717 4.4546-15.26 2.7173-31.049 3.9348-47.356 0.35684-1.212 0.71372-2.4239 1.1075-4.392 1.9878-3.9855 4.5287-7.7958 5.8578-11.99 3.7185-11.735 11.471-21.107 17.877-31.22 3.5549-5.6127 9.0723-9.9507 12.927-15.413 6.1318-8.6893 11.608-17.841 17.37-26.791 9.9324-15.428 20.336-30.578 29.673-46.358 8.7997-14.873 16.669-30.231 28.197-43.374 6.2848-7.1652 11.432-15.316 17.418-22.761 2.9523-3.6716 7.1663-3.17 9.2526 0.82983 1.4706 2.8194 2.3517 5.951 3.4443 8.962 2.9344 8.0862 5.5847 16.287 8.8289 24.246 3.4303 8.4161 7.7262 16.483 11.063 24.932 2.808 7.1107 3.6103 15.229 7.3626 21.707 8.5096 14.691 14.309 30.467 20.71 46.027 3.0959 7.5253 5.7866 15.224 9.0808 22.659 2.6553 5.9927 5.9557 11.698 8.9431 17.545 2.8494 5.577 5.4735 11.279 8.5493 16.728 2.9276 5.186 7.5127 9.7438 9.2098 15.244 2.4926 8.0786 3.1685 16.734 4.4175 25.174 0.80518 5.4403 1.1437 10.951 2.0028 16.381 0.099671 0.62976 2.3748 1.5729 3.332 1.2971 4.4464-1.2809 8.7837-2.9401 14.433-4.9071-0.48041 5.9465 0.64636 12.246-1.684 16.762-5.3658 10.398-12.22 20.059-18.848 29.762-4.0284 5.8973-8.78 11.299-13.169 16.952-3.4681 4.4669-3.3387 7.1329 1.8937 9.2965 4.1724 1.7255 9.2988 2.7378 13.691 2.0585 18.11-2.8008 33.903-11.454 49.194-21.075 7.5327-4.7388 14.976-9.1093 24.231-10.487 7.9304-1.1808 15.769-4.0721 23.201-7.2528 11.743-5.0258 21.744-12.852 30.744-21.884 5.7266-5.7466 6.2836-10.491 1.2848-16.86-3.3284-4.2403-7.5612-7.7708-11.462-12.263-0.70648-0.35913-1.413-0.7182-2.679-1.2391-0.42377-0.39026-0.84753-0.78058-1.3334-1.8087-0.70508-0.34149-1.4102-0.68298-2.6719-1.1871-0.42273-0.38849-0.84546-0.77698-1.3328-1.8079-0.71198-0.33826-1.4239-0.67658-2.6914-1.1787-0.41382-0.39636-0.82764-0.79272-1.3028-1.8235-0.6983-0.34662-1.3967-0.69324-2.6608-1.204-0.42322-0.40027-0.84644-0.80054-1.3329-1.8241-0.68738-0.34454-1.3748-0.68915-2.6299-1.2083-0.43439-0.39612-0.86884-0.79224-1.3728-1.815-0.69952-0.32959-1.3991-0.65912-2.5661-1.0977-0.31567-0.14856-0.50372-0.39459-0.48798-1.4507-1.0173-1.555-2.0345-3.11-2.7287-5.2852 1.6579-0.9729 3.5566-1.6957 4.9031-2.9921 1.2416-1.1952 2.9084-3.2468 2.6119-4.5015-0.94238-3.9882-2.7385-7.7714-4.1595-11.65-3.0826-8.4139-6.4284-16.747-9.1062-25.289-1.9525-6.2277-2.9216-12.758-4.4875-19.114-1.9131-7.7653-4.0118-15.485-5.9927-23.233-1.3479-5.2726-2.1202-10.76-4.0718-15.794-2.478-6.3917-6.126-12.32-8.8398-18.633-3.5889-8.3486-6.7123-16.896-10.133-25.319-1.8805-4.6309-4.4069-9.0454-5.8478-13.798-2.3682-7.812-3.7609-15.922-6.1823-23.715-2.222-7.1509-6.3654-13.845-7.6987-21.102-2.4912-13.557-3.9282-27.345-5.0854-41.097-0.72388-8.6027-0.52893-17.339-0.011902-25.972 0.42535-7.1017 0.8092-14.553 3.2268-21.106 3.4819-9.438 4.1396-19.106 5.6569-29.337 1.7723-1.4308 3.3996-3.1096 5.3438-4.2462 6.0417-3.5323 12.429-6.5258 18.203-10.437 2.162-1.4647 3.985-4.789 4.2296-7.4261 0.435-4.691-0.32562-9.5173-0.81158-14.264-0.84967-8.2996-1.7654-16.595-2.8514-24.867-0.89105-6.7869-1.9875-13.55-3.1391-20.299-1.823-10.684-3.535-21.406-7.9762-32.159-0.67841-2.3709-1.5505-4.7055-2.0028-7.1188-2.2954-12.25-4.482-24.52-6.8711-37.617-2.7116-14.305-5.6055-28.578-8.0639-42.926-1.3914-8.1208-2.1216-16.358-3.0518-24.554-1.0406-9.1679-1.3694-18.462-3.0732-27.5-3.6431-19.326-7.5714-38.619-12.169-57.736-2.8327-11.777-6.3734-23.51-10.98-34.694-3.8191-9.2715-9.6416-17.721-14.614-26.513-4.7772-8.4463-10.708-15.936-18.409-21.936-3.1002-2.4151-6.1381-4.9133-9.2928-7.2546-5.0281-3.7317-9.9948-7.572-15.24-10.977-4.8676-3.1596-11.734-4.6403-14.749-8.9426-5.2382-7.4746-11.495-8.8515-20.141-8.0726-4.1508-2.8741-8.9744-5.1293-12.309-8.754-6.5055-7.0705-12.178-14.907-18.148-23.295 0.24463-3.6973 1.195-7.5224 0.5545-11.059-0.79358-4.3826-2.795-8.5719-4.5059-12.75-0.63379-1.5478-1.9229-2.8273-3.1418-4.8257 0.70758-4.6116 2.5109-9.3656 1.9332-13.81-2.5101-19.315-10.552-35.91-25.539-48.922-12.507-10.858-26.993-16.521-43.346-17.572-17.689-1.1358-32.992 5.2734-46.865 15.624-18.155 13.545-26.685 32.011-26.904 54.395-0.096161 9.8612 3.8538 18.797 8.2248 27.337 5.8914 11.511 11.177 22.86 7.7205 36.397-1.4658 5.7405 0.014588 6.375 5.9498 6.3916 4.1662 0.011688 8.7878-3.7479 13.017 1.5313 2.3181 3.7639 4.6363 7.5278 6.7359 12.039z" fill="#FDFDFC"/>
<path d="m454.68 933.36c-1.0173 15.555 0.71997 31.344-3.7346 46.604-1.9877 6.809-6.7588 9.8688-13.594 8.7717-16.183-2.5975-31.8-6.9051-45.254-16.785-5.1174-3.7584-9.37-8.8966-14.836-11.928-7.3638-4.0841-15.457-6.9022-23.351-9.9708-12.228-4.7534-23.881-10.631-34.007-18.944-3.8981-3.2002-6.9767-7.8126-9.3531-12.345-2.8398-5.4167-0.36935-8.6647 5.8138-8.741 6.4989-0.080261 13.021 0.32098 19.495-0.092346 11.594-0.74011 23.196-1.6263 34.721-3.0533 6.7794-0.83948 10.639-6.6179 15.03-11.15 0.70078-0.72339 0.68234-2.6396 0.33252-3.8052-2.4813-8.2678 1.4476-14.885 4.9222-21.851 2.0373-4.0844 3.3528-8.7203 4.0343-13.252 1.7639-11.729 4.761-22.997 10.926-33.202 6.3939-10.584 13.27-20.883 19.486-31.567 3.5983-6.1848 5.7764-13.221 9.5709-19.26 3.9487-6.2843 8.3769-12.621 13.886-17.469 5.2393-4.6112 7.4561-10.355 7.9724-16.228 0.98852-11.244 3.4561-21.916 7.1073-32.545 2.1946-6.3889 2.9767-13.289 4.1245-20.005 1.6484-9.6451 3.949-18.972 8.9525-27.587 4.0326-6.9437 7.2588-14.352 10.961-21.492 5.741-11.074 11.678-22.047 17.321-33.17 1.6369-3.2263 2.5129-6.8333 3.8206-10.234 0.62827-1.6337 1.4495-3.1934 2.6657-4.6138 5.4761 8.1855 10.069 16.491 15.615 24.101 3.3058 4.5368 7.5229 9.1143 12.387 11.63 5.8966 3.0493 12.89 5.4084 19.441 5.488 18.21 0.22138 36.447-0.67847 54.651-1.588 6.9143-0.3454 13.871-1.4769 20.625-3.0421 12.183-2.8234 24.17-6.4879 36.347-9.3452 12.252-2.8751 24.761-4.7187 36.9-7.9751 5.4138-1.4525 10.476-2.8316 16.001-1.6226-1.17 9.7042-1.8277 19.372-5.3096 28.81-2.4176 6.5528-2.8015 14.004-3.2268 21.106-0.51703 8.6327-0.71198 17.369 0.011902 25.972 1.1572 13.752 2.5942 27.54 5.0854 41.097 1.3333 7.2563 5.4767 13.951 7.6987 21.102 2.4214 7.7926 3.8141 15.903 6.1823 23.715 1.4409 4.7529 3.9673 9.1675 5.8478 13.798 3.4202 8.4227 6.5436 16.97 10.133 25.319 2.7139 6.3127 6.3618 12.241 8.8398 18.633 1.9515 5.0339 2.7239 10.521 4.0718 15.794 1.9808 7.7488 4.0795 15.468 5.9927 23.233 1.566 6.3561 2.5351 12.886 4.4875 19.114 2.6778 8.5417 6.0236 16.875 9.1062 25.289 1.4211 3.8788 3.2172 7.662 4.1595 11.65 0.29651 1.2548-1.3703 3.3063-2.6119 4.5015-1.3466 1.2963-3.2452 2.0192-5.413 3.3694-11.931 7.0486-23.351 13.72-35.141 20.394-6.7044 2.84-13.039 5.6772-19.36 8.5083 2.0966 0.4729 4.4762 0.94977 6.8243 1.5497 10.43 2.6649 20.317 2.4666 28.271-6.0276 5.1501-5.4996 9.9647-11.313 15.232-17.151 2.2433-2.5692 4.2263-4.7736 7.3362-1.653 0.060547 0.34363 0.2486 0.58966 0.87152 1.0812 0.98096 0.68909 1.6547 1.0352 2.3284 1.3813 0.43439 0.39612 0.86884 0.79224 1.6577 1.562 1.0158 0.73505 1.6773 1.0965 2.3387 1.4579 0.42316 0.40033 0.84638 0.8006 1.6256 1.5717 1.0261 0.73639 1.6961 1.102 2.3661 1.4677 0.41382 0.39636 0.82764 0.79272 1.5967 1.5629 1.0371 0.73169 1.7189 1.0895 2.4007 1.4473 0.42273 0.38849 0.84546 0.77698 1.624 1.5367 1.0299 0.732 1.7041 1.0928 2.3782 1.4536 0.42377 0.39032 0.84754 0.78064 1.629 1.544 1.0363 0.75226 1.7149 1.1313 2.3936 1.5105 3.8281 3.8481 8.0609 7.3786 11.389 11.619 4.9988 6.3686 4.4418 11.113-1.2848 16.86-9.0002 9.0317-19.001 16.858-30.744 21.884-7.4317 3.1807-15.271 6.072-23.201 7.2528-9.2542 1.378-16.698 5.7484-24.231 10.487-15.292 9.6205-31.084 18.274-49.194 21.075-4.3924 0.67932-9.5188-0.33301-13.691-2.0585-5.2324-2.1636-5.3619-4.8296-1.8937-9.2965 4.389-5.6533 9.1407-11.055 13.169-16.952 6.6276-9.7026 13.482-19.364 18.848-29.762 2.3304-4.5157 1.2036-10.815 1.684-16.762-5.6493 1.967-9.9866 3.6262-14.433 4.9071-0.95728 0.27576-3.2324-0.66736-3.332-1.2971-0.85913-5.4298-1.1976-10.94-2.0028-16.381-1.2491-8.4396-1.925-17.095-4.4175-25.174-1.6971-5.5003-6.2822-10.058-9.2098-15.244-3.0757-5.4482-5.6998-11.151-8.5493-16.728-2.9874-5.8468-6.2878-11.553-8.9431-17.545-3.2941-7.4343-5.9849-15.133-9.0808-22.659-6.4014-15.56-12.201-31.336-20.71-46.027-3.7523-6.4781-4.5546-14.597-7.3626-21.707-3.3365-8.4492-7.6324-16.516-11.063-24.932-3.2442-7.9592-5.8945-16.16-8.8289-24.246-1.0926-3.011-1.9737-6.1426-3.4443-8.962-2.0862-3.9999-6.3002-4.5015-9.2526-0.82983-5.986 7.4445-11.133 15.596-17.418 22.761-11.527 13.142-19.397 28.5-28.197 43.374-9.3365 15.781-19.74 30.93-29.673 46.358-5.7621 8.9505-11.238 18.102-17.37 26.791-3.8543 5.4619-9.3717 9.7999-12.927 15.413-6.4051 10.113-14.158 19.485-17.877 31.22-1.3291 4.1943-3.87 8.0046-6.2977 12.495-7.7533-1.3629-15.459-2.3327-22.286-5.3138-9.7281-4.2477-18.805-9.983-28.187-15.035-0.57282-0.30841-1.3727-0.19519-2.3331-0.30994 1.6805 3.5013 3.041 6.6285 4.6485 9.623 3.1669 5.8996 7.6331 10.713 14.357 11.97 6.9511 1.2996 14.101 1.5251 21.158 2.2755 3.9309 0.41815 7.8499 0.94873 11.774 1.4286z" fill="#0F0909"/>
<path d="m723.83 606.83c-5.6982-0.94544-10.761 0.43372-16.175 1.8862-12.139 3.2564-24.649 5.1-36.9 7.9751-12.176 2.8572-24.164 6.5217-36.347 9.3452-6.7538 1.5652-13.711 2.6967-20.625 3.0421-18.204 0.90955-36.441 1.8094-54.651 1.588-6.5504-0.079589-13.544-2.4388-19.441-5.488-4.8643-2.5154-9.0815-7.0929-12.387-11.63-5.5457-7.6107-10.138-15.916-15.279-24.242 1.7809-5.5196 1.8417-9.4393-4.5459-13.708-4.238-2.8321-7.033-6.799-6.5477-12.568 0.6348-7.5469 0.7887-15.137 1.0278-22.713 0.06659-2.1107-0.44571-4.2363-0.42709-6.3527 0.026581-3.0242 0.29742-6.0463 0.94372-9.4998 2.5922-0.076965 4.9333-0.19293 6.7802 0.70618 12.504 6.087 26.127 5.4596 39.409 6.8401 16.603 1.7258 32.664-2.7263 48.813-5.0832 20.942-3.0563 41.745-7.4087 62.359-12.264 20.963-4.9375 41.627-11.15 62.413-16.835 4.9359-1.3499 9.8389-2.8198 14.757-4.2344 4.4341 10.026 6.1462 20.748 7.9692 31.432 1.1516 6.7487 2.248 13.512 3.1391 20.299 1.0859 8.2714 2.0017 16.567 2.8514 24.867 0.48596 4.7466 1.2466 9.5728 0.81158 14.264-0.24457 2.6371-2.0676 5.9614-4.2296 7.4261-5.7732 3.9114-12.161 6.9048-18.203 10.437-1.9442 1.1367-3.5715 2.8154-5.5175 4.5098z" fill="#F4690A"/>
<path d="m737 493.23c-4.9146 1.7781-9.8176 3.2481-14.753 4.5979-20.787 5.6845-41.45 11.897-62.413 16.835-20.613 4.855-41.417 9.2074-62.359 12.264-16.149 2.3569-32.211 6.809-48.813 5.0832-13.282-1.3805-26.905-0.75305-39.409-6.8401-1.8469-0.89911-4.188-0.78314-6.7101-1.1157-0.4379-6.0497-0.4661-12.121-0.053101-18.64 2.2052-0.81265 3.9655-1.1961 5.7339-1.5382 5.9578-1.1526 7.3198-5.0331 6.6412-10.519-0.60919-4.9243-0.72144-9.9088-1.0999-14.863-1.6394-21.464-3.1965-42.935-5.0029-64.385-0.5939-7.052-1.8496-14.048-2.5077-21.263 1.1839-2.6754 2.0727-5.158 3.3737-7.7043 3.2239 0.23749 6.0358 0.53867 8.9041 1.2726 0.2511 1.7512 0.38049 3.0831 0.65002 4.3861 5.7134 27.621 11.433 55.241 17.175 82.857 1.5442 7.4265 3.1671 14.837 4.7676 22.318 43-6.726 85.32-13.346 127.84-19.996-3.0128-20.688-5.8165-40.723-8.8689-60.72-4.7092-30.852-8.783-61.834-14.715-92.452-3.2653-16.853-9.4413-33.19-14.903-49.559-8.4913-25.448-28.592-39.048-52.187-47.764-11.566-4.2723-24.191-5.6765-36.296-8.737 4.1377-8.5327 10.635-12.883 20.168-12.538 1.6771 0.75284 3.1174 1.6971 4.4899 1.6071 9.0185-0.59155 17.164 2.8006 24.825 6.4987 11.159 5.3866 22.979 10.592 32.214 18.547 24.001 20.676 40.161 47.158 50.4 77.062 11.683 34.123 18.799 69.425 25.954 104.69 2.9612 14.595 5.4586 29.283 8.3737 43.888 0.3316 1.6615 2.167 4.4444 3.0305 4.344 5.0428-0.586 10.319-1.1964 14.826-3.287 1.6462-0.76355 1.3983-5.6102 2.0145-8.5941 2.2247 12.263 4.4113 24.533 6.7067 36.783 0.45227 2.4133 1.3244 4.7479 2.0063 7.4822z" fill="#C1B7AC"/>
<path d="m518.48 385.98c-2.8118-0.30118-5.6237-0.60236-9.0345-1.1707-3.4129-1.6159-6.1063-3.3794-9.0625-4.239-10.706-3.1131-21.481-5.9979-32.269-8.8214-7.5648-1.98-11.676-7.6131-15.306-13.856 5.9515-8.6813 12.246-17.153 17.73-26.12 3.4686-5.672 5.5003-12.202 8.5831-18.135 4.3696-8.4107 9.1266-16.62 13.681-24.936 0.52371-0.95633 1.1896-2.0612 1.1431-3.0674-0.34659-7.5001 4.0485-13.209 7.7419-19.643 7.0491-5.723 13.386-11.335 19.925-16.701 13.64-11.193 28.94-14.195 46.182-10.174 12.633 2.9461 24.463 7.7961 35.455 14.198 12.238 7.1274 22.772 16.591 25.116 31.747 3.0743 19.878 3.5929 39.92-3.0561 59.11-3.3811 9.7584-11.491 16.582-21.378 20.448-6.313 2.4683-12.764 4.5945-19.202 6.7269-2.9778 0.98639-6.0374 2.0791-9.1213 2.3132-5.2005 0.39478-9.14 2.2635-12.018 6.7688-3.4825 5.4524-8.5028 8.4408-15.185 7.5022-6.0391-0.84836-12.043-1.9517-18.054-2.9901-4.0587-0.70108-8.1666-2.2168-11.87 1.039z" fill="#352730"/>
<path d="m518.53 386.41c3.6468-3.6886 7.7548-2.1729 11.813-1.4718 6.0113 1.0384 12.015 2.1418 18.054 2.9901 6.6819 0.9386 11.702-2.0498 15.185-7.5022 2.8776-4.5053 6.8171-6.3741 12.018-6.7688 3.084-0.23413 6.1436-1.3268 9.1213-2.3132 6.438-2.1325 12.889-4.2586 19.202-6.7269 9.887-3.8658 17.997-10.689 21.378-20.448 6.649-19.19 6.1304-39.232 3.0561-59.11-2.344-15.156-12.878-24.62-25.116-31.747-10.992-6.4018-22.822-11.252-35.455-14.198-17.242-4.0208-32.542-1.019-46.182 10.174-6.5389 5.3658-12.876 10.978-19.664 16.478-0.39038-0.82407-0.73013-1.8034-0.40588-2.4493 6.2325-12.415 12.625-24.694 24.413-33.066 1.7726-1.2588 2.7635-3.6184 4.5569-5.8824 4.108-2.6987 7.775-4.9837 11.442-7.2687 12.146 2.7022 24.771 4.1064 36.337 8.3787 23.595 8.7156 43.695 22.316 52.187 47.764 5.462 16.37 11.638 32.706 14.903 49.559 5.9322 30.619 10.006 61.601 14.715 92.452 3.0524 19.997 5.8561 40.032 8.8689 60.72-42.516 6.6504-84.837 13.27-127.84 19.996-1.6005-7.4817-3.2234-14.892-4.7676-22.318-5.7422-27.615-11.462-55.236-17.175-82.857-0.26953-1.303-0.39893-2.6349-0.65002-4.3861z" fill="#F5690B"/>
<path d="m454.59 177.1c-3.8379-4.6669-8.4595-0.90726-12.626-0.91894-5.9352-0.016632-7.4156-0.65111-5.9498-6.3916 3.4565-13.537-1.8291-24.885-7.7205-36.397-4.371-8.5407-8.3209-17.476-8.2248-27.337 0.2182-22.384 8.7484-40.85 26.904-54.395 13.873-10.35 29.176-16.759 46.865-15.624 16.354 1.0501 30.84 6.7132 43.346 17.572 14.987 13.011 23.029 29.607 25.539 48.922 0.5777 4.4446-1.2256 9.1986-2.16 14.288-7.6392 1.5491-15.041 3.3227-22.468 3.4367-4.7277 0.072563-9.4462-2.541-14.253-3.552-8.001-1.6831-16.26-2.9249-23.569 1.8507-10.166 6.6416-15.636 16.568-18.008 28.702-5.4108 4.8323-11.126 8.923-15.84 13.952-4.4888 4.7882-7.933 10.556-11.836 15.893z" fill="#C4D9EE"/>
<path d="m728.21 448.55c-0.53406 3.4009-0.28619 8.2475-1.9324 9.0111-4.5071 2.0907-9.7836 2.701-14.826 3.287-0.86353 0.10037-2.6989-2.6825-3.0305-4.344-2.9152-14.604-5.4125-29.293-8.3737-43.888-7.1552-35.265-14.271-70.567-25.954-104.69-10.239-29.904-26.399-56.386-50.4-77.062-9.2352-7.9558-21.055-13.161-32.214-18.547-7.6613-3.6981-15.806-7.0902-24.825-6.4987-1.3724 0.090027-2.8127-0.85422-4.4698-2.0024-0.48865-4.8705 1.6104-7.1561 5.2952-9.0948 10.657-5.6067 21.077-11.662 31.591-17.541 7.9189-0.93044 14.176 0.44643 19.414 7.9211 3.015 4.3023 9.8818 5.783 14.749 8.9426 5.2455 3.4049 10.212 7.2452 15.24 10.977 3.1547 2.3413 6.1926 4.8394 9.2928 7.2546 7.7015 5.9996 13.632 13.49 18.409 21.936 4.9728 8.7922 10.795 17.242 14.614 26.513 4.6064 11.183 8.1471 22.917 10.98 34.694 4.5981 19.117 8.5264 38.41 12.169 57.736 1.7038 9.0382 2.0326 18.332 3.0732 27.5 0.93024 8.1959 1.6604 16.433 3.0518 24.554 2.4584 14.348 5.3523 28.621 8.1461 43.343z" fill="#F69C25"/>
<path d="m452.51 358.06c3.9236 6.0786 8.0351 11.712 15.6 13.692 10.788 2.8235 21.562 5.7083 32.269 8.8214 2.9562 0.85959 5.6496 2.6231 8.6505 4.3027-0.70196 2.8134-1.5908 5.296-3.1819 7.9899-4.6814-0.51682-7.5847 1.3723-9.3602 4.5627-1.87 3.36-3.0994 7.0766-4.6087 10.637-7.3069 5.7039-15.289 10.737-21.769 17.262-10.917 10.991-21.645 21.896-36.158 28.243-15.767 6.8964-28.773 17.767-41.363 29.239-5.554 5.0609-10.56 10.226-11.169 18.838-3.1531 1.1409-5.8308 2.1135-8.5735 2.3589-6.6052 0.59113-12.583 2.7562-15.754 8.6903-3.692 6.9106-9.5899 8.3669-16.41 8.7048-2.7776-1.9055-5.5552-3.811-8.6959-6.3244-2.0471-7.6039-2.7904-14.541 0.1077-21.479 0.73718-1.7652 0.70227-3.8528 1.0221-5.7922 4.6086-1.9519 9.1814-3.9942 13.836-5.8293 4.2903-1.6914 7.7047-3.8744 9.9894-8.3598 6.7618-13.275 15.151-25.506 24.769-36.945 6.4755-7.7016 12.166-16.058 18.405-23.965 6.217-7.8787 12.177-16.055 19.164-23.207 8.7625-8.968 18.487-16.993 27.725-25.503 1.8988-1.7491 3.4828-3.8401 5.506-5.9377m8.1218 50.939c-2.1456 0.96606-4.2913 1.9322-6.4369 2.8983 0.2926 0.7569 0.58518 1.5138 0.87778 2.2707 2.6227-0.74576 5.6232-0.93332 7.7681-2.3851 2.429-1.644 0.55267-2.5732-2.209-2.7838z" fill="#B97252"/>
<path d="m340.92 521.65c6.5868-0.58264 12.485-2.0389 16.177-8.9495 3.1702-5.9341 9.1484-8.0992 15.754-8.6903 2.7427-0.24548 5.4204-1.2181 8.4838-1.948 2.6042 0.92587 4.7663 2.4846 7.1157 2.8546 8.0923 1.2748 16.289 1.9013 24.368 3.2397 4.8333 0.80063 10.249 10.926 9.0596 16.55-1.1095 5.2471-2.4125 10.482-4.0796 15.575-2.0293 6.1995-4.1074 12.453-6.9873 18.277-1.6386 3.3133-4.9197 5.8141-8.2341 8.6198-1.6019-0.12824-2.4309-0.19543-3.2922-0.64087 0.043732-1.2007-0.047852-2.0831 0.22113-2.8366 3.8135-10.684 7.777-21.316 11.485-32.036 1.9232-5.5601-0.034638-8.5044-5.9999-8.7236-4.6067-0.16925-9.2584 0.86664-13.864 0.68878-6.882-0.26587-10.658 3.2318-13.206 9.1006-3.0969 7.1346-6.6432 14.078-9.6259 21.257-2.1314 5.1303-3.6549 10.513-5.8177 15.857-1.8593 1.1663-4.3179 2.019-4.6595 3.3967-1.0018 4.0406-1.1617 8.29-1.8138 12.793-4.5857 9.3867-9.0204 18.433-13.419 27.496-0.65094 1.3412-1.1878 2.7454-1.6804 4.1545-1.8107 5.1794-0.50906 7.9154 4.9389 8.2114 7.0948 0.38525 14.25 0.029236 21.352-0.43243 1.3414-0.087098 3.02-1.9258 3.7366-3.3595 1.9987-3.9985 3.7039-8.1595 5.286-12.347 2.3973-6.3444 4.5928-12.765 7.0567-19.417 3.3181-1.9877 6.4533-3.7117 9.5886-5.4357-0.26227 2.5782 0.036804 5.3797-0.88467 7.6956-3.841 9.6539-7.7403 19.31-12.231 28.671-3.0171 6.2892-7.0823 12.073-10.636 18.109-1.2233 2.0773-2.3191 4.2297-3.9062 6.1494-0.40332-1.8774-0.82904-3.7333-0.25888-5.2026 1.7636-4.545 0.92841-6.2684-3.9828-6.0123-8.6865 0.45288-17.376 1.0974-26.009 2.1246-1.6725 0.19898-4.0353 2.262-4.4729 3.8956-2.3453 8.7562-4.6674 17.572-6.0738 26.513-1.8372 11.679-2.7462 23.502-4.2066 35.245-0.31647 2.5448-1.6289 4.9747-1.88 7.517-0.90424 9.1558-1.5446 18.338-2.3038 27.508-0.080994 0.97858-0.25632 1.9528-0.44168 2.9188-1.0995 5.7291-2.5522 11.415-3.2444 17.192-0.99228 8.2827-1.4326 16.632-2.1124 24.952-0.026917 0.32953-0.07898 0.65863-0.1431 0.98315-1.3172 6.6664-3.0628 13.282-3.8552 20.01-1.1079 9.4073-1.3915 18.909-2.2563 28.349-0.41559 4.5363-0.97031 9.1265-2.1341 13.514-2.7387 10.325-4.5007 20.3 5.0571 28.362 0.11221 0.094665 0.12952 0.30194 0.19113 0.4566-7.4243-0.27466-14.905-0.092346-22.252-0.99365-4.4761-0.54907-6.7717-5.0704-5.5478-9.3222 5.384-18.702 7.8546-37.8 8.8458-57.209 0.84827-16.609 2.2584-33.207 4.0689-49.74 0.59116-5.3975 2.6932-10.82 5.0264-15.799 5.9736-12.747 7.7114-26.261 8.8949-40.059 1.2062-14.063 3.3236-28.046 4.7846-42.09 0.68344-6.5696 0.49243-13.231 1.196-19.798 0.5882-5.4893 1.2733-11.111 3.0087-16.309 5.8862-17.63 11.964-35.209 18.549-52.587 4.2412-11.193 9.5383-21.984 14.286-32.989 2.5136-5.8264 1.3572-9.104-4.1574-12.784-0.95728-0.63879-1.7557-1.5156-2.8612-2.5272z" fill="#6292B0"/>
<path d="m307.45 873.76c-0.4375-0.063965-0.4548-0.27124-0.56702-0.36591-9.5577-8.0621-7.7958-18.037-5.0571-28.362 1.1638-4.3876 1.7185-8.9778 2.1341-13.514 0.86484-9.4402 1.1484-18.942 2.2563-28.349 0.79236-6.728 2.538-13.344 3.8552-20.01 0.064117-0.32452 0.11618-0.65362 0.1431-0.98315 0.67978-8.3203 1.1201-16.669 2.1124-24.952 0.69214-5.7771 2.1448-11.463 3.2444-17.192 0.18536-0.966 0.36069-1.9402 0.44168-2.9188 0.75922-9.1704 1.3996-18.352 2.3038-27.508 0.2511-2.5423 1.5635-4.9722 1.88-7.517 1.4604-11.742 2.3694-23.565 4.2066-35.245 1.4064-8.9407 3.7285-17.757 6.0738-26.513 0.43756-1.6336 2.8004-3.6967 4.4729-3.8956 8.633-1.0273 17.322-1.6718 26.009-2.1246 4.9112-0.2561 5.7464 1.4673 3.9828 6.0123-0.57016 1.4694-0.14444 3.3252-0.056854 5.3723-2.8846 12.19-6.0767 23.968-8.8286 35.848-2.2172 9.5715-4.132 19.228-5.7347 28.921-0.90659 5.4825-1.1476 11.108-1.2802 16.679-0.3775 15.866-1.6895 31.579-4.8759 47.19-1.8166 8.8997-2.0972 18.108-3.1989 27.161-0.50708 4.1669-1.4173 8.2834-1.9834 12.445-1.3792 10.138-2.4251 20.329-4.0767 30.421-0.99341 6.0702-0.15244 12.844-5.417 17.654-6.243 5.7037-12.728 10.956-22.039 11.746m16.109-42.558c-5.9691 7.2651-11.089-0.44116-16.686-1.5388-1.8077 6.6874 4.6433 6.175 6.959 8.9036 1.0064 1.1859 4.6819 1.8094 5.7352 0.95349 4.1982-3.4116 7.8878-7.4621 11.63-11.404 0.4602-0.48486 0.1058-1.7431 0.12894-2.6429-1.011 0.10522-2.3515-0.16034-2.9687 0.388-1.5926 1.4155-2.8654 3.1906-4.7987 5.3411z" fill="#152127"/>
<path d="m598.7 177.1c-10.15 5.9548-20.57 12.01-31.227 17.616-3.6848 1.9387-5.7839 4.2243-5.5635 8.8078-9.2844 0.33817-15.782 4.6881-19.92 13.221-3.7083 2.6433-7.3753 4.9283-11.365 7.2933-3.6926-4.7177-9.2368-4.0272-12.217 1.2967-1.1539-7.2713-1.8903-14.332-2.9169-21.35-0.13843-0.94621-1.7364-1.6789-2.6634-2.9126 1.1161-6.2091 2.2382-12.016 3.3573-17.823 0.91016-4.7227 1.8168-9.446 3.077-14.225 6.767-4.1891 9.8622-11.441 8.3948-18.609-0.65326-3.1913-1.0834-6.4283-1.3198-9.4685 5.9114 4.1621 11.599 8.0518 17.123 12.162 5.3124 3.9528 11.286 3.2402 17.122 2.4687 4.6871-0.61958 4.6825-5.3922 6.3068-8.6542 0.20599-0.41368 0.62274-0.72238 0.94183-1.0797 6.0175 7.5195 11.69 15.356 18.196 22.427 3.335 3.6247 8.1586 5.8799 12.673 8.8298z" fill="#B77A55"/>
<path d="m567.86 145.41c-0.34296 0.7913-0.7597 1.1-0.9657 1.5137-1.6243 3.262-1.6198 8.0346-6.3068 8.6542-5.8363 0.7715-11.81 1.4841-17.122-2.4687-5.524-4.1102-11.212-7.9999-17.163-12.498-2.2708-3.395-4.3604-6.1881-6.1091-9.1803-3.2865-5.6231-8.2581-8.4761-13.291-7.34-4.9799 1.124-7.451 4.7927-8.2652 11.795-2.9363 3.2888-5.5132 6.5204-8.4677 9.796-2.8415 0.44403-5.3053 0.84401-7.7692 1.244 2.2388-11.803 7.7089-21.729 17.875-28.371 7.3095-4.7756 15.568-3.5337 23.569-1.8507 4.8063 1.011 9.5248 3.6246 14.253 3.552 7.427-0.11398 14.828-1.8876 22.582-3.1384 1.3314 1.2218 2.6205 2.5013 3.2543 4.0491 1.7109 4.1781 3.7123 8.3673 4.5059 12.75 0.6405 3.537-0.30988 7.3621-0.57837 11.493z" fill="#050407"/>
<path d="m512.84 201.48c0.92218 0.83157 2.5202 1.5643 2.6586 2.5105 1.0266 7.0183 1.7629 14.079 2.6503 21.582-3.7115 7.1564-5.2891 8.1463-15.52 5.1332-17.699-5.2125-32.275-14.873-40.156-32.365-1.114-2.4724-0.54364-5.7036-0.32117-9.0764 1.8284-2.1145 3.3231-3.6631 4.5982-5.3752 1.8398-2.4701 3.6673-4.7808 7.39-3.5364 0.74179 1.1012 1.3625 1.9205 2.0828 3.0511 2.919 3.5369 6.5287 6.3692 8.3745 10.079 2.8352 5.6984 7.1192 8.113 12.995 8.4041 3.8098 0.18874 7.6391-0.018647 11.841-0.022904 1.3898-0.11113 2.3981-0.24791 3.4063-0.38469z" fill="#408571"/>
<path d="m492.07 408.35c1.321-3.8509 2.5504-7.5674 4.4203-10.927 1.7756-3.1904 4.6789-5.0795 9.0652-4.3699 1.3602 7.0033 2.616 14 3.2099 21.052 1.8064 21.45 3.3635 42.921 5.0029 64.385 0.37848 4.9543 0.49072 9.9388 1.0999 14.863 0.67859 5.4854-0.68341 9.366-6.6412 10.519-1.7683 0.3421-3.5287 0.72556-5.69 1.0666-0.76697-0.7388-1.4112-1.4343-1.4649-2.1727-0.73773-10.149-1.3875-20.304-2.072-30.456-0.99387-14.74-2.0966-29.474-2.9474-44.223-0.3158-5.474-0.068573-10.982-0.044465-16.474 0.011567-2.6305-0.67111-4.2876-3.9383-3.2619z" fill="#F46A0D"/>
<path d="m332.84 487.56c-0.039154 2.1881-0.004242 4.2757-0.74142 6.0409-2.8981 6.9387-2.1548 13.875-0.36584 21.278-12.626-3.2514-25.356-6.9097-38.806-10.775 1.0741-5.1207 1.7065-9.3702 2.9897-13.413 0.33374-1.0515 2.6707-1.9985 4.1356-2.075 10.829-0.56546 21.67-0.89859 32.788-1.0562z" fill="#6393B1"/>
<path d="m356.16 585.69c0.48966-4.1676 0.64948-8.4171 1.6513-12.458 0.34164-1.3777 2.8002-2.2305 5.0116-3.2742 4.2002 2.7939 7.6804 5.5389 11.447 8.537 2.3764 0.068176 4.793 0.49396 6.4955-0.41608 5.1941-2.7762 10.113-6.0668 15.453-9.2579 1.2397-0.70532 2.1657-1.31 3.0917-1.9147 0.82898 0.067261 1.658 0.13446 2.901 0.28461-2.7223 5.7577-5.8586 11.432-9.1744 17.406-3.3148 2.0227-6.4501 3.7467-10.124 5.8809-14.339 7.443-14.72 7.3788-25.659-3.7772-0.34705-0.35394-0.72803-0.67456-1.0932-1.0107z" fill="#ED9735"/>
<path d="m474.02 180.07c-3.6016-0.96248-5.4292 1.3483-7.2689 3.8183-1.2751 1.7121-2.7698 3.2607-4.489 5.0017-2.6406-3.6445-4.9587-7.4084-7.4726-11.479 3.7077-5.6432 7.1519-11.411 11.641-16.199 4.7144-5.0288 10.429-9.1195 15.84-13.952 2.5969-0.73166 5.0607-1.1316 8.035-1.2153-2.1093 4.8989-4.9687 9.3637-7.2903 14.093-3.2106 6.5398-6.0161 13.278-8.9951 19.932z" fill="#B77C59"/>
<path d="m454.78 932.99c-4.0244-0.10388-7.9435-0.63446-11.874-1.0526-7.057-0.75043-14.207-0.97589-21.158-2.2755-6.7243-1.2571-11.191-6.0708-14.357-11.97-1.6075-2.9946-2.968-6.1218-4.6485-9.623 0.96045 0.11475 1.7603 0.001526 2.3331 0.30994 9.3812 5.0519 18.459 10.787 28.187 15.035 6.8273 2.9811 14.533 3.9509 22.268 5.6919 0.064514 1.085-0.29236 2.2969-0.74927 3.8848z" fill="#AFB2CC"/>
<path d="m743.94 949.98c11.421-6.6713 22.841-13.343 34.61-20.081 1.3655 1.4878 2.3828 3.0428 3.3619 4.954-3.148-2.7645-5.131-0.56-7.7483 2.0179-5.3207 2.7398-9.8167 5.6407-14.65 7.7801-5.0032 2.2147-9.1754 7.1436-15.574 5.3291z" fill="#C9CAD7"/>
<path d="m785.04 937.36c-0.63892-0.032836-1.3127-0.37897-2.06-1.0135 0.6261 0.041076 1.3257 0.3706 2.06 1.0135z" fill="#C9CAD7"/>
<path d="m789.04 940.38c-0.62982-0.049744-1.2913-0.41119-2.0233-1.059 0.61688 0.058227 1.3043 0.40283 2.0233 1.059z" fill="#C9CAD7"/>
<path d="m793.03 943.42c-0.63934-0.048401-1.3093-0.414-2.0525-1.0683 0.62512 0.057861 1.3235 0.40448 2.0525 1.0683z" fill="#C9CAD7"/>
<path d="m797.03 946.42c-0.64954-0.03656-1.3313-0.39441-2.0906-1.0442 0.63446 0.046387 1.3464 0.3847 2.0906 1.0442z" fill="#C9CAD7"/>
<path d="m801.03 949.42c-0.64307-0.04187-1.3173-0.40265-2.0689-1.0533 0.62762 0.051514 1.3328 0.393 2.0689 1.0533z" fill="#C9CAD7"/>
<path d="m805.05 952.47c-0.64252-0.056885-1.3211-0.43597-2.0776-1.1073 0.62854 0.066834 1.335 0.4259 2.0776 1.1073z" fill="#C9CAD7"/>
<path d="m743.57 949.99c6.7684 1.8118 10.941-3.1171 15.944-5.3318 4.8331-2.1393 9.3291-5.0403 14.347-7.6155-4.591 5.6642-9.4056 11.478-14.556 16.978-7.9542 8.4943-17.841 8.6925-28.271 6.0276-2.3481-0.59991-4.7278-1.0768-6.8243-1.5497 6.3212-2.8311 12.656-5.6683 19.36-8.5083z" fill="#B6B9CF"/>
<path d="m461.02 409c2.3719 0.20868 4.2482 1.1379 1.8192 2.7819-2.1449 1.4518-5.1454 1.6393-7.7681 2.3851-0.2926-0.75687-0.58517-1.5138-0.87778-2.2707 2.1456-0.9661 4.2913-1.9322 6.8266-2.8963z" fill="#9E624E"/>
<path d="m373.99 578.25c-3.4802-2.745-6.9603-5.49-10.793-8.3574 1.4427-5.3926 2.9662-10.776 5.0977-15.906 2.9827-7.1793 6.5291-14.122 9.6259-21.257 2.5475-5.8688 6.3237-9.3665 13.206-9.1006 4.6055 0.17786 9.2572-0.85803 13.864-0.68878 5.9652 0.21918 7.923 3.1635 5.9999 8.7236-3.708 10.72-7.6714 21.352-11.485 32.036-0.26898 0.75354-0.1774 1.6359-0.22116 2.8366-0.89374 0.98285-1.8198 1.5875-3.4738 2.283-2.11 0.090942-3.4919 0.091126-4.7216-0.29187 0.40869-0.86951 0.66513-1.3558 0.96964-2.071-0.34622-0.6192-0.74057-1.0093-1.1148-1.4266 0.020141-0.027221 0.03305 0.039246-0.093567-0.28247-0.47629-0.92444-0.82599-1.527-0.93402-2.3502 1.5554-1.5844 2.8691-2.9482 4.1829-4.3121-0.32614-0.45471-0.65225-0.90942-0.97839-1.3641-1.5202 0.35175-3.2605 0.34735-4.5179 1.1243-3.3114 2.0462-5.8496 1.9465-8.8048-0.96674-2.636-2.5984-4.3555-1.3436-5.0887 3.3176-0.7446 1.3691-1.2287 2.5548-2.013 3.8838-4.1909 5.0949-4.1699 5.1797 2.3492 11.406-0.39081 1.1387-0.72305 1.9514-1.0554 2.7642m15.18-23.508c2.6524-1.579 5.3048-3.1581 8.3991-5.0002-1.357-0.91327-1.6044-1.1686-1.9009-1.2543-0.29529-0.085205-0.7041-0.11334-0.95316 0.02771-4.2602 2.4128-8.488 6.0003-12.746-0.09314-0.24359-0.34857-1.7299-0.28229-2.1991 0.11237-0.43884 0.36908-0.56915 1.5206-0.35925 2.175 1.0205 3.1815 5.7794 5.3985 9.7596 4.0325z" fill="#172127"/>
<path d="m356 586.03c0.52771 0.001099 0.90869 0.32172 1.2557 0.67566 10.939 11.156 11.32 11.22 25.477 4.0409-1.9252 6.2418-4.1207 12.662-6.518 19.007-1.5821 4.1871-3.2873 8.3481-5.286 12.347-0.71661 1.4337-2.3952 3.2724-3.7366 3.3595-7.1019 0.46167-14.258 0.81769-21.352 0.43243-5.448-0.29596-6.7496-3.0319-4.9389-8.2114 0.49258-1.4091 1.0295-2.8132 1.6804-4.1545 4.3988-9.0635 8.8335-18.109 13.419-27.496m-11.156 32.448c-0.5889 3.7234 2.2585 4.2299 4.6421 4.2849 5.2875 0.12219 10.605-0.034851 15.871-0.50793 2.0929-0.18811 4.0835-1.5149 6.1207-2.3233 0.24988-0.59992 0.49976-1.1998 0.7496-1.7997-0.91223-0.38458-1.8321-1.1186-2.7355-1.0989-8.0255 0.1745-16.048 0.48236-24.648 1.445m29.066-14.093c-5.8456-0.37866-11.69-0.86682-17.54-0.95526-0.54523-0.008239-1.1287 2.5146-1.9422 4.4528 5.9794 0 11.063 0.15955 16.121-0.1217 1.1441-0.063537 2.203-1.6602 3.3606-3.3758z" fill="#1E2629"/>
<path d="m323.83 830.94c1.6669-1.8909 2.9397-3.6661 4.5323-5.0815 0.61713-0.54834 1.9577-0.28278 2.9687-0.38806-0.023133 0.89984 0.33127 2.1581-0.12894 2.6429-3.7426 3.9424-7.4323 7.9929-11.63 11.404-1.0533 0.85596-4.7288 0.23242-5.7352-0.95349-2.3157-2.7286-8.7667-2.2162-6.959-8.9036 5.597 1.0976 10.717 8.8038 16.953 1.2792z" fill="#BD9D5F"/>
<path d="m499 135.83c0.4549-6.9446 2.926-10.613 7.9059-11.737 5.033-1.136 10.005 1.717 13.291 7.34 1.7488 2.9922 3.8383 5.7853 5.814 9.0043 0.57147 3.5523 1.0016 6.7893 1.6549 9.9806 1.4674 7.1681-1.6278 14.42-8.7013 18.606-1.0676 0.057235-1.4764 0.06224-2.1655-0.1413-3.1276-6.8043-5.6489-13.57-8.9629-19.923-1.6046-3.0757-4.6964-5.3754-7.0362-8.3833-0.54748-1.8199-1.1737-3.283-1.7999-4.7461m21.074 21.973c3.2181-2.3528 1.9548-5.1419 0.85565-7.9882-0.75238-1.9484-1.268-3.987-1.9355-5.9698-1.0298-3.059-1.4602-6.6185-3.3636-8.9856-1.3983-1.7389-4.9659-2.9478-7.1671-2.4864-2.2191 0.46518-3.945 3.2832-6.658 5.7798 3.9347 0.65109 6.6035 0.31641 8.0734 1.487 3.8278 3.0484 5.5688 7.4905 4.5321 12.356-0.94196 4.4215 0.13647 6.477 5.663 5.8068z" fill="#9E624E"/>
<path d="m517.07 169.09c0.40887-0.00499 0.81775-0.009995 1.5331-0.011505-0.60162 4.7265-1.5082 9.4499-2.4184 14.173-1.1191 5.8073-2.2412 11.614-3.3573 17.823-1.0035 0.5389-2.0118 0.67567-3.423 0.39131 0.31427-3.6268 0.94733-6.854 1.7656-10.034 1.9195-7.4594 3.9277-14.896 5.9-22.342z" fill="#D3CBC3"/>
<path d="m498.64 135.89c0.98554 1.4059 1.6118 2.869 1.8302 4.7374-1.7363 1.5962-3.5561 2.5352-4.3157 4.0175-6.1134 11.929-12.013 23.967-18.029 35.946-0.46887 0.93359-1.3251 1.6726-2.0013 2.5021-0.6207-0.81926-1.2414-1.6385-1.9832-2.7397 2.8579-6.9355 5.6634-13.674 8.8741-20.214 2.3215-4.7289 5.181-9.1936 7.6678-14.137 2.4442-3.592 5.0211-6.8236 7.9574-10.112z" fill="#D7D2CF"/>
<path d="m476.22 183.4c0.5766-1.1408 1.4328-1.8799 1.9017-2.8135 6.0161-11.979 11.916-24.017 18.029-35.946 0.75967-1.4823 2.5794-2.4214 4.237-3.6607 2.7476 2.6025 5.8394 4.9023 7.444 7.9779 3.3139 6.3524 5.8353 13.118 8.9629 19.923-1.6921 7.6543-3.7003 15.091-5.6198 22.55-0.81824 3.1796-1.4513 6.4069-2.1471 10.008-3.7992 0.42538-7.6286 0.63277-11.438 0.44403-5.8758-0.29105-10.16-2.7057-12.995-8.4041-1.8458-3.7099-5.4555-6.5423-8.3745-10.079z" fill="#B77B56"/>
<path d="m390.93 568.91c1.3819-1.83e-4 2.7638-3.67e-4 4.5602 0.009399-4.6117 3.1003-9.5308 6.3909-14.725 9.1671-1.7026 0.91004-4.1191 0.48425-6.4955 0.41608 0.045929-1.0659 0.37817-1.8787 1.1239-3.0492 7.0694 1.5288 11.136-2.9152 15.536-6.5433z" fill="#694B2A"/>
<path d="m391.09 568.52c-4.5526 4.0114-8.6192 8.4553-15.63 6.6005-6.9326-5.8683-6.9536-5.9531-2.4566-10.891 6.0287 8.0842 11.997 4.5597 17.975 0.83179 0 0-0.012909-0.066467 0.10074 0.26331 0.38675 0.6709 0.65982 1.012 0.93289 1.3531-0.25638 0.48627-0.51282 0.97253-0.92151 1.842z" fill="#C5BDB5"/>
<path d="m374.97 560.01c0.47266-4.478 2.1922-5.7328 4.8281-3.1343 2.9552 2.9132 5.4934 3.0129 8.8048 0.96674 1.2574-0.77698 2.9977-0.77258 4.5179-1.1243 0.32614 0.45471 0.65225 0.90942 0.97839 1.3641-1.3138 1.3639-2.6275 2.7278-4.5398 4.3986-8.1307 3.8041-8.1307 3.8041-14.589-2.4708z" fill="#C5BDB5"/>
<path d="m388.82 554.9c-3.6367 1.2073-8.3956-1.0098-9.4161-4.1912-0.2099-0.65442-0.07959-1.806 0.35925-2.175 0.46927-0.39465 1.9555-0.46094 2.1991-0.11237 4.2583 6.0934 8.4861 2.506 12.746 0.09314 0.24905-0.14105 0.65787-0.11292 0.95316-0.02771 0.29648 0.085632 0.54392 0.341 1.9009 1.2543-3.0943 1.8422-5.7467 3.4212-8.7426 5.1589z" fill="#B2AEA9"/>
<path d="m374.71 560.19c6.7193 6.0917 6.7193 6.0917 14.608 2.508 0.7066 0.51617 1.0563 1.1188 1.5326 2.0432-5.8511 4.0496-11.819 7.5742-17.548-0.65332 0.17795-1.3431 0.66202-2.5288 1.4066-3.8979z" fill="#393F41"/>
<path d="m392.06 566.45c-0.3212-0.11206-0.59427-0.45319-1.0011-1.0969 0.26056 0.087586 0.65491 0.47766 1.0011 1.0969z" fill="#393F41"/>
<path d="m345.13 618.13c8.3117-0.6156 16.334-0.92346 24.36-1.098 0.90341-0.019653 1.8232 0.71436 2.7355 1.0989-0.24985 0.59991-0.49973 1.1998-0.7496 1.7997-2.0372 0.80841-4.0278 2.1352-6.1207 2.3233-5.2665 0.47308-10.584 0.63013-15.871 0.50793-2.3836-0.054992-5.231-0.56152-4.3538-4.632z" fill="#D3CBC3"/>
<path d="m373.88 604.8c-1.1279 1.3033-2.1867 2.9-3.3309 2.9635-5.0587 0.28125-10.142 0.1217-16.121 0.1217 0.81357-1.9381 1.397-4.461 1.9422-4.4528 5.85 0.08844 11.694 0.5766 17.51 1.3676z" fill="#D3CBC3"/>
<path d="m519.66 157.88c-5.1158 0.59224-6.1943-1.4633-5.2523-5.8848 1.0367-4.8659-0.70428-9.308-4.5321-12.356-1.47-1.1706-4.1387-0.83595-8.0734-1.487 2.713-2.4966 4.4389-5.3146 6.658-5.7798 2.2012-0.4614 5.7688 0.74751 7.1671 2.4864 1.9034 2.3671 2.3338 5.9266 3.3636 8.9856 0.66748 1.9828 1.1831 4.0214 1.9355 5.9698 1.0992 2.8463 2.3625 5.6354-1.2664 8.0661z" fill="#885141"/>
</svg>
